<?xml version="1.0" encoding="UTF-8"?>
<svg id="Layer_1" xmlns="http://www.w3.org/2000/svg" version="1.1" viewBox="0 0 1920 1080">
  <!-- Generator: Adobe Illustrator 29.8.2, SVG Export Plug-In . SVG Version: 2.1.1 Build 3)  -->
  <defs>
    <style>
      .st0 {
        font-family: ArialMT, Arial;
        font-size: 48px;
      }

      .st0, .st1, .st2, .st3, .st4, .st5, .st6, .st7 {
        isolation: isolate;
      }

      .st1 {
        font-family: 0xProtoNFM-Bold, '0xProto Nerd Font Mono';
        font-size: 36px;
      }

      .st1, .st7 {
        font-weight: 700;
      }

      .st8 {
        fill: #533747;
      }

      .st8, .st9, .st10, .st11, .st12, .st13, .st14, .st15 {
        stroke-miterlimit: 10;
      }

      .st8, .st9, .st10, .st11, .st12, .st14 {
        stroke-width: 4px;
      }

      .st8, .st9, .st10, .st11, .st12, .st14, .st15 {
        stroke: #000;
      }

      .st9, .st6 {
        fill: #0b3c49;
      }

      .st10 {
        fill: #f9c784;
      }

      .st16, .st3, .st4, .st5 {
        fill: #fff;
      }

      .st3 {
        font-size: 49px;
      }

      .st3, .st4, .st5, .st6 {
        font-family: 0xProtoNFM-Regular, '0xProto Nerd Font Mono';
      }

      .st11 {
        fill: #6eb4d1;
      }

      .st12 {
        fill: #0a210f;
      }

      .st4 {
        font-size: 52.3px;
      }

      .st5, .st6 {
        font-size: 51.7px;
      }

      .st13 {
        stroke: #14591d;
        stroke-dasharray: 12.04 12.04;
        stroke-width: 12px;
      }

      .st13, .st15 {
        fill: none;
      }

      .st14 {
        fill: #f24c00;
      }

      .st15 {
        stroke-width: 5px;
      }

      .st7 {
        font-family: Arial-BoldMT, Arial;
        font-size: 60px;
      }
    </style>
  </defs>
  <g>
    <rect class="st14" x="223.03" y="826.24" width="632.59" height="95.85" rx="43.99" ry="43.99"/>
    <g class="st2">
      <text class="st5" transform="translate(264.81 894.5) scale(.8 1)"><tspan x="0" y="0">Command Line Arguments</tspan></text>
    </g>
  </g>
  <g>
    <rect class="st10" x="223.03" y="697.14" width="632.59" height="95.85" rx="43.99" ry="43.99"/>
    <g class="st2">
      <text class="st6" transform="translate(340.5 760.69) scale(.75 1)"><tspan x="0" y="0">Environment Variables</tspan></text>
    </g>
  </g>
  <g>
    <rect class="st8" x="223.03" y="317.47" width="632.59" height="95.85" rx="43.99" ry="43.99"/>
    <g class="st2">
      <text class="st5" transform="translate(328.55 385.73) scale(.8 1)"><tspan x="0" y="0">Function Defaults</tspan></text>
    </g>
  </g>
  <g>
    <rect class="st11" x="223.03" y="570.59" width="632.59" height="95.85" rx="43.99" ry="43.99"/>
    <g class="st2">
      <text class="st4" transform="translate(435.77 638.84) scale(.77 1)"><tspan x="0" y="0">YAML File</tspan></text>
    </g>
  </g>
  <g>
    <rect class="st9" x="223.03" y="444.03" width="632.59" height="95.85" rx="43.99" ry="43.99"/>
    <g class="st2">
      <text class="st4" transform="translate(432.98 506.76) scale(.77 1)"><tspan x="0" y="0">JSON File</tspan></text>
    </g>
  </g>
  <g>
    <rect class="st12" x="1070.48" y="64.22" width="632.59" height="111.92" rx="43.99" ry="43.99"/>
    <g class="st2">
      <text class="st3" transform="translate(1205.73 133.46) scale(.58 1)"><tspan x="0" y="0">Developer-Provided Arguments</tspan></text>
    </g>
  </g>
  <g>
    <path class="st16" d="M180.52,365.4c-35.82,6.74-61.45,31.1-62.5,58.99-1.1,29.19,24.98,55.56,62.5,62.65"/>
    <g>
      <path class="st15" d="M180.52,365.4c-35.82,6.74-61.45,31.1-62.5,58.99-.63,16.8,7.73,32.66,22.1,44.45"/>
      <polygon points="125.42 476.41 180.52 487.04 138.12 450.28 125.42 476.41"/>
    </g>
  </g>
  <g>
    <path class="st16" d="M180.52,501.5c-33.83,5.79-59,26.97-62.53,51.81-4.14,29.12,22.25,57.9,62.53,65.21"/>
    <g>
      <path class="st15" d="M180.52,501.5c-33.83,5.79-59,26.97-62.53,51.81-2.48,17.47,6.02,34.82,21.92,47.48"/>
      <polygon points="125.29 608.57 180.52 618.51 137.66 582.29 125.29 608.57"/>
    </g>
  </g>
  <g>
    <path class="st16" d="M180.52,634.26c-35.82,6.74-61.45,31.1-62.5,58.99-1.1,29.19,24.98,55.56,62.5,62.65"/>
    <g>
      <path class="st15" d="M180.52,634.26c-35.82,6.74-61.45,31.1-62.5,58.99-.63,16.8,7.73,32.66,22.1,44.45"/>
      <polygon points="125.42 745.26 180.52 755.89 138.12 719.13 125.42 745.26"/>
    </g>
  </g>
  <g>
    <path class="st16" d="M180.52,770.35c-33.83,5.79-59,26.97-62.53,51.81-4.14,29.12,22.25,57.9,62.53,65.21"/>
    <g>
      <path class="st15" d="M180.52,770.35c-33.83,5.79-59,26.97-62.53,51.81-2.48,17.47,6.02,34.82,21.92,47.48"/>
      <polygon points="125.29 877.43 180.52 887.37 137.66 851.14 125.29 877.43"/>
    </g>
  </g>
  <g class="st2">
    <text class="st0" transform="translate(59.39 739.65) rotate(-90) scale(.87 1)"><tspan x="0" y="0">Overwritten by</tspan></text>
  </g>
  <rect class="st13" x="916.91" y="33" width="939.73" height="1005.98" rx="107.04" ry="107.04"/>
  <g class="st2">
    <text class="st1" transform="translate(1203.28 1002)"><tspan x="0" y="0">argmerge.threshold</tspan></text>
  </g>
  <g>
    <line class="st15" x1="855.63" y1="365.4" x2="1060.42" y2="365.4"/>
    <polygon points="1095.72 365.4 1045.97 385.73 1057.78 365.4 1045.97 345.08 1095.72 365.4"/>
  </g>
  <rect class="st15" x="1139.45" y="322.67" width="494.65" height="591.69"/>
  <line class="st15" x1="1194.55" y1="429.46" x2="1579.01" y2="429.46"/>
  <g>
    <path d="M1204.64,381.08h-3.96l1.3-5.29h-2.41v-4h3.38l1.55-6.52h-2.56v-4h3.53l1.4-5.76h3.96l-1.4,5.76h2.88l1.4-5.76h3.96l-1.4,5.76h2.16v4h-3.13l-1.55,6.52h2.45v4h-3.42l-1.3,5.29h-3.96l1.3-5.29h-2.88l-1.3,5.29h0ZM1206.9,371.79h2.88l1.55-6.52h-2.88l-1.55,6.52Z"/>
    <path d="M1239.81,388.82v-4.03h5.33c1.66,0,2.75-.28,3.28-.85.53-.56.79-1.42.79-2.57v-2.23c-.67.62-1.35,1.1-2.03,1.42s-1.59.47-2.72.45c-1.08-.02-2.12-.3-3.11-.83-1-.53-1.8-1.37-2.41-2.54-.61-1.16-.92-2.71-.92-4.63l.07-8.78-2.48-.32v-2.45h6.95v10.33c0,1.61.2,2.79.61,3.55.41.76,1.08,1.13,2.02,1.13,1.34,0,2.62-.68,3.82-2.05v-13.14h4.64v19.98c0,1.75-.21,3.19-.63,4.3-.42,1.12-1.16,1.94-2.21,2.47-1.06.53-2.54.79-4.46.79h-6.54Z"/>
    <path d="M1267.38,381.66c-2.95,0-5.22-.95-6.8-2.84-1.58-1.9-2.38-4.44-2.38-7.63,0-2.14.35-3.98,1.06-5.54s1.75-2.77,3.11-3.64c1.37-.86,3.04-1.3,5-1.3,2.98,0,5.25.95,6.82,2.84,1.57,1.9,2.36,4.44,2.36,7.63s-.79,5.74-2.38,7.63c-1.58,1.9-3.85,2.84-6.8,2.84h.01ZM1267.38,377.16c1.49,0,2.57-.57,3.24-1.71.67-1.14,1.01-2.56,1.01-4.27s-.34-3.12-1.01-4.25-1.75-1.69-3.24-1.69-2.57.56-3.26,1.69c-.68,1.13-1.03,2.54-1.03,4.25s.34,3.13,1.03,4.27c.68,1.14,1.77,1.71,3.26,1.71Z"/>
    <path d="M1287.62,381.66c-1.25-.02-2.41-.32-3.47-.9-1.07-.58-1.93-1.47-2.57-2.68-.65-1.21-.97-2.75-.97-4.63v-12.17h5v11.09c0,1.82.33,3.1.99,3.82s1.41,1.08,2.25,1.08c.7,0,1.42-.17,2.16-.52.74-.35,1.44-.86,2.09-1.53v-13.93h4.97v14.11c0,.91.08,1.52.23,1.84.16.31.49.49.99.54v3.6c-1.3.07-2.41-.08-3.35-.45-.94-.37-1.62-.93-2.05-1.67-.82.74-1.73,1.34-2.74,1.78s-2.18.65-3.53.63h0Z"/>
    <path d="M1303.2,381.08v-4.28h3.49v-13.25l-2.66-.47v-2.09h6.34l.72,2.12c.77-.72,1.62-1.31,2.56-1.76.94-.46,1.92-.67,2.95-.65,1.2.02,2.2.29,3.01.79.8.5,1.51,1.08,2.11,1.73l-3.17,3.35c-.36-.41-.78-.75-1.26-1.03s-1-.41-1.55-.41c-.74,0-1.48.19-2.21.58-.73.38-1.43.91-2.11,1.58v9.5h7.2v4.28h-15.42Z"/>
    <path d="M1343.38,381.05v4.75h-18.07v-4.75h18.07Z"/>
    <path d="M1349.07,388.17v-24.62l-2.77-.47v-2.09h6.37l.65,1.84c.62-.62,1.37-1.13,2.25-1.53s1.82-.59,2.83-.59c1.7,0,3.16.4,4.37,1.21,1.21.8,2.12,1.96,2.72,3.46s.82,3.31.65,5.42c-.14,2.09-.64,3.9-1.49,5.44s-1.93,2.73-3.24,3.58c-1.31.85-2.75,1.28-4.34,1.28-.7,0-1.35-.13-1.96-.4-.61-.26-1.11-.53-1.49-.79v8.28h-4.54v-.02ZM1356.7,376.94c1.39,0,2.51-.55,3.35-1.66.84-1.1,1.34-2.6,1.51-4.5.14-1.78-.08-3.19-.68-4.23-.6-1.04-1.61-1.57-3.02-1.57-.84,0-1.64.27-2.41.81s-1.38,1.27-1.84,2.18v6.84c.29.65.7,1.16,1.22,1.55.53.38,1.15.58,1.87.58h0Z"/>
    <path d="M1370.16,381.08v-4.28h3.49v-13.25l-2.66-.47v-2.09h6.34l.72,2.12c.77-.72,1.62-1.31,2.56-1.76.94-.46,1.92-.67,2.95-.65,1.2.02,2.2.29,3.01.79.8.5,1.51,1.08,2.11,1.73l-3.17,3.35c-.36-.41-.78-.75-1.26-1.03s-1-.41-1.55-.41c-.74,0-1.48.19-2.21.58-.73.38-1.43.91-2.11,1.58v9.5h7.2v4.28h-15.42Z"/>
    <path d="M1401.3,381.66c-2.95,0-5.22-.95-6.8-2.84-1.58-1.9-2.38-4.44-2.38-7.63,0-2.14.35-3.98,1.06-5.54s1.75-2.77,3.11-3.64c1.37-.86,3.04-1.3,5-1.3,2.98,0,5.25.95,6.82,2.84,1.57,1.9,2.36,4.44,2.36,7.63s-.79,5.74-2.38,7.63c-1.58,1.9-3.85,2.84-6.8,2.84h.01ZM1401.3,377.16c1.49,0,2.57-.57,3.24-1.71.67-1.14,1.01-2.56,1.01-4.27s-.34-3.12-1.01-4.25-1.75-1.69-3.24-1.69-2.57.56-3.26,1.69c-.68,1.13-1.03,2.54-1.03,4.25s.34,3.13,1.03,4.27c.68,1.14,1.77,1.71,3.26,1.71Z"/>
    <path d="M1417.61,382.06c.74.96,1.62,1.61,2.63,1.96s2.1.55,3.28.59c1.63.07,2.86-.08,3.67-.47.82-.38,1.22-.86,1.22-1.44,0-.65-.32-1.11-.95-1.39-.64-.28-1.57-.41-2.79-.41h-2.27c-2.11,0-3.84-.34-5.18-1.01-1.34-.67-2.02-1.67-2.02-2.99,0-.84.25-1.55.74-2.14.49-.59,1.15-1.07,1.96-1.46-.82-.48-1.49-1.19-2.03-2.12s-.81-2.03-.81-3.28c0-1.37.35-2.6,1.04-3.69.7-1.09,1.66-1.95,2.9-2.57s2.68-.94,4.34-.94,3.07.31,4.32.94c.46-.24.74-.7.85-1.37.11-.67.16-1.43.16-2.27h4.43c0,1.37-.2,2.56-.61,3.56-.41,1.01-1.14,1.75-2.2,2.23.86,1.18,1.28,2.54,1.26,4.1,0,1.73-.39,3.09-1.17,4.09s-1.82,1.72-3.13,2.16-2.77.71-4.37.81c-.89.05-1.63.12-2.23.22s-.9.31-.9.65.37.55,1.1.63c.73.08,1.53.13,2.39.13h1.08c2.83,0,5,.49,6.52,1.46,1.51.97,2.27,2.47,2.27,4.48,0,1.25-.32,2.36-.97,3.35-.65.98-1.65,1.76-3.01,2.34s-3.13.86-5.31.86c-4.44,0-7.69-1.66-9.76-4.97l3.56-2.05h0ZM1423.33,370.82c1.15,0,2.03-.26,2.65-.77.61-.52.91-1.22.88-2.11-.02-.89-.35-1.62-.97-2.2s-1.48-.86-2.56-.86-1.94.29-2.59.86c-.65.58-.98,1.31-1.01,2.2-.02.89.29,1.59.95,2.11.66.52,1.54.77,2.65.77Z"/>
    <path d="M1437.12,381.08v-4.28h3.49v-13.25l-2.66-.47v-2.09h6.34l.72,2.12c.77-.72,1.62-1.31,2.56-1.76.94-.46,1.92-.67,2.95-.65,1.2.02,2.2.29,3.01.79.8.5,1.51,1.08,2.11,1.73l-3.17,3.35c-.36-.41-.78-.75-1.26-1.03s-1-.41-1.55-.41c-.74,0-1.48.19-2.21.58-.73.38-1.43.91-2.11,1.58v9.5h7.2v4.28h-15.42Z"/>
    <path d="M1475.79,376.12c0,.67.1,1.17.29,1.49.19.32.62.51,1.3.56v3.2c-1.66.05-2.86-.08-3.62-.38-.76-.3-1.38-.82-1.85-1.57-.53.6-1.25,1.12-2.16,1.57s-2.02.67-3.31.67-2.52-.25-3.6-.76c-1.08-.5-1.93-1.24-2.56-2.2-.62-.96-.94-2.12-.94-3.49s.25-2.42.76-3.29c.5-.88,1.18-1.58,2.03-2.11s1.8-.92,2.84-1.17,2.1-.41,3.17-.49c1.07-.07,2.08-.08,3.04-.04v-.5c0-.82-.28-1.46-.83-1.94-.55-.48-1.45-.72-2.7-.72-.84,0-1.69.1-2.54.31-.85.2-1.7.51-2.54.92l-1.76-3.78c1.25-.58,2.52-1,3.82-1.28,1.3-.28,2.56-.41,3.78-.41.79,0,1.61.1,2.47.29.85.19,1.65.51,2.39.95s1.35,1.05,1.82,1.82c.47.77.7,1.72.7,2.84v9.5h0ZM1463.91,375.04c0,.82.32,1.47.95,1.96.64.49,1.4.73,2.29.7.98-.05,1.78-.28,2.39-.7s1.12-.97,1.53-1.64v-3.42c-.82-.05-1.64-.05-2.48,0s-1.62.18-2.32.4c-.71.22-1.28.54-1.71.97-.43.43-.65,1.01-.65,1.73h0Z"/>
    <path d="M1481.11,381.08c-.17-2.95-.25-6.14-.25-9.56s.08-6.88.25-10.39h3.35l.68,1.84c.6-.53,1.36-1.04,2.27-1.53s1.88-.74,2.92-.74c.77,0,1.4.2,1.91.61.5.41.88.9,1.12,1.48.62-.55,1.37-1.04,2.25-1.46.88-.42,1.72-.63,2.54-.63,1.2,0,2.15.38,2.84,1.13.7.76,1.08,1.84,1.15,3.26.24,5.21.2,10.54-.11,15.98h-4.75c.12-2.57.24-5.01.36-7.33.12-2.32.13-4.49.04-6.53-.02-.79-.12-1.39-.29-1.78s-.5-.59-1.01-.59c-.46,0-.91.15-1.37.45-.46.3-.83.62-1.12.95l-.07,12.06h-4.46l-.07-11.09c0-1.58-.43-2.38-1.3-2.38-.46,0-.91.16-1.37.47s-.83.62-1.12.94c-.1,2.42-.1,4.84,0,7.25s.22,4.94.36,7.58h-4.75Z"/>
    <path d="M1512.9,382.09c-.91,0-1.69-.32-2.34-.97s-.97-1.43-.97-2.34.32-1.69.97-2.34,1.43-.97,2.34-.97,1.69.32,2.34.97.97,1.43.97,2.34-.32,1.69-.97,2.34-1.43.97-2.34.97Z"/>
    <path d="M1527.63,388.17v-24.62l-2.77-.47v-2.09h6.37l.65,1.84c.62-.62,1.37-1.13,2.25-1.53s1.82-.59,2.83-.59c1.7,0,3.16.4,4.37,1.21,1.21.8,2.12,1.96,2.72,3.46s.82,3.31.65,5.42c-.14,2.09-.64,3.9-1.49,5.44s-1.93,2.73-3.24,3.58c-1.31.85-2.75,1.28-4.34,1.28-.7,0-1.35-.13-1.96-.4-.61-.26-1.11-.53-1.49-.79v8.28h-4.54v-.02ZM1535.26,376.94c1.39,0,2.51-.55,3.35-1.66.84-1.1,1.34-2.6,1.51-4.5.14-1.78-.08-3.19-.68-4.23-.6-1.04-1.61-1.57-3.02-1.57-.84,0-1.64.27-2.41.81s-1.38,1.27-1.84,2.18v6.84c.29.65.7,1.16,1.22,1.55.53.38,1.15.58,1.87.58h0Z"/>
    <path d="M1552.29,388.82v-4.03h5.33c1.66,0,2.75-.28,3.28-.85.53-.56.79-1.42.79-2.57v-2.23c-.67.62-1.35,1.1-2.03,1.42s-1.59.47-2.72.45c-1.08-.02-2.12-.3-3.11-.83-1-.53-1.8-1.37-2.41-2.54-.61-1.16-.92-2.71-.92-4.63l.07-8.78-2.48-.32v-2.45h6.95v10.33c0,1.61.2,2.79.61,3.55.41.76,1.08,1.13,2.02,1.13,1.34,0,2.62-.68,3.82-2.05v-13.14h4.64v19.98c0,1.75-.21,3.19-.63,4.3-.42,1.12-1.16,1.94-2.21,2.47-1.06.53-2.54.79-4.46.79h-6.54Z"/>
  </g>
  <line class="st15" x1="1194.55" y1="483.49" x2="1579.01" y2="483.49"/>
  <line class="st15" x1="1194.55" y1="538.73" x2="1579.01" y2="538.73"/>
  <line class="st15" x1="1194.55" y1="593.97" x2="1579.01" y2="593.97"/>
  <line class="st15" x1="1194.55" y1="648" x2="1579.01" y2="648"/>
  <line class="st15" x1="1194.55" y1="704.44" x2="1579.01" y2="704.44"/>
  <g>
    <path d="M1209.53,781.61c-1.18,0-2.09-.28-2.74-.85-.65-.56-1.13-1.17-1.44-1.82-.53.77-1.18,1.39-1.94,1.87-.77.48-1.61.72-2.52.72-1.13,0-2.06-.26-2.79-.79-.73-.53-1.3-1.24-1.71-2.12-.41-.89-.67-1.86-.79-2.92s-.14-2.11-.07-3.17c.1-1.13.31-2.24.65-3.35.34-1.1.8-2.11,1.39-3.02s1.3-1.64,2.12-2.18,1.77-.81,2.83-.81c.62,0,1.17.09,1.64.27s.88.44,1.24.77l.4-1.08,2.84.04-.58,11.63c0,1.06.11,1.81.32,2.27s.55.68,1.01.68c.65,0,1.15-.62,1.51-1.87s.49-3.4.4-6.44c-.05-2.09-.3-3.91-.76-5.47s-1.16-2.78-2.11-3.65-2.19-1.33-3.73-1.35c-1.22-.02-2.39.21-3.51.7s-2.2,1.1-3.26,1.82l-2.45-3.13c1.46-1.15,3-2.02,4.61-2.59,1.61-.58,3.17-.86,4.68-.86,2.09,0,3.82.4,5.18,1.21s2.45,1.89,3.24,3.26,1.37,2.92,1.73,4.66.56,3.53.61,5.38c.05,1.34,0,2.73-.14,4.16s-.43,2.75-.86,3.96c-.43,1.21-1.05,2.2-1.85,2.95-.8.76-1.85,1.13-3.15,1.13h0ZM1201.64,777.4c.5,0,1.01-.14,1.51-.41.5-.28.94-.63,1.3-1.06l.22-7.27c-.22-.34-.5-.61-.86-.83s-.78-.32-1.26-.32c-.67,0-1.24.27-1.71.81s-.83,1.21-1.1,2.02c-.26.8-.42,1.59-.47,2.36-.05.7-.02,1.41.09,2.14.11.73.34,1.34.7,1.84.36.49.89.74,1.58.74v-.02Z"/>
    <path d="M1230.12,781.03c-1.46,0-2.62-.32-3.47-.95-.85-.64-1.46-1.51-1.82-2.61s-.54-2.38-.54-3.82v-8.03h-5.04v-4.39h5.04v-4.64h4.86v4.64h6.95v4.39h-6.95v7.81c0,.89.19,1.62.56,2.2.37.58,1.07.86,2.11.86h4.18v4.54h-5.88Z"/>
    <path d="M1242.68,781.03v-24.44l-2.7-.47v-2.09h7.49v9.72c.91-.7,1.93-1.26,3.04-1.69,1.12-.43,2.25-.64,3.4-.61,1.63.02,2.95.51,3.96,1.46s1.51,2.61,1.51,4.99v13.14h-4.82v-11.48c0-1.34-.22-2.3-.65-2.88s-1.1-.86-2.02-.86c-.79,0-1.55.21-2.27.63s-1.43.93-2.12,1.53v13.07h-4.82v-.02Z"/>
    <path d="M1263.85,781.03v-4.28h3.49v-13.25l-2.66-.47v-2.09h6.34l.72,2.12c.77-.72,1.62-1.31,2.56-1.76.94-.46,1.92-.67,2.95-.65,1.2.02,2.2.29,3.01.79.8.5,1.51,1.08,2.11,1.73l-3.17,3.35c-.36-.41-.78-.75-1.26-1.03s-1-.41-1.55-.41c-.74,0-1.48.19-2.21.58-.73.38-1.43.91-2.11,1.58v9.5h7.2v4.28h-15.42Z"/>
    <path d="M1295.67,781.61c-1.92,0-3.64-.4-5.17-1.21s-2.72-1.98-3.6-3.53c-.88-1.55-1.31-3.44-1.31-5.67s.41-4.1,1.24-5.67,1.96-2.78,3.4-3.62c1.44-.84,3.1-1.26,4.97-1.26,1.75,0,3.24.38,4.46,1.13,1.22.76,2.18,1.76,2.86,3.02.68,1.26,1.1,2.65,1.26,4.18.16,1.52.03,3.07-.38,4.63h-12.67c.14,1.03.71,1.88,1.69,2.54s2.17.99,3.56.99c.84,0,1.69-.07,2.54-.22.85-.14,1.83-.44,2.93-.9l1.58,3.89c-1.49.67-2.79,1.12-3.91,1.35s-2.27.34-3.47.34h.02ZM1290.67,769.48h8.6c-.02-1.27-.41-2.34-1.15-3.2s-1.79-1.3-3.13-1.3-2.39.45-3.13,1.35c-.74.9-1.14,1.95-1.19,3.15Z"/>
    <path d="M1308.89,778.66l2.92-3.49c.77.58,1.66,1.06,2.68,1.44s2.01.59,2.97.61c.98.02,1.78-.11,2.39-.41s.92-.71.92-1.24c0-.48-.27-.89-.81-1.22-.54-.34-1.23-.65-2.07-.94s-1.73-.61-2.68-.97c-.95-.36-1.84-.79-2.68-1.3-.84-.5-1.53-1.15-2.07-1.93-.54-.78-.81-1.73-.81-2.86,0-1.2.37-2.22,1.12-3.06.74-.84,1.73-1.48,2.95-1.93,1.22-.44,2.56-.67,4-.67,1.3,0,2.61.21,3.94.63s2.54,1.07,3.62,1.96l-2.74,3.31c-.74-.53-1.51-.9-2.29-1.12s-1.55-.32-2.32-.32-1.51.11-2.21.32-1.07.6-1.1,1.15c0,.41.26.77.79,1.1.53.32,1.22.64,2.09.95s1.78.66,2.74,1.04,1.87.85,2.72,1.39c.85.54,1.54,1.2,2.07,1.98.53.78.78,1.72.76,2.83-.02,1.78-.74,3.16-2.16,4.16s-3.41,1.49-5.98,1.49c-1.61,0-3.2-.28-4.79-.83s-2.9-1.25-3.96-2.09v.02Z"/>
    <path d="M1331.96,781.03v-24.44l-2.7-.47v-2.09h7.49v9.72c.91-.7,1.93-1.26,3.04-1.69,1.12-.43,2.25-.64,3.4-.61,1.63.02,2.95.51,3.96,1.46s1.51,2.61,1.51,4.99v13.14h-4.82v-11.48c0-1.34-.22-2.3-.65-2.88s-1.1-.86-2.02-.86c-.79,0-1.55.21-2.27.63s-1.43.93-2.12,1.53v13.07h-4.82v-.02Z"/>
    <path d="M1361.95,781.61c-2.95,0-5.22-.95-6.8-2.84-1.58-1.9-2.38-4.44-2.38-7.63,0-2.14.35-3.98,1.06-5.54.71-1.56,1.75-2.77,3.11-3.64s3.04-1.3,5-1.3c2.98,0,5.25.95,6.82,2.84,1.57,1.9,2.36,4.44,2.36,7.63s-.79,5.74-2.38,7.63c-1.58,1.9-3.85,2.84-6.8,2.84h.01ZM1361.95,777.11c1.49,0,2.57-.57,3.24-1.71s1.01-2.56,1.01-4.27-.34-3.12-1.01-4.25-1.75-1.69-3.24-1.69-2.57.56-3.26,1.69c-.68,1.13-1.03,2.54-1.03,4.25s.34,3.13,1.03,4.27c.68,1.14,1.77,1.71,3.26,1.71Z"/>
    <path d="M1376.46,754.03h8.46v19.4c0,.48.07.97.2,1.46s.41.89.85,1.21c.43.31,1.08.47,1.94.47h3.53v4.46h-5.94c-2.09,0-3.51-.62-4.27-1.85s-1.13-3.03-1.13-5.38v-17.14l-3.64-.58v-2.05h0Z"/>
    <path d="M1406.7,781.64c-1.73.02-3.3-.4-4.72-1.28s-2.54-2.11-3.38-3.69-1.26-3.41-1.26-5.47c0-2.21.4-4.07,1.19-5.6s1.84-2.68,3.15-3.47,2.73-1.19,4.27-1.19c.77,0,1.47.1,2.11.31.64.2,1.18.47,1.64.81v-8.03h4.54v22.14c0,.67.11,1.17.32,1.49s.66.51,1.33.56v3.1c-.94.02-1.87-.04-2.79-.2-.92-.16-1.63-.47-2.11-.95-.53.46-1.15.81-1.85,1.06-.71.25-1.52.39-2.43.41h0ZM1407.06,777.18c.46,0,.9-.04,1.33-.13s.85-.22,1.26-.41v-10.01c-.82-.77-1.85-1.15-3.1-1.15s-2.32.5-3.2,1.49-1.33,2.42-1.33,4.27c0,1.2.24,2.25.72,3.15s1.1,1.59,1.87,2.07,1.58.72,2.45.72Z"/>
    <path d="M1205.82,824.84c-1.73.02-3.3-.4-4.72-1.28s-2.54-2.11-3.38-3.69-1.26-3.41-1.26-5.47c0-2.21.4-4.07,1.19-5.6s1.84-2.68,3.15-3.47,2.73-1.19,4.27-1.19c.77,0,1.47.1,2.11.31.64.2,1.18.47,1.64.81v-8.03h4.54v22.14c0,.67.11,1.17.32,1.49s.66.51,1.33.56v3.1c-.94.02-1.87-.04-2.79-.2-.92-.16-1.63-.47-2.11-.95-.53.46-1.15.81-1.85,1.06-.71.25-1.52.39-2.43.41h0ZM1206.18,820.38c.46,0,.9-.04,1.33-.13s.85-.22,1.26-.41v-10.01c-.82-.77-1.85-1.15-3.1-1.15s-2.32.5-3.2,1.49-1.33,2.42-1.33,4.27c0,1.2.24,2.25.72,3.15s1.1,1.59,1.87,2.07,1.58.72,2.45.72Z"/>
    <path d="M1228.72,824.81c-1.92,0-3.64-.4-5.17-1.21s-2.72-1.98-3.6-3.53c-.88-1.55-1.31-3.44-1.31-5.67s.41-4.1,1.24-5.67,1.96-2.78,3.4-3.62c1.44-.84,3.1-1.26,4.97-1.26,1.75,0,3.24.38,4.46,1.13,1.22.76,2.18,1.76,2.86,3.02.68,1.26,1.1,2.65,1.26,4.18.16,1.52.03,3.07-.38,4.63h-12.67c.14,1.03.71,1.88,1.69,2.54s2.17.99,3.56.99c.84,0,1.69-.07,2.54-.22.85-.14,1.83-.44,2.93-.9l1.58,3.89c-1.49.67-2.79,1.12-3.91,1.35s-2.27.34-3.47.34h.02ZM1223.71,812.68h8.6c-.02-1.27-.41-2.34-1.15-3.2s-1.79-1.3-3.13-1.3-2.39.45-3.13,1.35c-.74.9-1.14,1.95-1.19,3.15Z"/>
    <path d="M1241.32,806.84h6.16v-4.36c0-1.22.2-2.21.61-2.97s.95-1.34,1.64-1.76c.68-.42,1.42-.71,2.21-.86s1.56-.23,2.3-.23c1.08,0,2.27.17,3.58.5,1.31.34,2.45.8,3.44,1.4l-2.09,3.67c-.7-.41-1.42-.71-2.18-.92-.76-.2-1.45-.31-2.07-.31-1.03,0-1.73.26-2.11.77-.37.52-.56,1.27-.56,2.25v2.81h6.41v4.43h-6.41v12.28c0,1.97-.23,3.53-.7,4.68s-1.21,1.97-2.23,2.47-2.36.74-4.01.74h-3.67v-4.43h2.84c1.13,0,1.91-.31,2.34-.92.43-.61.65-1.51.65-2.68v-12.13h-6.16v-4.43h.01Z"/>
    <path d="M1283.54,824.23c-.17-2.95-.25-6.14-.25-9.56s.08-6.88.25-10.39h3.35l.68,1.84c.6-.53,1.36-1.04,2.27-1.53s1.88-.74,2.92-.74c.77,0,1.4.2,1.91.61s.88.9,1.12,1.48c.62-.55,1.37-1.04,2.25-1.46.88-.42,1.72-.63,2.54-.63,1.2,0,2.15.38,2.84,1.13s1.08,1.84,1.15,3.26c.24,5.21.2,10.54-.11,15.98h-4.75c.12-2.57.24-5.01.36-7.33s.13-4.49.04-6.53c-.02-.79-.12-1.39-.29-1.78-.17-.4-.5-.59-1.01-.59-.46,0-.91.15-1.37.45s-.83.62-1.12.95l-.07,12.06h-4.46l-.07-11.09c0-1.58-.43-2.38-1.3-2.38-.46,0-.91.16-1.37.47s-.83.62-1.12.94c-.1,2.42-.1,4.84,0,7.25s.22,4.94.36,7.58h-4.75Z"/>
    <path d="M1324.83,819.26c0,.67.1,1.17.29,1.49.19.32.62.51,1.3.56v3.2c-1.66.05-2.86-.08-3.62-.38s-1.38-.82-1.85-1.57c-.53.6-1.25,1.12-2.16,1.57-.91.44-2.02.67-3.31.67s-2.52-.25-3.6-.76-1.93-1.24-2.56-2.2-.94-2.12-.94-3.49.25-2.42.76-3.29c.5-.88,1.18-1.58,2.03-2.11.85-.53,1.8-.92,2.84-1.17,1.04-.25,2.1-.41,3.17-.49,1.07-.07,2.08-.08,3.04-.04v-.5c0-.82-.28-1.46-.83-1.94-.55-.48-1.45-.72-2.7-.72-.84,0-1.69.1-2.54.31-.85.2-1.7.51-2.54.92l-1.76-3.78c1.25-.58,2.52-1,3.82-1.28,1.3-.28,2.56-.41,3.78-.41.79,0,1.61.1,2.47.29.85.19,1.65.51,2.39.95s1.35,1.05,1.82,1.82.7,1.72.7,2.84v9.5h0ZM1312.96,818.18c0,.82.32,1.47.95,1.96.64.49,1.4.73,2.29.7.98-.05,1.78-.28,2.39-.7s1.12-.97,1.53-1.64v-3.42c-.82-.05-1.64-.05-2.48,0s-1.62.18-2.32.4c-.71.22-1.28.54-1.71.97s-.65,1.01-.65,1.73h0Z"/>
    <path d="M1331.35,824.23v-4.36h6.3v-9.94h-4.46v-4.39h9.32v14.33h5.33v4.36h-16.49ZM1339.63,803.21c-.91,0-1.72-.33-2.41-1.01-.7-.67-1.04-1.49-1.04-2.45s.35-1.78,1.04-2.45c.7-.67,1.5-1.01,2.41-1.01.98,0,1.81.34,2.47,1.01s.99,1.49.99,2.45-.33,1.78-.99,2.45-1.48,1.01-2.47,1.01Z"/>
    <path d="M1353.2,824.23v-19.94h4.21l.54,2.23c.96-.74,2.02-1.38,3.19-1.91,1.16-.53,2.44-.78,3.83-.76,1.78.02,3.17.59,4.19,1.69,1.02,1.1,1.53,2.84,1.53,5.22v13.46h-5v-12.78c0-1.18-.29-2.01-.88-2.5s-1.22-.74-1.89-.74c-.91,0-1.77.25-2.57.76s-1.53,1.08-2.18,1.73v13.54h-4.97,0Z"/>
    <path d="M1387.83,829.42c-1.92-.91-3.56-2-4.93-3.26s-2.48-2.63-3.35-4.1c-.86-1.48-1.49-2.98-1.89-4.52-.4-1.54-.59-3.04-.59-4.5s.2-2.96.59-4.5c.4-1.54,1.03-3.04,1.89-4.52.86-1.48,1.98-2.84,3.35-4.1,1.37-1.26,3.01-2.35,4.93-3.26l2.2,3.67c-1.97,1.03-3.57,2.26-4.81,3.69-1.24,1.43-2.14,2.92-2.7,4.48-.56,1.56-.85,3.07-.85,4.54s.28,2.98.85,4.54c.56,1.56,1.46,3.05,2.7,4.46,1.24,1.42,2.84,2.65,4.81,3.71l-2.2,3.67h0Z"/>
    <path d="M1414.91,819.73l-3.56,2.59-3.42-5.65-3.35,5.58-3.56-2.59,4.32-5-6.3-1.44,1.37-4.18,5.98,2.52-.58-6.55h4.39l-.58,6.59,5.98-2.56,1.37,4.18-6.41,1.51,4.36,5h0ZM1434.42,819.73l-3.56,2.59-3.42-5.65-3.35,5.58-3.56-2.59,4.32-5-6.3-1.44,1.37-4.18,5.98,2.52-.58-6.55h4.39l-.58,6.59,5.98-2.56,1.37,4.18-6.41,1.51,4.36,5h0Z"/>
    <path d="M1455.73,824.23l-6.59-8.03-1.58,1.69v6.34h-4.75v-27h4.75v14.26l6.52-7.06h5.8v.36l-7.74,8.24,9,10.84v.36h-5.41Z"/>
    <path d="M1463.51,804.43h4.43c.12,5.64.49,10.43,1.12,14.36l2.66-8.14h3.67l2.66,8.14c.62-3.94,1-8.72,1.12-14.36h4.43c-.12,4.37-.44,8.21-.95,11.52-.52,3.31-1.12,6.07-1.82,8.28h-4.68l-2.59-8.35-2.59,8.35h-4.68c-.7-2.21-1.3-4.97-1.82-8.28-.52-3.31-.83-7.15-.95-11.52h-.01Z"/>
    <path d="M1503.39,819.26c0,.67.1,1.17.29,1.49.19.32.62.51,1.3.56v3.2c-1.66.05-2.86-.08-3.62-.38s-1.38-.82-1.85-1.57c-.53.6-1.25,1.12-2.16,1.57-.91.44-2.02.67-3.31.67s-2.52-.25-3.6-.76-1.93-1.24-2.56-2.2-.94-2.12-.94-3.49.25-2.42.76-3.29c.5-.88,1.18-1.58,2.03-2.11.85-.53,1.8-.92,2.84-1.17,1.04-.25,2.1-.41,3.17-.49,1.07-.07,2.08-.08,3.04-.04v-.5c0-.82-.28-1.46-.83-1.94-.55-.48-1.45-.72-2.7-.72-.84,0-1.69.1-2.54.31-.85.2-1.7.51-2.54.92l-1.76-3.78c1.25-.58,2.52-1,3.82-1.28,1.3-.28,2.56-.41,3.78-.41.79,0,1.61.1,2.47.29.85.19,1.65.51,2.39.95s1.35,1.05,1.82,1.82.7,1.72.7,2.84v9.5h0ZM1491.51,818.18c0,.82.32,1.47.95,1.96.64.49,1.4.73,2.29.7.98-.05,1.78-.28,2.39-.7s1.12-.97,1.53-1.64v-3.42c-.82-.05-1.64-.05-2.48,0s-1.62.18-2.32.4c-.71.22-1.28.54-1.71.97s-.65,1.01-.65,1.73h0Z"/>
    <path d="M1509.37,824.23v-4.28h3.49v-13.25l-2.66-.47v-2.09h6.34l.72,2.12c.77-.72,1.62-1.31,2.56-1.76.94-.46,1.92-.67,2.95-.65,1.2.02,2.2.29,3.01.79.8.5,1.51,1.08,2.11,1.73l-3.17,3.35c-.36-.41-.78-.75-1.26-1.03s-1-.41-1.55-.41c-.74,0-1.48.19-2.21.58-.73.38-1.43.91-2.11,1.58v9.5h7.2v4.28h-15.42Z"/>
    <path d="M1534.5,825.2c.74.96,1.62,1.61,2.63,1.96,1.01.35,2.1.55,3.28.59,1.63.07,2.86-.08,3.67-.47.82-.38,1.22-.86,1.22-1.44,0-.65-.32-1.11-.95-1.39-.64-.28-1.57-.41-2.79-.41h-2.27c-2.11,0-3.84-.34-5.18-1.01-1.34-.67-2.02-1.67-2.02-2.99,0-.84.25-1.55.74-2.14s1.15-1.07,1.96-1.46c-.82-.48-1.49-1.19-2.03-2.12-.54-.94-.81-2.03-.81-3.28,0-1.37.35-2.6,1.04-3.69.7-1.09,1.66-1.95,2.9-2.57s2.68-.94,4.34-.94,3.07.31,4.32.94c.46-.24.74-.7.85-1.37s.16-1.43.16-2.27h4.43c0,1.37-.2,2.56-.61,3.56s-1.14,1.75-2.2,2.23c.86,1.18,1.28,2.54,1.26,4.1,0,1.73-.39,3.09-1.17,4.09s-1.82,1.72-3.13,2.16-2.77.71-4.37.81c-.89.05-1.63.12-2.23.22s-.9.31-.9.65.37.55,1.1.63,1.53.13,2.39.13h1.08c2.83,0,5,.49,6.52,1.46,1.51.97,2.27,2.47,2.27,4.48,0,1.25-.32,2.36-.97,3.35-.65.98-1.65,1.76-3.01,2.34s-3.13.86-5.31.86c-4.44,0-7.69-1.66-9.76-4.97l3.56-2.05h0ZM1540.22,813.97c1.15,0,2.03-.26,2.65-.77.61-.52.91-1.22.88-2.11-.02-.89-.35-1.62-.97-2.2s-1.48-.86-2.56-.86-1.94.29-2.59.86c-.65.58-.98,1.31-1.01,2.2-.02.89.29,1.59.95,2.11.66.52,1.54.77,2.65.77Z"/>
    <path d="M1554.41,821.86l2.92-3.49c.77.58,1.66,1.06,2.68,1.44s2.01.59,2.97.61c.98.02,1.78-.11,2.39-.41s.92-.71.92-1.24c0-.48-.27-.89-.81-1.22-.54-.34-1.23-.65-2.07-.94s-1.73-.61-2.68-.97c-.95-.36-1.84-.79-2.68-1.3-.84-.5-1.53-1.15-2.07-1.93-.54-.78-.81-1.73-.81-2.86,0-1.2.37-2.22,1.12-3.06.74-.84,1.73-1.48,2.95-1.93,1.22-.44,2.56-.67,4-.67,1.3,0,2.61.21,3.94.63s2.54,1.07,3.62,1.96l-2.74,3.31c-.74-.53-1.51-.9-2.29-1.12s-1.55-.32-2.32-.32-1.51.11-2.21.32-1.07.6-1.1,1.15c0,.41.26.77.79,1.1.53.32,1.22.64,2.09.95s1.78.66,2.74,1.04,1.87.85,2.72,1.39c.85.54,1.54,1.2,2.07,1.98.53.78.78,1.72.76,2.83-.02,1.78-.74,3.16-2.16,4.16s-3.41,1.49-5.98,1.49c-1.61,0-3.2-.28-4.79-.83s-2.9-1.25-3.96-2.09v.02Z"/>
    <path d="M1581.58,829.42l-2.2-3.67c1.99-1.06,3.6-2.29,4.82-3.71,1.22-1.42,2.12-2.9,2.68-4.46s.85-3.07.85-4.54-.28-2.98-.85-4.54c-.56-1.56-1.46-3.05-2.68-4.48-1.22-1.43-2.83-2.66-4.82-3.69l2.2-3.67c1.92.91,3.56,2,4.93,3.26s2.48,2.63,3.35,4.1c.86,1.48,1.49,2.98,1.89,4.52.4,1.54.59,3.04.59,4.5s-.2,2.96-.59,4.5c-.4,1.54-1.03,3.04-1.89,4.52-.86,1.48-1.98,2.84-3.35,4.1s-3.01,2.35-4.93,3.26h0Z"/>
    <path d="M1607.47,810.52c-.94,0-1.73-.33-2.39-.99s-.99-1.46-.99-2.39.33-1.73.99-2.39,1.46-.99,2.39-.99,1.73.33,2.39.99.99,1.46.99,2.39-.33,1.73-.99,2.39-1.46.99-2.39.99ZM1607.47,824.92c-.94,0-1.73-.33-2.39-.99s-.99-1.46-.99-2.39.33-1.73.99-2.39,1.46-.99,2.39-.99,1.73.33,2.39.99.99,1.46.99,2.39-.33,1.73-.99,2.39c-.66.66-1.46.99-2.39.99Z"/>
    <path d="M1294.99,868.44c-.91,0-1.69-.32-2.34-.97s-.97-1.43-.97-2.34.32-1.69.97-2.34,1.43-.97,2.34-.97,1.69.32,2.34.97c.65.65.97,1.43.97,2.34s-.32,1.69-.97,2.34-1.43.97-2.34.97Z"/>
    <path d="M1317.31,868.44c-.91,0-1.69-.32-2.34-.97s-.97-1.43-.97-2.34.32-1.69.97-2.34,1.43-.97,2.34-.97,1.69.32,2.34.97c.65.65.97,1.43.97,2.34s-.32,1.69-.97,2.34-1.43.97-2.34.97Z"/>
    <path d="M1339.63,868.44c-.91,0-1.69-.32-2.34-.97s-.97-1.43-.97-2.34.32-1.69.97-2.34,1.43-.97,2.34-.97,1.69.32,2.34.97c.65.65.97,1.43.97,2.34s-.32,1.69-.97,2.34-1.43.97-2.34.97Z"/>
  </g>
  <g>
    <line class="st15" x1="855.63" y1="491.96" x2="1060.42" y2="491.96"/>
    <polygon points="1095.72 491.96 1045.97 512.28 1057.78 491.96 1045.97 471.64 1095.72 491.96"/>
  </g>
  <g>
    <line class="st15" x1="855.63" y1="618.51" x2="1060.42" y2="618.51"/>
    <polygon points="1095.72 618.51 1045.97 638.84 1057.78 618.51 1045.97 598.19 1095.72 618.51"/>
  </g>
  <g>
    <line class="st15" x1="855.63" y1="746.34" x2="1060.42" y2="746.34"/>
    <polygon points="1095.72 746.34 1045.97 766.67 1057.78 746.34 1045.97 726.02 1095.72 746.34"/>
  </g>
  <g>
    <line class="st15" x1="855.63" y1="874.17" x2="1060.42" y2="874.17"/>
    <polygon points="1095.72 874.17 1045.97 894.5 1057.78 874.17 1045.97 853.85 1095.72 874.17"/>
  </g>
  <g>
    <line class="st15" x1="1225.33" y1="176.13" x2="1225.33" y2="262.72"/>
    <polygon points="1225.33 298.02 1205.01 248.27 1225.33 260.08 1245.66 248.27 1225.33 298.02"/>
  </g>
  <g>
    <line class="st15" x1="1386.78" y1="176.13" x2="1386.78" y2="262.72"/>
    <polygon points="1386.78 298.02 1366.45 248.27 1386.78 260.08 1407.1 248.27 1386.78 298.02"/>
  </g>
  <g>
    <line class="st15" x1="1525.75" y1="176.13" x2="1525.75" y2="262.72"/>
    <polygon points="1525.75 298.02 1505.42 248.27 1525.75 260.08 1546.07 248.27 1525.75 298.02"/>
  </g>
  <g class="st2">
    <text class="st7" transform="translate(260.43 132.68)"><tspan x="0" y="0">External Values</tspan></text>
  </g>
</svg>