<?xml version="1.0" encoding="UTF-8" standalone="no"?>
<!DOCTYPE svg PUBLIC "-//W3C//DTD SVG 1.1//EN"
 "http://www.w3.org/Graphics/SVG/1.1/DTD/svg11.dtd">
<!-- Generated by graphviz version 2.43.0 (0)
 -->
<!-- Title: Architecture Pages: 1 -->
<svg width="485pt" height="44pt"
 viewBox="0.00 0.00 485.00 44.00" xmlns="http://www.w3.org/2000/svg" xmlns:xlink="http://www.w3.org/1999/xlink">
<g id="graph0" class="graph" transform="scale(1 1) rotate(0) translate(4 40)">
<title>Architecture</title>
<polygon fill="white" stroke="transparent" points="-4,4 -4,-40 481,-40 481,4 -4,4"/>
<!-- Tasks -->
<g id="node1" class="node">
<title>Tasks</title>
<path fill="lightgrey" stroke="lightgrey" d="M44,-36C44,-36 12,-36 12,-36 6,-36 0,-30 0,-24 0,-24 0,-12 0,-12 0,-6 6,0 12,0 12,0 44,0 44,0 50,0 56,-6 56,-12 56,-12 56,-24 56,-24 56,-30 50,-36 44,-36"/>
<text text-anchor="middle" x="28" y="-14.3" font-family="Times,serif" font-size="14.00">Tasks</text>
</g>
<!-- Futures -->
<g id="node2" class="node">
<title>Futures</title>
<path fill="lightgrey" stroke="lightgrey" d="M153,-36C153,-36 104,-36 104,-36 98,-36 92,-30 92,-24 92,-24 92,-12 92,-12 92,-6 98,0 104,0 104,0 153,0 153,0 159,0 165,-6 165,-12 165,-12 165,-24 165,-24 165,-30 159,-36 153,-36"/>
<text text-anchor="middle" x="128.5" y="-14.3" font-family="Times,serif" font-size="14.00">Futures</text>
</g>
<!-- Tasks&#45;&gt;Futures -->
<g id="edge1" class="edge">
<title>Tasks&#45;&gt;Futures</title>
<path fill="none" stroke="black" d="M56.18,-18C64.12,-18 73.02,-18 81.78,-18"/>
<polygon fill="black" stroke="black" points="81.92,-21.5 91.92,-18 81.92,-14.5 81.92,-21.5"/>
</g>
<!-- DAG -->
<g id="node3" class="node">
<title>DAG</title>
<path fill="lightgrey" stroke="lightgrey" d="M243,-36C243,-36 213,-36 213,-36 207,-36 201,-30 201,-24 201,-24 201,-12 201,-12 201,-6 207,0 213,0 213,0 243,0 243,0 249,0 255,-6 255,-12 255,-12 255,-24 255,-24 255,-30 249,-36 243,-36"/>
<text text-anchor="middle" x="228" y="-14.3" font-family="Times,serif" font-size="14.00">DAG</text>
</g>
<!-- Futures&#45;&gt;DAG -->
<g id="edge2" class="edge">
<title>Futures&#45;&gt;DAG</title>
<path fill="none" stroke="black" d="M165.25,-18C173.51,-18 182.3,-18 190.58,-18"/>
<polygon fill="black" stroke="black" points="190.72,-21.5 200.72,-18 190.72,-14.5 190.72,-21.5"/>
</g>
<!-- Runner -->
<g id="node4" class="node">
<title>Runner</title>
<path fill="lightgrey" stroke="lightgrey" d="M348,-36C348,-36 303,-36 303,-36 297,-36 291,-30 291,-24 291,-24 291,-12 291,-12 291,-6 297,0 303,0 303,0 348,0 348,0 354,0 360,-6 360,-12 360,-12 360,-24 360,-24 360,-30 354,-36 348,-36"/>
<text text-anchor="middle" x="325.5" y="-14.3" font-family="Times,serif" font-size="14.00">Runner</text>
</g>
<!-- DAG&#45;&gt;Runner -->
<g id="edge3" class="edge">
<title>DAG&#45;&gt;Runner</title>
<path fill="none" stroke="black" d="M255.1,-18C263.03,-18 271.99,-18 280.76,-18"/>
<polygon fill="black" stroke="black" points="280.9,-21.5 290.9,-18 280.9,-14.5 280.9,-21.5"/>
</g>
<!-- Executor -->
<g id="node5" class="node">
<title>Executor</title>
<path fill="lightgrey" stroke="lightgrey" d="M465,-36C465,-36 408,-36 408,-36 402,-36 396,-30 396,-24 396,-24 396,-12 396,-12 396,-6 402,0 408,0 408,0 465,0 465,0 471,0 477,-6 477,-12 477,-12 477,-24 477,-24 477,-30 471,-36 465,-36"/>
<text text-anchor="middle" x="436.5" y="-14.3" font-family="Times,serif" font-size="14.00">Executor</text>
</g>
<!-- Runner&#45;&gt;Executor -->
<g id="edge4" class="edge">
<title>Runner&#45;&gt;Executor</title>
<path fill="none" stroke="black" d="M360.09,-18C368.19,-18 377,-18 385.66,-18"/>
<polygon fill="black" stroke="black" points="385.7,-21.5 395.7,-18 385.7,-14.5 385.7,-21.5"/>
</g>
</g>
</svg>
