<?xml version="1.0" encoding="UTF-8" standalone="no"?>
<!DOCTYPE svg PUBLIC "-//W3C//DTD SVG 1.1//EN"
 "http://www.w3.org/Graphics/SVG/1.1/DTD/svg11.dtd">
<!-- Generated by graphviz version 2.43.0 (0)
 -->
<!-- Title: Execution Pages: 1 -->
<svg width="794pt" height="44pt"
 viewBox="0.00 0.00 794.00 44.00" xmlns="http://www.w3.org/2000/svg" xmlns:xlink="http://www.w3.org/1999/xlink">
<g id="graph0" class="graph" transform="scale(1 1) rotate(0) translate(4 40)">
<title>Execution</title>
<polygon fill="white" stroke="transparent" points="-4,4 -4,-40 790,-40 790,4 -4,4"/>
<!-- Start -->
<g id="node1" class="node">
<title>Start</title>
<path fill="lightgrey" stroke="lightgrey" d="M42,-36C42,-36 12,-36 12,-36 6,-36 0,-30 0,-24 0,-24 0,-12 0,-12 0,-6 6,0 12,0 12,0 42,0 42,0 48,0 54,-6 54,-12 54,-12 54,-24 54,-24 54,-30 48,-36 42,-36"/>
<text text-anchor="middle" x="27" y="-14.3" font-family="Times,serif" font-size="14.00">Start</text>
</g>
<!-- main_cli -->
<g id="node2" class="node">
<title>main_cli</title>
<path fill="lightgrey" stroke="lightgrey" d="M153,-36C153,-36 102,-36 102,-36 96,-36 90,-30 90,-24 90,-24 90,-12 90,-12 90,-6 96,0 102,0 102,0 153,0 153,0 159,0 165,-6 165,-12 165,-12 165,-24 165,-24 165,-30 159,-36 153,-36"/>
<text text-anchor="middle" x="127.5" y="-14.3" font-family="Times,serif" font-size="14.00">main_cli</text>
</g>
<!-- Start&#45;&gt;main_cli -->
<g id="edge1" class="edge">
<title>Start&#45;&gt;main_cli</title>
<path fill="none" stroke="black" d="M54.14,-18C62,-18 70.89,-18 79.66,-18"/>
<polygon fill="black" stroke="black" points="79.86,-21.5 89.86,-18 79.86,-14.5 79.86,-21.5"/>
</g>
<!-- Read Recipe -->
<g id="node3" class="node">
<title>Read Recipe</title>
<path fill="lightgrey" stroke="lightgrey" d="M294,-36C294,-36 213,-36 213,-36 207,-36 201,-30 201,-24 201,-24 201,-12 201,-12 201,-6 207,0 213,0 213,0 294,0 294,0 300,0 306,-6 306,-12 306,-12 306,-24 306,-24 306,-30 300,-36 294,-36"/>
<text text-anchor="middle" x="253.5" y="-14.3" font-family="Times,serif" font-size="14.00">Read Recipe</text>
</g>
<!-- main_cli&#45;&gt;Read Recipe -->
<g id="edge2" class="edge">
<title>main_cli&#45;&gt;Read Recipe</title>
<path fill="none" stroke="black" d="M165.03,-18C173.04,-18 181.74,-18 190.44,-18"/>
<polygon fill="black" stroke="black" points="190.61,-21.5 200.61,-18 190.61,-14.5 190.61,-21.5"/>
</g>
<!-- Build DAG -->
<g id="node4" class="node">
<title>Build DAG</title>
<path fill="lightgrey" stroke="lightgrey" d="M421,-36C421,-36 354,-36 354,-36 348,-36 342,-30 342,-24 342,-24 342,-12 342,-12 342,-6 348,0 354,0 354,0 421,0 421,0 427,0 433,-6 433,-12 433,-12 433,-24 433,-24 433,-30 427,-36 421,-36"/>
<text text-anchor="middle" x="387.5" y="-14.3" font-family="Times,serif" font-size="14.00">Build DAG</text>
</g>
<!-- Read Recipe&#45;&gt;Build DAG -->
<g id="edge3" class="edge">
<title>Read Recipe&#45;&gt;Build DAG</title>
<path fill="none" stroke="black" d="M306.29,-18C314.61,-18 323.24,-18 331.63,-18"/>
<polygon fill="black" stroke="black" points="331.7,-21.5 341.7,-18 331.7,-14.5 331.7,-21.5"/>
</g>
<!-- DAGRunner executes tasks -->
<g id="node5" class="node">
<title>DAGRunner executes tasks</title>
<path fill="lightgrey" stroke="lightgrey" d="M668,-36C668,-36 481,-36 481,-36 475,-36 469,-30 469,-24 469,-24 469,-12 469,-12 469,-6 475,0 481,0 481,0 668,0 668,0 674,0 680,-6 680,-12 680,-12 680,-24 680,-24 680,-30 674,-36 668,-36"/>
<text text-anchor="middle" x="574.5" y="-14.3" font-family="Times,serif" font-size="14.00">DAGRunner executes tasks</text>
</g>
<!-- Build DAG&#45;&gt;DAGRunner executes tasks -->
<g id="edge4" class="edge">
<title>Build DAG&#45;&gt;DAGRunner executes tasks</title>
<path fill="none" stroke="black" d="M433.28,-18C441.21,-18 449.78,-18 458.64,-18"/>
<polygon fill="black" stroke="black" points="458.74,-21.5 468.74,-18 458.74,-14.5 458.74,-21.5"/>
</g>
<!-- Results -->
<g id="node6" class="node">
<title>Results</title>
<path fill="lightgrey" stroke="lightgrey" d="M774,-36C774,-36 728,-36 728,-36 722,-36 716,-30 716,-24 716,-24 716,-12 716,-12 716,-6 722,0 728,0 728,0 774,0 774,0 780,0 786,-6 786,-12 786,-12 786,-24 786,-24 786,-30 780,-36 774,-36"/>
<text text-anchor="middle" x="751" y="-14.3" font-family="Times,serif" font-size="14.00">Results</text>
</g>
<!-- DAGRunner executes tasks&#45;&gt;Results -->
<g id="edge5" class="edge">
<title>DAGRunner executes tasks&#45;&gt;Results</title>
<path fill="none" stroke="black" d="M680.03,-18C688.91,-18 697.55,-18 705.54,-18"/>
<polygon fill="black" stroke="black" points="705.65,-21.5 715.65,-18 705.65,-14.5 705.65,-21.5"/>
</g>
</g>
</svg>
