<?xml version="1.0" standalone="no"?>
<!DOCTYPE svg PUBLIC "-//W3C//DTD SVG 1.1//EN"
	"http://www.w3.org/Graphics/SVG/1.1/DTD/svg11.dtd">
<svg xmlns="http://www.w3.org/2000/svg" version="1.1"
	xmlns:xlink="http://www.w3.org/1999/xlink"
	color="black"
	width="816.00px" height="1056.00px">
<style type="text/css">
.fill {fill: currentColor}
.stroke {stroke: currentColor; fill: none}
text{white-space:pre; fill:currentColor}
</style>
<title>trybone.abc page 1</title>
<!-- Creator: abcm2ps-8.14.14 -->
<!-- CreationDate: Jan  9, 2024 18:43 -->
<!-- CommandLine: -k 128 -v -A -O trybone_page_.svg trybone.abc -->
<g stroke-width="0.70" style="font:bold 13.00px serif">
<text x="105.84" y="110.70" text-anchor="middle">Trombone3</text>
<path class="stroke" stroke-width="1"
	d="M345.34 118.80v-24.00"/>
<abc type="B" row="6" col="7" x="336.34" y="90.80" width="20.00" height="32"/>
<path class="stroke" stroke-width="1"
	d="M511.54 118.80v-24.00"/>
<path class="stroke" stroke-width="1"
	d="M507.54 118.80v-24.00"/>
<abc type="B" row="6" col="9" x="502.54" y="90.80" width="17.00" height="32"/>
<path d="m144.54 118.80
	h368.00
	M144.54 112.80
	h368.00
	M144.54 106.80
	h368.00
	M144.54 100.80
	h368.00
	M144.54 94.80
	h368.00
	" class="stroke"/>
<defs>
<path id="utclef" class="fill" d="m-50 -90
	c-72 -41 -72 -158 52 -188
	150 -10 220 188 90 256
	-114 52 -275 0 -293 -136
	-15 -181 93 -229 220 -334
	88 -87 79 -133 62 -210
	-51 33 -94 105 -89 186
	17 267 36 374 49 574
	6 96 -19 134 -77 135
	-80 1 -126 -93 -61 -133
	85 -41 133 101 31 105
	23 17 92 37 90 -92
	-10 -223 -39 -342 -50 -617
	0 -90 0 -162 96 -232
	56 72 63 230 22 289
	-74 106 -257 168 -255 316
	9 153 148 185 252 133
	86 -65 29 -192 -80 -176
	-71 12 -105 67 -59 124"/>
<use id="tclef" transform="translate(0,6) scale(0.045)"
	xlink:href="#utclef"/>
</defs>
<use x="156.54" y="112.80" xlink:href="#tclef"/>
<abc type="c" row="6" col="0" x="142.54" y="82.80" width="28.00" height="46"/>
<defs>
<path id="csig" class="fill" d="
	m6 -5.3
	c0.9 0 2.3 0.7 2.4 2.2
	-1.2 -2 -3.6 0.1 -1.6 1.7
	2 1 3.8 -3.5 -0.8 -4.7
	-2 -0.4 -6.4 1.3 -5.8 7
	0.4 6.4 7.9 6.8 9.1 0.7
	-2.3 5.6 -6.7 5.1 -6.8 0
	-0.5 -4.4 0.7 -7.5 3.5 -6.9"/>
</defs>
<use x="170.04" y="106.80" xlink:href="#csig"/>
<abc type="M" row="6" col="0" x="166.54" y="90.80" width="24.00" height="32"/>
</g>
<g stroke-width="0.70" transform="scale(0.700)" style="font:bold 13.00px serif">
<defs>
<rect id="r2" class="fill"
	x="-3.5" y="-3" width="7" height="3"/>
</defs>
<use x="276.49" y="152.57" xlink:href="#r2"/>
<abc type="R" row="6" col="0" x="266.49" y="144.57" width="14.00" height="28"/>
<abc type="b" row="6" col="2" x="348.09" y="157.97" width="6.00" height="6"/>
<path class="fill"
	d="M353.39 156.77l110.10 0.00v-3.20l-110.10 -0.00"/>
<defs>
<path id="hl" class="stroke" d="m-6 0h12"/>
</defs>
<use x="357.39" y="126.87" xlink:href="#hl"/>
<use x="357.39" y="118.27" xlink:href="#hl"/>
<defs>
<ellipse id="hd" rx="4.1" ry="2.9"
	transform="rotate(-20)" class="fill"/>
</defs>
<use x="357.39" y="118.27" xlink:href="#hd"/>
<path d="M353.89 118.27v37.50" class="stroke"/>
<abc type="N" row="6" col="2" x="348.09" y="125.97" width="13.00" height="38"/>
<use x="393.69" y="131.17" xlink:href="#hd"/>
<path d="M390.19 131.17v24.60" class="stroke"/>
<abc type="N" row="6" col="4" x="384.49" y="134.97" width="13.00" height="29"/>
<use x="430.09" y="126.87" xlink:href="#hl"/>
<use x="430.09" y="122.57" xlink:href="#hd"/>
<path d="M426.59 122.57v33.20" class="stroke"/>
<abc type="N" row="6" col="5" x="420.79" y="128.97" width="13.00" height="35"/>
<use x="466.49" y="126.87" xlink:href="#hl"/>
<use x="466.49" y="126.87" xlink:href="#hd"/>
<path d="M462.99 126.87v28.90" class="stroke"/>
<abc type="N" row="6" col="6" x="455.09" y="131.97" width="14.50" height="32"/>
<abc type="e" row="6" col="6" x="455.09" y="157.97" width="6.00" height="6"/>
<abc type="R" row="6" col="8" x="604.19" y="115.67" width="13.00" height="14"/>
</g>
<g stroke-width="0.70" style="font:bold 13.00px serif">
<use x="360.54" y="109.80" xlink:href="#hd"/>
<path d="M364.04 109.80v-21.00" class="stroke"/>
<abc type="N" row="8" col="2" x="354.04" y="84.80" width="13.00" height="31"/>
<use x="400.54" y="106.80" xlink:href="#hd"/>
<path d="M404.04 106.80v-21.00" class="stroke"/>
<abc type="N" row="8" col="4" x="394.04" y="81.80" width="13.00" height="31"/>
<use x="440.54" y="103.80" xlink:href="#hd"/>
<path d="M437.04 103.80v21.00" class="stroke"/>
<abc type="N" row="8" col="6" x="431.54" y="97.80" width="15.50" height="31"/>
<use x="480.54" y="100.80" xlink:href="#hd"/>
<path d="M477.04 100.80v21.00" class="stroke"/>
<abc type="N" row="8" col="8" x="474.04" y="94.80" width="13.00" height="31"/>
</g>
</svg>
