<?xml version="1.0" encoding="UTF-8" standalone="no"?>
<!DOCTYPE svg PUBLIC "-//W3C//DTD SVG 1.1//EN"
 "http://www.w3.org/Graphics/SVG/1.1/DTD/svg11.dtd">
<!-- Generated by graphviz version 2.43.0 (0)
 -->
<!-- Title: %3 Pages: 1 -->
<svg width="857pt" height="692pt"
 viewBox="0.00 0.00 856.50 692.00" xmlns="http://www.w3.org/2000/svg" xmlns:xlink="http://www.w3.org/1999/xlink">
<g id="graph0" class="graph" transform="scale(1 1) rotate(0) translate(4 688)">
<title>%3</title>
<polygon fill="white" stroke="transparent" points="-4,4 -4,-688 852.5,-688 852.5,4 -4,4"/>
<!-- 2823706752353932895 -->
<g id="node1" class="node">
<title>2823706752353932895</title>
<ellipse fill="none" stroke="black" cx="274.5" cy="-594" rx="34.39" ry="18"/>
<text text-anchor="middle" x="274.5" y="-590.3" font-family="Helvetica,sans-Serif" font-size="14.00">config</text>
</g>
<!-- 4951488153457241711 -->
<g id="node26" class="node">
<title>4951488153457241711</title>
<ellipse fill="none" stroke="black" cx="401.5" cy="-666" rx="27" ry="18"/>
<text text-anchor="middle" x="401.5" y="-662.3" font-family="Helvetica,sans-Serif" font-size="14.00">all</text>
</g>
<!-- 2823706752353932895&#45;&gt;4951488153457241711 -->
<g id="edge26" class="edge">
<title>2823706752353932895&#45;&gt;4951488153457241711</title>
<path fill="none" stroke="black" d="M297.5,-607.68C318.48,-619.24 349.59,-636.39 372.32,-648.92"/>
<polygon fill="black" stroke="black" points="370.74,-652.04 381.19,-653.8 374.12,-645.91 370.74,-652.04"/>
</g>
<!-- &#45;1823528642467933068 -->
<g id="node2" class="node">
<title>&#45;1823528642467933068</title>
<polygon fill="none" stroke="black" points="257,-540 0,-540 0,-504 257,-504 257,-540"/>
<text text-anchor="middle" x="128.5" y="-518.3" font-family="Helvetica,sans-Serif" font-size="14.00">[&#39;foo1&#39;, &#39;foo2&#39;, &#39;foo3&#39;, &#39;bar4&#39;, &#39;bar5&#39;, &#39;bar6&#39;]</text>
</g>
<!-- 3731578154544932797 -->
<g id="node3" class="node">
<title>3731578154544932797</title>
<ellipse fill="none" stroke="black" cx="353.5" cy="-594" rx="27" ry="18"/>
<text text-anchor="middle" x="353.5" y="-590.3" font-family="Helvetica,sans-Serif" font-size="14.00">t</text>
</g>
<!-- &#45;1823528642467933068&#45;&gt;3731578154544932797 -->
<g id="edge1" class="edge">
<title>&#45;1823528642467933068&#45;&gt;3731578154544932797</title>
<path fill="none" stroke="black" d="M200.31,-540.1C236,-549.37 279.51,-561.82 317.5,-576 319.35,-576.69 321.23,-577.44 323.11,-578.22"/>
<polygon fill="black" stroke="black" points="321.87,-581.5 332.43,-582.33 324.7,-575.09 321.87,-581.5"/>
</g>
<!-- 3731578154544932797&#45;&gt;4951488153457241711 -->
<g id="edge25" class="edge">
<title>3731578154544932797&#45;&gt;4951488153457241711</title>
<path fill="none" stroke="black" d="M364.39,-610.88C370.47,-619.74 378.16,-630.96 384.96,-640.88"/>
<polygon fill="black" stroke="black" points="382.11,-642.91 390.65,-649.18 387.88,-638.95 382.11,-642.91"/>
</g>
<!-- &#45;978578717049486777 -->
<g id="node4" class="node">
<title>&#45;978578717049486777</title>
<polygon fill="none" stroke="black" points="266.5,-252 24.5,-252 24.5,-216 266.5,-216 266.5,-252"/>
<text text-anchor="middle" x="145.5" y="-230.3" font-family="Helvetica,sans-Serif" font-size="14.00">[2000, 2010, 2020, 2030, 2040, 2050]</text>
</g>
<!-- &#45;2067344535903724960 -->
<g id="node5" class="node">
<title>&#45;2067344535903724960</title>
<ellipse fill="none" stroke="black" cx="145.5" cy="-306" rx="27" ry="18"/>
<text text-anchor="middle" x="145.5" y="-302.3" font-family="Helvetica,sans-Serif" font-size="14.00">y</text>
</g>
<!-- &#45;978578717049486777&#45;&gt;&#45;2067344535903724960 -->
<g id="edge2" class="edge">
<title>&#45;978578717049486777&#45;&gt;&#45;2067344535903724960</title>
<path fill="none" stroke="black" d="M145.5,-252.3C145.5,-260.02 145.5,-269.29 145.5,-277.89"/>
<polygon fill="black" stroke="black" points="142,-277.9 145.5,-287.9 149,-277.9 142,-277.9"/>
</g>
<!-- 4698230390309844272 -->
<g id="node21" class="node">
<title>4698230390309844272</title>
<polygon fill="none" stroke="black" points="219.5,-396 71.5,-396 71.5,-360 219.5,-360 219.5,-396"/>
<text text-anchor="middle" x="145.5" y="-374.3" font-family="Helvetica,sans-Serif" font-size="14.00">operator.itemgetter(0)</text>
</g>
<!-- &#45;2067344535903724960&#45;&gt;4698230390309844272 -->
<g id="edge19" class="edge">
<title>&#45;2067344535903724960&#45;&gt;4698230390309844272</title>
<path fill="none" stroke="black" d="M145.5,-324.3C145.5,-332.02 145.5,-341.29 145.5,-349.89"/>
<polygon fill="black" stroke="black" points="142,-349.9 145.5,-359.9 149,-349.9 142,-349.9"/>
</g>
<!-- 364169933733484805 -->
<g id="node6" class="node">
<title>364169933733484805</title>
<ellipse fill="none" stroke="black" cx="579.5" cy="-18" rx="27.1" ry="18"/>
<text text-anchor="middle" x="579.5" y="-14.3" font-family="Helvetica,sans-Serif" font-size="14.00">x:t&#45;y</text>
</g>
<!-- 4983110386434024936 -->
<g id="node7" class="node">
<title>4983110386434024936</title>
<polygon fill="none" stroke="black" points="479,-108 294,-108 294,-72 479,-72 479,-108"/>
<text text-anchor="middle" x="386.5" y="-86.3" font-family="Helvetica,sans-Serif" font-size="14.00">sum(dimensions=[&#39;t&#39;, &#39;y&#39;], ...)</text>
</g>
<!-- 364169933733484805&#45;&gt;4983110386434024936 -->
<g id="edge4" class="edge">
<title>364169933733484805&#45;&gt;4983110386434024936</title>
<path fill="none" stroke="black" d="M556.22,-27.44C528.43,-37.52 480.97,-54.74 443.3,-68.4"/>
<polygon fill="black" stroke="black" points="441.66,-65.27 433.45,-71.97 444.05,-71.85 441.66,-65.27"/>
</g>
<!-- &#45;3391027884781031457 -->
<g id="node9" class="node">
<title>&#45;3391027884781031457</title>
<polygon fill="none" stroke="black" points="662,-108 497,-108 497,-72 662,-72 662,-108"/>
<text text-anchor="middle" x="579.5" y="-86.3" font-family="Helvetica,sans-Serif" font-size="14.00">sum(dimensions=[&#39;t&#39;], ...)</text>
</g>
<!-- 364169933733484805&#45;&gt;&#45;3391027884781031457 -->
<g id="edge6" class="edge">
<title>364169933733484805&#45;&gt;&#45;3391027884781031457</title>
<path fill="none" stroke="black" d="M579.5,-36.3C579.5,-44.02 579.5,-53.29 579.5,-61.89"/>
<polygon fill="black" stroke="black" points="576,-61.9 579.5,-71.9 583,-61.9 576,-61.9"/>
</g>
<!-- &#45;8977314200251290147 -->
<g id="node11" class="node">
<title>&#45;8977314200251290147</title>
<polygon fill="none" stroke="black" points="848.5,-108 680.5,-108 680.5,-72 848.5,-72 848.5,-108"/>
<text text-anchor="middle" x="764.5" y="-86.3" font-family="Helvetica,sans-Serif" font-size="14.00">sum(dimensions=[&#39;y&#39;], ...)</text>
</g>
<!-- 364169933733484805&#45;&gt;&#45;8977314200251290147 -->
<g id="edge8" class="edge">
<title>364169933733484805&#45;&gt;&#45;8977314200251290147</title>
<path fill="none" stroke="black" d="M602.56,-27.72C629.32,-37.85 674.36,-54.89 710.16,-68.44"/>
<polygon fill="black" stroke="black" points="708.92,-71.71 719.51,-71.98 711.4,-65.17 708.92,-71.71"/>
</g>
<!-- 5187751186829732534 -->
<g id="node8" class="node">
<title>5187751186829732534</title>
<ellipse fill="none" stroke="black" cx="386.5" cy="-162" rx="27" ry="18"/>
<text text-anchor="middle" x="386.5" y="-158.3" font-family="Helvetica,sans-Serif" font-size="14.00">x:</text>
</g>
<!-- 4983110386434024936&#45;&gt;5187751186829732534 -->
<g id="edge3" class="edge">
<title>4983110386434024936&#45;&gt;5187751186829732534</title>
<path fill="none" stroke="black" d="M386.5,-108.3C386.5,-116.02 386.5,-125.29 386.5,-133.89"/>
<polygon fill="black" stroke="black" points="383,-133.9 386.5,-143.9 390,-133.9 383,-133.9"/>
</g>
<!-- &#45;3626478534735499847 -->
<g id="node10" class="node">
<title>&#45;3626478534735499847</title>
<ellipse fill="none" stroke="black" cx="579.5" cy="-162" rx="27" ry="18"/>
<text text-anchor="middle" x="579.5" y="-158.3" font-family="Helvetica,sans-Serif" font-size="14.00">x:y</text>
</g>
<!-- &#45;3391027884781031457&#45;&gt;&#45;3626478534735499847 -->
<g id="edge5" class="edge">
<title>&#45;3391027884781031457&#45;&gt;&#45;3626478534735499847</title>
<path fill="none" stroke="black" d="M579.5,-108.3C579.5,-116.02 579.5,-125.29 579.5,-133.89"/>
<polygon fill="black" stroke="black" points="576,-133.9 579.5,-143.9 583,-133.9 576,-133.9"/>
</g>
<!-- &#45;5759060585292166420 -->
<g id="node13" class="node">
<title>&#45;5759060585292166420</title>
<polygon fill="none" stroke="black" points="606.5,-252 552.5,-252 552.5,-216 606.5,-216 606.5,-252"/>
<text text-anchor="middle" x="579.5" y="-230.3" font-family="Helvetica,sans-Serif" font-size="14.00">mul</text>
</g>
<!-- &#45;3626478534735499847&#45;&gt;&#45;5759060585292166420 -->
<g id="edge11" class="edge">
<title>&#45;3626478534735499847&#45;&gt;&#45;5759060585292166420</title>
<path fill="none" stroke="black" d="M579.5,-180.3C579.5,-188.02 579.5,-197.29 579.5,-205.89"/>
<polygon fill="black" stroke="black" points="576,-205.9 579.5,-215.9 583,-205.9 576,-205.9"/>
</g>
<!-- &#45;6203855817593047127 -->
<g id="node12" class="node">
<title>&#45;6203855817593047127</title>
<ellipse fill="none" stroke="black" cx="764.5" cy="-162" rx="27" ry="18"/>
<text text-anchor="middle" x="764.5" y="-158.3" font-family="Helvetica,sans-Serif" font-size="14.00">x:t</text>
</g>
<!-- &#45;8977314200251290147&#45;&gt;&#45;6203855817593047127 -->
<g id="edge7" class="edge">
<title>&#45;8977314200251290147&#45;&gt;&#45;6203855817593047127</title>
<path fill="none" stroke="black" d="M764.5,-108.3C764.5,-116.02 764.5,-125.29 764.5,-133.89"/>
<polygon fill="black" stroke="black" points="761,-133.9 764.5,-143.9 768,-133.9 761,-133.9"/>
</g>
<!-- &#45;6203855817593047127&#45;&gt;&#45;5759060585292166420 -->
<g id="edge10" class="edge">
<title>&#45;6203855817593047127&#45;&gt;&#45;5759060585292166420</title>
<path fill="none" stroke="black" d="M741.44,-171.72C710.06,-183.6 653.53,-204.99 616.26,-219.09"/>
<polygon fill="black" stroke="black" points="614.88,-215.87 606.76,-222.69 617.35,-222.42 614.88,-215.87"/>
</g>
<!-- &#45;6203855817593047127&#45;&gt;4951488153457241711 -->
<g id="edge27" class="edge">
<title>&#45;6203855817593047127&#45;&gt;4951488153457241711</title>
<path fill="none" stroke="black" d="M775.3,-178.81C791.57,-204.21 820.5,-256.24 820.5,-305 820.5,-305 820.5,-305 820.5,-523 820.5,-603.39 540.31,-647.26 438.18,-660.58"/>
<polygon fill="black" stroke="black" points="437.5,-657.14 428.03,-661.88 438.39,-664.08 437.5,-657.14"/>
</g>
<!-- &#45;8876696519805571431 -->
<g id="node14" class="node">
<title>&#45;8876696519805571431</title>
<ellipse fill="none" stroke="black" cx="551.5" cy="-306" rx="27.1" ry="18"/>
<text text-anchor="middle" x="551.5" y="-302.3" font-family="Helvetica,sans-Serif" font-size="14.00">z:t&#45;y</text>
</g>
<!-- &#45;5759060585292166420&#45;&gt;&#45;8876696519805571431 -->
<g id="edge9" class="edge">
<title>&#45;5759060585292166420&#45;&gt;&#45;8876696519805571431</title>
<path fill="none" stroke="black" d="M572.58,-252.3C569.38,-260.3 565.51,-269.98 561.96,-278.85"/>
<polygon fill="black" stroke="black" points="558.61,-277.79 558.15,-288.38 565.11,-280.39 558.61,-277.79"/>
</g>
<!-- &#45;7285360612566044628 -->
<g id="node15" class="node">
<title>&#45;7285360612566044628</title>
<polygon fill="none" stroke="black" points="423,-396 238,-396 238,-360 423,-360 423,-396"/>
<text text-anchor="middle" x="330.5" y="-374.3" font-family="Helvetica,sans-Serif" font-size="14.00">sum(dimensions=[&#39;t&#39;, &#39;y&#39;], ...)</text>
</g>
<!-- &#45;8876696519805571431&#45;&gt;&#45;7285360612566044628 -->
<g id="edge13" class="edge">
<title>&#45;8876696519805571431&#45;&gt;&#45;7285360612566044628</title>
<path fill="none" stroke="black" d="M527.43,-314.62C495.64,-324.69 438.48,-342.8 393.9,-356.92"/>
<polygon fill="black" stroke="black" points="392.78,-353.6 384.31,-359.96 394.9,-360.27 392.78,-353.6"/>
</g>
<!-- &#45;1176455659783814305 -->
<g id="node17" class="node">
<title>&#45;1176455659783814305</title>
<polygon fill="none" stroke="black" points="606,-396 441,-396 441,-360 606,-360 606,-396"/>
<text text-anchor="middle" x="523.5" y="-374.3" font-family="Helvetica,sans-Serif" font-size="14.00">sum(dimensions=[&#39;t&#39;], ...)</text>
</g>
<!-- &#45;8876696519805571431&#45;&gt;&#45;1176455659783814305 -->
<g id="edge15" class="edge">
<title>&#45;8876696519805571431&#45;&gt;&#45;1176455659783814305</title>
<path fill="none" stroke="black" d="M544.86,-323.59C541.68,-331.55 537.79,-341.28 534.2,-350.24"/>
<polygon fill="black" stroke="black" points="530.94,-348.97 530.48,-359.55 537.44,-351.57 530.94,-348.97"/>
</g>
<!-- &#45;5905246438180419214 -->
<g id="node19" class="node">
<title>&#45;5905246438180419214</title>
<polygon fill="none" stroke="black" points="792.5,-396 624.5,-396 624.5,-360 792.5,-360 792.5,-396"/>
<text text-anchor="middle" x="708.5" y="-374.3" font-family="Helvetica,sans-Serif" font-size="14.00">sum(dimensions=[&#39;y&#39;], ...)</text>
</g>
<!-- &#45;8876696519805571431&#45;&gt;&#45;5905246438180419214 -->
<g id="edge17" class="edge">
<title>&#45;8876696519805571431&#45;&gt;&#45;5905246438180419214</title>
<path fill="none" stroke="black" d="M573.66,-316.88C596.24,-326.95 631.95,-342.87 660.96,-355.8"/>
<polygon fill="black" stroke="black" points="659.55,-359.01 670.11,-359.88 662.4,-352.62 659.55,-359.01"/>
</g>
<!-- &#45;7801698146267160019 -->
<g id="node16" class="node">
<title>&#45;7801698146267160019</title>
<ellipse fill="none" stroke="black" cx="359.5" cy="-450" rx="27" ry="18"/>
<text text-anchor="middle" x="359.5" y="-446.3" font-family="Helvetica,sans-Serif" font-size="14.00">z:</text>
</g>
<!-- &#45;7285360612566044628&#45;&gt;&#45;7801698146267160019 -->
<g id="edge12" class="edge">
<title>&#45;7285360612566044628&#45;&gt;&#45;7801698146267160019</title>
<path fill="none" stroke="black" d="M337.67,-396.3C341.02,-404.39 345.08,-414.19 348.78,-423.13"/>
<polygon fill="black" stroke="black" points="345.55,-424.48 352.61,-432.38 352.02,-421.8 345.55,-424.48"/>
</g>
<!-- &#45;110251387240154918 -->
<g id="node18" class="node">
<title>&#45;110251387240154918</title>
<ellipse fill="none" stroke="black" cx="463.5" cy="-450" rx="27" ry="18"/>
<text text-anchor="middle" x="463.5" y="-446.3" font-family="Helvetica,sans-Serif" font-size="14.00">z:y</text>
</g>
<!-- &#45;1176455659783814305&#45;&gt;&#45;110251387240154918 -->
<g id="edge14" class="edge">
<title>&#45;1176455659783814305&#45;&gt;&#45;110251387240154918</title>
<path fill="none" stroke="black" d="M508.67,-396.3C500.97,-405.29 491.46,-416.38 483.16,-426.07"/>
<polygon fill="black" stroke="black" points="480.38,-423.93 476.53,-433.8 485.7,-428.48 480.38,-423.93"/>
</g>
<!-- 5877817560307399631 -->
<g id="node24" class="node">
<title>5877817560307399631</title>
<polygon fill="none" stroke="black" points="493.5,-540 405.5,-540 405.5,-504 493.5,-504 493.5,-540"/>
<text text-anchor="middle" x="449.5" y="-518.3" font-family="Helvetica,sans-Serif" font-size="14.00">index_to(...)</text>
</g>
<!-- &#45;110251387240154918&#45;&gt;5877817560307399631 -->
<g id="edge22" class="edge">
<title>&#45;110251387240154918&#45;&gt;5877817560307399631</title>
<path fill="none" stroke="black" d="M460.11,-467.95C458.57,-475.65 456.71,-484.97 454.97,-493.64"/>
<polygon fill="black" stroke="black" points="451.48,-493.23 452.96,-503.72 458.35,-494.61 451.48,-493.23"/>
</g>
<!-- &#45;2290860576835141564 -->
<g id="node20" class="node">
<title>&#45;2290860576835141564</title>
<ellipse fill="none" stroke="black" cx="708.5" cy="-450" rx="27" ry="18"/>
<text text-anchor="middle" x="708.5" y="-446.3" font-family="Helvetica,sans-Serif" font-size="14.00">z:t</text>
</g>
<!-- &#45;5905246438180419214&#45;&gt;&#45;2290860576835141564 -->
<g id="edge16" class="edge">
<title>&#45;5905246438180419214&#45;&gt;&#45;2290860576835141564</title>
<path fill="none" stroke="black" d="M708.5,-396.3C708.5,-404.02 708.5,-413.29 708.5,-421.89"/>
<polygon fill="black" stroke="black" points="705,-421.9 708.5,-431.9 712,-421.9 705,-421.9"/>
</g>
<!-- 6308460185666288997 -->
<g id="node22" class="node">
<title>6308460185666288997</title>
<ellipse fill="none" stroke="black" cx="287.5" cy="-450" rx="27" ry="18"/>
<text text-anchor="middle" x="287.5" y="-446.3" font-family="Helvetica,sans-Serif" font-size="14.00">y::0</text>
</g>
<!-- 4698230390309844272&#45;&gt;6308460185666288997 -->
<g id="edge18" class="edge">
<title>4698230390309844272&#45;&gt;6308460185666288997</title>
<path fill="none" stroke="black" d="M180.24,-396.12C203.8,-407.74 234.65,-422.95 257.22,-434.07"/>
<polygon fill="black" stroke="black" points="255.82,-437.28 266.33,-438.57 258.91,-431 255.82,-437.28"/>
</g>
<!-- 5991502150413383626 -->
<g id="node23" class="node">
<title>5991502150413383626</title>
<ellipse fill="none" stroke="black" cx="302.5" cy="-522" rx="27" ry="18"/>
<text text-anchor="middle" x="302.5" y="-518.3" font-family="Helvetica,sans-Serif" font-size="14.00">y0</text>
</g>
<!-- 6308460185666288997&#45;&gt;5991502150413383626 -->
<g id="edge20" class="edge">
<title>6308460185666288997&#45;&gt;5991502150413383626</title>
<path fill="none" stroke="black" d="M291.13,-467.95C292.8,-475.74 294.82,-485.18 296.7,-493.92"/>
<polygon fill="black" stroke="black" points="293.28,-494.68 298.8,-503.72 300.13,-493.21 293.28,-494.68"/>
</g>
<!-- 6308460185666288997&#45;&gt;5877817560307399631 -->
<g id="edge23" class="edge">
<title>6308460185666288997&#45;&gt;5877817560307399631</title>
<path fill="none" stroke="black" d="M308.75,-461.22C313.58,-463.49 318.7,-465.86 323.5,-468 347.87,-478.87 375.14,-490.42 398.06,-499.95"/>
<polygon fill="black" stroke="black" points="397.01,-503.31 407.59,-503.9 399.7,-496.84 397.01,-503.31"/>
</g>
<!-- &#45;5201274241728287251 -->
<g id="node25" class="node">
<title>&#45;5201274241728287251</title>
<ellipse fill="none" stroke="black" cx="449.5" cy="-594" rx="50.89" ry="18"/>
<text text-anchor="middle" x="449.5" y="-590.3" font-family="Helvetica,sans-Serif" font-size="14.00">z::indexed</text>
</g>
<!-- 5877817560307399631&#45;&gt;&#45;5201274241728287251 -->
<g id="edge21" class="edge">
<title>5877817560307399631&#45;&gt;&#45;5201274241728287251</title>
<path fill="none" stroke="black" d="M449.5,-540.3C449.5,-548.02 449.5,-557.29 449.5,-565.89"/>
<polygon fill="black" stroke="black" points="446,-565.9 449.5,-575.9 453,-565.9 446,-565.9"/>
</g>
<!-- &#45;5201274241728287251&#45;&gt;4951488153457241711 -->
<g id="edge24" class="edge">
<title>&#45;5201274241728287251&#45;&gt;4951488153457241711</title>
<path fill="none" stroke="black" d="M438.12,-611.59C432.18,-620.26 424.79,-631.03 418.21,-640.62"/>
<polygon fill="black" stroke="black" points="415.23,-638.79 412.46,-649.01 421.01,-642.74 415.23,-638.79"/>
</g>
</g>
</svg>
