<?xml version="1.0" encoding="UTF-8"?>
<svg id="Layer_1" data-name="Layer 1" xmlns="http://www.w3.org/2000/svg" version="1.1" viewBox="0 0 553.6 101.6">
  <defs>
    <style>
      .cls-1 {
        fill: #f7f5f2;
        stroke-width: 0px;
      }

      .cls-2 {
        fill: none;
        isolation: isolate;
        opacity: .4;
        stroke: #f7f5f2;
        stroke-width: 3.2px;
      }
    </style>
  </defs>
  <path class="cls-1" d="M336.8,59.5c.3,7.8,5.6,11.5,13.2,11.5s11.4-2.8,11.4-9.2-5.4-7.5-11.9-9.5c-8.6-2.5-17.3-5.1-17.6-14.9-.2-10.1,8.1-15.1,17.5-15.1s17.3,5.2,18.1,15.7h-7c-.9-6.6-4.2-9.8-11.1-9.8s-10.6,2.4-10.6,8.7,5.1,7.4,11.9,9.3c8.7,2.5,17.6,4.4,17.6,15.4s-9,15.2-18.3,15.2-20-5.5-20.1-17.3c0,0,6.9,0,6.9,0ZM384.2,65c0,3.4,1.9,5.2,4.8,5.2h2.6v5.4h-3.3c-7.3,0-10.6-4.3-10.6-10.1v-22.1h-5.6v-5.4h5.6v-8.8l6.4-2.9v11.7h7.2v5.4h-7.2v21.7h.1ZM398.2,62.3v-24.4h6.6v23.7c0,6.6,2.8,9.2,7.9,9.2s10.4-4.7,10.4-14.5v-18.5h6.6v37.7h-6.6v-7.1c-2,4.3-5.5,7.9-11.3,7.9-9.9,0-13.6-6.5-13.6-14.1h0ZM453.8,37c6.8,0,11.6,4.6,13,8.5h0v-22h6.6v52h-6.6v-7.5h0c-1.4,3.9-6.1,8.4-13,8.4-10.6,0-17.2-8.2-17.2-19.8s6.6-19.6,17.2-19.6ZM443.2,56.6c0,8.2,4,14.2,11.9,14.2s11.9-6.8,11.9-14.2-3.8-14.1-11.9-14.1-11.9,5.9-11.9,14.1ZM489.8,30.8h-7v-7.3h7v7.3ZM482.7,75.6v-37.7h6.6v37.7h-6.6ZM515.7,76.4c-11.4,0-18.9-8.6-18.9-19.7s7.4-19.7,18.9-19.7,18.9,8.7,18.9,19.7-7.4,19.7-18.9,19.7ZM503.3,56.8c0,7.7,5,14.1,12.3,14.1s12.3-6.4,12.3-14.1-5-14.2-12.3-14.2-12.3,6.4-12.3,14.2Z"/>
  <line class="cls-2" x1="309.6" y1="18.5" x2="309.6" y2="84.1"/>
  <g>
    <path class="cls-1" d="M172.8,29h13.8v43.7h-13.8v6.6h35.3v-6.6h-13.8V29h13.8v-6.6h-35.3v6.6Z"/>
    <path class="cls-1" d="M50.2,22.3h-5.9c-3.7,0-4.9,2-6,4.8l-19.8,52.2h8.6l5.2-14.1h29.8l5.2,14.1h8.6l-19.8-52.2c-1-2.9-2.3-4.8-6-4.8h.1ZM35.1,57.7l11-29.8h2.1l11,29.8h-24.2.1Z"/>
    <path class="cls-1" d="M268.8,27.1c-1-2.9-2.3-4.8-6-4.8h-5.9c-3.7,0-4.9,2-6,4.8l-19.8,52.2h8.6l5.2-14.1h29.8l5.2,14.1h8.6l-19.8-52.2h0ZM247.8,57.7l11-29.8h2.1l11,29.8h-24.2.1Z"/>
    <path class="cls-1" d="M146.2,40.2c0-9.9-8-17.9-17.9-17.9h-29.1v57h7.5v-21.2h17.6l11.9,21.2h8.8l-12.6-21.6c7.9-1.9,13.8-9,13.8-17.4h0ZM126.8,50.7h-20.1v-20.9h20.1c6.8,0,11.6,4.2,11.8,9.7v1.2c0,5.7-4.8,9.9-11.8,9.9h0Z"/>
  </g>
</svg>