<?xml version="1.0" encoding="UTF-8"?>
<svg id="Layer_1" data-name="Layer 1" xmlns="http://www.w3.org/2000/svg" version="1.1" viewBox="0 0 42 38">
  <defs>
    <style>
      .cls-1 {
        fill: #f8f6f2;
        stroke-width: 0px;
      }
    </style>
  </defs>
  <path class="cls-1" d="M29.6,3.8l11.8,33.5h.7L30.2,3.6c-.8-2.2-2.8-3.6-5-3.6h-8.4c-2.2,0-4.2,1.5-5,3.6L0,37.3h.7L12.3,3.8c.6-1.6,1.9-2.7,3.4-3.1-1.1.6-1.9,1.6-2.3,2.9L1.7,37.3h.7L14,3.8c.6-1.6,1.9-2.7,3.4-3.1-1.1.6-1.9,1.6-2.3,2.9L3.4,37.3h.7L15.7,3.8c.5-1.3,1.5-2.4,2.7-2.9,0,0,.2,0,.2.1-.8.6-1.5,1.5-1.9,2.6L5.1,37.3h.7L17.4,3.8c.4-1,1-1.9,1.9-2.4.1,0,.3.2.4.3-.5.5-.9,1.2-1.2,1.9L6.7,37.3h.7L19.1,3.8c.2-.7.6-1.2,1-1.7.2.2.3.4.5.6-.2.3-.3.6-.4.9l-11.7,33.7h.7L20.8,3.8c0-.2.1-.3.2-.5,0,.2.1.3.2.5l11.7,33.5h.7L21.7,3.6c-.1-.3-.2-.6-.4-.9.1-.2.3-.4.5-.6.5.5.8,1.1,1,1.7l11.8,33.5h.7L23.4,3.6c-.3-.7-.7-1.4-1.2-1.9.1-.1.2-.2.4-.3.9.6,1.5,1.4,1.9,2.4l11.8,33.5h.7L25.1,3.6c-.4-1-1-1.9-1.9-2.5,0,0,.2,0,.2-.1,1.2.5,2.3,1.5,2.7,2.9l11.8,33.5h.7L26.8,3.6c-.4-1.2-1.3-2.2-2.3-2.9,1.6.3,2.9,1.5,3.4,3.1l11.8,33.5h.7L28.5,3.6c-.4-1.2-1.3-2.2-2.3-2.9,1.6.3,2.9,1.5,3.4,3.1ZM19.9,1.1c0,0,.2,0,.2-.1,0,0,.2,0,.2.1,0,0-.2.1-.2.2,0,0-.2-.1-.2-.2ZM21,2.1c-.1-.2-.2-.3-.4-.5.1-.1.2-.2.4-.3.1,0,.3.2.4.3-.1.1-.3.3-.4.5ZM21.8,1.2c0,0-.2-.1-.2-.2,0,0,.2,0,.2-.1,0,0,.2,0,.2.1,0,0-.2.1-.2.2Z"/>
</svg>