<svg width="279" height="115" viewBox="0 0 279 115" fill="none" xmlns="http://www.w3.org/2000/svg">
<path d="M278.273 30.6893C278.372 31.0513 278.287 31.3779 278.188 31.747C278.131 31.9813 278.067 32.2227 278.046 32.4996C277.989 33.1882 277.414 36.7733 276.732 40.0886H276.633C277.321 36.8159 277.896 33.2521 277.953 32.4925C278.01 31.7541 278.351 31.2643 278.166 30.668L278.273 30.6893Z" fill="white" style="fill:white;fill-opacity:1;"/>
<path d="M278.272 30.6892L278.166 30.668C278.009 30.1284 277.413 29.4966 275.78 28.5098C272.784 26.7066 269.306 26.6285 260.098 27.2816L259.743 27.2106C269.192 26.5362 272.77 26.5859 275.823 28.4317C277.527 29.4611 278.123 30.1213 278.272 30.6892Z" fill="white" style="fill:white;fill-opacity:1;"/>
<path d="M278.166 30.668C278.35 31.2643 278.01 31.7541 277.953 32.4924C277.896 33.2521 277.321 36.8158 276.632 40.0957L265.877 41.3096L196.206 49.1613C196.142 43.6879 195.872 39.3219 195.858 39.1089C211.867 35.6232 245.318 28.4104 255.761 27.6082C257.337 27.4875 258.778 27.3739 260.098 27.2816L278.166 30.668Z" fill="#2C0D00" style="fill:#2C0D00;fill:color(display-p3 0.1725 0.0510 0.0000);fill-opacity:1;"/>
<path d="M278.166 30.668L260.099 27.2817C269.306 26.6285 272.785 26.7066 275.781 28.5098C277.414 29.4966 278.01 30.1284 278.166 30.668Z" fill="#2C0D00" style="fill:#2C0D00;fill:color(display-p3 0.1725 0.0510 0.0000);fill-opacity:1;"/>
<path d="M148.428 111.137C150.672 110.243 152.965 109.064 155.336 107.545C164.778 101.496 169.804 87.0568 170.84 84.6998C173.275 84.9341 178.231 83.9331 180.538 83.8053C180.935 83.784 182.781 83.3155 185.6 82.5417C187.658 81.9808 190.235 81.2567 193.146 80.419C209.559 75.7265 236.785 67.605 243.217 65.6527C252.36 62.8698 255.058 54.0953 257.102 50.5457C259.154 46.989 261.241 42.5236 263.563 42.1686H263.577C263.811 42.1828 266.914 42.3887 267.623 42.6159C268.355 42.8502 269.476 44.8734 270.144 45.6188C270.811 46.3572 273.906 46.8967 274.929 45.9312C275.397 45.484 276.057 42.8998 276.632 40.0957H276.732C276.15 42.914 275.482 45.5407 274.992 45.9951C274.581 46.3855 273.821 46.5772 272.848 46.5346C272.834 46.5417 272.827 46.5346 272.813 46.5346C271.642 46.4849 270.47 46.1158 270.073 45.6756C269.846 45.4201 269.562 45.0225 269.271 44.5895C268.695 43.7731 268.049 42.8502 267.595 42.7011C266.899 42.481 263.769 42.2751 263.57 42.2609C261.653 42.5591 259.871 45.7679 258.146 48.8774C257.827 49.4453 257.5 50.0345 257.181 50.5883C256.84 51.1846 256.485 51.9158 256.073 52.7606C254.007 56.9988 250.891 63.4094 243.245 65.7379C233.98 68.5563 182.866 83.7698 180.545 83.8976C179.7 83.9402 178.479 84.1106 177.187 84.2881C175.114 84.5649 172.778 84.8844 171.21 84.8205C171.103 84.8134 170.997 84.8063 170.897 84.7992C170.798 85.0335 170.663 85.3743 170.492 85.8002C168.86 89.8467 163.897 102.171 155.385 107.623C153.05 109.121 150.75 110.321 148.428 111.244C148.364 111.286 148.308 111.322 148.251 111.364C148.229 111.379 148.215 111.386 148.194 111.379C148.173 111.379 148.158 111.364 148.144 111.35C143.75 113.054 139.277 113.757 134.315 113.537C132.64 113.459 130.915 113.281 129.118 112.997C128.309 112.869 127.386 112.749 126.407 112.621C117.064 111.386 99.6853 109.086 89.5973 91.0323C82.491 78.3248 79.5378 69.0035 77.9263 62.4936L78.0186 62.4794C79.6301 68.9964 82.5762 78.2893 89.6754 90.9897C100.793 110.882 120.607 111.577 129.133 112.905C135.522 113.906 141.741 113.799 148.428 111.137Z" fill="white" style="fill:white;fill-opacity:1;"/>
<path d="M265.877 41.3096L276.632 40.0957C276.057 42.8998 275.397 45.484 274.928 45.9312C272.749 44.5753 272.891 42.4526 270.52 41.8137C269.277 41.48 267.41 41.5936 265.927 41.7782L265.877 41.3096Z" fill="#2C0D00" style="fill:#2C0D00;fill:color(display-p3 0.1725 0.0510 0.0000);fill-opacity:1;"/>
<path d="M274.929 45.9312C273.906 46.8967 270.811 46.3571 270.144 45.6188C269.477 44.8734 268.355 42.8501 267.624 42.6159C266.914 42.3887 263.811 42.1828 263.577 42.1686C263.712 42.1402 264.685 41.9344 265.927 41.7782C267.411 41.5936 269.278 41.48 270.52 41.8137C272.891 42.4526 272.749 44.5752 274.929 45.9312Z" fill="white" style="fill:white;fill-opacity:1;"/>
<path d="M265.877 41.3096L265.927 41.7782C264.684 41.9344 263.712 42.1402 263.577 42.1686H263.563C261.241 42.5236 259.154 46.989 257.103 50.5457C255.058 54.0953 252.36 62.8698 243.217 65.6527C236.785 67.605 209.559 75.7265 193.146 80.419C193.146 80.419 195.333 69.5786 195.964 60.2006C196.206 56.5942 196.248 52.6541 196.206 49.1613L265.877 41.3096Z" fill="#2C0D00" style="fill:#2C0D00;fill:color(display-p3 0.1725 0.0510 0.0000);fill-opacity:1;"/>
<path d="M195.858 39.1089C193.047 39.7123 190.775 40.2093 189.263 40.5358C189.043 40.5784 188.844 40.621 188.66 40.6636C179.778 42.5591 166.475 41.0044 166.475 41.0044C166.475 41.0044 134.933 34.0401 113.756 31.5554C101.084 30.0716 90.201 30.8596 82.186 31.6689C85.0967 29.5889 87.5885 26.3091 89.626 23.3771L89.7751 23.3203C87.8015 26.1671 85.331 29.4327 82.4984 31.5483C90.4637 30.7461 101.254 30.0006 113.77 31.4631C134.706 33.9194 166.176 40.8482 166.489 40.9121C166.617 40.9263 179.871 42.4455 188.638 40.5713C189.753 40.337 191.45 39.9679 193.586 39.4993C208.906 36.1698 244.786 28.3607 255.754 27.5159C257.188 27.4023 258.515 27.303 259.744 27.2107L260.099 27.2817C258.778 27.3739 257.337 27.4875 255.761 27.6082C245.318 28.4104 211.867 35.6232 195.858 39.1089Z" fill="white" style="fill:white;fill-opacity:1;"/>
<path d="M196.205 49.1613C196.248 52.6541 196.205 56.5942 195.964 60.2006C195.332 69.5786 193.146 80.419 193.146 80.419C190.235 81.2567 187.658 81.9809 185.599 82.5417C185.599 82.5417 187.842 71.3392 189.106 61.4997C189.61 57.5739 189.738 53.4422 189.71 49.8926L196.205 49.1613Z" fill="#2C0D00" style="fill:#2C0D00;fill:color(display-p3 0.1725 0.0510 0.0000);fill-opacity:1;"/>
<path d="M196.206 49.1613L189.71 49.8925C189.667 44.554 189.263 40.5358 189.263 40.5358C190.775 40.2093 193.047 39.7123 195.858 39.1089C195.872 39.3219 196.142 43.6879 196.206 49.1613Z" fill="#2C0D00" style="fill:#2C0D00;fill:color(display-p3 0.1725 0.0510 0.0000);fill-opacity:1;"/>
<path d="M189.71 49.8925C189.739 53.4421 189.611 57.5739 189.107 61.4997C187.843 71.3392 185.6 82.5417 185.6 82.5417C182.781 83.3155 180.936 83.784 180.538 83.8053C178.231 83.9331 173.276 84.9341 170.841 84.6998C170.841 84.6998 167.49 84.3236 165.396 84.4514C163.294 84.5791 161.129 88.5547 161.129 88.5547C161.172 88.2352 161.214 87.9158 161.264 87.5892C162.116 81.6898 163.99 64.4246 165.246 52.6541L189.71 49.8925ZM176.882 63.452C177.01 60.5342 174.944 58.0708 172.26 57.9501C169.57 57.8294 167.291 60.0941 167.156 63.0189C167.028 65.9367 169.101 68.4001 171.785 68.5208C174.468 68.6415 176.747 66.3697 176.882 63.452Z" fill="#2C0D00" style="fill:#2C0D00;fill:color(display-p3 0.1725 0.0510 0.0000);fill-opacity:1;"/>
<path d="M189.71 49.8925L165.246 52.6541C165.963 45.9312 166.474 41.0044 166.474 41.0044C166.474 41.0044 179.778 42.5591 188.659 40.6636C188.844 40.621 189.043 40.5784 189.263 40.5358C189.263 40.5358 189.667 44.554 189.71 49.8925Z" fill="#2C0D00" style="fill:#2C0D00;fill:color(display-p3 0.1725 0.0510 0.0000);fill-opacity:1;"/>
<path d="M172.26 57.9501C174.944 58.0708 177.01 60.5342 176.882 63.452C176.747 66.3697 174.468 68.6415 171.785 68.5208C169.101 68.4001 167.028 65.9367 167.156 63.0189C167.291 60.0941 169.57 57.8294 172.26 57.9501Z" fill="white" style="fill:white;fill-opacity:1;"/>
<path d="M165.395 84.4513C167.49 84.3236 170.84 84.6998 170.84 84.6998C169.804 87.0567 164.778 101.496 155.336 107.545C152.965 109.064 150.672 110.243 148.428 111.137C159.141 103.633 159.893 97.2654 161.129 88.5547C161.129 88.5547 163.294 84.5791 165.395 84.4513Z" fill="white" style="fill:white;fill-opacity:1;"/>
<path d="M166.475 41.0044C166.475 41.0044 165.963 45.9312 165.246 52.6541L152.376 54.1024C152.567 53.428 152.681 52.7109 152.716 51.9655C152.944 46.9322 149.394 42.3319 144.787 41.6859C140.179 41.0328 136.26 44.5895 136.033 49.6157C135.934 51.8448 136.573 53.9959 137.73 55.7494L132.583 56.3315C129.985 50.0913 130.908 43.1483 130.908 43.1483C130.908 43.1483 127.642 41.6149 121.004 41.1038C114.367 40.5926 100.615 39.1231 93.4311 39.8614C86.2396 40.6068 85.1108 41.7285 83.7265 44.2203C82.3421 46.7192 82.3492 55.3447 83.045 59.4268C83.1443 60.0231 83.336 60.8537 83.5987 61.8547L78.0187 62.4794C77.1029 58.7949 76.6202 55.9908 76.0523 53.9675C74.4833 48.352 69.9541 43.7944 66.1347 43.8228C62.3082 43.8512 59.2414 50.0558 58.0274 60.0799C57.8429 61.6204 57.6015 63.2106 57.3317 64.815L52.2984 65.383C53.1148 60.5768 53.9596 54.7839 53.9738 47.5995C53.9809 44.3978 53.4911 41.6788 52.5398 39.3503C52.3268 38.8249 52.0925 38.3209 51.8228 37.831L66.5819 32.1872C67.6894 32.4357 68.8892 32.5989 70.2451 32.6628C72.0412 32.7409 74.7034 32.4712 78.0968 32.102C79.3605 31.9671 80.7235 31.818 82.186 31.669C90.2009 30.8596 101.084 30.0716 113.756 31.5554C134.933 34.0401 166.475 41.0044 166.475 41.0044Z" fill="#2C0D00" style="fill:#2C0D00;fill:color(display-p3 0.1725 0.0510 0.0000);fill-opacity:1;"/>
<path d="M142.969 105.465C143.452 105.28 143.906 105.082 144.332 104.869C142.955 102.781 141.847 101.12 141.542 99.0828C141.244 97.0453 142.131 94.2553 144.644 92.7645C147.165 91.2808 150.302 91.2098 152.524 94.0778C152.524 94.0778 154.477 87.7738 155.357 81.2141C156.237 74.6474 156.173 69.6354 155.96 67.818C153.412 67.818 139.547 66.6537 134.564 59.8811C133.74 58.7665 133.094 57.5596 132.583 56.3315L137.73 55.7494C139.171 57.9501 141.407 59.5403 143.97 59.9024C147.896 60.449 151.311 57.9643 152.375 54.1023L165.246 52.6541C163.99 64.4246 162.115 81.6898 161.264 87.5892C161.214 87.9157 161.171 88.2352 161.129 88.5547C159.893 97.2654 159.141 103.633 148.428 111.137C141.741 113.799 135.522 113.906 129.133 112.905C120.607 111.577 100.793 110.882 89.6754 90.9897C82.5762 78.2893 79.6301 68.9964 78.0186 62.4794L83.5985 61.8546C85.1319 67.6902 89.1146 79.4535 92.3305 86.0487C96.1002 93.7797 102.702 99.5087 108.268 102.001C113.841 104.485 125.597 106.828 128.813 107.183C131.717 107.502 138.44 107.183 142.962 105.465H142.969Z" fill="#2C0D00" style="fill:#2C0D00;fill:color(display-p3 0.1725 0.0510 0.0000);fill-opacity:1;"/>
<path d="M155.961 67.818C156.174 69.6354 156.237 74.6474 155.357 81.2141C154.477 87.7738 152.525 94.0779 152.525 94.0779C150.303 91.2098 147.165 91.2808 144.645 92.7645C142.131 94.2553 141.244 97.0453 141.542 99.0828C141.847 101.12 142.955 102.781 144.332 104.869C143.906 105.082 143.452 105.28 142.969 105.465H142.962C142.33 105.458 131.518 105.28 124.93 103.896C118.143 102.469 108.985 99.5016 104.342 94.1915C99.6996 88.8813 96.2849 85.566 92.4584 74.5764C90.6553 69.3798 89.4768 65.0493 88.7598 61.2725H88.845C89.5904 65.2268 90.8043 69.5431 92.5436 74.548C96.0648 84.6644 99.2808 88.3133 103.356 92.9278C103.696 93.3254 104.051 93.7229 104.413 94.1347C109.397 99.8424 119.421 102.639 124.951 103.804C131.504 105.181 142.38 105.358 142.962 105.373C143.395 105.202 143.814 105.032 144.197 104.833C142.834 102.76 141.755 101.127 141.457 99.097C141.159 97.0808 142.018 94.2128 144.602 92.6864C146.874 91.3447 150.125 90.9755 152.489 93.8862C152.801 92.8497 154.477 87.0923 155.265 81.1999C156.166 74.4983 156.067 69.6283 155.875 67.9032C152.439 67.8748 139.292 66.4621 134.493 59.9308C133.662 58.8091 133.009 57.5952 132.498 56.3457L132.583 56.3315C133.094 57.5597 133.74 58.7665 134.564 59.8811C139.547 66.6537 153.412 67.8109 155.961 67.818Z" fill="white" style="fill:white;fill-opacity:1;"/>
<path d="M155.876 67.9032C156.067 69.6283 156.167 74.4983 155.265 81.1999C154.477 87.0923 152.802 92.8497 152.489 93.8862C150.125 90.9755 146.874 91.3447 144.602 92.6864C142.018 94.2127 141.159 97.0808 141.457 99.097C141.755 101.127 142.835 102.76 144.198 104.833C143.814 105.032 143.395 105.202 142.962 105.373C142.38 105.358 131.504 105.181 124.952 103.804C119.421 102.639 109.397 99.8424 104.414 94.1346C104.052 93.7229 103.697 93.3253 103.356 92.9278C99.281 88.3133 96.0651 84.6643 92.5439 74.548C90.8046 69.5431 89.5906 65.2268 88.8452 61.2654L132.498 56.3457C133.009 57.5952 133.662 58.8091 134.493 59.9308C139.292 66.462 152.44 67.8748 155.876 67.9032Z" fill="white" style="fill:white;fill-opacity:1;"/>
<path d="M144.786 41.6859C149.394 42.3319 152.943 46.9322 152.716 51.9655C152.681 52.7109 152.567 53.4279 152.375 54.1024L137.73 55.7494C136.573 53.9959 135.934 51.8448 136.033 49.6157C136.26 44.5894 140.179 41.0328 144.786 41.6859Z" fill="white" style="fill:white;fill-opacity:1;"/>
<path d="M137.73 55.7494L152.376 54.1024C151.311 57.9643 147.896 60.449 143.97 59.9024C141.407 59.5403 139.171 57.9501 137.73 55.7494Z" fill="white" style="fill:white;fill-opacity:1;"/>
<path d="M145.085 11.6422C149.359 13.0336 150.217 16.5974 149.6 19.4725C148.925 22.6459 147.69 25.9328 141.649 24.6905C136.942 23.7179 132.668 22.5252 128.139 21.2686C126.89 20.9208 125.619 20.5658 124.327 20.2109C119.89 19.004 112.613 17.5345 106.863 16.782L107.04 16.7181C112.642 17.4564 119.762 18.8691 124.348 20.1257C130.34 21.7585 135.664 23.3629 141.67 24.5982C147.676 25.8334 148.862 22.511 149.515 19.4513C150.168 16.3986 149.067 13.0336 145.056 11.7273C143.374 11.1807 137.382 9.4982 130.645 7.68791L130.78 7.63821C137.545 9.4556 143.523 11.131 145.085 11.6422Z" fill="white" style="fill:white;fill-opacity:1;"/>
<path d="M145.057 11.7274C149.068 13.0336 150.168 16.3986 149.515 19.4513C148.862 22.511 147.676 25.8334 141.67 24.5982C135.664 23.3629 130.34 21.7585 124.348 20.1257C119.762 18.8691 112.642 17.4564 107.041 16.7181L130.645 7.68793C137.382 9.49822 143.374 11.1807 145.057 11.7274Z" fill="white" style="fill:white;fill-opacity:1;"/>
<path d="M124.93 103.896C131.518 105.28 142.33 105.458 142.962 105.465C138.44 107.19 131.717 107.502 128.813 107.183C125.597 106.828 113.841 104.485 108.268 102.001C102.703 99.5087 96.1003 93.7797 92.3306 86.0487C89.1147 79.4535 85.1321 67.6902 83.5986 61.8546L88.7597 61.2725C89.4768 65.0493 90.6552 69.3798 92.4584 74.5764C96.2849 85.5659 99.6996 88.8812 104.342 94.1914C108.985 99.5016 118.143 102.469 124.93 103.896Z" fill="white" style="fill:white;fill-opacity:1;"/>
<path d="M132.583 56.3315L132.498 56.3457C130.056 50.4676 130.723 43.9363 130.808 43.2051C130.332 42.9992 127.06 41.6646 120.997 41.1961C119.84 41.1038 118.441 40.9831 116.958 40.8553C113.06 40.5216 108.055 40.0886 103.363 39.8827C99.6143 39.7123 96.0718 39.6839 93.438 39.9537C89.8174 40.5855 88.1136 43.7731 87.9219 50.283C87.8154 53.7971 88.1065 57.3538 88.8448 61.2654H88.7596C87.9645 57.0698 87.7302 53.5486 87.8296 50.2759C88.0142 44.0712 89.5192 40.5429 93.4309 39.8614C100.615 39.1231 114.366 40.5926 121.004 41.1038C127.642 41.6149 130.907 43.1483 130.907 43.1483C130.907 43.1483 129.985 50.0913 132.583 56.3315Z" fill="white" style="fill:white;fill-opacity:1;"/>
<path d="M132.498 56.3457L88.845 61.2654C88.1067 57.3538 87.8157 53.7971 87.9222 50.283C88.1138 43.773 89.8176 40.5855 93.4382 39.9537C96.072 39.6839 99.6145 39.7123 103.363 39.8827C108.055 40.0886 113.06 40.5216 116.958 40.8553C118.442 40.9831 119.84 41.1038 120.997 41.196C127.06 41.6646 130.333 42.9992 130.808 43.2051C130.723 43.9363 130.056 50.4676 132.498 56.3457Z" fill="white" style="fill:white;fill-opacity:1;"/>
<path d="M130.78 7.63822L130.645 7.68792C125.115 6.21129 119.08 4.64236 114.508 3.54909H114.487C111.385 2.80368 108.957 2.27834 107.814 2.14345C102.923 1.57552 94.3965 0.602931 84.841 1.39804C75.2784 2.19315 34.8628 7.25487 23.7809 8.56111C14.5733 9.65439 5.41535 11.2375 2.3627 12.2456C2.3556 12.2527 2.3556 12.2456 2.3556 12.2456C1.95805 12.2172 1.59599 12.4018 1.36882 12.707H1.36171C1.33332 12.7283 1.31912 12.7567 1.30493 12.778C1.14874 13.0194 1.07065 13.3176 1.09905 13.637C1.68118 19.9127 3.96002 43.9647 5.06749 49.8642C5.32306 51.213 5.77741 53.0588 6.40214 55.1956L6.31695 55.2311C5.69222 53.073 5.23787 51.2201 4.9823 49.8783C3.88193 44.0428 1.65988 20.6652 1.00676 13.6441C0.97126 13.2892 1.07775 12.9413 1.27653 12.6715C1.28363 12.6715 1.28362 12.6573 1.29072 12.6502C1.32622 12.6076 1.36172 12.558 1.40431 12.5154C1.64569 12.2669 1.97935 12.132 2.32011 12.1462C2.33431 12.1462 2.3485 12.1462 2.3627 12.1533H2.3698C5.62833 11.0671 15.198 9.47691 23.7667 8.46882C26.6277 8.12806 31.5119 7.53173 37.1629 6.84311C53.3206 4.86954 77.7347 1.88788 84.8268 1.29865C94.5456 0.496444 103.185 1.50453 107.828 2.05116C108.971 2.18605 111.413 2.71139 114.508 3.4497H114.516C119.13 4.56427 125.221 6.14739 130.78 7.63112V7.63822Z" fill="white" style="fill:white;fill-opacity:1;"/>
<path d="M130.645 7.68792L107.04 16.7181C105.315 16.4838 103.732 16.3205 102.418 16.2424C96.8099 15.9088 95.5747 15.3763 93.2319 18.2444C92.2593 19.43 91.0596 21.3183 89.6255 23.3771L70.3371 30.7532C67.7743 30.0858 65.8433 29.312 64.2389 28.6021C61.314 27.3172 54.087 23.4126 50.6794 21.7869C48.7201 20.8569 46.7252 20.0902 44.1766 19.1602C44.1766 19.1602 44.2263 18.3367 44.2405 17.7617C44.2547 17.1795 44.1127 15.6106 41.4505 15.7242C38.8806 15.8307 36.8999 16.3986 36.7508 16.4412H36.7437C30.3971 14.1908 21.729 12.9768 19.727 12.6857C17.6611 12.3947 14.8215 12.061 14.9067 11.4931C14.9067 11.4931 89.1286 2.13636 94.9499 2.26414C100.636 2.39193 113.869 3.4923 114.487 3.5491H114.508C119.08 4.64237 125.114 6.21129 130.645 7.68792ZM86.0902 20.2038C87.5526 18.216 87.4319 15.1421 85.8062 13.3389C84.1876 11.5428 81.6816 11.699 80.2191 13.6867C78.7496 15.6816 78.8774 18.7555 80.496 20.5516C82.1217 22.3477 84.6206 22.1916 86.0902 20.2038Z" fill="white" style="fill:white;fill-opacity:1;"/>
<path d="M107.814 2.14345C108.957 2.27834 111.385 2.80368 114.487 3.54909C113.87 3.4923 100.637 2.39192 94.9503 2.26414C89.129 2.13635 14.907 11.4931 14.907 11.4931C14.8219 12.061 17.6615 12.3947 19.7274 12.6857C21.7294 12.9768 30.3975 14.1908 36.7441 16.4412H36.7512C36.95 16.5122 37.1559 16.5903 37.3547 16.6613C40.0736 17.6765 42.2815 18.4716 44.177 19.1602C46.7256 20.0902 48.7204 20.8569 50.6798 21.7869C54.0874 23.4126 61.3144 27.3172 64.2393 28.6021C65.8437 29.312 67.7747 30.0858 70.3375 30.7532L66.582 32.1872C62.6703 31.3069 60.0152 29.3972 56.4018 27.4449C51.766 24.946 39.8465 20.005 28.3813 16.6258C18.9678 13.8429 6.50872 12.6006 2.36279 12.2456C5.41544 11.2375 14.5734 9.65439 23.781 8.56112C34.8628 7.25487 75.2785 2.19315 84.8411 1.39804C94.3966 0.602933 102.923 1.57552 107.814 2.14345Z" fill="white" style="fill:white;fill-opacity:1;"/>
<path d="M107.04 16.7181L106.862 16.782C105.222 16.569 103.703 16.4128 102.411 16.3347C101.687 16.2921 101.034 16.2424 100.445 16.1998C96.5046 15.923 95.319 15.8378 93.3029 18.3012C92.6355 19.1105 91.8617 20.2464 90.9743 21.5668C90.5981 22.1206 90.2005 22.7098 89.7746 23.3203L89.6255 23.3771C91.0595 21.3184 92.2593 19.43 93.2319 18.2444C95.5746 15.3763 96.8099 15.9088 102.418 16.2424C103.732 16.3205 105.315 16.4838 107.04 16.7181Z" fill="white" style="fill:white;fill-opacity:1;"/>
<path d="M70.3369 30.7532L89.6254 23.3771C87.5879 26.3091 85.0961 29.5889 82.1854 31.669C80.723 31.818 79.36 31.9671 78.0963 32.102C74.9727 31.7896 72.4383 31.3069 70.3369 30.7532Z" fill="white" style="fill:white;fill-opacity:1;"/>
<path d="M93.4307 39.8614C89.5191 40.5429 88.0141 44.0712 87.8295 50.2759C87.7301 53.5486 87.9644 57.0698 88.7595 61.2725L83.5984 61.8547C83.3357 60.8537 83.144 60.0231 83.0446 59.4267C82.3489 55.3447 82.3418 46.7192 83.7261 44.2203C85.1105 41.7285 86.2393 40.6068 93.4307 39.8614Z" fill="white" style="fill:white;fill-opacity:1;"/>
<path d="M85.8065 13.3389C87.4322 15.1421 87.5529 18.216 86.0904 20.2038C84.6209 22.1915 82.122 22.3477 80.4963 20.5516C78.8777 18.7555 78.7499 15.6816 80.2194 13.6867C81.6818 11.699 84.1879 11.5428 85.8065 13.3389Z" fill="white" style="fill:white;fill-opacity:1;"/>
<path d="M62.4714 64.2329L57.3315 64.815C57.6013 63.2106 57.8427 61.6204 58.0273 60.0799C59.2412 50.0558 62.3081 43.8512 66.1345 43.8228C69.9539 43.7944 74.4832 48.352 76.0521 53.9675C76.62 55.9908 77.1028 58.7949 78.0186 62.4794L77.9263 62.4936C77.479 60.6975 77.1383 59.1144 76.8401 57.7372C76.5277 56.2818 76.2509 55.0253 75.9669 53.9888C74.5968 49.0904 70.8555 44.8876 67.3698 44.0712C65.7157 48.5366 63.8415 57.4603 62.5636 64.2258H62.4714V64.2329Z" fill="white" style="fill:white;fill-opacity:1;"/>
<path d="M77.9266 62.4936L62.564 64.2258C63.8418 57.4603 65.716 48.5366 67.3701 44.0712C70.8558 44.8876 74.5971 49.0904 75.9672 53.9888C76.2512 55.0253 76.5281 56.2818 76.8404 57.7372C77.1386 59.1144 77.4793 60.6975 77.9266 62.4936Z" fill="white" style="fill:white;fill-opacity:1;"/>
<path d="M78.0964 32.102C74.703 32.4712 72.0408 32.7409 70.2447 32.6629C68.8888 32.599 67.689 32.4357 66.5815 32.1872L70.337 30.7532C72.4384 31.3069 74.9728 31.7897 78.0964 32.102Z" fill="white" style="fill:white;fill-opacity:1;"/>
<path d="M66.5818 32.1872L51.8227 37.831C50.0905 34.5867 47.3289 32.1943 43.6657 30.3343C42.7215 29.8587 41.7205 29.4185 40.6557 29.0068C33.3932 26.1955 26.2443 22.9512 19.5995 22.0354C18.421 21.8721 17.2567 21.7798 16.1067 21.7798C8.51055 21.7656 6.48729 26.9338 6.70026 34.4731C6.86354 40.2874 7.42438 45.6969 9.61803 53.9746L6.4021 55.2027C5.77737 53.0659 5.32302 51.2201 5.06745 49.8713C3.95998 43.9718 1.68114 19.9198 1.09901 13.6441C1.07061 13.3247 1.14871 13.0265 1.30489 12.7922C1.31909 12.7567 1.34038 12.7354 1.36168 12.7141H1.36878C1.51076 12.5792 1.84442 12.4302 2.35556 12.2527C2.35556 12.2527 2.35556 12.2598 2.36266 12.2527C6.50859 12.6076 18.9677 13.85 28.3812 16.6329C39.8463 20.0121 51.7659 24.9531 56.4016 27.452C60.0151 29.4043 62.6702 31.314 66.5818 32.1943V32.1872Z" fill="#2C0D00" style="fill:#2C0D00;fill:color(display-p3 0.1725 0.0510 0.0000);fill-opacity:1;"/>
<path d="M62.4715 64.2329H62.5638C61.9035 67.7044 61.4066 70.6151 61.1794 72.042C60.5831 75.7833 59.5111 79.1696 58.0132 82.1087C56.4301 85.1968 54.7618 87.0142 53.6401 87.9939C50.8217 90.4573 43.9142 91.3021 43.5948 91.3447C41.969 91.7067 40.2368 91.6783 38.462 91.2311C33.5423 89.9958 25.3144 87.93 19.0458 82.0803C16.4901 79.6949 13.906 75.0734 11.6484 69.962H11.7549C14.0054 75.0521 16.5824 79.6594 19.1097 82.0164C25.357 87.8448 33.7056 89.939 38.4833 91.1388C40.2439 91.579 41.9548 91.6074 43.5593 91.2524C43.5593 91.2524 50.701 90.4431 53.5762 87.9229C56.4585 85.4098 59.7951 80.1209 61.0871 72.0278C61.2433 71.0765 61.7545 68.0452 62.4715 64.2329Z" fill="white" style="fill:white;fill-opacity:1;"/>
<path d="M57.3315 64.815L62.4713 64.2329C61.7543 68.0452 61.2431 71.0765 61.087 72.0278C59.7949 80.1209 56.4583 85.4098 53.576 87.9229C50.7009 90.4431 43.5591 91.2524 43.5591 91.2524C46.2994 90.649 48.7344 88.9239 50.5731 86.2617C53.0436 82.6979 55.7981 73.5896 57.3315 64.815Z" fill="white" style="fill:white;fill-opacity:1;"/>
<path d="M52.2983 65.383L57.3316 64.815C55.7982 73.5896 53.0437 82.6979 50.5732 86.2617C48.7345 88.9238 46.2995 90.6489 43.5592 91.2524C41.9548 91.6073 40.2439 91.5789 38.4833 91.1388C33.7056 89.939 25.3569 87.8448 19.1096 82.0163C16.5823 79.6594 14.0053 75.052 11.7549 69.9548L17.5052 69.3017C17.6188 70.4234 17.6259 71.7722 17.4555 73.4476C17.4555 73.4476 22.4817 81.3064 30.8304 83.9473C39.1293 86.5669 42.6718 86.3114 45.6251 83.3794C48.5712 80.4474 50.4738 76.2731 51.4038 70.5867C51.6665 68.9893 51.9859 67.2642 52.2983 65.383Z" fill="#2C0D00" style="fill:#2C0D00;fill:color(display-p3 0.1725 0.0510 0.0000);fill-opacity:1;"/>
<path d="M52.5394 39.3503C53.4907 41.6788 53.9806 44.3978 53.9735 47.5995C53.9593 54.7839 53.1145 60.5768 52.2981 65.3829H52.2058C53.0222 60.5981 53.8599 54.791 53.8812 47.5995C53.8883 44.5043 53.4197 41.8137 52.4685 39.4567L43.5093 41.0115L43.9565 40.8411L52.5394 39.3503Z" fill="white" style="fill:white;fill-opacity:1;"/>
<path d="M52.4688 39.4568C53.42 41.8137 53.8886 44.5043 53.8815 47.5995C53.8602 54.791 53.0225 60.5981 52.2061 65.3901L23.2485 68.6557C22.4037 66.6253 21.6938 64.3962 21.1188 61.9754C20.4159 59.0292 19.919 55.075 19.6279 50.1481L43.5096 41.0115L52.4688 39.4568Z" fill="white" style="fill:white;fill-opacity:1;"/>
<path d="M52.5395 39.3502L43.9565 40.8411L51.8224 37.831C52.0922 38.3209 52.3265 38.8249 52.5395 39.3502Z" fill="white" style="fill:white;fill-opacity:1;"/>
<path d="M52.2058 65.3901H52.2981C51.9858 67.2643 51.6663 68.9894 51.4036 70.5867C50.4736 76.2731 48.5711 80.4474 45.6249 83.3794C45.6249 83.3794 42.5581 83.9686 39.9527 83.3013C37.3544 82.6411 30.6101 79.5387 28.0757 76.7133C26.4145 74.8675 24.661 72.2905 23.1631 68.6628H23.2483C24.5616 71.8148 26.2015 74.4912 28.1396 76.6565C30.6598 79.4536 37.326 82.5417 39.9739 83.2161C42.4161 83.8409 45.2912 83.351 45.5752 83.2942C48.5143 80.3623 50.3955 76.2021 51.3184 70.5725C51.4675 69.6425 51.6379 68.677 51.8154 67.6547C51.9432 66.9235 52.0709 66.171 52.2058 65.3901Z" fill="white" style="fill:white;fill-opacity:1;"/>
<path d="M23.248 68.6557L52.2056 65.3901C52.0707 66.171 51.9429 66.9235 51.8152 67.6547C51.6377 68.677 51.4673 69.6425 51.3182 70.5725C50.3953 76.2021 48.514 80.3623 45.575 83.2942C45.291 83.351 42.4158 83.8408 39.9737 83.2161C37.3257 82.5417 30.6596 79.4536 28.1394 76.6565C26.2013 74.4912 24.5614 71.8148 23.248 68.6557Z" fill="white" style="fill:white;fill-opacity:1;"/>
<path d="M51.8226 37.831L43.9567 40.8411L19.3154 45.129C19.2586 43.2761 19.2302 41.3238 19.2231 39.258C19.2231 39.258 39.3635 36.0562 40.8614 35.8859C42.3594 35.7226 43.8857 34.9275 43.8928 33.536C43.907 32.1517 43.6656 30.3414 43.6656 30.3414C47.3288 32.1943 50.0904 34.5867 51.8226 37.831Z" fill="white" style="fill:white;fill-opacity:1;"/>
<path d="M41.4506 15.7242C44.1128 15.6106 44.2548 17.1795 44.2406 17.7616C44.2264 18.3367 44.1767 19.1602 44.1767 19.1602C42.2812 18.4716 40.0734 17.6765 37.3544 16.6613C37.1556 16.5903 36.9498 16.5122 36.751 16.4412C36.9001 16.3986 38.8807 15.8307 41.4506 15.7242Z" fill="white" style="fill:white;fill-opacity:1;"/>
<path d="M43.9567 40.8411L43.5094 41.0115L19.4148 45.2C19.4645 46.9464 19.5355 48.5934 19.6278 50.1481L19.5355 50.1836C19.4361 48.6005 19.3651 46.9109 19.3154 45.129L43.9567 40.8411Z" fill="white" style="fill:white;fill-opacity:1;"/>
<path d="M43.6657 30.3414C43.6657 30.3414 43.9071 32.1517 43.8929 33.536C43.8858 34.9275 42.3595 35.7226 40.8615 35.8859C39.3636 36.0563 19.2232 39.258 19.2232 39.258C19.209 34.1679 19.3368 28.4317 19.5995 22.0354C26.2443 22.9512 33.3932 26.1955 40.6557 29.0068C41.7205 29.4185 42.7215 29.8587 43.6657 30.3343V30.3414Z" fill="white" style="fill:white;fill-opacity:1;"/>
<path d="M39.9529 83.3013C42.5583 83.9686 45.6251 83.3794 45.6251 83.3794C42.6719 86.3113 39.1294 86.5669 30.8304 83.9473C22.4818 81.3064 17.4556 73.4476 17.4556 73.4476C17.6259 71.7722 17.6188 70.4234 17.5053 69.3017L23.1633 68.6628C24.6612 72.2905 26.4147 74.8675 28.0759 76.7133C30.6103 79.5387 37.3546 82.6411 39.9529 83.3013Z" fill="white" style="fill:white;fill-opacity:1;"/>
<path d="M23.248 68.6557H23.1628C22.3606 66.7531 21.6365 64.5453 21.026 61.9967C20.3232 59.0292 19.8262 55.0892 19.5352 50.1836L19.6274 50.1481C19.9185 55.075 20.4155 59.0292 21.1183 61.9754C21.6933 64.3962 22.4032 66.6253 23.248 68.6557Z" fill="white" style="fill:white;fill-opacity:1;"/>
<path d="M23.1634 68.6628L17.5054 69.3017C17.3137 67.3849 16.7954 66.1426 16.263 65.1487C15.1484 63.0828 13.615 62.1741 12.0319 62.1883C11.0593 59.1428 10.2642 56.4309 9.61816 53.9746L19.5357 50.1836C19.8268 55.0892 20.3237 59.0292 21.0265 61.9967C21.6371 64.5453 22.3612 66.7531 23.1634 68.6628Z" fill="white" style="fill:white;fill-opacity:1;"/>
<path d="M19.5357 50.1836L9.61818 53.9746C7.42453 45.6969 6.8637 40.2874 6.70042 34.4731C6.48744 26.9338 8.51071 21.7656 16.1068 21.7798C17.2569 21.7798 18.4212 21.8721 19.5996 22.0354C19.337 28.4317 19.2092 34.1679 19.2234 39.258C19.2305 41.3238 19.2589 43.2761 19.3157 45.129C19.3654 46.9109 19.4364 48.6005 19.5357 50.1836Z" fill="white" style="fill:white;fill-opacity:1;"/>
<path d="M17.505 69.3017L11.7546 69.9548C9.53969 64.957 7.64421 59.4906 6.40186 55.2027L9.61778 53.9746C10.2638 56.4309 11.0589 59.1428 12.0315 62.1883C13.6146 62.1741 15.148 63.0828 16.2626 65.1487C16.7951 66.1426 17.3133 67.3849 17.505 69.3017Z" fill="#2C0D00" style="fill:#2C0D00;fill:color(display-p3 0.1725 0.0510 0.0000);fill-opacity:1;"/>
<path d="M11.7549 69.9548H11.6484C9.44764 64.9712 7.55925 59.5119 6.31689 55.2382L6.40209 55.2027C7.64444 59.4906 9.53992 64.957 11.7549 69.9548Z" fill="white" style="fill:white;fill-opacity:1;"/>
<path d="M1.36865 12.707C1.59583 12.4018 1.95788 12.2172 2.35544 12.2456C1.8443 12.4231 1.51064 12.5722 1.36865 12.707Z" fill="white" style="fill:white;fill-opacity:1;"/>
<path d="M1.36148 12.7141C1.36148 12.7141 1.31889 12.7567 1.30469 12.7851C1.31889 12.7638 1.33308 12.7354 1.36148 12.7141Z" fill="white" style="fill:white;fill-opacity:1;"/>
<path d="M43.5096 41.0115L19.6279 50.1482" stroke="#2C0D00" style="stroke:#2C0D00;stroke:color(display-p3 0.1725 0.0510 0.0000);stroke-opacity:1;" stroke-width="1.41984" stroke-linecap="round" stroke-linejoin="round"/>
<path d="M2.36279 12.2456C6.50872 12.6006 18.9678 13.8429 28.3813 16.6258C39.8465 20.005 51.766 24.946 56.4018 27.445C60.0152 29.3972 62.6703 31.3069 66.582 32.1872C67.6895 32.4357 68.8892 32.599 70.2452 32.6628C72.0413 32.7409 74.7035 32.4712 78.0969 32.102C79.3605 31.9671 80.7236 31.818 82.186 31.669C90.201 30.8597 101.084 30.0716 113.756 31.5554C134.933 34.0401 166.475 41.0044 166.475 41.0044C166.475 41.0044 179.778 42.5591 188.66 40.6636C188.844 40.621 189.043 40.5784 189.263 40.5358C190.775 40.2093 193.047 39.7123 195.858 39.1089C211.867 35.6232 245.318 28.4104 255.761 27.6082C257.337 27.4875 258.778 27.374 260.099 27.2817C269.306 26.6285 272.785 26.7066 275.781 28.5098C277.413 29.4966 278.01 30.1284 278.166 30.668C278.351 31.2643 278.01 31.7542 277.953 32.4925C277.896 33.2521 277.321 36.8159 276.633 40.0957C276.058 42.8999 275.397 45.484 274.929 45.9312C273.907 46.8967 270.811 46.3572 270.144 45.6189C269.477 44.8734 268.355 42.8502 267.624 42.6159C266.914 42.3887 263.811 42.1829 263.577 42.1687" stroke="#2C0D00" style="stroke:#2C0D00;stroke:color(display-p3 0.1725 0.0510 0.0000);stroke-opacity:1;" stroke-width="1.41984" stroke-linecap="round" stroke-linejoin="round"/>
<path d="M1.36865 12.707C1.59583 12.4018 1.95788 12.2172 2.35544 12.2456" stroke="#2C0D00" style="stroke:#2C0D00;stroke:color(display-p3 0.1725 0.0510 0.0000);stroke-opacity:1;" stroke-width="1.41984" stroke-linecap="round" stroke-linejoin="round"/>
<path d="M1.30469 12.7851C1.30469 12.7851 1.34018 12.7354 1.36148 12.7141" stroke="#2C0D00" style="stroke:#2C0D00;stroke:color(display-p3 0.1725 0.0510 0.0000);stroke-opacity:1;" stroke-width="1.41984" stroke-linecap="round" stroke-linejoin="round"/>
<path d="M263.563 42.1686C261.241 42.5236 259.154 46.989 257.103 50.5457C255.058 54.0953 252.36 62.8699 243.217 65.6527C236.785 67.605 209.559 75.7265 193.146 80.419C190.235 81.2567 187.658 81.9809 185.6 82.5417C182.781 83.3155 180.935 83.7841 180.538 83.8054C178.231 83.9331 173.275 84.9341 170.84 84.6998C169.804 87.0568 164.778 101.497 155.336 107.545C152.965 109.064 150.672 110.243 148.428 111.137C141.741 113.799 135.522 113.906 129.133 112.905C120.607 111.577 100.793 110.882 89.6755 90.9897C82.5763 78.2893 79.6301 68.9965 78.0186 62.4794C77.1028 58.7949 76.6201 55.9908 76.0522 53.9675C74.4832 48.352 69.954 43.7944 66.1346 43.8228C62.3082 43.8512 59.2413 50.0558 58.0273 60.0799C57.8428 61.6204 57.6014 63.2106 57.3316 64.815C55.7982 73.5896 53.0437 82.6979 50.5732 86.2617C48.7345 88.9239 46.2995 90.649 43.5592 91.2524C41.9548 91.6073 40.2439 91.5789 38.4833 91.1388C33.7055 89.939 25.3569 87.8448 19.1096 82.0164C16.5823 79.6594 14.0053 75.0521 11.7549 69.9548C9.53993 64.957 7.64446 59.4907 6.4021 55.2027C5.77737 53.0659 5.32302 51.2201 5.06745 49.8713C3.95998 43.9718 1.68114 19.9198 1.09901 13.6441C1.07061 13.3247 1.14871 13.0265 1.30489 12.7922" stroke="#2C0D00" style="stroke:#2C0D00;stroke:color(display-p3 0.1725 0.0510 0.0000);stroke-opacity:1;" stroke-width="1.41984" stroke-linecap="round" stroke-linejoin="round"/>
<path d="M176.882 63.452C176.747 66.3698 174.468 68.6415 171.785 68.5208C169.101 68.4001 167.028 65.9367 167.156 63.0189C167.291 60.0941 169.57 57.8294 172.26 57.9501C174.944 58.0708 177.01 60.5342 176.882 63.452Z" stroke="#2C0D00" style="stroke:#2C0D00;stroke:color(display-p3 0.1725 0.0510 0.0000);stroke-opacity:1;" stroke-width="1.41984" stroke-linecap="round" stroke-linejoin="round"/>
<path d="M263.563 42.1687H263.577C263.712 42.1403 264.685 41.9344 265.927 41.7782C267.411 41.5936 269.278 41.48 270.52 41.8137C272.891 42.4526 272.749 44.5753 274.929 45.9312" stroke="#2C0D00" style="stroke:#2C0D00;stroke:color(display-p3 0.1725 0.0510 0.0000);stroke-opacity:1;" stroke-width="1.41984" stroke-linecap="round" stroke-linejoin="round"/>
<path d="M43.5591 91.2524C43.5591 91.2524 50.7009 90.4431 53.576 87.9229C56.4583 85.4098 59.7949 80.1209 61.087 72.0278C61.2431 71.0765 61.7543 68.0452 62.4713 64.2329C63.7279 57.5526 65.6162 48.4798 67.3129 43.9576" stroke="#2C0D00" style="stroke:#2C0D00;stroke:color(display-p3 0.1725 0.0510 0.0000);stroke-opacity:1;" stroke-width="1.41984" stroke-linecap="round" stroke-linejoin="round"/>
<path d="M142.969 105.465C143.452 105.28 143.906 105.082 144.332 104.869C142.955 102.781 141.847 101.12 141.542 99.0828C141.244 97.0453 142.131 94.2554 144.644 92.7645C147.164 91.2808 150.302 91.2098 152.524 94.0779C152.524 94.0779 154.477 87.7738 155.357 81.2142C156.237 74.6474 156.173 69.6354 155.96 67.818C153.412 67.818 139.547 66.6537 134.563 59.8811C133.74 58.7666 133.094 57.5597 132.583 56.3315C129.984 50.0914 130.907 43.1484 130.907 43.1484C130.907 43.1484 127.642 41.6149 121.004 41.1038C114.366 40.5926 100.615 39.1231 93.4307 39.8614C86.2393 40.6068 85.1105 41.7285 83.7261 44.2203C82.3418 46.7192 82.3489 55.3447 83.0446 59.4268C83.144 60.0231 83.3357 60.8537 83.5984 61.8547C85.1318 67.6902 89.1144 79.4536 92.3304 86.0487C96.1 93.7797 102.702 99.5088 108.268 102.001C113.841 104.485 125.597 106.828 128.813 107.183C131.717 107.502 138.44 107.183 142.962 105.465" stroke="#2C0D00" style="stroke:#2C0D00;stroke:color(display-p3 0.1725 0.0510 0.0000);stroke-opacity:1;" stroke-width="1.41984" stroke-linecap="round" stroke-linejoin="round"/>
<path d="M137.73 55.7494C136.573 53.9959 135.934 51.8448 136.033 49.6157C136.26 44.5895 140.179 41.0328 144.786 41.6859C149.394 42.3319 152.943 46.9322 152.716 51.9655C152.681 52.7109 152.567 53.428 152.375 54.1024C151.31 57.9643 147.896 60.449 143.97 59.9024C141.407 59.5403 139.171 57.9501 137.73 55.7494Z" stroke="#2C0D00" style="stroke:#2C0D00;stroke:color(display-p3 0.1725 0.0510 0.0000);stroke-opacity:1;" stroke-width="1.41984" stroke-linecap="round" stroke-linejoin="round"/>
<path d="M85.8065 13.3389C84.1879 11.5428 81.6818 11.699 80.2194 13.6867C78.7499 15.6816 78.8777 18.7555 80.4963 20.5516C82.122 22.3477 84.6209 22.1915 86.0904 20.2038C87.5529 18.216 87.4322 15.1421 85.8065 13.3389Z" stroke="#2C0D00" style="stroke:#2C0D00;stroke:color(display-p3 0.1725 0.0510 0.0000);stroke-opacity:1;" stroke-width="1.41984" stroke-linecap="round" stroke-linejoin="round"/>
<path d="M166.474 41.0044C166.474 41.0044 165.963 45.9312 165.246 52.6542C163.99 64.4246 162.116 81.6898 161.264 87.5892C161.214 87.9158 161.171 88.2352 161.129 88.5547C159.894 97.2654 159.141 103.633 148.428 111.137C148.35 111.187 148.279 111.244 148.201 111.293" stroke="#2C0D00" style="stroke:#2C0D00;stroke:color(display-p3 0.1725 0.0510 0.0000);stroke-opacity:1;" stroke-width="1.41984" stroke-linecap="round" stroke-linejoin="round"/>
<path d="M161.129 88.5547C161.129 88.5547 163.294 84.5792 165.396 84.4514C167.49 84.3236 170.841 84.6998 170.841 84.6998" stroke="#2C0D00" style="stroke:#2C0D00;stroke:color(display-p3 0.1725 0.0510 0.0000);stroke-opacity:1;" stroke-width="1.41984" stroke-linecap="round" stroke-linejoin="round"/>
<path d="M189.262 40.5358C189.262 40.5358 189.667 44.554 189.71 49.8925C189.738 53.4421 189.61 57.5739 189.106 61.4997C187.842 71.3392 185.599 82.5417 185.599 82.5417" stroke="#2C0D00" style="stroke:#2C0D00;stroke:color(display-p3 0.1725 0.0510 0.0000);stroke-opacity:1;" stroke-width="1.41984" stroke-linecap="round" stroke-linejoin="round"/>
<path d="M195.857 39.1018C195.872 39.3219 196.141 43.6879 196.205 49.1614C196.248 52.6541 196.205 56.5942 195.964 60.2006C195.332 69.5786 193.146 80.419 193.146 80.419" stroke="#2C0D00" style="stroke:#2C0D00;stroke:color(display-p3 0.1725 0.0510 0.0000);stroke-opacity:1;" stroke-width="1.41984" stroke-linecap="round" stroke-linejoin="round"/>
<path d="M142.99 105.465H142.962C142.33 105.458 131.518 105.28 124.93 103.896C118.143 102.469 108.985 99.5016 104.342 94.1915C99.6994 88.8813 96.2847 85.566 92.4583 74.5764C90.6551 69.3798 89.4766 65.0493 88.7596 61.2726C87.9645 57.0698 87.7302 53.5486 87.8296 50.2759C88.0142 44.0712 89.5192 40.5429 93.4309 39.8614" stroke="#2C0D00" style="stroke:#2C0D00;stroke:color(display-p3 0.1725 0.0510 0.0000);stroke-opacity:1;" stroke-width="1.41984" stroke-linecap="round" stroke-linejoin="round"/>
<path d="M17.5049 69.3017C17.6185 70.4234 17.6256 71.7722 17.4552 73.4476C17.4552 73.4476 22.4814 81.3064 30.83 83.9473C39.129 86.5669 42.6715 86.3113 45.6247 83.3794C48.5709 80.4474 50.4735 76.2731 51.4035 70.5867C51.6661 68.9893 51.9856 67.2642 52.298 65.383C53.1144 60.5768 53.9592 54.7839 53.9734 47.5995C53.9805 44.3978 53.4906 41.6788 52.5393 39.3503C52.3264 38.8249 52.0921 38.3209 51.8223 37.831C50.0901 34.5867 47.3285 32.1943 43.6654 30.3343C42.7212 29.8587 41.7202 29.4185 40.6553 29.0068C33.3929 26.1955 26.244 22.9511 19.5991 22.0354C18.4207 21.8721 17.2564 21.7798 16.1063 21.7798C8.51022 21.7656 6.48695 26.9338 6.69993 34.4731C6.86321 40.2874 7.42405 45.6969 9.61769 53.9746C10.2637 56.4309 11.0588 59.1428 12.0314 62.1883C13.6145 62.1741 15.148 63.0828 16.2625 65.1487C16.795 66.1426 17.3132 67.3849 17.5049 69.3017Z" stroke="#2C0D00" style="stroke:#2C0D00;stroke:color(display-p3 0.1725 0.0510 0.0000);stroke-opacity:1;" stroke-width="1.41984" stroke-linecap="round" stroke-linejoin="round"/>
<path d="M45.6251 83.3794C45.6251 83.3794 42.5582 83.9686 39.9528 83.3013C37.3545 82.6411 30.6103 79.5387 28.0759 76.7133C26.4147 74.8675 24.6612 72.2905 23.1633 68.6628C22.3611 66.7531 21.637 64.5453 21.0264 61.9967C20.3236 59.0292 19.8267 55.0892 19.5356 50.1836C19.4362 48.6005 19.3652 46.9109 19.3155 45.129C19.2587 43.2761 19.2303 41.3238 19.2232 39.258C19.209 34.1679 19.3368 28.4317 19.5995 22.0354" stroke="#2C0D00" style="stroke:#2C0D00;stroke:color(display-p3 0.1725 0.0510 0.0000);stroke-opacity:1;" stroke-width="1.41984" stroke-linecap="round" stroke-linejoin="round"/>
<path d="M114.509 3.5491C119.08 4.64238 125.115 6.2113 130.645 7.68793C137.382 9.49822 143.374 11.1807 145.056 11.7274C149.067 13.0336 150.168 16.3986 149.515 19.4513C148.862 22.511 147.676 25.8334 141.67 24.5982C135.664 23.3629 130.34 21.7585 124.348 20.1257C119.762 18.8691 112.642 17.4564 107.04 16.7181C105.315 16.4838 103.732 16.3205 102.419 16.2424C96.8104 15.9088 95.5751 15.3763 93.2324 18.2444C92.2598 19.43 91.06 21.3184 89.626 23.3771C87.5885 26.3091 85.0967 29.5889 82.186 31.669" stroke="#2C0D00" style="stroke:#2C0D00;stroke:color(display-p3 0.1725 0.0510 0.0000);stroke-opacity:1;" stroke-width="1.41984" stroke-linecap="round" stroke-linejoin="round"/>
<path d="M1.30469 12.7922C1.30469 12.7922 1.33308 12.7354 1.36148 12.7141H1.36858C1.51056 12.5793 1.84422 12.4302 2.35536 12.2527C2.35536 12.2527 2.35536 12.2598 2.36246 12.2527C5.41511 11.2446 14.5731 9.6615 23.7807 8.56823C34.8625 7.26198 75.2782 2.20026 84.8408 1.40515C94.3963 0.610043 102.922 1.58263 107.814 2.15057C108.957 2.28545 111.385 2.81079 114.487 3.5562" stroke="#2C0D00" style="stroke:#2C0D00;stroke:color(display-p3 0.1725 0.0510 0.0000);stroke-opacity:1;" stroke-width="1.41984" stroke-linecap="round" stroke-linejoin="round"/>
<path d="M36.751 16.4412C36.9498 16.5122 37.1556 16.5903 37.3544 16.6613C40.0734 17.6765 42.2812 18.4716 44.1767 19.1602C46.7253 20.0902 48.7202 20.8569 50.6796 21.7869C54.0872 23.4126 61.3141 27.3172 64.239 28.6021C65.8434 29.312 67.7744 30.0859 70.3372 30.7532C72.4386 31.3069 74.973 31.7897 78.0966 32.102" stroke="#2C0D00" style="stroke:#2C0D00;stroke:color(display-p3 0.1725 0.0510 0.0000);stroke-opacity:1;" stroke-width="1.41984" stroke-linecap="round" stroke-linejoin="round"/>
<path d="M114.508 3.5491H114.487C113.869 3.4923 100.636 2.39193 94.9499 2.26414C89.1286 2.13636 14.9067 11.4931 14.9067 11.4931C14.8215 12.061 17.6611 12.3947 19.727 12.6857C21.729 12.9768 30.3971 14.1908 36.7437 16.4412" stroke="#2C0D00" style="stroke:#2C0D00;stroke:color(display-p3 0.1725 0.0510 0.0000);stroke-opacity:1;" stroke-width="1.41984" stroke-linecap="round" stroke-linejoin="round"/>
<path d="M19.2231 39.258C19.2231 39.258 39.3635 36.0563 40.8614 35.8859C42.3594 35.7226 43.8857 34.9275 43.8928 33.5361C43.907 32.1517 43.6656 30.3414 43.6656 30.3414" stroke="#2C0D00" style="stroke:#2C0D00;stroke:color(display-p3 0.1725 0.0510 0.0000);stroke-opacity:1;" stroke-width="1.41984" stroke-linecap="round" stroke-linejoin="round"/>
<path d="M44.177 19.1602C44.177 19.1602 44.2267 18.3367 44.2409 17.7616C44.2551 17.1795 44.1131 15.6106 41.4509 15.7242C38.881 15.8307 36.9003 16.3986 36.7512 16.4412H36.7441" stroke="#2C0D00" style="stroke:#2C0D00;stroke:color(display-p3 0.1725 0.0510 0.0000);stroke-opacity:1;" stroke-width="1.41984" stroke-linecap="round" stroke-linejoin="round"/>
<path d="M19.3154 45.129L43.9567 40.8411L52.5396 39.3503" stroke="#2C0D00" style="stroke:#2C0D00;stroke:color(display-p3 0.1725 0.0510 0.0000);stroke-opacity:1;" stroke-width="1.41984" stroke-linecap="round" stroke-linejoin="round"/>
<g clip-path="url(#clip0_3013_57530)">
<path d="M186.059 99.0024C164.405 99.0024 146.852 81.4491 146.852 59.796C146.852 38.1428 164.405 20.5895 186.059 20.5895" stroke="white" style="stroke:white;stroke-opacity:1;" stroke-width="1.41984"/>
<path d="M233.609 59.796C233.609 81.0578 216.374 98.2925 195.112 98.2925H187.478V21.2994H195.112C216.374 21.2994 233.609 38.5341 233.609 59.796Z" fill="white" stroke="#2C0D00" style="fill:white;fill-opacity:1;stroke:#2C0D00;stroke:color(display-p3 0.1725 0.0510 0.0000);stroke-opacity:1;" stroke-width="1.41984" stroke-linecap="round" stroke-linejoin="round"/>
<path d="M186.768 99.0024C208.422 99.0024 225.975 81.4491 225.975 59.796C225.975 38.1428 208.422 20.5895 186.768 20.5895C165.115 20.5895 147.562 38.1428 147.562 59.796C147.562 81.4491 165.115 99.0024 186.768 99.0024Z" fill="#2C0D00" style="fill:#2C0D00;fill:color(display-p3 0.1725 0.0510 0.0000);fill-opacity:1;"/>
<path d="M207.345 47.967L198.597 39.2186L186.768 51.0474L174.939 39.2186L166.191 47.967L178.02 59.7958L166.191 71.6247L174.939 80.3731L186.768 68.5442L198.597 80.3731L207.345 71.6247L195.517 59.7958L207.345 47.967Z" fill="white" stroke="#2C0D00" style="fill:white;fill-opacity:1;stroke:#2C0D00;stroke:color(display-p3 0.1725 0.0510 0.0000);stroke-opacity:1;" stroke-width="0.586748" stroke-linecap="round" stroke-linejoin="round"/>
</g>
<defs>
<clipPath id="clip0_3013_57530">
<rect width="91.5794" height="78.8009" fill="white" style="fill:white;fill-opacity:1;" transform="translate(143.303 20.2961)"/>
</clipPath>
</defs>
</svg>
