<?xml version="1.0" encoding="UTF-8"?>
<svg id="Layer_1" data-name="Layer 1" xmlns="http://www.w3.org/2000/svg" version="1.1" viewBox="0 0 273 270">
  <defs>
    <style>
      .cls-1 {
        fill: #000;
        stroke-width: 0px;
      }
    </style>
  </defs>
  <path class="cls-1" d="M123.2,227.1c-8.9,0-17.2-3-23.9-7.9l-17.9,3.6c-2.7.5-5.5,0-7.7-1.6-2.3-1.6-3.7-4-4.1-6.8l-19.6-137.5c-.8-5.5,3-10.5,8.5-11.3l24.8-3.6v-14.9c0-.7,0-1.3,0-2l-.5-3.2-27.2,3.9c-16.3,2.4-27.7,17.6-25.4,33.9l19.6,137.5c1.2,8.1,5.7,15.5,12.4,20.3,5.1,3.6,11.2,5.5,17.4,5.5,2,0,3.9-.2,5.9-.6l51.3-10.3-1-5h-12.5Z"/>
  <path class="cls-1" d="M223.2,27.1h-100c-11,0-20,9-20,20v140c0,11,9,20,20,20h100c11,0,20-9,20-20V47.1c0-11-9-20-20-20ZM178.2,122.6h-46c-4.1,0-7.5-3.4-7.5-7.5s3.4-7.5,7.5-7.5h46c4.1,0,7.5,3.4,7.5,7.5s-3.4,7.5-7.5,7.5ZM213.2,95.6h-82c-4.1,0-7.5-3.4-7.5-7.5s3.4-7.5,7.5-7.5h82c4.1,0,7.5,3.4,7.5,7.5s-3.4,7.5-7.5,7.5ZM213.2,68.6h-82c-4.1,0-7.5-3.4-7.5-7.5s3.4-7.5,7.5-7.5h82c4.1,0,7.5,3.4,7.5,7.5s-3.4,7.5-7.5,7.5Z"/>
</svg>