<?xml version="1.0" encoding="UTF-8"?>
<svg id="Layer_1" data-name="Layer 1" xmlns="http://www.w3.org/2000/svg" version="1.1" viewBox="0 0 273 270">
  <defs>
    <style>
      .cls-1 {
        fill: none;
      }

      .cls-1, .cls-2, .cls-3 {
        stroke-width: 0px;
      }

      .cls-2 {
        fill: #000;
      }

      .cls-3 {
        fill: #fff;
      }
    </style>
  </defs>
  <rect class="cls-3" width="272" height="270"/>
  <g>
    <path class="cls-1" d="M182.2,106.1h-94.9c-4.9,0-8.8,3.9-8.8,8.8s3.9,8.8,8.8,8.8h94.9c4.9,0,8.8-3.9,8.8-8.8s-3.9-8.8-8.8-8.8Z"/>
    <path class="cls-1" d="M142.4,150.6h-53.9c-4.9,0-8.8,3.9-8.8,8.8s3.9,8.8,8.8,8.8h53.9c4.9,0,8.8-3.9,8.8-8.8s-3.9-8.8-8.8-8.8Z"/>
    <path class="cls-1" d="M182.2,61.5h-94.9c-4.9,0-8.8,3.9-8.8,8.8s3.9,8.8,8.8,8.8h94.9c4.9,0,8.8-3.9,8.8-8.8s-3.9-8.8-8.8-8.8Z"/>
    <path class="cls-2" d="M195.1,30.5h-117.1c-12.9,0-23.4,10.5-23.4,23.4v162.1c0,12.9,10.5,23.4,23.4,23.4h117.1c12.9,0,23.4-10.5,23.4-23.4V53.9c0-12.9-10.5-23.4-23.4-23.4ZM142.4,168.1h-53.9c-4.9,0-8.8-3.9-8.8-8.8s3.9-8.8,8.8-8.8h53.9c4.9,0,8.8,3.9,8.8,8.8s-3.9,8.8-8.8,8.8ZM182.2,123.6h-94.9c-4.9,0-8.8-3.9-8.8-8.8s3.9-8.8,8.8-8.8h94.9c4.9,0,8.8,3.9,8.8,8.8s-3.9,8.8-8.8,8.8ZM182.2,79.1h-94.9c-4.9,0-8.8-3.9-8.8-8.8s3.9-8.8,8.8-8.8h94.9c4.9,0,8.8,3.9,8.8,8.8s-3.9,8.8-8.8,8.8Z"/>
  </g>
</svg>