<svg width="319" height="269" viewBox="0 0 319 269" fill="none" xmlns="http://www.w3.org/2000/svg">
<path d="M283.984 198.575L282.779 192.76L281.736 192.977C275.725 183.262 260.109 178.37 243.421 181.823C226.732 185.275 214.339 195.961 212.675 207.26L211.632 207.477L212.837 213.292C215.591 226.609 233.753 234.11 253.4 230.045C273.047 225.979 286.743 211.892 283.988 198.575H283.984Z" fill="#300B00" stroke="#300B00" style="fill:#300B00;fill:color(display-p3 0.1882 0.0431 0.0000);fill-opacity:1;stroke:#300B00;stroke:color(display-p3 0.1882 0.0431 0.0000);stroke-opacity:1;" stroke-width="0.710962" stroke-linecap="round" stroke-linejoin="round"/>
<path d="M252.203 224.207C271.852 220.141 285.547 206.049 282.792 192.732C280.036 179.415 261.874 171.915 242.225 175.98C222.576 180.046 208.881 194.137 211.636 207.455C214.392 220.772 232.554 228.272 252.203 224.207Z" fill="#F7F5F2" stroke="#300B00" style="fill:#F7F5F2;fill:color(display-p3 0.9686 0.9608 0.9490);fill-opacity:1;stroke:#300B00;stroke:color(display-p3 0.1882 0.0431 0.0000);stroke-opacity:1;" stroke-width="0.710962" stroke-linecap="round" stroke-linejoin="round"/>
<path d="M225.71 207.686C225.71 207.686 230.981 181.865 267.019 186.612C267.019 186.612 262.233 207.026 225.71 207.686Z" fill="white" stroke="#300B00" style="fill:white;fill-opacity:1;stroke:#300B00;stroke:color(display-p3 0.1882 0.0431 0.0000);stroke-opacity:1;" stroke-width="0.710962" stroke-linecap="round" stroke-linejoin="round"/>
<path d="M248.293 203.42C254.457 202.144 258.752 197.723 257.888 193.544C257.023 189.365 251.325 187.011 245.162 188.286C238.998 189.562 234.702 193.983 235.567 198.162C236.432 202.341 242.129 204.695 248.293 203.42Z" fill="#300B00" stroke="#300B00" style="fill:#300B00;fill:color(display-p3 0.1882 0.0431 0.0000);fill-opacity:1;stroke:#300B00;stroke:color(display-p3 0.1882 0.0431 0.0000);stroke-opacity:1;" stroke-width="0.710962" stroke-linecap="round" stroke-linejoin="round"/>
<path d="M282.967 156.211L287.416 157.786L282.967 159.357L281.392 168.178L279.821 159.357L275.368 157.786L279.821 156.211L281.392 147.394L282.967 156.211Z" fill="white" stroke="#300B00" style="fill:white;fill-opacity:1;stroke:#300B00;stroke:color(display-p3 0.1882 0.0431 0.0000);stroke-opacity:1;" stroke-width="0.710962" stroke-linecap="round" stroke-linejoin="round"/>
<path d="M188.524 206.821L192.973 208.392L188.524 209.968L186.949 218.784L185.378 209.968L180.929 208.392L185.378 206.821L186.949 198L188.524 206.821Z" fill="white" stroke="#300B00" style="fill:white;fill-opacity:1;stroke:#300B00;stroke:color(display-p3 0.1882 0.0431 0.0000);stroke-opacity:1;" stroke-width="0.710962" stroke-linecap="round" stroke-linejoin="round"/>
<path d="M311.976 76.3364C315.182 76.643 318.047 80.0999 317.689 83.0842H317.668C317.511 81.641 316.425 80.3723 314.888 80.1169C304.654 78.4183 282.503 91.4114 267.198 100.249C252.647 108.653 213.885 132.886 201.888 140.387C201.768 140.229 201.641 140.076 201.509 139.927C200.513 138.833 199.15 137.343 197.643 135.772C196.749 134.848 195.838 133.958 194.923 133.098C181.142 120.186 165.135 113.979 158.421 111.91C152.818 110.182 147.446 109.526 137.373 103.885C127.3 98.2358 121.928 92.8674 116.325 88.3249C109.16 82.5052 91.4288 69.5419 77.1032 68.2264C75.6003 68.1157 74.2338 68.0689 73.2376 68.0518C72.914 68.0476 72.6288 68.1157 72.3946 68.2477L72.3521 68.1795C84.4086 60.6399 129.101 33.0231 143.636 24.632C158.94 15.794 175.833 7.05809 187.545 8.15646C190.751 8.45872 193.612 11.9199 193.258 14.9H193.237C193.079 13.461 191.994 12.1881 190.457 11.9326C180.222 10.2383 158.072 23.2272 142.767 32.0695C128.212 40.4648 100.365 57.8898 88.3679 65.391C95.8734 67.6474 103.673 72.0579 110.042 76.3024C114.427 79.2271 118.139 82.0667 120.6 84.0634C126.198 88.6101 131.571 93.9828 141.643 99.6237C151.72 105.273 157.089 105.92 162.691 107.649C169.856 109.867 187.588 116.768 201.917 131.519C202.305 131.928 202.692 132.332 203.058 132.724C215.055 125.223 253.52 101.224 268.075 92.8248C283.384 83.9867 300.273 75.2509 311.985 76.3492L311.976 76.3364Z" fill="#F7F5F2" style="fill:#F7F5F2;fill:color(display-p3 0.9686 0.9608 0.9490);fill-opacity:1;"/>
<path d="M317.668 83.0884C317.728 83.578 317.672 84.0932 317.494 84.5955C315.693 89.585 310.12 92.0457 300.827 94.6725C288.089 98.2741 272.95 102.412 265.002 114.941C260.655 121.787 259.429 127.836 239.935 140.74C228.666 148.199 215.766 156.641 207.533 162.014C206.2 162.882 204.676 163.338 203.148 163.372V143.597C203.148 142.601 202.675 141.413 201.892 140.387C213.889 132.89 252.651 108.653 267.203 100.249C282.508 91.4114 304.658 78.4182 314.893 80.1169C316.434 80.3723 317.515 81.641 317.672 83.0884H317.668Z" fill="#300B00" style="fill:#300B00;fill:color(display-p3 0.1882 0.0431 0.0000);fill-opacity:1;"/>
<path d="M197.647 161.686C196.77 164.491 195.165 167.804 191.823 169.434C188.175 171.214 182.445 170.984 173.317 165.867C155.113 155.666 149.54 144.742 147.365 136.956L152.354 136.551C153.146 139.314 154.423 142.256 156.548 145.568C163.41 156.275 178.511 165.313 187.051 163.414C187.323 163.355 187.409 163.031 187.26 162.631C186.825 161.452 186.676 160.277 186.949 159.281C186.987 159.144 187.03 159.017 187.076 158.893C187.719 157.292 189.61 157.071 191.67 158.225C191.811 158.306 191.942 158.34 192.057 158.34C192.223 158.34 192.355 158.267 192.415 158.114C193.569 155.368 194.186 151.941 194.505 148.761C194.548 148.361 194.561 147.948 194.552 147.531C194.539 146.871 193.973 146.062 193.322 145.747C192.653 145.423 191.951 144.955 191.223 144.308C190.014 143.231 188.979 141.868 188.273 140.459L190.861 140.08C191.295 140.974 192.04 141.817 192.883 142.294C194.233 143.043 195.327 142.567 195.327 141.217C195.327 139.867 194.233 138.16 192.883 137.407C192.453 137.164 192.045 137.049 191.691 137.049L194.91 133.094C195.829 133.958 196.736 134.848 197.63 135.768C199.137 137.339 200.5 138.829 201.496 139.923C201.632 140.072 201.755 140.225 201.875 140.383C202.658 141.409 203.131 142.596 203.131 143.593V163.368C202.369 163.385 201.606 163.299 200.857 163.108C200.248 162.955 199.657 162.729 199.086 162.435L197.634 161.686H197.647Z" fill="#300B00" style="fill:#300B00;fill:color(display-p3 0.1882 0.0431 0.0000);fill-opacity:1;"/>
<path d="M199.099 162.439C199.669 162.733 200.261 162.959 200.87 163.112C200.729 163.312 198.115 167.008 191.823 169.438C195.165 167.808 196.77 164.496 197.647 161.69L199.099 162.439Z" fill="#F7F5F2" style="fill:#F7F5F2;fill:color(display-p3 0.9686 0.9608 0.9490);fill-opacity:1;"/>
<path d="M122.345 119.854C123.166 117.964 123.486 115.686 123.682 113.247C124.273 105.958 120.412 98.3124 113.745 92.9823C110.02 90.0065 105.661 86.8732 100.935 84.0293C100.365 83.6845 99.8026 83.3524 99.2407 83.0374C95.7242 81.0237 92.4035 79.4357 89.5341 78.2139C87.695 77.4306 86.0261 77.1922 84.6212 77.4306C81.6412 77.9414 79.8574 80.5895 80.232 84.7147C80.5513 88.261 81.1686 92.3906 82.3308 96.4392C82.3436 96.4861 82.3606 96.5329 82.3819 96.5797L77.8054 96.8394C77.7245 96.5797 77.6564 96.32 77.5882 96.0688C77.2945 95.0088 76.5197 94.1446 75.4894 93.7699L75.4043 93.7401C73.1139 92.8972 71.6025 90.709 71.6025 88.2696V69.8697C71.6025 69.0906 71.8963 68.5159 72.3944 68.2349C72.6328 68.1072 72.9138 68.0348 73.2373 68.0391C74.2335 68.0561 75.6001 68.1029 77.1029 68.2136C91.4286 69.5291 109.16 82.4967 116.325 88.3121C121.928 92.8546 127.3 98.2273 137.373 103.872C147.446 109.513 152.818 110.169 158.421 111.897C165.135 113.971 181.142 120.173 194.923 133.086L191.704 137.041C190.959 137.041 190.457 137.556 190.457 138.475C190.457 138.982 190.61 139.535 190.874 140.076L188.285 140.455C187.732 139.361 187.383 138.237 187.298 137.207C187.225 136.325 187.34 135.585 187.6 134.993C187.817 134.508 187.494 133.648 186.872 133.116C186.34 132.656 185.782 132.226 185.212 131.826C181.887 129.518 177.949 127.006 173.815 124.865C169.09 122.413 164.726 120.655 161.005 119.454C158.987 118.807 157.225 118.658 155.769 118.99C152.405 119.748 150.656 123.039 151.069 128.582C151.264 131.195 151.571 133.784 152.363 136.543L147.373 136.947C146.82 134.963 146.488 133.184 146.22 131.672C144.913 124.222 144.666 116.551 137.377 112.468C136.083 111.74 135.014 111.378 134.116 111.31C129.965 110.965 129.608 116.84 128.535 121.761C128.058 123.928 127.373 126.704 125.593 128.752C125.184 129.161 124.886 129.463 124.793 129.561L124.763 129.59C121.37 132.532 114.814 133.073 101.425 125.572C92.1055 120.352 86.3327 114.009 82.6927 108.023L87.5758 107.546C87.6098 107.61 87.6481 107.67 87.695 107.738C96.2308 119.203 111.331 127.091 118.194 124.073C120.28 123.158 121.544 121.685 122.345 119.854Z" fill="#300B00" style="fill:#300B00;fill:color(display-p3 0.1882 0.0431 0.0000);fill-opacity:1;"/>
<path d="M192.892 137.407C194.241 138.165 195.335 139.867 195.335 141.217C195.335 142.567 194.241 143.043 192.892 142.294C192.049 141.822 191.308 140.979 190.869 140.08C190.605 139.544 190.452 138.986 190.452 138.48C190.452 137.56 190.955 137.045 191.7 137.045C192.053 137.045 192.462 137.16 192.892 137.403V137.407Z" fill="#F7F5F2" style="fill:#F7F5F2;fill:color(display-p3 0.9686 0.9608 0.9490);fill-opacity:1;"/>
<path d="M193.232 14.8914C193.288 15.3895 193.237 15.9004 193.058 16.4028C191.257 21.3923 185.684 23.853 176.391 26.4797C163.653 30.0771 148.514 34.2194 140.566 46.7442C136.219 53.5899 134.989 59.6395 115.499 72.5432C113.477 73.8843 112.34 74.6633 110.173 76.0895L110.037 76.2896C103.672 72.0451 95.8731 67.6389 88.3633 65.3783C100.36 57.8812 128.207 40.4563 142.763 32.0567C158.067 23.2144 180.218 10.2255 190.452 11.9199C191.993 12.1753 193.075 13.4482 193.232 14.8914Z" fill="#300B00" style="fill:#300B00;fill:color(display-p3 0.1882 0.0431 0.0000);fill-opacity:1;"/>
<path d="M187.264 162.635C187.413 163.036 187.328 163.359 187.055 163.419C178.515 165.313 163.41 156.279 156.552 145.572C154.428 142.256 153.155 139.318 152.359 136.555C151.567 133.797 151.26 131.208 151.064 128.594C150.651 123.047 152.405 119.756 155.764 119.003C155.33 120.442 155.173 122.221 155.33 124.324C155.718 129.556 156.573 134.678 160.822 141.302C166.625 150.357 178.315 158.216 186.953 159.285C186.681 160.281 186.83 161.46 187.264 162.635Z" fill="#F7F5F2" style="fill:#F7F5F2;fill:color(display-p3 0.9686 0.9608 0.9490);fill-opacity:1;"/>
<path d="M128.53 121.77C129.607 116.849 129.965 110.973 134.112 111.318C133.575 113.192 133.247 115.431 132.796 117.504C132.277 119.867 131.502 122.966 129.339 125.048C128.334 126.014 126.619 127.734 125.593 128.76C127.368 126.713 128.053 123.933 128.535 121.77H128.53Z" fill="#F7F5F2" style="fill:#F7F5F2;fill:color(display-p3 0.9686 0.9608 0.9490);fill-opacity:1;"/>
<path d="M91.961 103.468C100.454 114.873 115.431 122.732 122.345 119.854C121.549 121.685 120.28 123.162 118.194 124.073C111.331 127.091 96.231 119.203 87.6952 107.738C87.6484 107.674 87.6058 107.615 87.576 107.546C87.4014 107.231 87.3631 106.912 87.4823 106.716C87.7718 106.256 87.9336 105.665 87.9336 104.941C87.9336 102.255 85.7539 98.8616 83.0761 97.3588C83.0761 97.3588 83.0746 97.3573 83.0718 97.3545C82.7823 97.197 82.5141 96.899 82.3864 96.5797C82.3651 96.5329 82.3481 96.486 82.3353 96.4392C81.1731 92.3863 80.5558 88.261 80.2365 84.7147C79.8661 80.5894 81.6456 77.9414 84.6257 77.4305L84.6385 77.5114C84.4512 78.3799 84.4001 79.3633 84.5022 80.4532C84.8045 83.7951 85.3707 87.6607 86.4052 91.4837L86.6011 92.1777C86.7075 92.5481 87.0098 92.9057 87.3376 93.093C87.3376 93.093 87.3418 93.093 87.3418 93.0973C90.0282 94.6001 92.1994 97.9931 92.1994 100.675C92.1994 101.403 92.0376 101.995 91.7524 102.45C91.6033 102.689 91.6885 103.106 91.961 103.472V103.468Z" fill="#F7F5F2" style="fill:#F7F5F2;fill:color(display-p3 0.9686 0.9608 0.9490);fill-opacity:1;"/>
<path d="M99.2365 83.0374L99.0875 83.3013C94.992 85.9706 89.7556 89.287 86.4009 91.4795H86.3966C85.3621 87.6522 84.7959 83.7909 84.4936 80.449C84.3915 79.3591 84.4425 78.3757 84.6299 77.5072L84.6171 77.4263C86.022 77.1879 87.6908 77.4263 89.53 78.2097C92.3951 79.4272 95.72 81.0194 99.2365 83.0331V83.0374Z" fill="#300B00" style="fill:#300B00;fill:color(display-p3 0.1882 0.0431 0.0000);fill-opacity:1;"/>
<path d="M87.9293 104.941C87.9293 105.665 87.7675 106.256 87.478 106.716C87.3588 106.912 87.3929 107.231 87.5717 107.546L82.6886 108.023C80.2279 103.979 78.7421 100.1 77.8013 96.8394L82.3778 96.5797C82.5055 96.899 82.778 97.197 83.0632 97.3545C83.0632 97.3545 83.0647 97.356 83.0675 97.3588C85.7496 98.8616 87.925 102.255 87.925 104.941H87.9293Z" fill="#300B00" style="fill:#300B00;fill:color(display-p3 0.1882 0.0431 0.0000);fill-opacity:1;"/>
<path d="M317.689 83.0842C318.047 80.1041 315.182 76.6429 311.976 76.3364C300.264 75.238 283.376 83.9739 268.067 92.812C253.511 101.216 215.047 125.21 203.05 132.711" stroke="#300B00" style="stroke:#300B00;stroke:color(display-p3 0.1882 0.0431 0.0000);stroke-opacity:1;" stroke-width="0.710962" stroke-linecap="round" stroke-linejoin="round"/>
<path d="M122.344 119.854C123.166 117.964 123.485 115.686 123.681 113.247C124.273 105.958 120.412 98.3124 113.745 92.9823C110.02 90.0065 105.66 86.8731 100.935 84.0293C100.364 83.6844 99.8022 83.3524 99.2402 83.0373C95.7237 81.0237 92.403 79.4357 89.5337 78.2139C87.6945 77.4305 86.0257 77.1921 84.6208 77.4305C81.6407 77.9414 79.8569 80.5894 80.2315 84.7147C80.5508 88.261 81.1681 92.3905 82.3304 96.4392C82.3431 96.486 82.3602 96.5328 82.3815 96.5797C82.5092 96.899 82.7816 97.197 83.0669 97.3545C83.0669 97.3545 83.0683 97.3559 83.0711 97.3588C85.7532 98.8616 87.9287 102.255 87.9287 104.941C87.9287 105.665 87.7669 106.256 87.4774 106.716C87.3582 106.912 87.3922 107.231 87.5711 107.546C87.6051 107.61 87.6434 107.67 87.6903 107.738C96.2261 119.203 111.327 127.091 118.189 124.073C120.275 123.158 121.54 121.685 122.34 119.854H122.344Z" stroke="#300B00" style="stroke:#300B00;stroke:color(display-p3 0.1882 0.0431 0.0000);stroke-opacity:1;" stroke-width="0.710962" stroke-linecap="round" stroke-linejoin="round"/>
<path d="M197.647 161.686C196.77 164.492 195.165 167.804 191.823 169.434C188.175 171.214 182.445 170.984 173.317 165.867C155.113 155.666 149.54 144.742 147.365 136.956C146.811 134.972 146.479 133.192 146.211 131.681C144.904 124.231 144.657 116.559 137.369 112.476" stroke="#300B00" style="stroke:#300B00;stroke:color(display-p3 0.1882 0.0431 0.0000);stroke-opacity:1;" stroke-width="0.710962" stroke-linecap="round" stroke-linejoin="round"/>
<path d="M201.888 140.387C213.885 132.89 252.647 108.653 267.198 100.249C282.503 91.4114 304.654 78.4182 314.888 80.1169C316.429 80.3723 317.511 81.641 317.668 83.0884C317.728 83.578 317.672 84.0932 317.494 84.5955C315.693 89.585 310.12 92.0457 300.826 94.6725C288.089 98.2741 272.95 102.412 265.002 114.941C260.655 121.787 259.429 127.836 239.935 140.74C228.666 148.199 215.766 156.641 207.533 162.014C206.2 162.882 204.676 163.338 203.148 163.372C202.386 163.389 201.624 163.304 200.874 163.112C200.266 162.959 199.674 162.733 199.103 162.439L197.652 161.69H197.647" stroke="#300B00" style="stroke:#300B00;stroke:color(display-p3 0.1882 0.0431 0.0000);stroke-opacity:1;" stroke-width="0.710962" stroke-linecap="round" stroke-linejoin="round"/>
<path d="M137.373 103.881C147.446 109.522 152.818 110.177 158.421 111.906C165.135 113.979 181.142 120.182 194.923 133.094C195.842 133.958 196.749 134.848 197.643 135.768C199.15 137.339 200.512 138.829 201.509 139.923C201.645 140.072 201.768 140.225 201.888 140.383C202.671 141.409 203.143 142.596 203.143 143.593V163.368" stroke="#300B00" style="stroke:#300B00;stroke:color(display-p3 0.1882 0.0431 0.0000);stroke-opacity:1;" stroke-width="0.710962" stroke-linecap="round" stroke-linejoin="round"/>
<path d="M186.953 159.285C186.991 159.149 187.034 159.021 187.081 158.897C187.724 157.297 189.614 157.075 191.674 158.229C191.815 158.31 191.947 158.344 192.062 158.344C192.228 158.344 192.36 158.272 192.419 158.118C193.573 155.372 194.19 151.945 194.51 148.765C194.552 148.365 194.565 147.952 194.557 147.535C194.544 146.875 193.978 146.066 193.326 145.751C192.658 145.427 191.955 144.959 191.227 144.312C190.018 143.235 188.984 141.873 188.277 140.464C187.724 139.369 187.375 138.245 187.289 137.215C187.217 136.334 187.332 135.593 187.592 135.001C187.809 134.516 187.485 133.656 186.864 133.124C186.331 132.664 185.774 132.234 185.203 131.834C181.878 129.527 177.94 127.015 173.807 124.873C169.081 122.421 164.717 120.663 160.997 119.462C158.979 118.815 157.216 118.666 155.76 118.998C152.397 119.756 150.647 123.047 151.06 128.59C151.256 131.204 151.562 133.792 152.354 136.551C153.146 139.314 154.423 142.256 156.548 145.568C163.41 156.275 178.511 165.313 187.051 163.414C187.323 163.355 187.409 163.031 187.26 162.631C186.825 161.452 186.676 160.277 186.949 159.281L186.953 159.285Z" stroke="#300B00" style="stroke:#300B00;stroke:color(display-p3 0.1882 0.0431 0.0000);stroke-opacity:1;" stroke-width="0.710962" stroke-linecap="round" stroke-linejoin="round"/>
<path d="M191.7 137.053C192.053 137.053 192.462 137.168 192.892 137.411C194.241 138.169 195.335 139.872 195.335 141.221C195.335 142.571 194.241 143.048 192.892 142.298C192.049 141.826 191.308 140.983 190.869 140.085C190.605 139.548 190.452 138.991 190.452 138.484C190.452 137.564 190.955 137.049 191.7 137.049V137.053Z" stroke="#300B00" style="stroke:#300B00;stroke:color(display-p3 0.1882 0.0431 0.0000);stroke-opacity:1;" stroke-width="0.710962" stroke-linecap="round" stroke-linejoin="round"/>
<path d="M124.789 129.569C125.082 129.318 125.346 129.05 125.589 128.76C127.364 126.713 128.05 123.933 128.531 121.77C129.608 116.849 129.965 110.973 134.112 111.318C135.006 111.386 136.079 111.748 137.373 112.476" stroke="#300B00" style="stroke:#300B00;stroke:color(display-p3 0.1882 0.0431 0.0000);stroke-opacity:1;" stroke-width="0.710962" stroke-linecap="round" stroke-linejoin="round"/>
<path d="M137.373 103.881C127.3 98.2315 121.928 92.8631 116.325 88.3206C109.16 82.5009 91.4286 69.5376 77.1029 68.2221C75.6001 68.1114 74.2335 68.0646 73.2373 68.0476C72.9138 68.0433 72.6285 68.1114 72.3944 68.2434C71.892 68.5244 71.6025 69.0991 71.6025 69.8782V88.278C71.6025 90.7174 73.1139 92.9057 75.4043 93.7486L75.4894 93.7784C76.5239 94.1531 77.2987 95.0173 77.5882 96.0773C77.6564 96.3285 77.7287 96.5882 77.8054 96.8479C78.7462 100.109 80.232 103.987 82.6927 108.032C86.3327 114.017 92.1055 120.361 101.425 125.58C114.809 133.081 121.366 132.541 124.763 129.599" stroke="#300B00" style="stroke:#300B00;stroke:color(display-p3 0.1882 0.0431 0.0000);stroke-opacity:1;" stroke-width="0.710962" stroke-linecap="round" stroke-linejoin="round"/>
<path d="M193.258 14.8872C193.612 11.9113 190.751 8.44594 187.545 8.14367C175.833 7.0453 158.941 15.7812 143.636 24.6193C129.101 33.0103 84.4044 60.6272 72.3521 68.1668L72.3096 68.1966" stroke="#300B00" style="stroke:#300B00;stroke:color(display-p3 0.1882 0.0431 0.0000);stroke-opacity:1;" stroke-width="0.710962" stroke-linecap="round" stroke-linejoin="round"/>
<path d="M99.0919 83.3013C94.9964 85.9706 89.76 89.287 86.4053 91.4795" stroke="#300B00" style="stroke:#300B00;stroke:color(display-p3 0.1882 0.0431 0.0000);stroke-opacity:1;" stroke-width="0.710962" stroke-linecap="round" stroke-linejoin="round"/>
<path d="M88.3633 65.3783C100.36 57.8812 128.207 40.4563 142.763 32.0567C158.067 23.2144 180.218 10.2255 190.452 11.9199C191.993 12.1753 193.075 13.4482 193.232 14.8914C193.288 15.3895 193.237 15.9004 193.058 16.4028C191.257 21.3923 185.684 23.853 176.391 26.4797C163.653 30.0771 148.514 34.2194 140.566 46.7442C136.219 53.5899 134.989 59.6395 115.499 72.5432C113.477 73.8843 112.34 74.6633 110.173 76.0895" stroke="#300B00" style="stroke:#300B00;stroke:color(display-p3 0.1882 0.0431 0.0000);stroke-opacity:1;" stroke-width="0.710962" stroke-linecap="round" stroke-linejoin="round"/>
<path d="M84.6338 77.5114C84.4464 78.3799 84.3954 79.3634 84.4975 80.4532C84.7998 83.7952 85.366 87.6607 86.4005 91.4838L86.5964 92.1777C86.7028 92.5481 87.0051 92.9057 87.3329 93.093C87.3329 93.093 87.3371 93.093 87.3371 93.0973C90.0235 94.6001 92.1947 97.9931 92.1947 100.675C92.1947 101.403 92.0329 101.995 91.7476 102.45C91.5986 102.689 91.6838 103.106 91.9563 103.472C100.449 114.877 115.427 122.736 122.34 119.858C122.383 119.846 122.421 119.829 122.455 119.812" stroke="#300B00" style="stroke:#300B00;stroke:color(display-p3 0.1882 0.0431 0.0000);stroke-opacity:1;" stroke-width="0.710962" stroke-linecap="round" stroke-linejoin="round"/>
<path d="M141.639 99.6109C151.716 105.26 157.084 105.907 162.687 107.636C169.852 109.854 187.583 116.755 201.913 131.506C202.3 131.915 202.688 132.319 203.054 132.711" stroke="#300B00" style="stroke:#300B00;stroke:color(display-p3 0.1882 0.0431 0.0000);stroke-opacity:1;" stroke-width="0.710962" stroke-linecap="round" stroke-linejoin="round"/>
<path d="M155.764 118.998C155.33 120.437 155.173 122.217 155.33 124.32C155.718 129.552 156.573 134.674 160.822 141.298C166.625 150.353 178.315 158.212 186.953 159.281" stroke="#300B00" style="stroke:#300B00;stroke:color(display-p3 0.1882 0.0431 0.0000);stroke-opacity:1;" stroke-width="0.710962" stroke-linecap="round" stroke-linejoin="round"/>
<path d="M124.75 129.603L124.759 129.595L124.788 129.565C124.886 129.467 125.184 129.165 125.589 128.756C126.615 127.726 128.33 126.006 129.335 125.044C131.502 122.962 132.277 119.863 132.792 117.5C133.247 115.427 133.571 113.187 134.107 111.314" stroke="#300B00" style="stroke:#300B00;stroke:color(display-p3 0.1882 0.0431 0.0000);stroke-opacity:1;" stroke-width="0.710962" stroke-linecap="round" stroke-linejoin="round"/>
<path d="M141.639 99.6109C131.566 93.97 126.193 88.5973 120.595 84.0506C118.134 82.0539 114.422 79.2143 110.037 76.2896C103.672 72.0451 95.8731 67.6388 88.3633 65.3782" stroke="#300B00" style="stroke:#300B00;stroke:color(display-p3 0.1882 0.0431 0.0000);stroke-opacity:1;" stroke-width="0.710962" stroke-linecap="round" stroke-linejoin="round"/>
<path d="M200.874 163.104C200.874 163.104 200.874 163.108 200.87 163.108C200.729 163.308 198.115 167.003 191.823 169.434" stroke="#300B00" style="stroke:#300B00;stroke:color(display-p3 0.1882 0.0431 0.0000);stroke-opacity:1;" stroke-width="0.710962" stroke-linecap="round" stroke-linejoin="round"/>
<path d="M107.938 268.13L1 206.353V128.173L107.938 189.95V268.13Z" stroke="#300B00" style="stroke:#300B00;stroke:color(display-p3 0.1882 0.0431 0.0000);stroke-opacity:1;" stroke-width="0.710962" stroke-linecap="round" stroke-linejoin="round"/>
<path d="M1 128.173L139.987 111.799L107.938 189.95" stroke="#300B00" style="stroke:#300B00;stroke:color(display-p3 0.1882 0.0431 0.0000);stroke-opacity:1;" stroke-width="0.710962" stroke-linecap="round" stroke-linejoin="round"/>
<path d="M1 206.353L139.987 111.799L107.938 268.13" stroke="#300B00" style="stroke:#300B00;stroke:color(display-p3 0.1882 0.0431 0.0000);stroke-opacity:1;" stroke-width="0.710962" stroke-linecap="round" stroke-linejoin="round"/>
<path d="M71.5301 194.318V241.774L60.3506 235.324V232.842L69.0482 237.857V192.883L71.5301 194.318Z" fill="#300B00" style="fill:#300B00;fill:color(display-p3 0.1882 0.0431 0.0000);fill-opacity:1;"/>
<path d="M69.0482 192.883V237.857L60.3506 232.842L57.8687 231.407V183.947L69.0482 190.397V192.883Z" fill="white" style="fill:white;fill-opacity:1;"/>
<path d="M63.4584 170.452C64.8037 171.226 65.8893 172.942 65.8893 174.283C65.8893 175.624 64.8037 176.088 63.4584 175.309C62.9177 174.998 62.4239 174.534 62.0237 174.006C61.4191 173.219 61.0317 172.282 61.0317 171.478C61.0317 170.137 62.1216 169.677 63.4626 170.452H63.4584Z" fill="white" style="fill:white;fill-opacity:1;"/>
<path d="M55.7269 198.307V232.654L44.5474 226.205V223.723L53.2407 228.738V196.872L55.7269 198.307Z" fill="#300B00" style="fill:#300B00;fill:color(display-p3 0.1882 0.0431 0.0000);fill-opacity:1;"/>
<path d="M53.2412 196.872V228.738L44.5479 223.723L42.0659 222.288V187.94L53.2412 194.39V196.872Z" fill="white" style="fill:white;fill-opacity:1;"/>
<path d="M49.0901 184.143C49.6946 184.931 50.082 185.867 50.082 186.672C50.082 188.013 48.9921 188.473 47.6511 187.698C46.3101 186.923 45.2202 185.207 45.2202 183.866C45.2202 183.249 45.4501 182.815 45.8333 182.606C46.276 182.363 46.9274 182.419 47.6511 182.84C48.1918 183.151 48.6856 183.611 49.0858 184.139L49.0901 184.143Z" fill="white" style="fill:white;fill-opacity:1;"/>
<path d="M39.9198 183.951V223.531L28.7402 217.081V214.599L37.4378 219.619V182.517L39.9198 183.951Z" fill="#300B00" style="fill:#300B00;fill:color(display-p3 0.1882 0.0431 0.0000);fill-opacity:1;"/>
<path d="M37.4383 182.517V219.619L28.7408 214.599L26.2588 213.169V173.585L37.4383 180.035V182.517Z" fill="white" style="fill:white;fill-opacity:1;"/>
<path d="M34.2749 163.487C34.2749 164.104 34.045 164.538 33.6618 164.747C33.2191 164.99 32.5677 164.934 31.844 164.513C31.1926 164.138 30.6009 163.538 30.1624 162.865C29.7026 162.154 29.4131 161.371 29.4131 160.681C29.4131 159.34 30.5029 158.885 31.844 159.655C33.185 160.426 34.2749 162.141 34.2749 163.483V163.487Z" fill="white" style="fill:white;fill-opacity:1;"/>
<path d="M24.1171 185.114V214.412L12.9375 207.962V205.48L21.6308 210.5V183.683L24.1171 185.114Z" fill="#300B00" style="fill:#300B00;fill:color(display-p3 0.1882 0.0431 0.0000);fill-opacity:1;"/>
<path d="M21.6309 183.683V210.5L12.9375 205.48L10.4556 204.05V174.751L21.6309 181.201V183.683Z" fill="white" style="fill:white;fill-opacity:1;"/>
<path d="M18.4721 170.86C18.4721 172.201 17.3823 172.657 16.0412 171.886C14.696 171.112 13.6104 169.4 13.6104 168.059C13.6104 166.718 14.696 166.254 16.0412 167.033C16.6926 167.408 17.2844 168.012 17.7229 168.681C18.1826 169.392 18.4721 170.175 18.4721 170.865V170.86Z" fill="white" style="fill:white;fill-opacity:1;"/>
<path d="M69.0482 192.883L71.5301 194.318V241.774L60.3506 235.324V232.842L69.0482 237.857V192.883Z" stroke="#300B00" style="stroke:#300B00;stroke:color(display-p3 0.1882 0.0431 0.0000);stroke-opacity:1;" stroke-width="0.710962" stroke-linecap="round" stroke-linejoin="round"/>
<path d="M30.1666 162.865L17.7227 168.676" stroke="#300B00" style="stroke:#300B00;stroke:color(display-p3 0.1882 0.0431 0.0000);stroke-opacity:1;" stroke-width="0.710962" stroke-linecap="round" stroke-linejoin="round"/>
<path d="M45.8379 182.61L33.6621 164.747" stroke="#300B00" style="stroke:#300B00;stroke:color(display-p3 0.1882 0.0431 0.0000);stroke-opacity:1;" stroke-width="0.710962" stroke-linecap="round" stroke-linejoin="round"/>
<path d="M62.0196 174.006L49.0903 184.143" stroke="#300B00" style="stroke:#300B00;stroke:color(display-p3 0.1882 0.0431 0.0000);stroke-opacity:1;" stroke-width="0.710962" stroke-linecap="round" stroke-linejoin="round"/>
<path d="M18.4721 170.86C18.4721 172.201 17.3823 172.657 16.0412 171.886C14.696 171.112 13.6104 169.4 13.6104 168.059C13.6104 166.718 14.696 166.254 16.0412 167.033C16.6926 167.408 17.2844 168.012 17.7229 168.681C18.1826 169.392 18.4721 170.175 18.4721 170.865V170.86Z" stroke="white" style="stroke:white;stroke-opacity:1;" stroke-width="0.710962" stroke-linecap="round" stroke-linejoin="round"/>
<path d="M30.1668 162.865C29.707 162.154 29.4175 161.371 29.4175 160.681C29.4175 159.34 30.5073 158.885 31.8484 159.655C33.1894 160.426 34.2793 162.141 34.2793 163.483C34.2793 164.1 34.0494 164.534 33.6662 164.743C33.2235 164.985 32.5721 164.93 31.8484 164.509C31.197 164.134 30.6053 163.534 30.1668 162.861V162.865Z" stroke="white" style="stroke:white;stroke-opacity:1;" stroke-width="0.710962" stroke-linecap="round" stroke-linejoin="round"/>
<path d="M49.0901 184.143C49.6946 184.931 50.082 185.867 50.082 186.672C50.082 188.013 48.9921 188.473 47.6511 187.698C46.3101 186.923 45.2202 185.207 45.2202 183.866C45.2202 183.249 45.4501 182.815 45.8333 182.606C46.276 182.363 46.9274 182.419 47.6511 182.84C48.1918 183.151 48.6856 183.611 49.0858 184.139L49.0901 184.143Z" stroke="white" style="stroke:white;stroke-opacity:1;" stroke-width="0.710962" stroke-linecap="round" stroke-linejoin="round"/>
<path d="M65.8849 174.283C65.8849 175.624 64.7993 176.088 63.454 175.309C62.9133 174.998 62.4195 174.534 62.0193 174.006C61.4148 173.219 61.0273 172.282 61.0273 171.478C61.0273 170.137 62.1172 169.677 63.4582 170.452C64.7993 171.226 65.8891 172.942 65.8891 174.283H65.8849Z" stroke="white" style="stroke:white;stroke-opacity:1;" stroke-width="0.710962" stroke-linecap="round" stroke-linejoin="round"/>
<path d="M12.9375 205.48L10.4556 204.05V174.751L21.6309 181.201V183.683" stroke="#300B00" style="stroke:#300B00;stroke:color(display-p3 0.1882 0.0431 0.0000);stroke-opacity:1;" stroke-width="0.710962" stroke-linecap="round" stroke-linejoin="round"/>
<path d="M21.6308 183.683V210.5L12.9375 205.48V207.962L24.1171 214.412V185.114L21.6308 183.683Z" stroke="#300B00" style="stroke:#300B00;stroke:color(display-p3 0.1882 0.0431 0.0000);stroke-opacity:1;" stroke-width="0.710962" stroke-linecap="round" stroke-linejoin="round"/>
<path d="M28.7408 214.599L26.2588 213.169V173.585L37.4383 180.035V182.517" stroke="#300B00" style="stroke:#300B00;stroke:color(display-p3 0.1882 0.0431 0.0000);stroke-opacity:1;" stroke-width="0.710962" stroke-linecap="round" stroke-linejoin="round"/>
<path d="M44.5479 223.723L42.0659 222.288V187.94L53.2412 194.39V196.872" stroke="#300B00" style="stroke:#300B00;stroke:color(display-p3 0.1882 0.0431 0.0000);stroke-opacity:1;" stroke-width="0.710962" stroke-linecap="round" stroke-linejoin="round"/>
<path d="M60.3506 232.842L57.8687 231.407V183.947L69.0482 190.397V192.883" stroke="#300B00" style="stroke:#300B00;stroke:color(display-p3 0.1882 0.0431 0.0000);stroke-opacity:1;" stroke-width="0.710962" stroke-linecap="round" stroke-linejoin="round"/>
<path d="M37.4378 182.517V219.619L28.7402 214.599V217.081L39.9198 223.531V183.951L37.4378 182.517Z" stroke="#300B00" style="stroke:#300B00;stroke:color(display-p3 0.1882 0.0431 0.0000);stroke-opacity:1;" stroke-width="0.710962" stroke-linecap="round" stroke-linejoin="round"/>
<path d="M53.2407 196.872V228.738L44.5474 223.723V226.205L55.7269 232.654V198.307L53.2407 196.872Z" stroke="#300B00" style="stroke:#300B00;stroke:color(display-p3 0.1882 0.0431 0.0000);stroke-opacity:1;" stroke-width="0.710962" stroke-linecap="round" stroke-linejoin="round"/>
<path d="M247.343 1.53641C253.375 3.44792 270.166 11.3366 262.477 38.6938L256.858 34.6281C260.587 9.56985 251.579 3.15417 247.347 1.53641H247.343Z" fill="#300B00" style="fill:#300B00;fill:color(display-p3 0.1882 0.0431 0.0000);fill-opacity:1;"/>
<path d="M262.477 38.6938L255.627 40.1838L250.071 36.165L250.054 36.1096L256.853 34.6281L262.477 38.6938Z" fill="#300B00" style="fill:#300B00;fill:color(display-p3 0.1882 0.0431 0.0000);fill-opacity:1;"/>
<path d="M247.342 1.53641C251.574 3.15417 260.587 9.57412 256.853 34.6281L250.054 36.1053L248.138 36.5183L245.635 37.0632L225.975 41.3418L238.415 15.3725L245.295 1C245.295 1 246.074 1.13623 247.325 1.5279C247.334 1.5279 247.338 1.53641 247.347 1.53641H247.342Z" fill="#F7F5F2" style="fill:#F7F5F2;fill:color(display-p3 0.9686 0.9608 0.9490);fill-opacity:1;"/>
<path d="M250.071 48.3748L255.703 51.4187C253.145 59.7885 248.385 71.1511 239.926 80.598C240.169 80.3298 240.403 80.0573 240.637 79.7806L235.856 75.7362C243.349 66.681 247.678 56.2124 250.071 48.3705V48.3748Z" fill="#300B00" style="fill:#300B00;fill:color(display-p3 0.1882 0.0431 0.0000);fill-opacity:1;"/>
<path d="M255.627 40.1838L253.805 40.5797L248.143 36.5226L250.054 36.1096L250.071 36.165L255.627 40.1838Z" fill="#F7F5F2" style="fill:#F7F5F2;fill:color(display-p3 0.9686 0.9608 0.9490);fill-opacity:1;"/>
<path d="M253.805 40.5798L251.2 41.146L251.196 41.1077L245.636 37.0888V37.0718L248.139 36.5226H248.143L253.805 40.5798Z" fill="#F7F5F2" style="fill:#F7F5F2;fill:color(display-p3 0.9686 0.9608 0.9490);fill-opacity:1;"/>
<path d="M233.991 44.8881L231.59 45.4117L227.852 42.7084L225.971 41.346L245.635 37.0717V37.0888L251.195 41.1076L251.199 41.1459L233.991 44.8881Z" fill="#300B00" style="fill:#300B00;fill:color(display-p3 0.1882 0.0431 0.0000);fill-opacity:1;"/>
<path d="M230.037 51.6145L250.071 48.3748C247.679 56.2166 243.349 66.6852 235.856 75.7404C235.367 76.3237 234.869 76.9112 234.353 77.4901C233.834 78.0691 233.302 78.6396 232.761 79.2016C232.182 79.8061 231.586 80.3936 230.977 80.9726C230.564 81.3642 230.139 81.7474 229.709 82.1306C226.92 84.6083 223.812 86.8604 220.343 88.7719C209.934 94.5107 202.692 92.7141 198.035 89.0358L198.026 89.0273C194.803 86.4772 192.82 83.0246 191.887 80.5511C189.605 74.5143 188.405 52.1595 206.281 31.4011C224.157 10.6427 238.411 15.3725 238.411 15.3725L225.971 41.3418L227.853 42.7041L221.833 52.9343L230.032 51.606L230.037 51.6145Z" fill="#F7F5F2" style="fill:#F7F5F2;fill:color(display-p3 0.9686 0.9608 0.9490);fill-opacity:1;"/>
<path d="M245.294 1C245.294 1 246.112 1.06812 247.325 1.5279C246.078 1.13623 245.294 1 245.294 1Z" fill="#F7F5F2" style="fill:#F7F5F2;fill:color(display-p3 0.9686 0.9608 0.9490);fill-opacity:1;"/>
<path d="M240.637 79.7848C240.403 80.0573 240.165 80.3298 239.926 80.6022C239.654 80.9087 239.377 81.2068 239.096 81.509C238.832 81.7943 238.568 82.071 238.291 82.352C238.023 82.6329 237.747 82.9097 237.466 83.1864L232.761 79.2016C233.306 78.6396 233.834 78.0692 234.349 77.4902C234.869 76.9112 235.371 76.3279 235.856 75.7362L240.637 79.7806V79.7848Z" fill="#F7F5F2" style="fill:#F7F5F2;fill:color(display-p3 0.9686 0.9608 0.9490);fill-opacity:1;"/>
<path d="M232.761 79.2016L237.466 83.1864C236.47 84.174 235.427 85.1277 234.332 86.0472C234.775 85.6726 235.209 85.2937 235.635 84.9063L230.982 80.9683C231.591 80.3893 232.187 79.8018 232.766 79.2016H232.761Z" fill="#300B00" style="fill:#300B00;fill:color(display-p3 0.1882 0.0431 0.0000);fill-opacity:1;"/>
<path d="M235.852 75.7362C235.366 76.3279 234.864 76.9154 234.345 77.4902C234.86 76.9112 235.358 76.3279 235.848 75.7362H235.852Z" fill="#F7F5F2" style="fill:#F7F5F2;fill:color(display-p3 0.9686 0.9608 0.9490);fill-opacity:1;"/>
<path d="M230.977 80.9683L235.63 84.9063C235.205 85.2937 234.77 85.6726 234.328 86.043L229.708 82.1306C230.143 81.7474 230.564 81.36 230.977 80.9683Z" fill="#F7F5F2" style="fill:#F7F5F2;fill:color(display-p3 0.9686 0.9608 0.9490);fill-opacity:1;"/>
<path d="M234.328 86.043C231.803 88.1844 229.028 90.1342 225.967 91.8158C215.302 97.6908 204.391 96.1157 198.026 89.0358C202.684 92.7099 209.925 94.5064 220.334 88.7719C223.804 86.8604 226.912 84.6083 229.7 82.1348L234.319 86.0472L234.328 86.043Z" fill="#300B00" style="fill:#300B00;fill:color(display-p3 0.1882 0.0431 0.0000);fill-opacity:1;"/>
<path d="M233.992 44.8881L230.037 51.6145L221.837 52.9385L227.853 42.7083L231.591 45.4117L233.992 44.8881Z" fill="#300B00" style="fill:#300B00;fill:color(display-p3 0.1882 0.0431 0.0000);fill-opacity:1;"/>
<path d="M234.349 77.4944C233.834 78.0734 233.306 78.6396 232.761 79.2058C233.302 78.6439 233.834 78.0691 234.353 77.4944H234.349Z" fill="#F7F5F2" style="fill:#F7F5F2;fill:color(display-p3 0.9686 0.9608 0.9490);fill-opacity:1;"/>
<path d="M230.974 80.9641C230.561 81.36 230.135 81.7474 229.705 82.1306C230.135 81.7432 230.561 81.3557 230.974 80.9641Z" fill="#F7F5F2" style="fill:#F7F5F2;fill:color(display-p3 0.9686 0.9608 0.9490);fill-opacity:1;"/>
<path d="M250.054 36.1096L250.071 36.165" stroke="#300B00" style="stroke:#300B00;stroke:color(display-p3 0.1882 0.0431 0.0000);stroke-opacity:1;" stroke-width="0.710962" stroke-linecap="round" stroke-linejoin="round"/>
<path d="M245.636 37.0717V37.0894" stroke="#300B00" style="stroke:#300B00;stroke:color(display-p3 0.1882 0.0431 0.0000);stroke-opacity:1;" stroke-width="0.710962" stroke-linecap="round" stroke-linejoin="round"/>
<path d="M251.195 41.1076L251.2 41.1474" stroke="#300B00" style="stroke:#300B00;stroke:color(display-p3 0.1882 0.0431 0.0000);stroke-opacity:1;" stroke-width="0.710962" stroke-linecap="round" stroke-linejoin="round"/>
<path d="M230.977 80.9683C230.564 81.36 230.138 81.7431 229.708 82.1263" stroke="#300B00" style="stroke:#300B00;stroke:color(display-p3 0.1882 0.0431 0.0000);stroke-opacity:1;" stroke-width="0.710962" stroke-linecap="round" stroke-linejoin="round"/>
<path d="M234.349 77.4944C233.83 78.0691 233.298 78.6396 232.757 79.2016" stroke="#300B00" style="stroke:#300B00;stroke:color(display-p3 0.1882 0.0431 0.0000);stroke-opacity:1;" stroke-width="0.710962" stroke-linecap="round" stroke-linejoin="round"/>
<path d="M235.856 75.7404C235.367 76.3237 234.869 76.9112 234.354 77.4902" stroke="#300B00" style="stroke:#300B00;stroke:color(display-p3 0.1882 0.0431 0.0000);stroke-opacity:1;" stroke-width="0.710962" stroke-linecap="round" stroke-linejoin="round"/>
<path d="M248.138 36.5226L245.635 37.0675L225.975 41.346L238.415 15.3768L245.295 1C245.295 1 246.112 1.06812 247.325 1.5279" stroke="#300B00" style="stroke:#300B00;stroke:color(display-p3 0.1882 0.0431 0.0000);stroke-opacity:1;" stroke-width="0.710962" stroke-linecap="round" stroke-linejoin="round"/>
<path d="M247.343 1.53641C251.574 3.15417 260.587 9.57411 256.854 34.6281L250.055 36.1053L248.139 36.5183" stroke="#300B00" style="stroke:#300B00;stroke:color(display-p3 0.1882 0.0431 0.0000);stroke-opacity:1;" stroke-width="0.710962" stroke-linecap="round" stroke-linejoin="round"/>
<path d="M225.971 41.346L227.852 42.7084L231.59 45.4117L233.991 44.8881L251.199 41.1459L253.805 40.5797L255.627 40.1838L262.477 38.6938L256.853 34.6281" stroke="#300B00" style="stroke:#300B00;stroke:color(display-p3 0.1882 0.0431 0.0000);stroke-opacity:1;" stroke-width="0.710962" stroke-linecap="round" stroke-linejoin="round"/>
<path d="M245.294 1C245.294 1 246.074 1.13623 247.325 1.5279C247.334 1.5279 247.338 1.53641 247.346 1.53641C253.379 3.44792 270.17 11.3366 262.481 38.6938" stroke="#300B00" style="stroke:#300B00;stroke:color(display-p3 0.1882 0.0431 0.0000);stroke-opacity:1;" stroke-width="0.710962" stroke-linecap="round" stroke-linejoin="round"/>
<path d="M250.072 48.3748L230.037 51.6145L221.837 52.9385L227.853 42.7083" stroke="#300B00" style="stroke:#300B00;stroke:color(display-p3 0.1882 0.0431 0.0000);stroke-opacity:1;" stroke-width="0.710962" stroke-linecap="round" stroke-linejoin="round"/>
<path d="M232.761 79.2016C233.306 78.6396 233.834 78.0692 234.349 77.4902C234.869 76.9112 235.371 76.3279 235.856 75.7362" stroke="#300B00" style="stroke:#300B00;stroke:color(display-p3 0.1882 0.0431 0.0000);stroke-opacity:1;" stroke-width="0.710962" stroke-linecap="round" stroke-linejoin="round"/>
<path d="M229.705 82.1306C230.139 81.7474 230.561 81.36 230.974 80.9683" stroke="#300B00" style="stroke:#300B00;stroke:color(display-p3 0.1882 0.0431 0.0000);stroke-opacity:1;" stroke-width="0.710962" stroke-linecap="round" stroke-linejoin="round"/>
<path d="M238.411 15.381C238.411 15.381 224.157 10.6512 206.281 31.4096C188.405 52.1637 189.605 74.5228 191.887 80.5596C192.82 83.0331 194.803 86.4857 198.026 89.0358" stroke="#300B00" style="stroke:#300B00;stroke:color(display-p3 0.1882 0.0431 0.0000);stroke-opacity:1;" stroke-width="0.710962" stroke-linecap="round" stroke-linejoin="round"/>
<path d="M230.037 51.6145L233.992 44.8881" stroke="#300B00" style="stroke:#300B00;stroke:color(display-p3 0.1882 0.0431 0.0000);stroke-opacity:1;" stroke-width="0.710962" stroke-linecap="round" stroke-linejoin="round"/>
<path d="M237.461 83.1864C237.742 82.9096 238.019 82.6329 238.287 82.3519C238.564 82.071 238.828 81.79 239.091 81.509C239.372 81.2067 239.649 80.9045 239.922 80.6022" stroke="#300B00" style="stroke:#300B00;stroke:color(display-p3 0.1882 0.0431 0.0000);stroke-opacity:1;" stroke-width="0.710962" stroke-linecap="round" stroke-linejoin="round"/>
<path d="M198.026 89.0316L198.035 89.0406" stroke="#300B00" style="stroke:#300B00;stroke:color(display-p3 0.1882 0.0431 0.0000);stroke-opacity:1;" stroke-width="0.710962" stroke-linecap="round" stroke-linejoin="round"/>
<path d="M250.072 36.165L255.627 40.1838" stroke="#300B00" style="stroke:#300B00;stroke:color(display-p3 0.1882 0.0431 0.0000);stroke-opacity:1;" stroke-width="0.710962" stroke-linecap="round" stroke-linejoin="round"/>
<path d="M248.139 36.5226H248.143L253.805 40.5798" stroke="#300B00" style="stroke:#300B00;stroke:color(display-p3 0.1882 0.0431 0.0000);stroke-opacity:1;" stroke-width="0.710962" stroke-linecap="round" stroke-linejoin="round"/>
<path d="M245.636 37.0888L251.196 41.1076" stroke="#300B00" style="stroke:#300B00;stroke:color(display-p3 0.1882 0.0431 0.0000);stroke-opacity:1;" stroke-width="0.710962" stroke-linecap="round" stroke-linejoin="round"/>
<path d="M235.856 75.7404C243.349 66.6852 247.678 56.2166 250.071 48.3748L255.703 51.4187C253.145 59.7885 248.385 71.1511 239.926 80.5979C240.169 80.3297 240.403 80.0573 240.637 79.7805L235.856 75.7362V75.7404Z" stroke="#300B00" style="stroke:#300B00;stroke:color(display-p3 0.1882 0.0431 0.0000);stroke-opacity:1;" stroke-width="0.710962" stroke-linecap="round" stroke-linejoin="round"/>
<path d="M234.328 86.043C234.771 85.6726 235.205 85.2894 235.631 84.9063L230.978 80.9683C231.586 80.3893 232.182 79.8018 232.761 79.2016L237.466 83.1864C236.469 84.174 235.426 85.1277 234.332 86.0472" stroke="#300B00" style="stroke:#300B00;stroke:color(display-p3 0.1882 0.0431 0.0000);stroke-opacity:1;" stroke-width="0.710962" stroke-linecap="round" stroke-linejoin="round"/>
<path d="M234.332 86.0472C231.808 88.1844 229.032 90.1342 225.971 91.8158C215.307 97.6908 204.395 96.1157 198.031 89.0358C202.688 92.7099 209.93 94.5064 220.339 88.7719C223.808 86.8604 226.916 84.6083 229.705 82.1348L234.324 86.0472H234.332Z" stroke="#300B00" style="stroke:#300B00;stroke:color(display-p3 0.1882 0.0431 0.0000);stroke-opacity:1;" stroke-width="0.710962" stroke-linecap="round" stroke-linejoin="round"/>
</svg>
