<?xml version="1.0" encoding="UTF-8"?>
<!DOCTYPE svg PUBLIC "-//W3C//DTD SVG 1.1//EN" "http://www.w3.org/Graphics/SVG/1.1/DTD/svg11.dtd">
<!-- Creator: CorelDRAW 2020 (64 Bit) -->
<svg xmlns="http://www.w3.org/2000/svg" xml:space="preserve" width="241.063mm" height="52.4493mm" version="1.1" shape-rendering="geometricPrecision" text-rendering="geometricPrecision" image-rendering="optimizeQuality" fill-rule="evenodd" clip-rule="evenodd"
viewBox="0 0 24105.2 5244.7"
 xmlns:xlink="http://www.w3.org/1999/xlink"
 xmlns:xodm="http://www.corel.com/coreldraw/odm/2003">
 <defs>
   <linearGradient id="id0" gradientUnits="userSpaceOnUse" x1="79.95" y1="5114.15" x2="3743.54" y2="2886.99">
    <stop offset="0" stop-opacity="1" stop-color="#4B0078"/>
    <stop offset="1" stop-opacity="1" stop-color="#6C1E9F"/>
   </linearGradient>
   <linearGradient id="id1" gradientUnits="userSpaceOnUse" x1="284.73" y1="18.61" x2="2934.4" y2="1815.38">
    <stop offset="0" stop-opacity="1" stop-color="#0072CE"/>
    <stop offset="1" stop-opacity="1" stop-color="#00AEEF"/>
   </linearGradient>
 </defs>
 <g id="Camada_x0020_1">
  <metadata id="CorelCorpID_0Corel-Layer"/>
  <path fill="black" d="M4852.88 3715.9l0 -2229.41 795.78 0c85.8,0 161.9,2.61 228.21,7.86 67,5.3 123.98,13.43 170.84,24.34 65.4,15.2 126.37,36.65 182.83,64.24 56.55,27.64 108.43,61.56 155.5,101.6 60.58,51.06 113.48,109.34 158.76,174.77 45.09,65.11 82.49,137.16 112.16,216.17 29.66,78.23 51.88,162.14 66.67,251.61 14.79,89.53 22.18,184.12 22.18,283.56 0,169.98 -19.97,321.15 -59.86,453.44 -19.8,65.68 -42.72,126.25 -68.59,181.53 -26.01,55.62 -55.04,105.58 -86.87,149.75 -31.7,43.75 -65.07,83.04 -100.04,117.84 -35.19,35 -71.92,65.27 -110.13,90.56 -37.71,25.46 -79.83,48 -126.16,67.53 -45.66,19.28 -95.14,35.44 -148.18,48.43 -53.03,12.92 -109.82,22.53 -170.25,28.91 -60.72,6.38 -124.55,9.56 -191.45,9.56l-831.4 0 0 -42.28zm374.77 -298.88l424.05 0c70.62,0 133.25,-3.21 187.86,-9.66 53.67,-6.35 99.72,-15.8 138,-28.41 38.38,-12.63 72.54,-27.62 102.48,-44.92 29.22,-16.95 54.9,-36.44 76.83,-58.38 31.67,-31.74 59.91,-69.23 84.65,-112.14 25.05,-43.51 46.77,-93.06 64.99,-148.47 18.38,-55.93 32.26,-117.79 41.49,-185.52 9.21,-67.69 13.88,-142.19 13.88,-223.48 0,-111.69 -9.08,-210.06 -27.16,-294.95 -17.81,-83.71 -44.25,-154.3 -79.08,-211.69 -35.29,-58.08 -74.22,-106.41 -116.69,-144.88 -41.62,-37.66 -86.97,-66.06 -135.89,-85.05 -35.14,-13.64 -82.32,-24 -141.33,-31.02 -60.48,-7.22 -133.04,-10.81 -217.66,-10.81l-416.4 0 0 1589.37z"/>
  <path fill="black" d="M6821.86 3700.87l849.45 -2214.38 375.6 0 924.86 2271.69 -421.27 0 -253.04 -662.85 -862.13 0 -237.27 662.85 -398.21 0 22.01 -57.31zm729.5 -925.32l623.59 0 -206.59 -549.21c-35.19,-94.58 -65.11,-177.75 -89.85,-249.81l-21.52 -63.67c-5.78,21.96 -11.77,43.8 -18.01,65.54 -20.18,70.45 -43.19,141.04 -68.97,211.81l-218.66 585.33z"/>
  <polygon fill="black" points="9425.68,3715.9 9425.68,1827.65 8704.79,1827.65 8704.79,1486.48 10521.34,1486.48 10521.34,1827.65 9800.45,1827.65 9800.45,3758.17 9425.68,3758.17 "/>
  <path fill="black" d="M10272.08 3700.87l849.45 -2214.38 375.6 0 924.86 2271.69 -421.27 0 -253.04 -662.85 -862.13 0 -237.27 662.85 -398.2 0 22 -57.31zm729.5 -925.32l623.59 0 -206.59 -549.21c-35.19,-94.58 -65.11,-177.75 -89.84,-249.81l-21.53 -63.67c-5.78,21.96 -11.77,43.8 -18.01,65.54 -20.18,70.45 -43.19,141.04 -68.96,211.81l-218.67 585.33z"/>
  <polygon fill="black" points="17965.4,3715.9 17965.4,1827.65 17244.5,1827.65 17244.5,1486.48 19061.05,1486.48 19061.05,1827.65 18340.16,1827.65 18340.16,3758.17 17965.4,3758.17 "/>
  <path fill="black" d="M21955.28 3700.87l849.44 -2214.38 375.61 0 924.86 2271.69 -421.27 0 -253.04 -662.85 -862.13 0 -237.27 662.85 -398.21 0 22.01 -57.31zm729.5 -925.32l623.58 0 -206.58 -549.21c-35.19,-94.58 -65.11,-177.75 -89.85,-249.81l-21.53 -63.67c-5.77,21.96 -11.77,43.8 -18,65.54 -20.18,70.45 -43.2,141.04 -68.97,211.81l-218.66 585.33z"/>
  <polygon fill="black" points="21285.4,3715.9 21285.4,1486.48 21660.17,1486.48 21660.17,3758.17 21285.4,3758.17 "/>
  <polygon fill="black" fill-rule="nonzero" points="15605.01,3715.9 15605.01,1486.48 15620.23,1486.48 15662.52,1486.48 15979.78,1486.48 17078.55,1486.48 17078.55,1861.26 15979.78,1861.26 15979.78,2434.96 17044.37,2434.96 17044.37,2809.73 15979.78,2809.73 15979.78,3383.41 17078.55,3383.41 17078.55,3758.17 15979.78,3758.17 15620.23,3758.17 15605.01,3758.17 "/>
  <path fill="black" fill-rule="nonzero" d="M14750.12 3715.9l0 -1588.25c-172.88,223.89 -345.74,446.11 -523.87,666l2.87 3.47 -254.41 300.65 -16.95 -21.86 -16.92 -21.84 -16.95 -21.86 -16.92 -21.86 -16.95 -21.84 -141.17 -182.09 0.05 -0.07 -527.44 -680.69 0 1632.52 -374.77 0 0 -42.28 0 -2229.41 318.23 0 34.81 0 21.74 0 764.33 1014.23 764.33 -1014.23 21.74 0 34.81 0 318.22 0 0 2271.69 -374.76 0 0 -42.28z"/>
  <polygon fill="black" fill-rule="nonzero" points="12888.98,3715.9 12888.98,1528.77 13179.18,1528.77 13179.18,3715.9 "/>
  <path fill="black" fill-rule="nonzero" d="M20448.13 3741.67l-801.52 -1036.21 0 1052.72 -374.77 0 0 -2271.69 955.86 0c192.42,0 367.38,78.73 494.15,205.46 126.75,126.76 205.48,301.73 205.48,494.15 0,184.21 -72.25,352.49 -189.8,477.84 -102.29,109.05 -239.07,185.56 -392.46,211.74l624.36 882.5 -508.54 0 -12.75 -16.51zm-768.98 -1202.07l474.51 0c97.28,0 185.66,-39.72 249.62,-103.71 64.15,-64.12 103.87,-152.5 103.87,-249.78 0,-97.3 -39.72,-185.68 -103.7,-249.64 -64.13,-64.15 -152.51,-103.87 -249.79,-103.87l-507.06 0 0 706.99 32.55 0z"/>
  <path fill="url(#id0)" d="M2934.39 1815.38c-945.85,608.53 -1887.88,1220.6 -2829.32,1835.95 -52.27,29.86 -103.33,82.35 -105.08,164.19 0,470.18 0,792.29 0,1262.46 0,101.18 190.8,211.35 284.74,148.09 1193.57,-803.16 2265.23,-1535.92 3458.81,-2339.09 202.45,-139.72 201.21,-387.43 21.73,-511.39 -354.32,-239.13 -520.53,-360.59 -830.88,-560.23z"/>
  <path fill="url(#id1)" d="M1685.24 2622.34c415.82,-269.66 832.12,-538.66 1249.16,-806.96 -304.2,-216.12 -2347.83,-1593.67 -2649.65,-1796.76 -93.94,-63.27 -284.74,46.91 -284.74,148.08 0,470.18 0,792.29 0,1262.46 1.74,81.85 52.8,134.33 105.08,164.19 526.35,344.04 1052.88,687.05 1580.16,1028.98z"/>
 </g>
</svg>
