<svg width="401" height="150" viewBox="0 0 401 150" fill="none" xmlns="http://www.w3.org/2000/svg">
<path d="M73.5378 53.2601L77.3754 38.9019C77.3754 38.9019 84.6569 38.8926 89.991 38.8926C109.614 38.8926 125.946 54.7181 125.946 74.8606C125.946 95.2977 109.461 110.777 89.9762 110.777C77.0497 110.777 48.7606 110.769 43.2383 110.769L47.0803 96.3941C54.1253 96.3941 83.7631 96.4 89.9809 96.4C102.065 96.4 111.574 86.723 111.574 74.8534C111.574 62.5131 101.512 53.2635 89.9816 53.2635C85.7274 53.2635 77.5134 53.2601 73.5378 53.2601Z" fill="#02AE9B"/>
<path d="M73.5341 53.2648H58.6426L49.0039 89.2047H63.9009L73.5341 53.2648Z" fill="#02AE9B"/>
<path d="M86.0598 38.9011H62.4824L56.3711 61.6475H79.9782L86.0598 38.9011Z" fill="#9ADFD7"/>
<path d="M80.0006 61.6475L86.0823 38.9011L56.3936 61.6475H80.0006Z" fill="#018B74"/>
<path d="M354.602 97.5115C355.603 97.5115 356.436 97.3634 357.103 97.067L356.214 103.68C354.732 104.162 353.158 104.402 351.49 104.402C349.342 104.402 347.563 103.976 346.156 103.124C344.785 102.272 343.84 101.087 343.321 99.5677C340.691 102.791 337.171 104.402 332.763 104.402C330.429 104.402 328.28 103.865 326.316 102.791C324.353 101.716 322.778 100.179 321.593 98.1784C320.444 96.1408 319.87 93.7512 319.87 91.0096C319.87 87.7124 320.593 84.7486 322.037 82.1182C323.519 79.4507 325.52 77.376 328.039 75.8941C330.558 74.3752 333.337 73.6157 336.375 73.6157C340.969 73.6157 344.211 75.1161 346.1 78.117L346.878 74.0603H355.547L351.657 93.4548C351.583 93.7512 351.546 94.1587 351.546 94.6774C351.546 95.6406 351.805 96.3631 352.324 96.8447C352.88 97.2893 353.639 97.5115 354.602 97.5115ZM335.43 97.2337C337.134 97.2337 338.653 96.8262 339.987 96.0111C341.321 95.159 342.358 93.992 343.099 92.5101C343.84 91.0282 344.211 89.324 344.211 87.3975C344.211 85.3599 343.599 83.7483 342.377 82.5627C341.191 81.3772 339.524 80.7844 337.375 80.7844C335.671 80.7844 334.152 81.2105 332.818 82.0626C331.485 82.8777 330.447 84.0261 329.706 85.508C328.965 86.99 328.595 88.6942 328.595 90.6206C328.595 92.6583 329.188 94.2699 330.373 95.4554C331.596 96.6409 333.281 97.2337 335.43 97.2337Z" fill="#002C27"/>
<path d="M304.106 73.6157C307.366 73.6157 309.959 74.5048 311.886 76.2831C313.812 78.0244 314.775 80.5066 314.775 83.7298C314.775 84.9153 314.646 86.1379 314.386 87.3975L311.108 103.958H302.438L305.606 88.0088C305.754 87.2678 305.828 86.5083 305.828 85.7303C305.828 84.2114 305.421 83.0629 304.606 82.2849C303.828 81.5069 302.661 81.1179 301.105 81.1179C296.918 81.1179 294.306 83.6186 293.269 88.6201L290.213 103.958H281.543L284.711 88.0088C284.859 87.2678 284.933 86.5269 284.933 85.7859C284.933 84.2669 284.526 83.1185 283.711 82.3405C282.933 81.5254 281.766 81.1179 280.21 81.1179C276.023 81.1179 273.393 83.6557 272.319 88.7312L269.318 103.958H260.648L266.595 74.0603H274.819L274.152 77.1723C276.746 74.8012 279.876 73.6157 283.544 73.6157C285.619 73.6157 287.453 74.0417 289.046 74.8938C290.676 75.7089 291.898 76.9129 292.713 78.506C294.158 76.9129 295.844 75.7089 297.77 74.8938C299.697 74.0417 301.809 73.6157 304.106 73.6157Z" fill="#002C27"/>
<path d="M243.596 104.402C240.521 104.402 237.835 103.847 235.538 102.735C233.241 101.624 231.463 100.068 230.203 98.0673C228.98 96.0296 228.369 93.6771 228.369 91.0096C228.369 87.7124 229.147 84.7486 230.703 82.1182C232.259 79.4878 234.426 77.4131 237.205 75.8941C239.984 74.3752 243.114 73.6157 246.597 73.6157C249.783 73.6157 252.524 74.2826 254.821 75.6163C257.155 76.9129 258.897 78.7653 260.045 81.1734L252.71 84.8412C251.413 82.1367 249.19 80.7844 246.041 80.7844C244.337 80.7844 242.799 81.2105 241.428 82.0626C240.095 82.8777 239.039 84.0261 238.261 85.508C237.52 86.99 237.149 88.6756 237.149 90.5651C237.149 92.6027 237.761 94.2328 238.983 95.4554C240.206 96.6409 241.91 97.2337 244.096 97.2337C247.282 97.2337 249.727 95.9 251.431 93.2325L257.822 97.2337C256.377 99.4936 254.395 101.253 251.876 102.513C249.394 103.773 246.634 104.402 243.596 104.402Z" fill="#002C27"/>
<path d="M207.07 104.402C204.069 104.402 201.42 103.847 199.123 102.735C196.863 101.624 195.103 100.068 193.844 98.0673C192.621 96.0296 192.01 93.6771 192.01 91.0096C192.01 87.7124 192.788 84.7486 194.344 82.1182C195.9 79.4878 198.049 77.4131 200.79 75.8941C203.532 74.3752 206.625 73.6157 210.071 73.6157C213.109 73.6157 215.757 74.1714 218.017 75.2828C220.277 76.3943 222.019 77.9688 223.241 80.0064C224.501 82.007 225.131 84.341 225.131 87.0085C225.131 90.3057 224.353 93.2696 222.797 95.9C221.278 98.5304 219.129 100.605 216.35 102.124C213.609 103.643 210.515 104.402 207.07 104.402ZM207.625 97.2337C209.293 97.2337 210.793 96.8262 212.127 96.0111C213.46 95.159 214.498 93.992 215.239 92.5101C215.98 91.0282 216.35 89.324 216.35 87.3975C216.35 85.3599 215.757 83.7483 214.572 82.5627C213.386 81.3772 211.719 80.7844 209.57 80.7844C207.866 80.7844 206.347 81.2105 205.014 82.0626C203.68 82.8777 202.642 84.0261 201.902 85.508C201.161 86.99 200.79 88.6942 200.79 90.6206C200.79 92.6583 201.383 94.2699 202.568 95.4554C203.791 96.6409 205.477 97.2337 207.625 97.2337Z" fill="#002C27"/>
<path d="M153.879 65.0576H170.161C174.125 65.0576 177.534 65.7244 180.386 67.0581C183.276 68.3548 185.48 70.2257 186.999 72.6709C188.555 75.116 189.333 77.9872 189.333 81.2845C189.333 85.8043 188.315 89.787 186.277 93.2324C184.239 96.6408 181.387 99.2898 177.719 101.179C174.088 103.032 169.883 103.958 165.104 103.958H146.099L153.879 65.0576ZM165.382 96.5667C168.42 96.5667 171.05 95.9369 173.273 94.6773C175.533 93.3806 177.256 91.6209 178.441 89.398C179.627 87.1381 180.22 84.6003 180.22 81.7847C180.22 78.8579 179.275 76.5794 177.386 74.9493C175.496 73.2822 172.755 72.4486 169.161 72.4486H161.436L156.602 96.5667H165.382Z" fill="#002C27"/>
</svg>
