<svg width="161" height="160" viewBox="0 0 161 160" fill="none" xmlns="http://www.w3.org/2000/svg">
<path d="M65.8372 51.0313L70.9904 31.7509C70.9904 31.7509 80.7682 31.7383 87.9309 31.7383C114.281 31.7383 136.212 52.9892 136.212 80.037C136.212 107.48 114.076 128.266 87.911 128.266C70.5531 128.266 32.5659 128.256 25.1504 128.256L30.3095 108.953C39.7697 108.953 79.568 108.96 87.9173 108.96C104.144 108.96 116.913 95.9661 116.913 80.0273C116.913 63.4564 103.401 51.0359 87.9184 51.0359C82.2056 51.0359 71.1758 51.0313 65.8372 51.0313Z" fill="#02AE9B"/>
<path d="M65.8274 51.0376H45.8306L32.8876 99.2985H52.8916L65.8274 51.0376Z" fill="#02AE9B"/>
<path d="M84.3871 31.7498H51.0401L42.3965 63.9214H75.7855L84.3871 31.7498Z" fill="#02AE9B"/>
<path d="M84.3871 31.7498H51.0401L42.3965 63.9214H75.7855L84.3871 31.7498Z" fill="white" fill-opacity="0.5"/>
<path d="M75.7855 63.9214L84.3871 31.7498L42.3965 63.9214H75.7855Z" fill="#00775E"/>
</svg>
