<svg xmlns="http://www.w3.org/2000/svg" version="1.1" xmlns:xlink="http://www.w3.org/1999/xlink" xmlns:svgjs="http://svgjs.dev/svgjs" width="1000" height="1210" viewBox="0 0 1000 1210"><g transform="matrix(1,0,0,1,-0.8658168152571193,0.48987854251004137)"><svg viewBox="0 0 204 247" data-background-color="#ffffff" preserveAspectRatio="xMidYMid meet" height="1210" width="1000" xmlns="http://www.w3.org/2000/svg" xmlns:xlink="http://www.w3.org/1999/xlink"><g id="tight-bounds" transform="matrix(1,0,0,1,0.1766266303124553,-0.09999999999999432)"><svg viewBox="0 0 203.6467467393751 247.2" height="247.2" width="203.6467467393751"><g><svg viewBox="0 0 395.52 480.10854857960595" height="247.2" width="203.6467467393751"><g transform="matrix(1,0,0,1,0,275.919482589928)"><svg viewBox="0 0 395.52 204.18906598967794" height="204.18906598967794" width="395.52"><g><svg viewBox="0 0 395.52 204.18906598967794" height="204.18906598967794" width="395.52"><g><svg viewBox="0 0 395.52 133.38129496402877" height="133.38129496402877" width="395.52"><g transform="matrix(1,0,0,1,0,0)"><svg width="395.52" viewBox="3.1 -37 111.19000000000001 37.5" height="133.38129496402877" data-palette-color="#31c48d"><path d="M7.55-24.25L7.55-2.05Q7.55-1.2 6.98-0.6 6.4 0 5.55 0L5.55 0Q4.65 0 4.1-0.6 3.55-1.2 3.55-2.05L3.55-2.05 3.55-24.25Q3.55-25.1 4.13-25.68 4.7-26.25 5.55-26.25L5.55-26.25Q6.4-26.25 6.98-25.68 7.55-25.1 7.55-24.25L7.55-24.25ZM5.55-29.6L5.55-29.6Q4.3-29.6 3.7-30.1 3.1-30.6 3.1-31.65L3.1-31.65 3.1-32.35Q3.1-33.4 3.75-33.9 4.4-34.4 5.6-34.4L5.6-34.4Q6.8-34.4 7.4-33.9 8-33.4 8-32.35L8-32.35 8-31.65Q8-30.6 7.38-30.1 6.75-29.6 5.55-29.6ZM13.75-25.7L13.75-25.7 25.5-25.7Q26.3-25.7 26.82-25.15 27.35-24.6 27.35-23.85L27.35-23.85Q27.35-23.05 26.82-22.53 26.3-22 25.5-22L25.5-22 13.75-22Q13-22 12.45-22.55 11.9-23.1 11.9-23.9L11.9-23.9Q11.9-24.65 12.45-25.18 13-25.7 13.75-25.7ZM19-32.5L19-32.5Q19.85-32.5 20.4-31.93 20.95-31.35 20.95-30.5L20.95-30.5 20.95-6.35Q20.95-5.15 21.3-4.55 21.65-3.95 22.22-3.73 22.8-3.5 23.35-3.5L23.35-3.5Q23.85-3.5 24.22-3.68 24.6-3.85 25.1-3.85L25.1-3.85Q25.6-3.85 26.02-3.38 26.45-2.9 26.45-2.15L26.45-2.15Q26.45-1.25 25.4-0.63 24.35 0 23.05 0L23.05 0Q22.35 0 21.32-0.1 20.3-0.2 19.3-0.75 18.3-1.3 17.62-2.58 16.95-3.85 16.95-6.15L16.95-6.15 16.95-30.5Q16.95-31.35 17.55-31.93 18.15-32.5 19-32.5ZM35.3 0L35.3 0Q34.4 0 33.85-0.6 33.3-1.2 33.3-2.05L33.3-2.05 33.3-35Q33.3-35.85 33.85-36.43 34.4-37 35.3-37L35.3-37Q36.15-37 36.72-36.43 37.3-35.85 37.3-35L37.3-35 37.3-2.05Q37.3-1.2 36.72-0.6 36.15 0 35.3 0ZM51.9-26L51.9-26Q52.7-26 53.27-25.38 53.85-24.75 53.85-24.1L53.85-24.1Q53.85-23.25 53.05-22.6L53.05-22.6 36.85-8.45 36.7-13.1 50.5-25.4Q51.1-26 51.9-26ZM52.45-0.05L52.45-0.05Q51.6-0.05 50.95-0.7L50.95-0.7 40.3-12.05 43.3-14.8 53.85-3.5Q54.45-2.85 54.45-2L54.45-2Q54.45-1.1 53.75-0.58 53.05-0.05 52.45-0.05ZM80.19-37L80.19-37Q81.09-37 81.64-36.43 82.19-35.85 82.19-35L82.19-35 82.19-2.05Q82.19-1.2 81.62-0.6 81.04 0 80.19 0L80.19 0Q79.34 0 78.77-0.6 78.19-1.2 78.19-2.05L78.19-2.05 78.19-6.8 79.14-7.15Q79.14-5.95 78.42-4.63 77.69-3.3 76.37-2.15 75.04-1 73.29-0.25 71.54 0.5 69.49 0.5L69.49 0.5Q66.09 0.5 63.39-1.25 60.69-3 59.12-6.05 57.54-9.1 57.54-13L57.54-13Q57.54-16.95 59.12-20 60.69-23.05 63.37-24.78 66.04-26.5 69.39-26.5L69.39-26.5Q71.49-26.5 73.32-25.8 75.14-25.1 76.54-23.9 77.94-22.7 78.72-21.25 79.49-19.8 79.49-18.35L79.49-18.35 78.19-18.65 78.19-35Q78.19-35.85 78.77-36.43 79.34-37 80.19-37ZM69.89-3.2L69.89-3.2Q72.44-3.2 74.34-4.48 76.24-5.75 77.34-7.98 78.44-10.2 78.44-13L78.44-13Q78.44-15.85 77.34-18.05 76.24-20.25 74.32-21.53 72.39-22.8 69.89-22.8L69.89-22.8Q67.44-22.8 65.52-21.53 63.59-20.25 62.49-18.05 61.39-15.85 61.39-13L61.39-13Q61.39-10.25 62.49-8.03 63.59-5.8 65.52-4.5 67.44-3.2 69.89-3.2ZM102.34-26.5L102.34-26.5Q105.74-26.5 108.44-24.78 111.14-23.05 112.72-20.05 114.29-17.05 114.29-13.1L114.29-13.1Q114.29-9.15 112.72-6.1 111.14-3.05 108.47-1.28 105.79 0.5 102.44 0.5L102.44 0.5Q100.59 0.5 98.97-0.08 97.34-0.65 96.02-1.63 94.69-2.6 93.79-3.78 92.89-4.95 92.49-6.1L92.49-6.1 93.59-6.8 93.59-1.8Q93.59-0.95 93.04-0.35 92.49 0.25 91.59 0.25L91.59 0.25Q90.74 0.25 90.17-0.33 89.59-0.9 89.59-1.8L89.59-1.8 89.59-34.95Q89.59-35.8 90.17-36.4 90.74-37 91.59-37L91.59-37Q92.49-37 93.04-36.4 93.59-35.8 93.59-34.95L93.59-34.95 93.59-19.55 92.84-19.95Q93.19-21.2 94.07-22.38 94.94-23.55 96.22-24.48 97.49-25.4 99.07-25.95 100.64-26.5 102.34-26.5ZM101.89-22.8L101.89-22.8Q99.39-22.8 97.47-21.55 95.54-20.3 94.47-18.1 93.39-15.9 93.39-13.1L93.39-13.1Q93.39-10.3 94.47-8.05 95.54-5.8 97.47-4.5 99.39-3.2 101.89-3.2L101.89-3.2Q104.39-3.2 106.29-4.5 108.19-5.8 109.29-8.05 110.39-10.3 110.39-13.1L110.39-13.1Q110.39-15.9 109.29-18.1 108.19-20.3 106.29-21.55 104.39-22.8 101.89-22.8Z" opacity="1" transform="matrix(1,0,0,1,0,0)" fill="#31c48d" class="undefined-text-0" data-fill-palette-color="primary" id="text-0"></path></svg></g></svg></g><g transform="matrix(1,0,0,1,0,164.86941755395682)"><svg viewBox="0 0 395.52 39.31964843572111" height="39.31964843572111" width="395.52"><g transform="matrix(1,0,0,1,0,0)"><svg width="395.52" viewBox="2.25 -38.99 536.05 53.300000000000004" height="39.31964843572111" data-palette-color="#31c48d"><path d="M21-17.65L21-2.76Q21-2.34 21.18-1.99 21.36-1.64 21.62-1.4 21.88-1.17 22.36-0.95 22.85-0.73 23.22-0.61 23.58-0.49 24.24-0.29L24.24-0.29 24.05 0.29Q22.49 0 20.95 0L20.95 0Q19.02 0 17.14 0.39L17.14 0.39 16.99 0.15Q17.5-0.56 17.5-2.44L17.5-2.44 17.5-4.05Q16.28-1.78 13.71-0.39 11.13 1 8.5 1L8.5 1Q5.69 1 3.97-0.45 2.25-1.9 2.25-4.76L2.25-4.76Q2.25-6.62 3.02-8.07 3.78-9.52 5.07-10.53 6.35-11.55 8.36-12.33 10.38-13.11 12.51-13.6 14.65-14.09 17.5-14.5L17.5-14.5 17.5-16.75Q17.5-23.46 12.21-23.46L12.21-23.46Q10.5-23.46 8.02-22.62 5.54-21.78 3.86-20.41L3.86-20.41 2.86-21.56Q4.98-23.24 7.9-24.34 10.82-25.44 13.35-25.44L13.35-25.44Q14.48-25.44 15.49-25.23 16.5-25.02 17.54-24.48 18.58-23.93 19.32-23.08 20.07-22.24 20.53-20.84 21-19.43 21-17.65L21-17.65ZM9.64-0.85L9.64-0.85Q11.77-0.85 14.09-2.26 16.41-3.66 17.5-5.76L17.5-5.76 17.5-13.21Q11.25-12.3 8.58-10.44 5.91-8.57 5.91-5L5.91-5Q5.91-2.83 6.84-1.84 7.76-0.85 9.64-0.85ZM48.63 0.49L48.63 9.5Q48.63 11.45 49.53 12.37 50.43 13.28 52.73 13.7L52.73 13.7 52.53 14.31Q49.82 13.89 48.02 13.89L48.02 13.89Q46.63 13.89 44.77 14.31L44.77 14.31 44.62 14.04Q45.11 13.33 45.11 11.45L45.11 11.45 45.11-18.09Q45.11-21.56 44.29-22.74 43.48-23.93 40.82-23.75L40.82-23.75 40.72-24.19Q44.75-25.39 48.12-25.39L48.12-25.39Q48.63-24.12 48.63-22.61L48.63-22.61 48.63-21.19Q50.78-23.39 52.95-24.39 55.12-25.39 57.73-25.39L57.73-25.39Q59.93-25.39 61.77-24.38 63.62-23.36 64.81-21.7 66.01-20.04 66.67-17.96 67.33-15.87 67.33-13.65L67.33-13.65Q67.33-7.06 63.85-3.03 60.37 1 53.88 1L53.88 1Q50.92 1 48.63 0.49L48.63 0.49ZM48.63-19.24L48.63-19.24 48.63-2.29Q49.78-1.66 51.73-1.26 53.68-0.85 55.63-0.85L55.63-0.85Q57.54-0.85 58.94-1.43 60.35-2 61.2-2.97 62.06-3.93 62.58-5.44 63.11-6.96 63.29-8.58 63.47-10.21 63.47-12.35L63.47-12.35Q63.47-17.92 61.59-20.79 59.71-23.66 56.61-23.66L56.61-23.66Q54.68-23.66 52.6-22.52 50.51-21.39 48.63-19.24ZM94.82-25.15L95.11-24.66 84.71 2.29Q84.05 4.03 83.57 5.15 83.1 6.27 82.46 7.48 81.83 8.69 81.23 9.45 80.63 10.21 79.84 10.83 79.05 11.45 78.12 11.79L78.12 11.79Q74.24 11.94 71.31 9.16L71.31 9.16Q72.62 7.54 74.97 6.4L74.97 6.4 75.26 6.69Q76.24 8.96 78.41 9.96L78.41 9.96Q79.46 9.11 80.57 7.14 81.68 5.18 83.32 0.76L83.32 0.76 74.63-19.8Q73.94-21.53 73.1-22.29 72.26-23.05 71.37-23.02 70.48-23 69.33-22.85L69.33-22.85 69.06-23.34Q73.16-25.39 76.26-25.39L76.26-25.39 83.61-7.5Q84.1-6.32 84.76-3L84.76-3 85.17-3Q86.35-6.88 86.37-6.96L86.37-6.96 91.81-22.56Q92.13-23.44 91.08-23.82 90.03-24.19 87.91-24L87.91-24 87.76-24.61Q89.84-25.02 94.82-25.15L94.82-25.15ZM104.56-22.61L104.56-6.74Q104.56-3.42 105.29-2.16 106.02-0.9 107.66-0.9L107.66-0.9Q109.44-0.9 112-2.25L112-2.25 112.76-1.2Q108.73 1 106.17 1L106.17 1Q104.8 1 103.95 0.76 103.09 0.51 102.38-0.2 101.67-0.9 101.37-2.28 101.06-3.66 101.06-5.86L101.06-5.86 101.06-22.41 97.4-22.19 97.4-23.75Q99.33-24.17 101.06-24.29L101.06-24.29 101.06-27.76Q103.14-28.93 104.46-31.1L104.46-31.1 105.21-30.81Q104.8-29.83 104.68-28.6 104.56-27.37 104.56-24.44L104.56-24.44 112.95-24.44 112.95-23.58Q111.93-23.17 110.88-22.89 109.83-22.61 108.71-22.61L108.71-22.61 104.56-22.61ZM137.19-2.44L137.19-17.04Q137.19-19.09 136.8-20.4 136.41-21.7 135.74-22.45 135.07-23.19 134.18-23.49 133.29-23.78 132.29-23.78L132.29-23.78Q131.07-23.78 130-23.56 128.94-23.34 127.88-22.89 126.82-22.44 125.72-21.77 124.62-21.09 123.35-20.19L123.35-20.19 123.35-3.34Q123.35-2.56 123.47-2.09 123.6-1.61 123.99-1.29 124.38-0.98 125.09-0.73 125.79-0.49 126.94-0.2L126.94-0.2 126.75 0.39Q125.33 0.2 124.34 0.1 123.35 0 122.35 0 121.35 0 119.49 0.39L119.49 0.39 119.35 0.15Q119.84-0.56 119.84-2.44L119.84-2.44 119.84-31.69Q119.84-33.33 119.68-34.42 119.52-35.52 119.12-36.18 118.71-36.84 118.01-37.11 117.3-37.38 116.5-37.38 115.71-37.38 115.54-37.35L115.54-37.35 115.44-37.79Q119.42-38.99 122.84-38.99L122.84-38.99Q123.35-37.7 123.35-36.21L123.35-36.21 123.35-21.9Q125.04-23.05 126.42-23.79 127.8-24.54 129-24.98 130.21-25.42 131.3-25.59 132.38-25.76 133.51-25.76L133.51-25.76Q135.05-25.76 136.33-25.35 137.61-24.95 138.54-24.04 139.47-23.12 140.03-21.63 140.59-20.14 140.69-17.94L140.69-17.94 140.69-2.76Q140.69-2.17 140.97-1.78 141.25-1.39 141.7-1.12 142.15-0.85 142.74-0.67 143.32-0.49 143.96-0.29L143.96-0.29 143.74 0.29Q142.37 0 140.54 0 138.71 0 136.85 0.39L136.85 0.39 136.71 0.15Q137.19-0.56 137.19-2.44L137.19-2.44ZM160.85-25.39L160.85-25.39Q166.46-25.39 169.66-21.95 172.86-18.51 172.86-12.35L172.86-12.35Q172.86-8.79 171.23-5.71 169.59-2.64 166.78-0.82 163.97 1 160.7 1L160.7 1Q155.06 1 151.88-2.4 148.69-5.81 148.69-12.06L148.69-12.06Q148.69-15.77 150.33-18.84 151.96-21.9 154.76-23.65 157.55-25.39 160.85-25.39ZM160.36-23.71L160.36-23.71Q158.43-23.71 157.02-23.14 155.6-22.58 154.75-21.63 153.89-20.68 153.38-19.21 152.87-17.75 152.68-16.21 152.5-14.67 152.5-12.65L152.5-12.65Q152.5-9.42 153.27-7.02 154.04-4.61 155.33-3.28 156.63-1.95 158.09-1.33 159.56-0.71 161.19-0.71L161.19-0.71Q163.1-0.71 164.52-1.31 165.95-1.9 166.81-2.87 167.66-3.83 168.17-5.31 168.69-6.79 168.87-8.3 169.05-9.81 169.05-11.74L169.05-11.74Q169.05-14.45 168.54-16.58 168.03-18.7 167.18-20.02 166.34-21.34 165.18-22.19 164.02-23.05 162.85-23.38 161.68-23.71 160.36-23.71ZM180.99-2.44L180.99-18.09Q180.99-19.73 180.83-20.83 180.67-21.92 180.27-22.58 179.87-23.24 179.16-23.51 178.45-23.78 177.66-23.78 176.86-23.78 176.69-23.75L176.69-23.75 176.59-24.19Q180.57-25.39 183.99-25.39L183.99-25.39Q184.5-24.1 184.5-22.61L184.5-22.61 184.5-21.9Q185.92-22.85 187.12-23.56 188.31-24.27 189.47-24.76 190.63-25.24 191.85-25.49 193.07-25.73 194.54-25.73L194.54-25.73Q195.86-25.73 197.16-25.39 198.47-25.05 199.51-24.17 200.54-23.29 201.19-21.78 201.84-20.26 201.84-17.94L201.84-17.94 201.84-2.76Q201.84-2.17 202.12-1.78 202.4-1.39 202.85-1.12 203.3-0.85 203.89-0.67 204.47-0.49 205.11-0.29L205.11-0.29 204.89 0.29Q203.52 0 201.25 0L201.25 0Q199.86 0 198 0.39L198 0.39 197.86 0.15Q198.35-0.56 198.35-2.44L198.35-2.44 198.35-17.04Q198.35-19.09 197.96-20.4 197.57-21.7 196.89-22.45 196.22-23.19 195.33-23.49 194.44-23.78 193.44-23.78L193.44-23.78Q192.22-23.78 191.16-23.56 190.09-23.34 189.03-22.89 187.97-22.44 186.87-21.77 185.77-21.09 184.5-20.19L184.5-20.19 184.5-3.34Q184.5-2.56 184.63-2.09 184.75-1.61 185.14-1.29 185.53-0.98 186.24-0.73 186.95-0.49 188.09-0.2L188.09-0.2 187.9 0.39Q186.48 0.2 185.49 0.1 184.5 0 183.89 0L183.89 0Q182.5 0 180.65 0.39L180.65 0.39 180.5 0.15Q180.99-0.56 180.99-2.44L180.99-2.44ZM212.99-2.44L212.99-18.09Q212.99-21.56 212.17-22.74 211.36-23.93 208.7-23.75L208.7-23.75 208.6-24.19Q212.63-25.39 216-25.39L216-25.39Q216.51-24.12 216.51-22.61L216.51-22.61 216.51-4.39Q216.51-2.47 217.41-1.54 218.31-0.61 220.61-0.2L220.61-0.2 220.41 0.39Q217.61 0 216.08 0 214.56 0 212.65 0.39L212.65 0.39 212.5 0.15Q212.99-0.56 212.99-2.44L212.99-2.44ZM210.5-34.45L210.5-34.45Q212.82-35.79 215.75-36.69L215.75-36.69Q215.75-34.67 216.41-32.69L216.41-32.69 216.09-32.25Q213.77-32.1 211.26-30.96L211.26-30.96Q210.65-32.64 210.5-34.45ZM235.89 1L235.89 1Q233.33 1 231.13-0.02 228.93-1.05 227.47-2.77 226-4.49 225.17-6.7 224.34-8.91 224.34-11.3L224.34-11.3Q224.34-14.72 225.34-17.43 226.34-20.14 228.13-21.86 229.91-23.58 232.29-24.49 234.67-25.39 237.5-25.39L237.5-25.39Q240.63-25.39 243.95-24.24L243.95-24.24 242.36-18.26 241.46-18.51Q241.73-21.07 241.31-22.9L241.31-22.9Q238.58-23.71 236.35-23.71L236.35-23.71Q232.06-23.71 230.1-20.91 228.15-18.12 228.15-12.65L228.15-12.65Q228.15-7.54 230.53-4.15 232.91-0.76 236.55-0.76L236.55-0.76Q241.07-0.76 243.9-3.59L243.9-3.59 244.9-2.54Q243.07-0.63 240.91 0.18 238.75 1 235.89 1ZM279.98-17.65L279.98-2.76Q279.98-2.34 280.16-1.99 280.34-1.64 280.6-1.4 280.86-1.17 281.34-0.95 281.83-0.73 282.2-0.61 282.57-0.49 283.22-0.29L283.22-0.29 283.03 0.29Q281.47 0 279.93 0L279.93 0Q278 0 276.12 0.39L276.12 0.39 275.97 0.15Q276.49-0.56 276.49-2.44L276.49-2.44 276.49-4.05Q275.27-1.78 272.69-0.39 270.11 1 267.48 1L267.48 1Q264.67 1 262.95-0.45 261.23-1.9 261.23-4.76L261.23-4.76Q261.23-6.62 262-8.07 262.77-9.52 264.05-10.53 265.33-11.55 267.34-12.33 269.36-13.11 271.49-13.6 273.63-14.09 276.49-14.5L276.49-14.5 276.49-16.75Q276.49-23.46 271.19-23.46L271.19-23.46Q269.48-23.46 267-22.62 264.52-21.78 262.84-20.41L262.84-20.41 261.84-21.56Q263.96-23.24 266.88-24.34 269.8-25.44 272.34-25.44L272.34-25.44Q273.46-25.44 274.47-25.23 275.49-25.02 276.52-24.48 277.56-23.93 278.31-23.08 279.05-22.24 279.51-20.84 279.98-19.43 279.98-17.65L279.98-17.65ZM268.62-0.85L268.62-0.85Q270.75-0.85 273.07-2.26 275.39-3.66 276.49-5.76L276.49-5.76 276.49-13.21Q270.24-12.3 267.56-10.44 264.89-8.57 264.89-5L264.89-5Q264.89-2.83 265.82-1.84 266.74-0.85 268.62-0.85ZM294.62 0.49L294.62 9.5Q294.62 11.45 295.53 12.37 296.43 13.28 298.72 13.7L298.72 13.7 298.53 14.31Q295.82 13.89 294.01 13.89L294.01 13.89Q292.62 13.89 290.77 14.31L290.77 14.31 290.62 14.04Q291.11 13.33 291.11 11.45L291.11 11.45 291.11-18.09Q291.11-21.56 290.29-22.74 289.47-23.93 286.81-23.75L286.81-23.75 286.71-24.19Q290.74-25.39 294.11-25.39L294.11-25.39Q294.62-24.12 294.62-22.61L294.62-22.61 294.62-21.19Q296.77-23.39 298.94-24.39 301.12-25.39 303.73-25.39L303.73-25.39Q305.93-25.39 307.77-24.38 309.61-23.36 310.81-21.7 312.01-20.04 312.67-17.96 313.32-15.87 313.32-13.65L313.32-13.65Q313.32-7.06 309.85-3.03 306.37 1 299.87 1L299.87 1Q296.92 1 294.62 0.49L294.62 0.49ZM294.62-19.24L294.62-19.24 294.62-2.29Q295.77-1.66 297.72-1.26 299.68-0.85 301.63-0.85L301.63-0.85Q303.53-0.85 304.94-1.43 306.34-2 307.2-2.97 308.05-3.93 308.58-5.44 309.1-6.96 309.28-8.58 309.47-10.21 309.47-12.35L309.47-12.35Q309.47-17.92 307.59-20.79 305.71-23.66 302.61-23.66L302.61-23.66Q300.68-23.66 298.59-22.52 296.5-21.39 294.62-19.24ZM321.45-2.44L321.45-18.09Q321.45-21.56 320.63-22.74 319.82-23.93 317.16-23.75L317.16-23.75 317.06-24.19Q321.09-25.39 324.45-25.39L324.45-25.39Q324.97-24.12 324.97-22.61L324.97-22.61 324.97-4.39Q324.97-2.47 325.87-1.54 326.77-0.61 329.07-0.2L329.07-0.2 328.87 0.39Q326.07 0 324.54 0 323.01 0 321.11 0.39L321.11 0.39 320.96 0.15Q321.45-0.56 321.45-2.44L321.45-2.44ZM318.96-34.45L318.96-34.45Q321.28-35.79 324.21-36.69L324.21-36.69Q324.21-34.67 324.87-32.69L324.87-32.69 324.55-32.25Q322.23-32.1 319.72-30.96L319.72-30.96Q319.11-32.64 318.96-34.45ZM384.75-24.61L373.84 1.25 372.15 0.76 366.25-18.65 358.56 1.25 356.85 0.76 349.6-19.8Q349.21-21.07 348.67-21.8 348.13-22.53 347.53-22.75 346.94-22.97 346.21-23.01 345.49-23.05 344.3-22.85L344.3-22.85 344.05-23.34Q348.16-25.39 351.31-25.39L351.31-25.39 357.46-8.3Q357.97-6.57 358.56-3.81L358.56-3.81 358.95-3.81Q359.85-6.79 360.24-7.74L360.24-7.74 365.39-21.04Q365.1-21.85 364.59-22.27 364.07-22.68 363.68-22.88L363.68-22.88Q363.46-23 363.04-23.03 362.61-23.07 362.16-23.06 361.71-23.05 361.28-22.99 360.85-22.92 360.61-22.85L360.61-22.85 360.34-23.34Q364.44-25.39 367.54-25.39L367.54-25.39 372.89-8.4Q373.47-6.52 373.99-3.91L373.99-3.91 374.4-3.91Q375.16-6.4 375.69-7.86L375.69-7.86 381.46-22.29Q381.7-22.88 381.33-23.24 380.97-23.61 380.04-23.74 379.11-23.88 377.75-23.75L377.75-23.75 377.6-24.34Q380.72-25.02 384.46-25.1L384.46-25.1 384.75-24.61ZM391.2-2.44L391.2-18.09Q391.2-19.73 391.04-20.83 390.88-21.92 390.48-22.58 390.07-23.24 389.36-23.51 388.66-23.78 386.9-23.75L386.9-23.75 386.8-24.19Q390.78-25.39 394.2-25.39L394.2-25.39Q394.71-24.1 394.71-22.61L394.71-22.61 394.71-19.6 394.81-19.51Q395.83-20.92 396.77-22.02 397.71-23.12 398.69-23.85 399.67-24.58 400.74-24.96 401.82-25.34 403.13-25.34L403.13-25.34Q403.96-25.34 404.96-25.2L404.96-25.2 403.55-19.24 402.65-19.51Q402.65-19.87 402.6-20.51 402.55-21.14 402.46-21.77 402.38-22.39 402.24-22.84 402.11-23.29 401.94-23.29L401.94-23.29Q401.23-23.29 400.51-22.99 399.79-22.68 398.93-22 398.08-21.31 397.05-20.21 396.03-19.12 394.71-17.55L394.71-17.55 394.71-3.34Q394.71-2.56 394.83-2.09 394.96-1.61 395.35-1.29 395.74-0.98 396.44-0.73 397.15-0.49 398.3-0.2L398.3-0.2 398.1 0.39Q396.69 0.2 395.7 0.1 394.71 0 394.1 0L394.1 0Q392.71 0 390.85 0.39L390.85 0.39 390.71 0.15Q391.2-0.56 391.2-2.44L391.2-2.44ZM426.96-17.65L426.96-2.76Q426.96-2.34 427.14-1.99 427.33-1.64 427.58-1.4 427.84-1.17 428.33-0.95 428.81-0.73 429.18-0.61 429.55-0.49 430.21-0.29L430.21-0.29 430.01 0.29Q428.45 0 426.91 0L426.91 0Q424.98 0 423.1 0.39L423.1 0.39 422.96 0.15Q423.47-0.56 423.47-2.44L423.47-2.44 423.47-4.05Q422.25-1.78 419.67-0.39 417.1 1 414.46 1L414.46 1Q411.65 1 409.93-0.45 408.21-1.9 408.21-4.76L408.21-4.76Q408.21-6.62 408.98-8.07 409.75-9.52 411.03-10.53 412.31-11.55 414.33-12.33 416.34-13.11 418.48-13.6 420.61-14.09 423.47-14.5L423.47-14.5 423.47-16.75Q423.47-23.46 418.17-23.46L418.17-23.46Q416.46-23.46 413.98-22.62 411.51-21.78 409.82-20.41L409.82-20.41 408.82-21.56Q410.94-23.24 413.86-24.34 416.78-25.44 419.32-25.44L419.32-25.44Q420.44-25.44 421.45-25.23 422.47-25.02 423.5-24.48 424.54-23.93 425.29-23.08 426.03-22.24 426.5-20.84 426.96-19.43 426.96-17.65L426.96-17.65ZM415.61-0.85L415.61-0.85Q417.73-0.85 420.05-2.26 422.37-3.66 423.47-5.76L423.47-5.76 423.47-13.21Q417.22-12.3 414.54-10.44 411.87-8.57 411.87-5L411.87-5Q411.87-2.83 412.8-1.84 413.73-0.85 415.61-0.85ZM441.61 0.49L441.61 9.5Q441.61 11.45 442.51 12.37 443.41 13.28 445.71 13.7L445.71 13.7 445.51 14.31Q442.8 13.89 441 13.89L441 13.89Q439.6 13.89 437.75 14.31L437.75 14.31 437.6 14.04Q438.09 13.33 438.09 11.45L438.09 11.45 438.09-18.09Q438.09-21.56 437.27-22.74 436.45-23.93 433.79-23.75L433.79-23.75 433.7-24.19Q437.72-25.39 441.09-25.39L441.09-25.39Q441.61-24.12 441.61-22.61L441.61-22.61 441.61-21.19Q443.75-23.39 445.93-24.39 448.1-25.39 450.71-25.39L450.71-25.39Q452.91-25.39 454.75-24.38 456.6-23.36 457.79-21.7 458.99-20.04 459.65-17.96 460.31-15.87 460.31-13.65L460.31-13.65Q460.31-7.06 456.83-3.03 453.35 1 446.85 1L446.85 1Q443.9 1 441.61 0.49L441.61 0.49ZM441.61-19.24L441.61-19.24 441.61-2.29Q442.75-1.66 444.71-1.26 446.66-0.85 448.61-0.85L448.61-0.85Q450.52-0.85 451.92-1.43 453.32-2 454.18-2.97 455.03-3.93 455.56-5.44 456.08-6.96 456.27-8.58 456.45-10.21 456.45-12.35L456.45-12.35Q456.45-17.92 454.57-20.79 452.69-23.66 449.59-23.66L449.59-23.66Q447.66-23.66 445.57-22.52 443.49-21.39 441.61-19.24ZM471.95 0.49L471.95 9.5Q471.95 11.45 472.85 12.37 473.76 13.28 476.05 13.7L476.05 13.7 475.86 14.31Q473.15 13.89 471.34 13.89L471.34 13.89Q469.95 13.89 468.09 14.31L468.09 14.31 467.95 14.04Q468.43 13.33 468.43 11.45L468.43 11.45 468.43-18.09Q468.43-21.56 467.62-22.74 466.8-23.93 464.14-23.75L464.14-23.75 464.04-24.19Q468.07-25.39 471.44-25.39L471.44-25.39Q471.95-24.12 471.95-22.61L471.95-22.61 471.95-21.19Q474.1-23.39 476.27-24.39 478.44-25.39 481.06-25.39L481.06-25.39Q483.25-25.39 485.1-24.38 486.94-23.36 488.14-21.7 489.33-20.04 489.99-17.96 490.65-15.87 490.65-13.65L490.65-13.65Q490.65-7.06 487.17-3.03 483.69 1 477.2 1L477.2 1Q474.24 1 471.95 0.49L471.95 0.49ZM471.95-19.24L471.95-19.24 471.95-2.29Q473.1-1.66 475.05-1.26 477-0.85 478.96-0.85L478.96-0.85Q480.86-0.85 482.26-1.43 483.67-2 484.52-2.97 485.38-3.93 485.9-5.44 486.43-6.96 486.61-8.58 486.79-10.21 486.79-12.35L486.79-12.35Q486.79-17.92 484.91-20.79 483.03-23.66 479.93-23.66L479.93-23.66Q478-23.66 475.92-22.52 473.83-21.39 471.95-19.24ZM495.63-11.89L495.63-11.89Q495.63-14.48 496.48-16.91 497.34-19.34 498.92-21.23 500.51-23.12 502.77-24.26 505.03-25.39 507.84-25.39L507.84-25.39Q509.59-25.39 511.16-24.79 512.72-24.19 513.88-22.94 515.04-21.68 515.71-19.71 516.38-17.75 516.38-15.04L516.38-15.04 515.43-14.16 499.49-14.16Q499.44-13.75 499.44-13.35 499.44-12.96 499.44-12.57L499.44-12.57Q499.44-9.91 500.06-7.74 500.68-5.57 501.74-4.02 502.81-2.47 504.25-1.61 505.69-0.76 507.3-0.76L507.3-0.76Q508.32-0.76 509.39-0.92 510.45-1.07 511.46-1.42 512.47-1.76 513.43-2.29 514.38-2.83 515.18-3.59L515.18-3.59 516.19-2.54Q514.26-0.63 511.99 0.18 509.72 1 506.74 1L506.74 1Q504.39 1 502.35 0.1 500.32-0.81 498.83-2.49 497.34-4.17 496.48-6.56 495.63-8.94 495.63-11.89ZM507.3-23.71L507.3-23.71Q503.51-23.71 501.76-21.74 500-19.78 499.63-16.09L499.63-16.09 513.23-16.09Q513.04-20.09 511.44-21.9 509.84-23.71 507.3-23.71ZM524.53-2.44L524.53-18.09Q524.53-19.73 524.37-20.83 524.22-21.92 523.81-22.58 523.41-23.24 522.7-23.51 521.99-23.78 520.24-23.75L520.24-23.75 520.14-24.19Q524.12-25.39 527.54-25.39L527.54-25.39Q528.05-24.1 528.05-22.61L528.05-22.61 528.05-19.6 528.15-19.51Q529.17-20.92 530.11-22.02 531.05-23.12 532.03-23.85 533-24.58 534.08-24.96 535.15-25.34 536.47-25.34L536.47-25.34Q537.3-25.34 538.3-25.2L538.3-25.2 536.89-19.24 535.98-19.51Q535.98-19.87 535.93-20.51 535.88-21.14 535.8-21.77 535.71-22.39 535.58-22.84 535.45-23.29 535.27-23.29L535.27-23.29Q534.57-23.29 533.85-22.99 533.13-22.68 532.27-22 531.42-21.31 530.39-20.21 529.37-19.12 528.05-17.55L528.05-17.55 528.05-3.34Q528.05-2.56 528.17-2.09 528.29-1.61 528.68-1.29 529.07-0.98 529.78-0.73 530.49-0.49 531.64-0.2L531.64-0.2 531.44 0.39Q530.03 0.2 529.04 0.1 528.05 0 527.44 0L527.44 0Q526.05 0 524.19 0.39L524.19 0.39 524.04 0.15Q524.53-0.56 524.53-2.44L524.53-2.44Z" opacity="1" transform="matrix(1,0,0,1,0,0)" fill="#31c48d" class="undefined-text-1" data-fill-palette-color="secondary" id="text-1"></path></svg></g></svg></g></svg></g></svg></g><g transform="matrix(1,0,0,1,75.54432000000001,0)"><svg viewBox="0 0 244.43135999999996 244.43135999999996" height="244.43135999999996" width="244.43135999999996"><g><svg xmlns="http://www.w3.org/2000/svg" xmlns:xlink="http://www.w3.org/1999/xlink" version="1.1" x="0" y="0" viewBox="0 0 100 100" enable-background="new 0 0 100 100" xml:space="preserve" height="244.43135999999996" width="244.43135999999996" class="icon-icon-0" data-fill-palette-color="accent" id="icon-0"><path d="M50 0C22.386 0 0 3.214 0 7.179v21.886c0 3.964 22.386 7.179 50 7.179 27.612 0 50-3.215 50-7.179V7.179C100 3.214 77.612 0 50 0z" fill="#31c48d" data-fill-palette-color="accent"></path><g fill="#31c48d" data-fill-palette-color="accent"><path d="M50 46.24c-27.614 0-50-3.215-50-7.179v21.885c0 3.964 22.386 7.18 50 7.18 27.612 0 50-3.216 50-7.18V39.061C100 43.025 77.612 46.24 50 46.24z" fill="#31c48d" data-fill-palette-color="accent"></path></g><g fill="#31c48d" data-fill-palette-color="accent"><path d="M50 78.116c-27.614 0-50-3.216-50-7.181v21.886C0 96.787 22.386 100 50 100c27.612 0 50-3.213 50-7.179V70.936C100 74.9 77.612 78.116 50 78.116z" fill="#31c48d" data-fill-palette-color="accent"></path></g></svg></g></svg></g><g></g></svg></g><defs></defs></svg><rect width="203.6467467393751" height="247.2" fill="none" stroke="none" visibility="hidden"></rect></g></svg></g></svg>
