<svg xmlns="http://www.w3.org/2000/svg" viewBox="0 0 194.17 117.46"><defs><style>.cls-1{fill:#00007a;}</style></defs><g id="Layer_2" data-name="Layer 2"><path class="cls-1" d="M52.22,48.72a36.29,36.29,0,0,1-4,3.5l-.88.54c-.94.6-1.84,1.23-2.68,1.85C40.07,58,37.33,61.55,38.29,63a.72.72,0,0,0,.21.25c.81-.3,1.65-.67,2.56-1.09a46.93,46.93,0,0,0,4.54-2.52,39.67,39.67,0,0,0,4.09-3c-2,2.06-3.15,3.88-2.81,5A.93.93,0,0,0,47,62a.9.9,0,0,0,.21.23,2.16,2.16,0,0,0,1.61.44,9.58,9.58,0,0,0,2.53-.38l.6-.17a2.68,2.68,0,0,1,.82,0,1.55,1.55,0,0,1,1,.62.21.21,0,0,1,0,.11,1.76,1.76,0,0,1,0,1.38,7.37,7.37,0,0,1-.38.82,12.91,12.91,0,0,0-1.83,2.42,2.58,2.58,0,0,0-.37,2.2.16.16,0,0,0,.05.1.56.56,0,0,0,.24.24,2.62,2.62,0,0,0,1.81.46,11.69,11.69,0,0,0,2.48-.46,67.62,67.62,0,0,1,10.5-5.67,9.1,9.1,0,0,1,1-.42v0c1-.42,1.95-.8,2.89-1.16h0l.68-.26.73-.28L73,61.85c.27-.09.57-.19.86-.27a43.37,43.37,0,0,1,5.66-1.45l.54,0a126.3,126.3,0,0,0,30.43-1.51c6.1-1.14,12.93-4,18.84-7v0s7.17,1,10.63,4.2a31.31,31.31,0,0,1,7.15,10.44c1,2.67,1.5,5.17,3.1,4.48s3.1-5,2.82-8.73-2.59-11.15-5.33-14.85a10.59,10.59,0,0,0-4.76-3.51,12.3,12.3,0,0,0,1.2-.92c1.29-1.32,4.95-5.59,8.85-9.85s6.35-10.1,8.31-12.42,9-7.68,11.16-9.44a18.74,18.74,0,0,1,4-2.63,26.78,26.78,0,0,0,4.93-2.54c1-.8,1-3.08.7-4.21-.25-.88-1.07-1-2.11-1.17s-3.59.81-5.28,1.42a14.08,14.08,0,0,1-6.09.31,21.23,21.23,0,0,0-5.16-.83c-1.89,0-7.24,2.23-10.55,3.92s-7.08,5.21-9.8,7-9,4.21-12.92,4.31a12.84,12.84,0,0,1-5.2-1.09l-2.17-.9a2,2,0,0,0-.32-.11,95.93,95.93,0,0,0-12.86-4.11c-18-4.43-34.58-3.36-42.15,2a1.21,1.21,0,0,0-.28.18l0,0a1.42,1.42,0,0,0-.4.9A1.34,1.34,0,0,0,68,15a.76.76,0,0,0,.26,0,99.49,99.49,0,0,1,14.61-.17c2.4.15,4.76.39,7,.69h0a40.08,40.08,0,0,1,4.93.78h0c.74.16,1.48.29,2.2.44a.42.42,0,0,1,.13,0,.15.15,0,0,1,.08,0,13.61,13.61,0,0,1,4.24,1.73c.14.13.27.21.4.33a2.08,2.08,0,0,1,.78,1.51c0,1.11-1.41,2.07-3.64,2.8l.24-.1c-1.48.42-3,.87-4.47,1.37s-3,1-4.41,1.58C86,27.59,80.8,29.65,75.51,32c-.1,0-9.43,4.61-10.84,5.52A28.19,28.19,0,0,0,58,43.35"/><path d="M19.74,116.1A10.89,10.89,0,0,1,8.56,104.85V85H2.84a1.69,1.69,0,0,1,0-3.38H8.56V73a1.76,1.76,0,0,1,3.51,0v8.65H24A1.69,1.69,0,0,1,24,85h-12v19.82c0,4.68,3.12,7.87,7.67,7.87H24a1.69,1.69,0,0,1,0,3.38Z"/><path d="M54.32,83a1.76,1.76,0,0,1,3.51,0v20.35a13.59,13.59,0,0,1-27.17,0V83a1.76,1.76,0,0,1,3.51,0v20.35a10.08,10.08,0,1,0,20.15,0Z"/><path d="M79,101.54l-12,14.3a1.77,1.77,0,0,1-2.47.26,1.7,1.7,0,0,1-.2-2.47L76.75,98.87,64.26,84.12a1.76,1.76,0,0,1,2.67-2.28L79,96.27,91,81.84a1.76,1.76,0,0,1,2.67,2.28L81.17,98.87l12.48,14.76a1.7,1.7,0,0,1-.2,2.47,1.77,1.77,0,0,1-2.47-.26Z"/><path d="M124.13,96.34a1.76,1.76,0,0,1-3.51,0V93.22A8,8,0,0,0,112.36,85h-8.64v29.7a1.76,1.76,0,0,1-3.51,0V83.6a1.87,1.87,0,0,1,2-1.95h10.2a11.4,11.4,0,0,1,11.77,11.57Z"/><path d="M153.9,83a1.76,1.76,0,0,1,3.51,0v20.35a13.59,13.59,0,0,1-27.17,0V83a1.76,1.76,0,0,1,3.51,0v20.35a10.08,10.08,0,1,0,20.15,0Z"/><path d="M188.87,94.71A9.56,9.56,0,0,0,179.31,85H168.85v29.7a1.76,1.76,0,1,1-3.51,0V83.6a1.87,1.87,0,0,1,1.95-1.95h12a13,13,0,0,1,13.07,13.06v20a1.76,1.76,0,1,1-3.51,0Z"/></g></svg>