<?xml version="1.0" encoding="UTF-8" standalone="no"?>
<svg
   id="Layer_1"
   data-name="Layer 1"
   viewBox="0 0 500 486.89"
   version="1.1"
   sodipodi:docname="icon.svg"
   inkscape:version="1.4 (e7c3feb100, 2024-10-09)"
   inkscape:export-filename="icon.png"
   inkscape:export-xdpi="19.200001"
   inkscape:export-ydpi="19.200001"
   xmlns:inkscape="http://www.inkscape.org/namespaces/inkscape"
   xmlns:sodipodi="http://sodipodi.sourceforge.net/DTD/sodipodi-0.dtd"
   xmlns="http://www.w3.org/2000/svg"
   xmlns:svg="http://www.w3.org/2000/svg">
  <sodipodi:namedview
     id="namedview3"
     pagecolor="#ffffff"
     bordercolor="#000000"
     borderopacity="0.25"
     inkscape:showpageshadow="2"
     inkscape:pageopacity="0.0"
     inkscape:pagecheckerboard="0"
     inkscape:deskcolor="#d1d1d1"
     inkscape:zoom="1.5034196"
     inkscape:cx="249.76394"
     inkscape:cy="243.44501"
     inkscape:window-width="1920"
     inkscape:window-height="935"
     inkscape:window-x="0"
     inkscape:window-y="32"
     inkscape:window-maximized="1"
     inkscape:current-layer="Layer_1" />
  <defs
     id="defs1">
    <style
       id="style1">.cls-1{fill:#326de6;}.cls-2{fill:#fff;}</style>
  </defs>
  <path
     class="cls-1"
     d="M409.64,735.68a38.15,38.15,0,0,1-30.07-14.54L266.42,580.5a38,38,0,0,1-7.44-33L299.39,372a38.26,38.26,0,0,1,21-26.18L484,267.55a38.35,38.35,0,0,1,33.62,0l163.59,77.91a38.24,38.24,0,0,1,21,26.19L742.63,547.2a39,39,0,0,1-7.43,33L622,720.81A39.12,39.12,0,0,1,592,735.36l-182.34.32Z"
     transform="translate(-250 -256.56)"
     id="path1" />
  <path
     class="cls-2"
     d="M500.48,271.75a31.62,31.62,0,0,1,13.26,2.91l163.59,77.92c8.4,4.2,14.87,12,16.81,21l40.41,175.55a30.21,30.21,0,0,1-6.14,26.51L615.26,716.29A30.82,30.82,0,0,1,591,727.92H409.64a30.81,30.81,0,0,1-24.25-11.63L272.24,575.65a32.36,32.36,0,0,1-6.15-26.51l40.42-175.55a30.86,30.86,0,0,1,16.81-21l163.59-78.24a38.84,38.84,0,0,1,13.57-2.59Zm0-15.19h0a48.93,48.93,0,0,0-20,4.52L316.85,339.32a45.81,45.81,0,0,0-25.22,31.36L251.22,546.23a45.85,45.85,0,0,0,9,39.44L373.43,726.31a45.67,45.67,0,0,0,35.89,17.13H590.68a45.67,45.67,0,0,0,35.89-17.13L739.73,585.67a45.62,45.62,0,0,0,9-39.44L708.37,370.68a45.81,45.81,0,0,0-25.22-31.36L520.21,261.08a46.4,46.4,0,0,0-19.73-4.52Z"
     transform="translate(-250 -256.56)"
     id="path2" />
  <path
     class="cls-2"
     d="M664.4,535.24h-.33c-.32,0-.64,0-.64-.32-.65,0-1.3-.33-1.94-.33a44.82,44.82,0,0,0-6.15-.64,11.86,11.86,0,0,1-3.23-.33h-.32c-6.79-.64-12.29-1.29-17.46-2.91a6.33,6.33,0,0,1-3.56-3.55c0-.33-.32-.33-.32-.65h0l-4.2-1.29A127.83,127.83,0,0,0,624,479.63a133,133,0,0,0-18.1-42.35l3.23-2.91v-.65a7.35,7.35,0,0,1,1.62-4.85c3.88-3.55,8.73-6.46,14.55-10h0c1-.64,1.94-1,2.91-1.61a47.7,47.7,0,0,0,5.49-3.24c.33-.32,1-.64,1.62-1.29.32-.32.65-.32.65-.65h0c4.52-3.88,5.49-10.34,2.26-14.55a9.21,9.21,0,0,0-7.44-3.55,12,12,0,0,0-7.11,2.58h0l-.65.65c-.64.32-1,1-1.61,1.29a52.57,52.57,0,0,0-4.2,4.53,14.69,14.69,0,0,1-2.27,2.26h0A82,82,0,0,1,602,416.91a5.19,5.19,0,0,1-2.91,1,4.14,4.14,0,0,1-1.94-.32h-.65l-3.88,2.59a155.43,155.43,0,0,0-13.25-12.29A129.13,129.13,0,0,0,511.8,381l-.32-4.21-.65-.64c-1-1-2.26-1.94-2.59-4.21-.32-5.17.33-11,1-17.45v-.33a11.59,11.59,0,0,1,.65-3.23c.32-1.94.65-3.88,1-6.14v-2.91h0c0-5.82-4.53-10.67-10-10.67a10.37,10.37,0,0,0-7.11,3.23,10.25,10.25,0,0,0-2.91,7.44h0v2.58a18.75,18.75,0,0,0,1,6.15c.32,1,.32,1.94.64,3.23v.32c.65,6.47,1.62,12.29,1,17.46-.32,2.26-1.61,3.23-2.58,4.2l-.65.65h0l-.32,4.2a164.16,164.16,0,0,0-17.46,2.59,124.57,124.57,0,0,0-64,36.21l-3.24-2.26h-.64c-.65,0-1.3.32-1.94.32a5.19,5.19,0,0,1-2.91-1c-4.21-2.91-8.41-7.11-12.94-12h0a14.63,14.63,0,0,0-2.26-2.27,54.14,54.14,0,0,0-4.2-4.52c-.32-.33-1-.65-1.62-1.3-.32-.32-.64-.32-.64-.64h0a11.29,11.29,0,0,0-7.12-2.59,9.19,9.19,0,0,0-7.43,3.56c-3.24,4.2-2.27,10.67,2.26,14.55h0c.32,0,.32.32.65.32.64.32,1,1,1.61,1.29a47.8,47.8,0,0,0,5.5,3.24,13.2,13.2,0,0,1,2.91,1.61h0c5.82,3.56,10.67,6.47,14.55,10,1.61,1.62,1.61,3.24,1.61,4.85v.65h0l3.24,2.91a11.15,11.15,0,0,0-1.62,2.59A125.89,125.89,0,0,0,376,524.25l-4.21,1.29c0,.32-.32.32-.32.65a7.55,7.55,0,0,1-3.56,3.55c-4.85,1.62-10.67,2.27-17.46,2.91h-.32a10.76,10.76,0,0,0-3.23.33,44.53,44.53,0,0,0-6.14.64c-.65,0-1.3.33-1.94.33a1.19,1.19,0,0,0-1,.32h0c-5.82,1.29-9.38,6.79-8.41,12,1,4.53,5.17,7.44,10.35,7.44a7,7,0,0,0,2.58-.33h0c.33,0,.65,0,.65-.32.65,0,1.29-.32,1.94-.32a31.45,31.45,0,0,0,5.82-2.27c1-.32,1.94-1,2.91-1.29H354c6.14-2.26,11.64-4.2,16.81-4.85h.65a7.16,7.16,0,0,1,4.2,1.62c.33,0,.33.32.65.32h0l4.52-.65a127.83,127.83,0,0,0,42.36,60.78,129.71,129.71,0,0,0,13.9,9.38l-1.94,4.2c0,.33.32.33.32.65a6.6,6.6,0,0,1,.65,5.17,91.11,91.11,0,0,1-8.41,15.2v.32c-.64,1-1.29,1.62-1.94,2.59-1.29,1.61-2.26,3.23-3.55,5.17a6.63,6.63,0,0,0-1,1.62,1.11,1.11,0,0,1-.33.64h0c-2.58,5.5-.64,11.64,4.21,13.9a8.54,8.54,0,0,0,3.88,1,11.61,11.61,0,0,0,9.7-6.14h0a1.12,1.12,0,0,1,.32-.64,7,7,0,0,1,1-1.62c1-2.26,1.29-3.88,1.94-5.82l1-2.91h0c2.26-6.47,3.88-11.64,6.79-16.16,1.29-1.94,2.91-2.27,4.2-2.91.32,0,.32,0,.65-.33h0l2.26-4.2a126.19,126.19,0,0,0,45.26,8.41,117,117,0,0,0,28.13-3.24A143.19,143.19,0,0,0,547,625.76l1.94,3.56c.32,0,.32,0,.65.32a6,6,0,0,1,4.2,2.91c2.59,4.53,4.53,10,6.79,16.17V649l1,2.91a40.12,40.12,0,0,0,1.94,5.82c.32.65.64,1,1,1.62a1.12,1.12,0,0,0,.32.64h0a11,11,0,0,0,9.7,6.14,8.57,8.57,0,0,0,3.88-1,9.64,9.64,0,0,0,4.85-5.81,11.66,11.66,0,0,0-.65-8.09h0c0-.32-.32-.32-.32-.64a7,7,0,0,0-1-1.62,28.7,28.7,0,0,0-3.56-5.17c-.64-1-1.29-1.62-1.94-2.59V641c-3.55-5.5-6.79-10.35-8.4-15.2-.65-2.26,0-3.55.32-5.17,0-.32.32-.32.32-.65h0l-1.61-3.88a128.25,128.25,0,0,0,56.25-70.8l3.88.65c.32,0,.32-.33.65-.33,1.29-.64,2.26-1.61,4.2-1.61h.65c5.17.65,10.67,2.58,16.81,4.85h.32c1,.32,1.94,1,2.91,1.29a30.75,30.75,0,0,0,5.82,2.26c.65,0,1.29.33,1.94.33a1.2,1.2,0,0,1,1,.32h0a7.21,7.21,0,0,0,2.59.32,10.87,10.87,0,0,0,10.34-7.43c0-3.88-3.55-9-9.37-10.67ZM514.71,519.4l-14.23,6.79-14.22-6.79-3.56-15.2,9.7-12.28h15.84l9.7,12.28-3.23,15.2Zm84.38-33.63a101.89,101.89,0,0,1,2.26,32.66L551.89,504.2a8.75,8.75,0,0,1-6.14-10.34,7.66,7.66,0,0,1,1.94-3.56l39.12-35.24a103.85,103.85,0,0,1,12.28,30.71Zm-27.8-50.11-42.35,30.07a8.61,8.61,0,0,1-11.32-1.94,7.22,7.22,0,0,1-1.62-3.56l-2.91-52.69a98.15,98.15,0,0,1,58.2,28.12Zm-93.76-26.51c3.56-.64,6.79-1.29,10.35-1.94L485,458.94a8.85,8.85,0,0,1-8.73,8.41,7.73,7.73,0,0,1-3.88-1l-43-30.72a98.69,98.69,0,0,1,48.17-26.51Zm-63.69,45.91,38.47,34.27a8.6,8.6,0,0,1,1,12,6.39,6.39,0,0,1-3.88,2.59l-50.11,14.55a104.08,104.08,0,0,1,14.55-63.37Zm-8.73,87.62L456.52,534a8.7,8.7,0,0,1,9.05,6.79,9.32,9.32,0,0,1-.32,5.17h0l-19.73,47.52a102,102,0,0,1-40.41-50.75Zm118,64.33a105.47,105.47,0,0,1-22.64,2.59,109.66,109.66,0,0,1-32.65-5.17l25.54-46.24c2.59-2.91,6.79-4.2,10.35-2.26a13.79,13.79,0,0,1,3.88,3.56h0l24.89,44.94c-2.91,1-6.14,1.61-9.37,2.58Zm63-44.94a102.53,102.53,0,0,1-31,31.36l-20.37-48.81a8.71,8.71,0,0,1,4.53-10,10.42,10.42,0,0,1,4.53-1l51.72,8.73a65.11,65.11,0,0,1-9.37,19.72Z"
     transform="translate(-250 -256.56)"
     id="path3" />
  <path
     style="fill:#808080;stroke:#0b9fa3;stroke-width:0.66515;stroke-opacity:1"
     d="m 151.72386,469.87379 c -4.49111,-1.20772 -8.90074,-3.60835 -12.48112,-6.79479 C 136.7741,460.88197 27.293253,325.26547 21.673678,317.44344 c -3.595284,-5.00437 -5.1633,-9.6797 -5.521362,-16.46293 -0.314411,-5.95629 -0.212094,-6.43733 20.373063,-95.78164 11.378983,-49.38741 21.293674,-91.30217 22.032648,-93.14391 1.874678,-4.67227 6.465993,-10.27841 10.698225,-13.062883 4.914717,-3.233502 166.993248,-80.638201 171.904078,-82.097142 5.40444,-1.605587 14.08065,-1.490165 18.91343,0.25161 3.28174,1.182764 152.28358,71.928453 165.69403,78.671095 6.64431,3.340691 12.28492,8.51321 15.15428,13.89668 1.76187,3.30562 5.28688,17.82758 23.02642,94.86196 17.10836,74.29346 20.94351,91.82328 20.93205,95.67698 -0.0163,5.4855 -2.1631,12.37745 -5.05473,16.22753 -6.04695,8.05123 -114.0857,142.0708 -116.75662,144.8339 -1.78566,1.84729 -4.81273,4.30398 -6.72681,5.45932 -7.24588,4.37361 -1.64342,4.15691 -106.21933,4.10862 -80.65878,-0.0372 -95.34612,-0.18782 -98.39919,-1.00884 z M 184.2021,408.425 c 3.43224,-1.751 5.86883,-5.91179 8.97219,-15.32118 3.81262,-11.55985 6.63843,-17.12586 9.35146,-18.41962 1.23046,-0.58677 2.76676,-2.05017 3.414,-3.25201 l 1.17679,-2.18517 2.36691,0.98953 c 8.21163,3.433 24.6838,6.61749 37.67493,7.28353 13.8083,0.70792 29.60734,-1.48494 44.48545,-6.17445 3.92907,-1.23843 5.36738,-1.45725 5.57064,-0.84748 0.32027,0.96082 1.90882,2.47423 4.45628,4.24553 2.19064,1.52318 5.31002,8.06669 8.86904,18.60455 1.43251,4.24145 3.39758,9.06493 4.36684,10.71886 4.15997,7.09845 13.50683,7.54662 17.71127,0.84923 1.05393,-1.67883 1.30758,-3.0024 1.12451,-5.86776 -0.25083,-3.92593 -0.44587,-4.3043 -8.0921,-15.69756 -2.16241,-3.2221 -4.97465,-8.05462 -6.24942,-10.73892 -1.98788,-4.18592 -2.22528,-5.18188 -1.66795,-6.9978 0.42388,-1.38115 0.42258,-2.7989 -0.004,-4.07789 -0.53894,-1.61682 -0.4456,-2.08272 0.53226,-2.6568 3.27092,-1.92027 12.14883,-8.53238 17.01016,-12.66886 14.86136,-12.64544 29.82749,-34.43935 35.99345,-52.41424 1.48184,-4.31981 1.64149,-4.51626 3.54713,-4.36453 1.0975,0.0874 2.64924,-0.19679 3.44831,-0.6315 3.11898,-1.69678 9.95527,-0.3162 21.96901,4.43662 11.64435,4.60668 15.9184,4.89229 20.4045,1.36351 4.37784,-3.4436 4.3049,-8.16945 -0.19554,-12.66989 -3.11684,-3.11683 -6.59979,-4.06714 -20.04036,-5.46789 -12.60253,-1.31342 -16.75433,-2.44033 -18.70342,-5.07663 -0.78876,-1.06685 -2.31094,-2.1323 -3.38263,-2.36769 -1.57663,-0.34629 -1.88381,-0.70119 -1.60943,-1.85946 0.18652,-0.78732 0.53982,-5.0233 0.78512,-9.41329 0.95116,-17.02198 -2.74848,-38.34006 -9.46551,-54.54233 -2.29754,-5.54192 -7.23567,-15.33855 -9.65028,-19.14489 -1.98241,-3.12505 -1.99609,-3.20559 -0.77375,-4.55627 0.6844,-0.75624 1.70123,-2.61715 2.25965,-4.13536 1.23204,-3.34971 6.43818,-7.46228 16.96666,-13.40279 10.74982,-6.0654 14.2377,-10.32653 13.4232,-16.39908 -0.62116,-4.63112 -3.47988,-7.58753 -8.05466,-8.32991 -4.46663,-0.72484 -7.49687,1.12565 -16.09347,9.82786 -10.00236,10.12523 -14.88906,13.9034 -17.98272,13.9034 -1.25704,0 -3.04352,0.49666 -3.96997,1.1037 -1.67839,1.09972 -1.70285,1.08561 -6.79439,-3.91744 -17.58338,-17.2778 -43.51121,-29.73651 -69.15207,-33.22859 l -6.13122,-0.83503 v -2.06503 c 0,-1.37394 -0.58308,-2.6047 -1.74225,-3.67757 l -1.74224,-1.61253 0.37614,-9.31211 c 0.20687,-5.12165 0.86862,-11.825392 1.47055,-14.897189 1.22645,-6.258898 0.93411,-9.993917 -1.0358,-13.233155 -2.0619,-3.390537 -5.03736,-4.913068 -9.02748,-4.619345 -4.07721,0.300133 -6.97164,2.170443 -8.56931,5.537285 -1.28644,2.710983 -1.16821,9.771394 0.29419,17.567727 0.44605,2.377917 0.85788,7.513587 0.9152,11.412597 0.0957,6.51109 -0.0178,7.21964 -1.39238,8.68983 -0.82312,0.88038 -1.50117,2.18004 -1.50677,2.88813 -0.0196,2.47476 -1.08607,3.01335 -7.84515,3.96189 -26.24859,3.68358 -50.23619,15.12372 -68.77271,32.79901 -4.97341,4.74233 -5.16886,4.85517 -6.63322,3.82949 -0.82985,-0.58125 -2.57015,-1.05682 -3.86733,-1.05682 -2.99497,0 -6.14141,-2.5364 -17.3,-13.94585 -8.93417,-9.13502 -11.11822,-10.46776 -16.0665,-9.80406 -5.17589,0.69423 -8.13865,4.33209 -8.0714,9.91054 0.0662,5.48797 2.67108,8.36663 12.49777,13.81114 6.49523,3.5987 14.88376,9.38327 16.64839,11.48042 0.90378,1.07409 1.64324,2.63182 1.64324,3.46164 0,0.82981 0.59864,2.0505 1.3303,2.71265 0.73167,0.66215 1.3303,1.47347 1.3303,1.80294 0,0.32947 -1.61821,3.35109 -3.59603,6.7147 -11.92843,20.28631 -17.8685,44.57507 -16.78656,68.6398 0.23026,5.12165 0.59542,9.94758 0.81145,10.72428 0.31162,1.12036 0.001,1.54872 -1.50293,2.07302 -1.04265,0.36347 -2.94352,1.70864 -4.22415,2.98927 -2.70415,2.70415 -5.2616,3.39767 -16.6504,4.51516 -12.218782,1.19893 -16.406661,1.99347 -18.718258,3.55125 -5.33812,3.59736 -6.899663,10.2555 -3.38489,14.43257 3.390218,4.02905 8.897403,4.99987 15.163225,2.67303 21.559933,-8.00641 24.482413,-8.74338 28.136933,-7.09542 1.39862,0.63069 3.3633,1.05175 4.36596,0.93568 1.73715,-0.20109 1.95686,0.11794 4.66467,6.77305 10.1194,24.87101 26.08659,44.76565 47.20736,58.81892 3.16412,2.10533 5.75294,4.11927 5.75294,4.47542 0,0.35615 -0.31769,1.24116 -0.70598,1.96669 -0.50538,0.94431 -0.48423,1.99107 0.0744,3.68383 0.72425,2.19451 0.58598,2.75462 -1.92137,7.78294 -1.48598,2.98005 -5.16274,9.09995 -8.17057,13.59979 -4.78763,7.16248 -5.50528,8.6216 -5.76178,11.71465 -0.71939,8.67491 6.70577,13.67414 14.44529,9.72573 z"
     id="path4" />
  <path
     style="fill:#808080;stroke:#0b9fa3;stroke-width:0.66515;stroke-opacity:1"
     d="m 157.97319,469.61125 c -6.41236,-0.3805 -7.82055,-0.69218 -11.39378,-2.52184 -2.24242,-1.14822 -5.1045,-3.07434 -6.36018,-4.28026 -2.52277,-2.42279 -16.25562,-19.18237 -53.846558,-65.71442 -51.412859,-63.64156 -64.473363,-80.18281 -66.460074,-84.1723 -2.800713,-5.62408 -3.7128,-11.71461 -2.715235,-18.1312 1.193213,-7.67505 9.816079,-45.86261 27.4194,-121.43063 15.289312,-65.63437 14.565855,-63.15077 20.230797,-69.45155 3.684341,-4.097874 8.073836,-6.390973 58.87039,-30.754253 67.08905,-32.177557 113.30504,-53.96653 117.92229,-55.595589 3.60977,-1.273602 13.58351,-1.206341 17.484,0.117908 3.87991,1.317263 126.1828,59.210256 161.48421,76.439761 10.28693,5.020728 16.08323,9.678073 19.2219,15.444833 2.14735,3.94539 6.39934,21.11585 22.0359,88.98565 14.29071,62.02823 20.80096,91.18307 21.80909,97.66765 0.89126,5.73283 0.19292,10.52334 -2.33384,16.00981 -1.65239,3.58789 -43.5188,56.10894 -106.93095,134.14395 -17.23729,21.21222 -18.87191,22.37499 -32.7098,23.26766 -10.10274,0.65172 -172.69561,0.62944 -183.72756,-0.0252 z m 26.29105,-60.71011 c 3.87684,-1.96008 5.80945,-5.20124 9.87734,-16.56512 3.94825,-11.02967 6.22597,-15.34454 9.15145,-17.33632 1.22613,-0.8348 2.24088,-1.66747 2.25502,-1.85039 0.0141,-0.18291 0.43891,-0.87769 0.94394,-1.54395 0.88277,-1.16457 1.11966,-1.14792 6.13149,0.43094 24.27722,7.64798 50.35047,8.01922 75.10121,1.06933 3.823,-1.07347 7.35128,-1.95177 7.84064,-1.95177 1.62305,0 7.18268,5.60231 8.89208,8.96034 0.92577,1.8186 3.29852,7.65213 5.2728,12.96341 1.97428,5.31127 4.35003,10.80595 5.27945,12.2104 1.81285,2.73938 5.97897,5.07042 9.10619,5.09511 4.58729,0.0362 9.34237,-3.90914 10.19608,-8.45984 0.73528,-3.91934 -0.7487,-7.75471 -6.34123,-16.38901 -8.03608,-12.40689 -9.47271,-15.57173 -9.5942,-21.13554 l -0.10208,-4.67499 4.9932,-3.4987 c 8.08664,-5.66624 14.63187,-11.16902 20.13035,-16.92421 10.94892,-11.46011 21.93193,-28.45243 27.24045,-42.14494 2.40401,-6.20079 2.97437,-7.15036 4.29485,-7.15036 0.83749,0 2.83684,-0.35148 4.44302,-0.78107 3.6346,-0.9721 7.57725,-0.0837 20.99302,4.73043 13.11045,4.70457 17.86525,4.56553 22.25447,-0.65076 4.00718,-4.76225 0.56402,-12.30356 -6.80445,-14.90331 -1.58066,-0.55769 -7.71243,-1.61984 -13.62615,-2.36035 -14.25233,-1.78463 -16.61026,-2.38378 -19.76984,-5.02354 -1.45886,-1.21883 -3.26245,-2.40967 -4.008,-2.6463 -1.04759,-0.33249 -1.27873,-0.83268 -1.01746,-2.20181 0.90081,-4.72058 1.10603,-15.91686 0.4287,-23.38896 -1.7236,-19.01412 -6.00558,-33.99922 -14.49896,-50.74011 l -5.66381,-11.16366 1.81496,-3.46964 c 2.45651,-4.69608 6.2783,-8.03543 15.44873,-13.4986 9.07528,-5.40647 14.44724,-10.01378 15.54144,-13.32924 2.79405,-8.46603 -5.53338,-16.66401 -13.53221,-13.32187 -1.33844,0.55923 -6.70411,5.02502 -11.92371,9.92397 -10.93162,10.26007 -14.65043,13.11887 -17.07293,13.12461 -0.95115,0.002 -2.54208,0.42808 -3.5354,0.94628 -1.77026,0.92352 -1.91521,0.84096 -7.31665,-4.16762 -19.17273,-17.77825 -42.36741,-28.85205 -68.53361,-32.71991 -5.34801,-0.79053 -5.82006,-0.98236 -5.82006,-2.36506 0,-0.8276 -0.7933,-2.44751 -1.76287,-3.59978 l -1.76286,-2.09505 0.43684,-8.63126 c 0.24026,-4.74719 0.88085,-11.58743 1.42353,-15.200534 1.34902,-8.981597 0.51006,-12.705228 -3.65154,-16.20698 -4.04938,-3.407334 -10.52512,-2.828953 -14.40672,1.286734 -2.89779,3.072559 -3.36182,7.178988 -1.96796,17.415897 1.54407,11.340163 1.44126,20.529763 -0.25838,23.096143 -0.72685,1.0975 -1.32351,2.50724 -1.32592,3.13276 -0.005,1.34829 -1.50643,1.79792 -13.97254,4.18475 -16.69487,3.19651 -31.55431,9.1722 -45.23022,18.18924 -6.59288,4.34694 -9.6168,6.71657 -18.18255,14.24838 l -3.60729,3.17186 -3.69108,-0.9614 c -2.03009,-0.52877 -4.36577,-1.3225 -5.1904,-1.76382 -0.82463,-0.44133 -6.19098,-5.36471 -11.92521,-10.94083 -11.28836,-10.97711 -13.1171,-12.10859 -18.31144,-11.32965 -5.66364,0.84932 -8.65198,5.02903 -8.12645,11.36626 0.48108,5.80112 1.89815,7.16869 16.85406,16.26524 8.42921,5.12685 12.77983,8.77053 13.37244,11.19951 0.23764,0.97401 0.98533,2.4851 1.66154,3.35799 1.21901,1.57354 1.20644,1.62742 -1.47398,6.31893 -12.80997,22.42114 -18.85396,46.98872 -17.59299,71.51191 0.25204,4.90159 0.61252,9.31399 0.80108,9.80536 0.18855,0.49136 -0.21204,1.09532 -0.89021,1.34214 -0.67816,0.24681 -2.65707,1.56696 -4.39759,2.93367 -3.73346,2.93162 -6.12479,3.55166 -19.11797,4.95701 -12.79796,1.38425 -15.852556,2.29152 -18.836993,5.59493 -5.352011,5.92404 -3.312918,14.0991 4.136657,16.58456 3.861876,1.28847 6.000693,0.88329 19.023816,-3.60384 6.95082,-2.39491 13.83513,-4.39771 15.29846,-4.45066 1.46333,-0.0529 4.301,0.36861 6.30593,0.9368 l 3.64532,1.03306 3.74576,8.35616 c 4.60515,10.27329 10.14925,19.94569 15.81957,27.5993 6.2943,8.49582 18.37672,20.22687 27.85263,27.04263 4.48145,3.22338 8.12705,6.049 8.10134,6.27914 -0.0257,0.23016 -0.27809,1.01062 -0.56084,1.73436 -0.28276,0.72375 -0.29333,2.29475 -0.0235,3.49112 0.62051,2.75123 -1.90426,8.22216 -8.73201,18.9215 -7.8312,12.27178 -8.58337,14.94838 -5.76906,20.52933 2.60404,5.16396 8.12056,6.68057 13.81948,3.79926 z"
     id="path5" />
  <path
     style="fill:#0b9fa3;stroke:#0b9fa3;stroke-width:0.66515;stroke-opacity:1;fill-opacity:1"
     d="M 165.62242,468.984 C 146.25693,468.3975 145.05604,467.81677 132.87616,453.14848 111.268,427.12568 33.718008,330.79085 25.64058,319.93738 17.998668,309.6691 16.314876,303.50505 18.268327,292.94893 21.163606,277.30333 52.050361,142.75571 57.230617,123.223 62.488293,103.39836 62.411439,103.46566 101.10284,84.803589 141.46549,65.335424 199.86981,37.536166 226.1511,25.283183 c 17.16485,-8.002676 16.07433,-7.659956 24.27799,-7.629845 8.44675,0.031 3.69737,-1.812381 43.23476,16.78078 67.85319,31.909166 128.74185,61.129661 133.86546,64.242092 5.30055,3.21991 10.05448,8.08591 11.96385,12.24589 1.91893,4.18081 6.8561,23.68823 16.36941,64.67758 15.83656,68.23396 26.02589,113.73762 27.37876,122.26848 0.61674,3.88891 -0.7405,10.59333 -2.89585,14.30482 -3.0097,5.18268 -34.13703,44.45861 -86.54398,109.19973 -30.20514,37.31403 -33.74979,41.39647 -38.53073,44.37643 -5.43499,3.38765 -3.71207,3.32246 -92.5364,3.50127 -45.54617,0.0917 -89.24654,-0.0282 -97.11195,-0.26641 z m 16.8682,-58.73659 c 4.6691,-1.39889 7.19298,-4.66912 10.72856,-13.90108 5.26553,-13.74912 7.39662,-17.85182 11.20357,-21.56868 l 3.46644,-3.38442 7.71344,2.14569 c 13.9815,3.88931 19.26405,4.55841 36.15676,4.57973 16.64212,0.021 19.55881,-0.32063 34.44465,-4.03427 6.69429,-1.67006 9.50062,-2.10991 10.39786,-1.62972 0.67592,0.36174 2.54761,2.12439 4.15932,3.917 2.40704,2.67721 3.81683,5.49482 7.89377,15.77653 5.49321,13.85342 7.49365,16.80388 12.38215,18.26248 4.16598,1.24303 7.337,0.37221 10.6278,-2.91859 5.40246,-5.40247 4.69217,-9.76238 -3.80693,-23.36779 -6.98784,-11.18617 -8.08511,-13.66428 -8.54105,-19.28935 l -0.37739,-4.65606 4.98862,-3.59484 c 21.58588,-15.55497 37.48675,-35.30443 46.91015,-58.26413 1.35135,-3.2925 2.72864,-6.32258 3.06064,-6.73352 0.332,-0.41094 2.36159,-1.09301 4.5102,-1.51572 4.77911,-0.94024 6.87185,-0.53338 20.01585,3.89136 14.83919,4.99542 18.63725,5.14768 23.30113,0.93414 4.39361,-3.96936 4.18865,-9.32783 -0.53214,-13.91259 -2.98943,-2.90331 -6.22899,-3.84154 -19.44324,-5.63111 -13.3428,-1.80698 -14.81842,-2.21646 -19.81012,-5.49721 -3.95521,-2.59952 -4.1542,-2.85493 -3.71452,-4.76749 0.87602,-3.81056 0.4216,-23.11222 -0.72094,-30.62229 -2.36953,-15.57528 -5.95986,-26.77906 -13.72717,-42.83628 l -5.27701,-10.90906 1.90133,-3.39167 c 2.24428,-4.00342 6.83915,-7.89015 16.23973,-13.73696 8.69897,-5.41043 14.18665,-10.65032 14.83289,-14.16314 0.96046,-5.22083 -2.12293,-10.70372 -7.15074,-12.71545 -5.29588,-2.11899 -8.33251,-0.56597 -20.15444,10.30761 -9.19016,8.45292 -13.5205,11.90128 -15.49239,12.33697 -0.99084,0.21893 -2.78121,0.69597 -3.9786,1.0601 -2.09365,0.63669 -2.37401,0.48537 -7.31665,-3.94925 -20.2684,-18.18515 -41.68057,-28.42099 -68.53715,-32.7634 -4.1705,-0.67432 -4.9514,-1.01549 -5.47468,-2.39181 -0.33569,-0.88292 -1.27458,-2.50375 -2.08645,-3.60186 -1.47393,-1.99359 -1.47482,-2.01311 -0.59975,-13.12711 1.89654,-24.087381 1.93641,-23.415825 -1.62402,-27.3568 -4.38486,-4.853509 -11.42355,-5.059659 -16.01418,-0.469026 -3.47306,3.473053 -3.9072,6.414669 -2.66458,18.054181 1.4898,13.954755 1.406,18.882175 -0.39334,23.128345 -0.80386,1.89698 -1.74638,3.64393 -2.0945,3.8821 -0.34812,0.23817 -3.80603,1.08362 -7.68426,1.87877 -10.53864,2.16074 -21.43432,5.11963 -27.01369,7.33599 -13.56748,5.38958 -27.13202,13.70014 -38.46406,23.56572 -3.5996,3.13378 -6.59277,5.69453 -6.65151,5.69057 -0.7849,-0.0529 -6.73565,-2.10713 -7.88638,-2.72239 -0.84288,-0.45066 -6.13744,-5.14394 -11.7657,-10.42951 -11.48896,-10.78944 -14.32345,-12.52511 -19.24839,-11.78657 -8.08437,1.21233 -11.62165,12.24082 -5.98514,18.66044 1.08853,1.23977 6.67034,5.23544 12.404,8.87927 11.15077,7.08646 13.75969,9.35469 16.07546,13.97624 l 1.47052,2.93469 -5.01894,10.03574 c -8.36533,16.72706 -12.76619,31.94374 -14.44468,49.94475 -0.66953,7.1804 -0.40086,22.05913 0.45289,25.08044 0.23347,0.82621 -0.91053,1.94479 -4.20465,4.11126 -5.36054,3.5255 -6.95696,3.97391 -19.1587,5.38135 -14.987559,1.72877 -19.049348,3.46962 -21.697427,9.29935 -1.583035,3.48504 -1.556906,5.29299 0.12676,8.77098 1.089309,2.25021 2.133855,3.21482 4.999345,4.61678 4.557636,2.22985 5.332137,2.12014 21.756642,-3.08175 13.1366,-4.16056 14.91853,-4.43904 20.36298,-3.18231 2.44357,0.56404 3.48141,1.15704 3.78338,2.16174 0.22887,0.76147 2.60308,5.87425 5.27601,11.36174 10.69304,21.95263 22.67155,36.15272 43.89338,52.03399 l 5.33455,3.99209 -0.3988,4.57933 c -0.50414,5.78898 -0.71116,6.2628 -8.00042,18.31103 -8.69188,14.36659 -9.43999,17.49419 -5.57979,23.32735 2.7217,4.11278 6.52304,5.29747 11.86374,3.69736 z"
     id="path6" />
  <path
     style="fill:#0b9fa3;fill-opacity:1;stroke:#0b9fa3;stroke-width:0.66515;stroke-opacity:1"
     d="m 294.75965,311.24375 c -11.25785,-27.14857 -11.28115,-27.24672 -7.3916,-31.13627 1.08241,-1.08241 2.81194,-2.15337 3.84341,-2.37992 1.59035,-0.3493 46.39514,6.65243 52.15004,8.14959 l 1.80683,0.47005 -2.18183,5.4066 c -4.13251,10.24041 -12.08766,21.82098 -21.35751,31.09083 -5.16694,5.16694 -14.93469,13.07411 -16.10913,13.04064 -0.30165,-0.009 -5.14374,-11.09728 -10.76021,-24.64152 z"
     id="path7" />
  <path
     style="fill:#0b9fa3;fill-opacity:1;stroke:#0b9fa3;stroke-width:0.66515;stroke-opacity:1"
     d="m 239.12153,352.11836 c -5.76579,-0.85961 -16.39588,-3.022 -18.42374,-3.74778 l -2.31778,-0.82955 12.69879,-22.92255 c 13.89164,-25.07576 14.94956,-26.45846 19.66726,-25.70493 1.27184,0.20314 3.06774,0.92068 3.99091,1.59452 0.98083,0.71594 6.97658,10.74488 14.42543,24.12906 l 12.74695,22.9039 -2.7697,0.87817 c -8.08652,2.56395 -14.96539,3.54681 -26.38254,3.76956 -6.40207,0.1249 -12.53808,0.0932 -13.63558,-0.0704 z"
     id="path8" />
  <path
     style="fill:#0b9fa3;fill-opacity:1;stroke:#0b9fa3;stroke-width:0.66515;stroke-opacity:1"
     d="m 190.23298,332.74231 c -12.55461,-9.2383 -25.6965,-25.61451 -31.89165,-39.74043 -1.54931,-3.53268 -2.71492,-6.49577 -2.59026,-6.58465 0.62724,-0.44717 49.7866,-8.40831 51.85241,-8.39726 3.91124,0.0209 7.90522,4.16477 7.90522,8.20189 0,1.1641 -19.46211,49.47442 -20.18368,50.10147 -0.0569,0.0494 -2.34829,-1.56203 -5.09204,-3.58102 z"
     id="path9" />
  <path
     style="fill:#0b9fa3;fill-opacity:1;stroke:#0b9fa3;stroke-width:0.66515;stroke-opacity:1"
     d="m 149.30514,257.11275 c -0.53339,-4.98075 0.54095,-18.30464 2.06746,-25.64045 1.59096,-7.64552 5.30649,-18.2313 9.04243,-25.76244 l 3.37605,-6.80565 3.40999,3.07137 c 1.87549,1.68925 10.7916,9.63941 19.81357,17.66702 9.73596,8.6629 16.73255,15.38981 17.21287,16.54942 1.14705,2.76921 0.35548,6.51601 -1.83535,8.6874 -1.55434,1.54055 -5.72222,2.9554 -26.12733,8.86936 -13.35289,3.87002 -24.77666,7.18785 -25.38616,7.37295 -0.92584,0.28116 -1.18473,-0.37844 -1.57353,-4.00898 z"
     id="path10" />
  <path
     style="fill:#0b9fa3;fill-opacity:1;stroke:#0b9fa3;stroke-width:0.66515;stroke-opacity:1"
     d="m 202.09624,194.81209 c -11.82936,-8.45647 -21.59006,-15.58716 -21.69044,-15.84598 -0.28593,-0.73724 9.59639,-8.81142 15.48096,-12.64846 10.24505,-6.68028 21.99323,-11.40411 34.58346,-13.90566 3.65593,-0.7264 6.741,-1.22688 6.8557,-1.11217 0.4599,0.4599 -2.58455,50.7427 -3.21009,53.01859 -0.96596,3.51442 -4.02563,5.86908 -7.62635,5.86908 -2.70012,0 -4.26568,-0.98679 -24.39324,-15.3754 z"
     id="path11" />
  <path
     style="fill:#0b9fa3;fill-opacity:1;stroke:#0b9fa3;stroke-width:0.66515;stroke-opacity:1"
     d="m 270.20872,208.85926 c -3.73638,-2.27809 -3.94167,-3.46292 -5.41134,-31.23084 -0.74447,-14.06624 -1.20664,-25.72195 -1.02702,-25.90157 0.68932,-0.68931 10.9381,1.49988 18.27191,3.90297 13.03243,4.27039 26.15019,11.79089 34.57494,19.82203 l 3.99269,3.80615 -17.39041,12.30528 c -25.9689,18.37534 -26.35336,18.62453 -28.73036,18.62173 -1.16054,-0.001 -3.08673,-0.59796 -4.28041,-1.32575 z"
     id="path12" />
  <path
     style="fill:#0b9fa3;fill-opacity:1;stroke:#0b9fa3;stroke-width:0.66515;stroke-opacity:1"
     d="m 325.26194,254.06435 c -23.89161,-6.90207 -25.03068,-7.30414 -27.10487,-9.56748 -2.35427,-2.56895 -2.87256,-6.04591 -1.31018,-8.78936 0.8832,-1.55085 39.04379,-36.16242 39.87046,-36.16242 0.28,0 2.13625,3.36732 4.12501,7.48294 4.24171,8.77796 7.79835,20.07435 9.29186,29.51227 1.07875,6.8169 1.4922,24.92149 0.56627,24.79633 -0.27437,-0.0371 -11.72172,-3.30962 -25.43855,-7.27228 z"
     id="path13" />
  <path
     style="fill:#0b9fa3;fill-opacity:1;stroke:#0b9fa3;stroke-width:0.66515;stroke-opacity:1"
     d="m 243.44501,265.79066 -6.98408,-3.38887 -1.69711,-7.33369 -1.69712,-7.33369 4.88682,-6.13561 4.88681,-6.1356 h 7.51162 7.51163 l 4.31633,5.48749 c 2.37398,3.01812 4.53704,5.86464 4.80679,6.32559 0.63003,1.07659 -2.28804,15.32045 -3.21778,15.70687 -0.38609,0.16046 -3.5455,1.62029 -7.02091,3.24406 l -6.31892,2.95232 z"
     id="path14" />
</svg>
