<?xml version="1.0" encoding="UTF-8" standalone="no"?>
<!DOCTYPE svg PUBLIC "-//W3C//DTD SVG 1.1//EN"
 "http://www.w3.org/Graphics/SVG/1.1/DTD/svg11.dtd">
<!-- Generated by graphviz version 2.43.0 (0)
 -->
<!-- Title: filter Pages: 1 -->
<svg width="388pt" height="98pt"
 viewBox="0.00 0.00 387.70 98.00" xmlns="http://www.w3.org/2000/svg" xmlns:xlink="http://www.w3.org/1999/xlink">
<g id="graph0" class="graph" transform="scale(1 1) rotate(0) translate(4 94)">
<title>filter</title>
<polygon fill="white" stroke="transparent" points="-4,4 -4,-94 383.7,-94 383.7,4 -4,4"/>
<!-- x -->
<g id="node1" class="node">
<title>x</title>
<polygon fill="#ffcb18" stroke="black" points="27,-90 0,-72 27,-54 54,-72 27,-90"/>
<polyline fill="none" stroke="black" points="9,-78 9,-66 "/>
<polyline fill="none" stroke="black" points="18,-60 36,-60 "/>
<polyline fill="none" stroke="black" points="45,-66 45,-78 "/>
<polyline fill="none" stroke="black" points="36,-84 18,-84 "/>
<text text-anchor="middle" x="27" y="-68.3" font-family="Times,serif" font-size="14.00">x</text>
</g>
<!-- sum -->
<g id="node5" class="node">
<title>sum</title>
<ellipse fill="white" stroke="black" cx="108.85" cy="-45" rx="18.7" ry="18.7"/>
<text text-anchor="middle" x="108.85" y="-41.3" font-family="Times,serif" font-size="14.00">+</text>
</g>
<!-- x&#45;&gt;sum -->
<g id="edge1" class="edge">
<title>x&#45;&gt;sum</title>
<path fill="none" stroke="black" d="M45.33,-66.14C55.76,-62.61 69.25,-58.05 81.04,-54.07"/>
<polygon fill="black" stroke="black" points="82.48,-57.27 90.83,-50.75 80.24,-50.64 82.48,-57.27"/>
</g>
<!-- b -->
<g id="node2" class="node">
<title>b</title>
<polygon fill="#29a2c6" stroke="black" points="27,-36 0,-18 27,0 54,-18 27,-36"/>
<polyline fill="none" stroke="black" points="9,-24 9,-12 "/>
<polyline fill="none" stroke="black" points="18,-6 36,-6 "/>
<polyline fill="none" stroke="black" points="45,-12 45,-24 "/>
<polyline fill="none" stroke="black" points="36,-30 18,-30 "/>
<text text-anchor="middle" x="27" y="-14.3" font-family="Times,serif" font-size="14.00">b</text>
</g>
<!-- b&#45;&gt;sum -->
<g id="edge2" class="edge">
<title>b&#45;&gt;sum</title>
<path fill="none" stroke="black" d="M45.33,-23.86C55.76,-27.39 69.25,-31.95 81.04,-35.93"/>
<polygon fill="black" stroke="black" points="80.24,-39.36 90.83,-39.25 82.48,-32.73 80.24,-39.36"/>
</g>
<!-- y -->
<g id="node3" class="node">
<title>y</title>
<polygon fill="#ef597b" stroke="black" points="190.7,-63 163.7,-45 190.7,-27 217.7,-45 190.7,-63"/>
<polyline fill="none" stroke="black" points="172.7,-51 172.7,-39 "/>
<polyline fill="none" stroke="black" points="181.7,-33 199.7,-33 "/>
<polyline fill="none" stroke="black" points="208.7,-39 208.7,-51 "/>
<polyline fill="none" stroke="black" points="199.7,-57 181.7,-57 "/>
<text text-anchor="middle" x="190.7" y="-41.3" font-family="Times,serif" font-size="14.00">y</text>
</g>
<!-- h -->
<g id="node6" class="node">
<title>h</title>
<ellipse fill="white" stroke="black" cx="271.7" cy="-45" rx="18" ry="18"/>
<text text-anchor="middle" x="271.7" y="-41.3" font-family="Times,serif" font-size="14.00">h</text>
</g>
<!-- y&#45;&gt;h -->
<g id="edge4" class="edge">
<title>y&#45;&gt;h</title>
<path fill="none" stroke="black" d="M218,-45C226.12,-45 235.07,-45 243.26,-45"/>
<polygon fill="black" stroke="black" points="243.45,-48.5 253.45,-45 243.45,-41.5 243.45,-48.5"/>
</g>
<!-- xh -->
<g id="node4" class="node">
<title>xh</title>
<polygon fill="#ffcb18" stroke="black" points="352.7,-63 325.7,-45 352.7,-27 379.7,-45 352.7,-63"/>
<polyline fill="none" stroke="black" points="334.7,-51 334.7,-39 "/>
<polyline fill="none" stroke="black" points="343.7,-33 361.7,-33 "/>
<polyline fill="none" stroke="black" points="370.7,-39 370.7,-51 "/>
<polyline fill="none" stroke="black" points="361.7,-57 343.7,-57 "/>
<text text-anchor="middle" x="352.7" y="-41.3" font-family="Times,serif" font-size="14.00">x̂</text>
</g>
<!-- sum&#45;&gt;y -->
<g id="edge3" class="edge">
<title>sum&#45;&gt;y</title>
<path fill="none" stroke="black" d="M127.97,-45C135.51,-45 144.54,-45 153.35,-45"/>
<polygon fill="black" stroke="black" points="153.47,-48.5 163.47,-45 153.47,-41.5 153.47,-48.5"/>
</g>
<!-- h&#45;&gt;xh -->
<g id="edge5" class="edge">
<title>h&#45;&gt;xh</title>
<path fill="none" stroke="black" d="M289.84,-45C297.34,-45 306.45,-45 315.34,-45"/>
<polygon fill="black" stroke="black" points="315.57,-48.5 325.57,-45 315.57,-41.5 315.57,-48.5"/>
</g>
</g>
</svg>
