<?xml version="1.0" standalone="no"?>
<!DOCTYPE svg PUBLIC "-//W3C//DTD SVG 1.1//EN"
	"http://www.w3.org/Graphics/SVG/1.1/DTD/svg11.dtd">
<svg xmlns="http://www.w3.org/2000/svg" version="1.1"
	xmlns:xlink="http://www.w3.org/1999/xlink"
	color="black"
	width="816.00px" height="1056.00px">
<style type="text/css">
.fill {fill: currentColor}
.stroke {stroke: currentColor; fill: none}
text{white-space: pre}
</style>
<title>new.abc page 1</title>
<!-- Creator: abcm2ps-8.14.6 -->
<!-- CreationDate: Oct  6, 2025 13:22 -->
<!-- CommandLine: -k 128 -v -A -O new_page_.svg new.abc -->
<g stroke-width="0.70" transform="scale(1.013)">
<!-- subtitle: some notes; hardly what you'd call a tune! -->
</g>
<g stroke-width="0.70" transform="scale(1.013)" style="font:16.00px serif">
<text x="407.14" y="86.68" text-anchor="middle">some notes; hardly what you&apos;d call a tune!</text>
</g>
<g stroke-width="0.70" transform="scale(0.709)" style="font:16.00px serif">
<defs>
<ellipse id="hd" rx="4.1" ry="2.9"
	transform="rotate(-20)" class="fill"/>
</defs>
<use x="181.34" y="149.68" xlink:href="#hd"/>
<path d="M184.84 149.68v-21.00" class="stroke"/>
</g>
<g stroke-width="0.70" transform="scale(1.013)" style="font:bold 15.00px serif">
<text x="134.64" y="106.88">= 88</text>
<defs>
<g id="rdots" class="fill">
	<circle cx="0" cy="-9" r="1.2"/>
	<circle cx="0" cy="-15" r="1.2"/>
</g>
</defs>
<use x="125.34" y="144.88" xlink:href="#rdots"/>
<path class="stroke" stroke-width="1"
	d="M121.34 144.88v-24.00"/>
<path class="stroke" stroke-width="3"
	d="M116.84 144.88v-24.00"/>
<abc type="B" row="15" col="4" x="108.34" y="116.88" width="28.00" height="32"/>
<path class="stroke" stroke-width="1"
	d="M265.04 144.88v-24.00"/>
<abc type="B" row="15" col="11" x="255.04" y="116.88" width="20.00" height="32"/>
<path class="stroke" stroke-width="1"
	d="M468.74 144.88v-24.00"/>
<abc type="B" row="15" col="20" x="458.74" y="116.88" width="20.00" height="32"/>
<path class="stroke" stroke-width="1"
	d="M738.94 144.88v-24.00"/>
<abc type="B" row="15" col="30" x="728.94" y="116.88" width="20.00" height="32"/>
<path d="m66.34 144.88
	h672.60
	M66.34 138.88
	h672.60
	M66.34 132.88
	h672.60
	M66.34 126.88
	h672.60
	M66.34 120.88
	h672.60
	" class="stroke"/>
<defs>
<path id="utclef" class="fill" d="m-50 -90
	c-72 -41 -72 -158 52 -188
	150 -10 220 188 90 256
	-114 52 -275 0 -293 -136
	-15 -181 93 -229 220 -334
	88 -87 79 -133 62 -210
	-51 33 -94 105 -89 186
	17 267 36 374 49 574
	6 96 -19 134 -77 135
	-80 1 -126 -93 -61 -133
	85 -41 133 101 31 105
	23 17 92 37 90 -92
	-10 -223 -39 -342 -50 -617
	0 -90 0 -162 96 -232
	56 72 63 230 22 289
	-74 106 -257 168 -255 316
	9 153 148 185 252 133
	86 -65 29 -192 -80 -176
	-71 12 -105 67 -59 124"/>
<use id="tclef" transform="translate(0,6) scale(0.045)"
	xlink:href="#utclef"/>
</defs>
<use x="78.34" y="138.88" xlink:href="#tclef"/>
<abc type="c" row="15" col="4" x="64.34" y="108.88" width="28.00" height="46"/>
<defs>
<path id="csig" class="fill" d="
	m6 -5.3
	c0.9 0 2.3 0.7 2.4 2.2
	-1.2 -2 -3.6 0.1 -1.6 1.7
	2 1 3.8 -3.5 -0.8 -4.7
	-2 -0.4 -6.4 1.3 -5.8 7
	0.4 6.4 7.9 6.8 9.1 0.7
	-2.3 5.6 -6.7 5.1 -6.8 0
	-0.5 -4.4 0.7 -7.5 3.5 -6.9"/>
</defs>
<use x="91.84" y="132.88" xlink:href="#csig"/>
<abc type="M" row="15" col="4" x="88.34" y="116.88" width="24.00" height="32"/>
<defs>
<path id="hl" class="stroke" d="m-6 0h12"/>
</defs>
<use x="144.14" y="150.88" xlink:href="#hl"/>
<defs>
<path id="Hd" class="fill" d="m3 -1.6
	c-1 -1.8 -7 1.4 -6 3.2
	1 1.8 7 -1.4 6 -3.2
	m0.5 -0.3
	c2 3.8 -5 7.6 -7 3.8
	-2 -3.8 5 -7.6 7 -3.8"/>
</defs>
<use x="144.14" y="150.88" xlink:href="#Hd"/>
<path d="M147.64 150.88v-21.00" class="stroke"/>
<abc type="N" row="15" col="7" x="137.14" y="125.88" width="14.00" height="31"/>
<use x="215.24" y="147.88" xlink:href="#Hd"/>
<path d="M218.74 147.88v-21.00" class="stroke"/>
<abc type="N" row="15" col="9" x="208.24" y="122.88" width="14.00" height="31"/>
<use x="282.74" y="144.88" xlink:href="#hd"/>
<path d="M286.24 144.88v-21.00" class="stroke"/>
<abc type="N" row="15" col="12" x="276.24" y="119.88" width="13.00" height="31"/>
<use x="333.04" y="141.88" xlink:href="#hd"/>
<path d="M336.54 141.88v-21.00" class="stroke"/>
<abc type="N" row="15" col="14" x="326.54" y="116.88" width="13.00" height="31"/>
<use x="383.34" y="138.88" xlink:href="#hd"/>
<path d="M386.84 138.88v-21.00" class="stroke"/>
<abc type="N" row="15" col="16" x="376.84" y="113.88" width="13.00" height="31"/>
<use x="433.54" y="135.88" xlink:href="#hd"/>
<path d="M437.04 135.88v-21.00" class="stroke"/>
<abc type="N" row="15" col="18" x="427.04" y="110.88" width="13.00" height="31"/>
<abc type="b" row="15" col="21" x="480.04" y="150.88" width="6.00" height="6"/>
<path class="fill"
	d="M482.64 153.18l96.70 -7.60v-3.20l-96.70 7.60"/>
<use x="486.54" y="132.88" xlink:href="#hd"/>
<path d="M483.04 132.88v19.30" class="stroke"/>
<abc type="N" row="15" col="21" x="480.04" y="126.88" width="13.00" height="30"/>
<use x="518.54" y="129.88" xlink:href="#hd"/>
<path d="M515.04 129.88v19.80" class="stroke"/>
<abc type="N" row="15" col="22" x="512.04" y="123.88" width="13.00" height="31"/>
<use x="550.54" y="126.88" xlink:href="#hd"/>
<path d="M547.04 126.88v20.20" class="stroke"/>
<abc type="N" row="15" col="23" x="544.04" y="120.88" width="13.00" height="31"/>
<use x="582.54" y="123.88" xlink:href="#hd"/>
<path d="M579.04 123.88v20.70" class="stroke"/>
<abc type="N" row="15" col="24" x="576.04" y="117.88" width="13.00" height="32"/>
<abc type="e" row="15" col="24" x="576.04" y="143.88" width="6.00" height="6"/>
<abc type="b" row="15" col="26" x="611.54" y="139.88" width="6.00" height="6"/>
<path class="fill"
	d="M614.24 141.18l96.70 -7.60v-3.20l-96.70 7.60"/>
<use x="618.04" y="120.88" xlink:href="#hd"/>
<path d="M614.54 120.88v19.30" class="stroke"/>
<abc type="N" row="15" col="26" x="611.54" y="114.88" width="13.00" height="31"/>
<use x="650.04" y="117.88" xlink:href="#hd"/>
<path d="M646.54 117.88v19.80" class="stroke"/>
<abc type="N" row="15" col="27" x="643.54" y="111.88" width="13.00" height="32"/>
<use x="682.04" y="114.88" xlink:href="#hl"/>
<use x="682.04" y="114.88" xlink:href="#hd"/>
<path d="M678.54 114.88v20.20" class="stroke"/>
<abc type="N" row="15" col="28" x="675.54" y="108.88" width="13.00" height="32"/>
<use x="714.04" y="114.88" xlink:href="#hl"/>
<use x="714.04" y="111.88" xlink:href="#hd"/>
<path d="M710.54 111.88v20.70" class="stroke"/>
<abc type="N" row="15" col="29" x="706.04" y="105.88" width="14.50" height="33"/>
<abc type="e" row="15" col="29" x="706.04" y="132.88" width="6.00" height="6"/>
<text style="font:bold italic 16px serif"
	x="120.34" y="166.28">mf</text>
</g>
<g stroke-width="0.70" transform="scale(1.013)" style="font:bold 15.00px serif">
<path class="stroke" stroke-width="3"
	d="M737.44 225.88v-24.00"/>
<path class="stroke" stroke-width="1"
	d="M732.94 225.88v-24.00"/>
<use x="728.94" y="225.88" xlink:href="#rdots"/>
<abc type="B" row="16" col="17" x="720.94" y="197.88" width="28.00" height="32"/>
<path d="m66.34 225.88
	h672.60
	M66.34 219.88
	h672.60
	M66.34 213.88
	h672.60
	M66.34 207.88
	h672.60
	M66.34 201.88
	h672.60
	" class="stroke"/>
<use x="78.34" y="219.88" xlink:href="#tclef"/>
<abc type="c" row="16" col="0" x="64.34" y="189.88" width="28.00" height="46"/>
<abc type="b" row="16" col="0" x="88.34" y="212.88" width="6.00" height="6"/>
<path class="fill"
	d="M99.04 214.08l240.70 0.00v-3.20l-240.70 -0.00"/>
<path class="fill"
	d="M99.34 209.08l240.00 0.00v-3.20l-240.00 -0.00"/>
<use x="102.84" y="195.88" xlink:href="#hl"/>
<use x="102.84" y="189.88" xlink:href="#hl"/>
<use x="102.84" y="189.88" xlink:href="#hd"/>
<path d="M99.34 189.88v23.20" class="stroke"/>
<abc type="N" row="16" col="0" x="88.34" y="183.88" width="21.00" height="35"/>
<use x="182.84" y="195.88" xlink:href="#hl"/>
<use x="182.84" y="189.88" xlink:href="#hl"/>
<use x="182.84" y="186.88" xlink:href="#hd"/>
<path d="M179.34 186.88v26.20" class="stroke"/>
<abc type="N" row="16" col="3" x="174.84" y="180.88" width="14.50" height="38"/>
<use x="262.84" y="195.88" xlink:href="#hl"/>
<use x="262.84" y="189.88" xlink:href="#hl"/>
<use x="262.84" y="183.88" xlink:href="#hl"/>
<use x="262.84" y="183.88" xlink:href="#hd"/>
<path d="M259.34 183.88v29.20" class="stroke"/>
<abc type="N" row="16" col="6" x="254.84" y="177.88" width="14.50" height="41"/>
<use x="342.84" y="195.88" xlink:href="#hl"/>
<use x="342.84" y="189.88" xlink:href="#hl"/>
<use x="342.84" y="183.88" xlink:href="#hl"/>
<use x="342.84" y="180.88" xlink:href="#hd"/>
<path d="M339.34 180.88v32.20" class="stroke"/>
<abc type="N" row="16" col="9" x="334.84" y="174.88" width="14.50" height="44"/>
<abc type="e" row="16" col="9" x="334.84" y="212.88" width="6.00" height="6"/>
<defs>
<path id="ubclef" class="fill" d="m-200 -87
	c124 -35 222 -78 254 -236
	43 -228 -167 -246 -192 -103
	59 -80 157 22 92 78
	-62 47 -115 -22 -106 -88
	21 -141 270 -136 274 52
	-1 175 -106 264 -322 297
	m357 -250
	c0 -36 51 -34 51 0
	0 37 -51 36 -51 0
	m-2 -129
	c0 -36 51 -34 51 0
	0 38 -51 37 -51 0"/>
<use id="sbclef" transform="translate(0,14.5) scale(0.037)"
	xlink:href="#ubclef"/>
</defs>
<use x="421.74" y="207.88" xlink:href="#sbclef"/>
<abc type="c" row="16" col="9" x="407.74" y="197.88" width="26.00" height="31"/>
<use x="436.74" y="216.88" xlink:href="#Hd"/>
<circle class="fill" cx="445.44" cy="216.88" r="1.2"/>
<path d="M440.24 216.88v-21.00" class="stroke"/>
<abc type="N" row="16" col="13" x="429.74" y="191.88" width="22.00" height="31"/>
<defs>
<use id="stclef" transform="translate(0,5.4) scale(0.037)"
	xlink:href="#utclef"/>
</defs>
<use x="712.94" y="219.88" xlink:href="#stclef"/>
<abc type="c" row="16" col="13" x="698.94" y="191.88" width="26.00" height="42"/>
</g>
<g stroke-width="0.70" transform="scale(1.013)" style="font:bold 15.00px serif">
<path class="stroke" stroke-width="1"
	d="M209.94 295.88v-24.00"/>
<abc type="B" row="19" col="3" x="199.94" y="267.88" width="20.00" height="32"/>
<path class="stroke" stroke-width="1"
	d="M342.14 295.88v-24.00"/>
<abc type="B" row="19" col="22" x="332.14" y="267.88" width="20.00" height="32"/>
<path class="stroke" stroke-width="1"
	d="M474.44 295.88v-24.00"/>
<abc type="B" row="19" col="26" x="464.44" y="267.88" width="20.00" height="32"/>
<path class="stroke" stroke-width="1"
	d="M606.74 295.88v-24.00"/>
<abc type="B" row="19" col="30" x="596.74" y="267.88" width="20.00" height="32"/>
<path class="stroke" stroke-width="1"
	d="M738.94 295.88v-24.00"/>
<abc type="B" row="19" col="34" x="728.94" y="267.88" width="17.00" height="32"/>
<path d="m66.34 295.88
	h672.60
	M66.34 289.88
	h672.60
	M66.34 283.88
	h672.60
	M66.34 277.88
	h672.60
	M66.34 271.88
	h672.60
	" class="stroke"/>
<use x="78.34" y="289.88" xlink:href="#tclef"/>
<abc type="c" row="19" col="1" x="64.34" y="259.88" width="28.00" height="46"/>
<defs>
<path id="HD" class="fill" d="m-2.7 -1.4
	c1.5 -2.8 6.9 0 5.3 2.7
	-1.5 2.8 -6.9 0 -5.3 -2.7
	m8.3 1.4
	c0 -1.5 -2.2 -3 -5.6 -3
	-3.4 0 -5.6 1.5 -5.6 3
	0 1.5 2.2 3 5.6 3
	3.4 0 5.6 -1.5 5.6 -3"/>
</defs>
<use x="105.34" y="280.88" xlink:href="#HD"/>
<abc type="N" row="19" col="1" x="88.34" y="274.88" width="24.00" height="12"/>
<defs>
<path id="mrep" class="fill"
    d="M-5 -4.5a1.5 1.5 0 0 1 0 3a1.5 1.5 0 0 1 0 -3
	M4.5 2a1.5 1.5 0 0 1 0 3a1.5 1.5 0 0 1 0 -3
	M-7 6l11 -12h3l-11 12h-3"/>
</defs>
<use x="276.04" y="283.88" xlink:href="#mrep"/>
<abc type="R" row="19" col="20" x="268.04" y="269.88" width="16.00" height="28"/>
<use x="408.34" y="283.88" xlink:href="#mrep"/>
</g>
<g stroke-width="0.70" transform="scale(1.013)" style="font:12.00px sans">
<text x="408.34" y="267.88" text-anchor="middle">3<abc type="R" row="19" col="24" x="400.34" y="269.88" width="16.00" height="28"/>
</text>
<use x="540.54" y="283.88" xlink:href="#mrep"/>
<text x="540.54" y="267.88" text-anchor="middle">4<abc type="R" row="19" col="28" x="532.54" y="269.88" width="16.00" height="28"/>
</text>
<defs>
<path id="hl1" class="stroke" d="m-7 0h14"/>
</defs>
<use x="634.34" y="301.88" xlink:href="#hl1"/>
<use x="634.34" y="301.88" xlink:href="#HD"/>
<abc type="N" row="19" col="32" x="625.34" y="295.88" width="16.00" height="12"/>
</g>
</svg>
