<?xml version="1.0" standalone="no"?>
<!DOCTYPE svg PUBLIC "-//W3C//DTD SVG 1.1//EN"
	"http://www.w3.org/Graphics/SVG/1.1/DTD/svg11.dtd">
<svg xmlns="http://www.w3.org/2000/svg" version="1.1"
	xmlns:xlink="http://www.w3.org/1999/xlink"
	color="black"
	width="816.00px" height="1056.00px">
<style type="text/css">
.fill {fill: currentColor}
.stroke {stroke: currentColor; fill: none}
text{white-space: pre}
</style>
<title>sample3.abc page 1</title>
<!-- Creator: abcm2ps-8.14.11 -->
<!-- CreationDate: Oct  8, 2022 16:53 -->
<!-- CommandLine: -k 128 -v -A -O sample3_page_.svg sample3.abc -->
<g stroke-width="0.70" style="font:16.00px serif">
<text x="748.80" y="53.80" text-anchor="end">abcm2ps version 3 features</text>
<text x="748.80" y="69.80" text-anchor="end">Page 1</text>
</g>
<g stroke-width="0.70" style="font:16.00px serif">
<text x="408.00" y="1034.20" text-anchor="middle">sample3.abc</text>
</g>
<g stroke-width="0.70" style="font:16.00px serif">
<!-- title: abcm2ps version 3 features -->
</g>
<g stroke-width="0.70" style="font:20.00px serif">
<text x="408.00" y="113.80" text-anchor="middle">abcm2ps version 3 features</text>
</g>
<g stroke-width="0.70" style="font:20.00px serif">
<path class="stroke" stroke-width="1"
	d="M318.70 183.80v-24.00"/>
<abc type="B" row="9" col="15" x="308.70" y="155.80" width="20.00" height="32"/>
<path class="stroke" stroke-width="1"
	d="M427.70 183.80v-24.00"/>
<abc type="B" row="9" col="21" x="417.70" y="155.80" width="17.00" height="32"/>
<path class="stroke" stroke-width="3"
	d="M610.60 183.80v-24.00"/>
<path class="stroke" stroke-width="1"
	d="M606.10 183.80v-24.00"/>
<defs>
<g id="rdots" class="fill">
	<circle cx="0" cy="-9" r="1.2"/>
	<circle cx="0" cy="-15" r="1.2"/>
</g>
</defs>
<use x="602.10" y="183.80" xlink:href="#rdots"/>
<abc type="B" row="9" col="50" x="594.10" y="155.80" width="28.00" height="32"/>
<path class="stroke" stroke-width="1"
	d="M748.80 183.80v-24.00"/>
<path class="stroke" stroke-width="1"
	d="M745.80 183.80v-24.00"/>
<abc type="B" row="9" col="71" x="738.80" y="155.80" width="17.00" height="32"/>
<path d="m67.20 183.80
	h681.60
	M67.20 177.80
	h681.60
	M67.20 171.80
	h681.60
	M67.20 165.80
	h681.60
	M67.20 159.80
	h681.60
	" class="stroke"/>
</g>
<g stroke-width="0.70" style="font:13.00px serif">
<text x="431.70" y="143.20">1.2</text>
<path class="stroke"
	d="M427.70 131.80m0 20v-20h176.40v20"/>
<text x="616.10" y="143.20">last time</text>
<path class="stroke"
	d="M612.10 131.80m0 20v-20h136.70v20"/>
<defs>
<path id="utclef" class="fill" d="m-50 -90
	c-72 -41 -72 -158 52 -188
	150 -10 220 188 90 256
	-114 52 -275 0 -293 -136
	-15 -181 93 -229 220 -334
	88 -87 79 -133 62 -210
	-51 33 -94 105 -89 186
	17 267 36 374 49 574
	6 96 -19 134 -77 135
	-80 1 -126 -93 -61 -133
	85 -41 133 101 31 105
	23 17 92 37 90 -92
	-10 -223 -39 -342 -50 -617
	0 -90 0 -162 96 -232
	56 72 63 230 22 289
	-74 106 -257 168 -255 316
	9 153 148 185 252 133
	86 -65 29 -192 -80 -176
	-71 12 -105 67 -59 124"/>
<use id="tclef" transform="translate(0,6) scale(0.045)"
	xlink:href="#utclef"/>
</defs>
<use x="79.20" y="177.80" xlink:href="#tclef"/>
<abc type="c" row="9" col="0" x="65.20" y="147.80" width="28.00" height="46"/>
<g style="font:bold 16px serif"
	transform="translate(97.70,183.30) scale(1.2,1)">
	<text text-anchor="middle">4</text>
	<text y="-12" text-anchor="middle">2</text>
</g>
<g style="font:bold 16px serif"
	transform="translate(110.70,183.30) scale(1.2,1)">
	<text text-anchor="middle">4</text>
	<text y="-12" text-anchor="middle">3</text>
</g>
<abc type="M" row="9" col="0" x="89.20" y="155.80" width="37.00" height="32"/>
<defs>
<path id="hl" class="stroke" d="m-6 0h12"/>
</defs>
<use x="128.70" y="189.80" xlink:href="#hl"/>
<defs>
<ellipse id="hd" rx="4.1" ry="2.9"
	transform="rotate(-20)" class="fill"/>
</defs>
<use x="128.70" y="189.80" xlink:href="#hd"/>
<path d="M132.20 189.80v-21.00" class="stroke"/>
<abc type="N" row="9" col="0" x="122.20" y="164.80" width="13.00" height="31"/>
<use x="166.10" y="186.80" xlink:href="#hd"/>
<path d="M169.60 186.80v-21.00" class="stroke"/>
<abc type="N" row="9" col="2" x="159.60" y="161.80" width="13.00" height="31"/>
<use x="203.50" y="183.80" xlink:href="#hd"/>
<path d="M207.00 183.80v-21.00" class="stroke"/>
<abc type="N" row="9" col="5" x="197.00" y="158.80" width="13.00" height="31"/>
<use x="240.90" y="180.80" xlink:href="#hd"/>
<path d="M244.40 180.80v-21.00" class="stroke"/>
<abc type="N" row="9" col="7" x="234.40" y="155.80" width="13.00" height="31"/>
<use x="278.30" y="177.80" xlink:href="#hd"/>
<path d="M281.80 177.80v-21.00" class="stroke"/>
<abc type="N" row="9" col="9" x="271.80" y="152.80" width="13.00" height="31"/>
<abc type="b" row="9" col="12" x="288.70" y="178.80" width="6.00" height="6"/>
<path class="fill"
	d="M292.80 164.70l8.60 -3.20v1.80l-8.60 3.20"/>
<path class="fill"
	d="M293.00 168.10l8.00 -3.00v1.80l-8.00 3.00"/>
<defs>
<path id="ghd" class="fill" d="m2.2 -1.5
	c-1.32 -2.31 -5.94 0.33 -4.62 2.64
	1.32 2.31 5.94 -0.33 4.62 -2.64"/>
</defs>
<use x="290.70" y="180.80" xlink:href="#ghd"/>
<path d="M293.00 180.80v-15.20" class="stroke"/>
<abc type="g" row="9" col="13" x="282.20" y="157.80" width="30.50" height="27"/>
<use x="298.70" y="177.80" xlink:href="#ghd"/>
<path d="M301.00 177.80v-15.20" class="stroke"/>
<abc type="g" row="9" col="13" x="282.20" y="157.80" width="30.50" height="27"/>
<abc type="e" row="9" col="13" x="296.70" y="175.80" width="6.00" height="6"/>
<defs>
<path id="Hd" class="fill" d="m3 -1.6
	c-1 -1.8 -7 1.4 -6 3.2
	1 1.8 7 -1.4 6 -3.2
	m0.5 -0.3
	c2 3.8 -5 7.6 -7 3.8
	-2 -3.8 5 -7.6 7 -3.8"/>
</defs>
<use x="332.20" y="177.80" xlink:href="#Hd"/>
<path d="M335.70 177.80v-21.00" class="stroke"/>
<abc type="N" row="9" col="16" x="325.20" y="152.80" width="14.00" height="34"/>
<use x="385.30" y="177.80" xlink:href="#Hd"/>
<circle class="fill" cx="394.00" cy="174.80" r="1.2"/>
<path d="M388.80 177.80v-21.00" class="stroke"/>
<abc type="N" row="9" col="19" x="369.30" y="152.80" width="31.00" height="31"/>
<g style="font:bold 16px serif"
	transform="translate(439.20,183.30) scale(1.2,1)">
	<text text-anchor="middle">4</text>
	<text y="-12" text-anchor="middle">5</text>
</g>
<g style="font:bold 18px serif"
	transform="translate(452.20,183.80) scale(1.2,1)">
	<text y="-7" text-anchor="middle">(</text>
</g>
<g style="font:bold 16px serif"
	transform="translate(465.20,183.30) scale(1.2,1)">
	<text text-anchor="middle">4</text>
	<text y="-12" text-anchor="middle">2</text>
</g>
<g style="font:bold 16px serif"
	transform="translate(478.20,183.30) scale(1.2,1)">
	<text text-anchor="middle">4</text>
	<text y="-12" text-anchor="middle">3</text>
</g>
<g style="font:bold 18px serif"
	transform="translate(491.20,183.80) scale(1.2,1)">
	<text y="-7" text-anchor="middle">)</text>
</g>
<abc type="M" row="9" col="25" x="430.70" y="155.80" width="76.00" height="32"/>
<use x="509.70" y="177.80" xlink:href="#Hd"/>
<path d="M513.20 177.80v-21.00" class="stroke"/>
<abc type="N" row="9" col="42" x="502.70" y="152.80" width="14.00" height="31"/>
<abc type="b" row="9" col="45" x="541.00" y="172.80" width="6.00" height="6"/>
<path class="fill"
	d="M545.00 158.70l8.60 -3.20v1.80l-8.60 3.20"/>
<path class="fill"
	d="M545.30 162.10l8.00 -3.00v1.80l-8.00 3.00"/>
<use x="543.00" y="174.80" xlink:href="#ghd"/>
<path d="M545.30 174.80v-15.20" class="stroke"/>
<abc type="g" row="9" col="46" x="534.50" y="151.80" width="30.50" height="27"/>
<use x="551.00" y="171.80" xlink:href="#ghd"/>
<path d="M553.30 171.80v-15.20" class="stroke"/>
<abc type="g" row="9" col="46" x="534.50" y="151.80" width="30.50" height="27"/>
<abc type="e" row="9" col="46" x="549.00" y="169.80" width="6.00" height="6"/>
<defs>
<rect id="r2" class="fill"
	x="-3.5" y="-3" width="7" height="3"/>
</defs>
<use x="563.50" y="171.80" xlink:href="#r2"/>
<circle class="fill" cx="571.50" cy="168.80" r="1.2"/>
<abc type="R" row="9" col="48" x="561.00" y="157.80" width="17.50" height="28"/>
<use x="625.60" y="174.80" xlink:href="#hd"/>
<path d="M629.10 174.80v-21.00" class="stroke"/>
<abc type="N" row="9" col="64" x="619.10" y="149.80" width="13.00" height="31"/>
<use x="663.00" y="171.80" xlink:href="#hd"/>
<path d="M666.50 171.80v-21.00" class="stroke"/>
<abc type="N" row="9" col="66" x="656.50" y="146.80" width="13.00" height="31"/>
<use x="700.40" y="168.80" xlink:href="#Hd"/>
<circle class="fill" cx="709.10" cy="168.80" r="1.2"/>
<path d="M696.90 168.80v21.00" class="stroke"/>
<abc type="N" row="9" col="69" x="691.40" y="162.80" width="24.00" height="31"/>
<path class="fill"
	d="M335.70 177.80c7.13 5.33 38.93 5.33 46.06 -0.00
	v0.25c-8.51 7.08 -37.55 7.08 -46.06 -0.25"/>
</g>
<g stroke-width="0.70" style="font:13.00px serif">
<path class="stroke" stroke-width="1"
	d="M183.70 253.80v-24.00"/>
<abc type="B" row="12" col="11" x="173.70" y="225.80" width="20.00" height="32"/>
<path class="stroke" stroke-width="1"
	d="M237.50 253.80v-24.00"/>
<abc type="B" row="12" col="14" x="227.50" y="225.80" width="17.00" height="32"/>
<path d="m67.20 253.80
	h170.30
	M67.20 247.80
	h170.30
	M67.20 241.80
	h170.30
	M67.20 235.80
	h170.30
	M67.20 229.80
	h170.30
	" class="stroke"/>
<use x="79.20" y="247.80" xlink:href="#tclef"/>
<abc type="c" row="12" col="7" x="65.20" y="217.80" width="28.00" height="46"/>
<g style="font:bold 16px serif"
	transform="translate(97.70,253.30) scale(1.2,1)">
	<text text-anchor="middle">4</text>
	<text y="-12" text-anchor="middle">2</text>
</g>
<abc type="M" row="12" col="7" x="89.20" y="225.80" width="24.00" height="32"/>
<use x="115.70" y="259.80" xlink:href="#hl"/>
<use x="115.70" y="259.80" xlink:href="#hd"/>
<path d="M119.20 259.80v-21.00" class="stroke"/>
<abc type="N" row="12" col="7" x="109.20" y="234.80" width="13.00" height="31"/>
<use x="155.70" y="247.80" xlink:href="#hd"/>
<path d="M159.20 247.80v-21.00" class="stroke"/>
<abc type="N" row="12" col="9" x="149.20" y="222.80" width="13.00" height="31"/>
<use x="197.80" y="259.80" xlink:href="#hl"/>
<use x="197.80" y="259.80" xlink:href="#Hd"/>
<path d="M201.30 259.80v-21.00" class="stroke"/>
<abc type="N" row="12" col="12" x="190.80" y="234.80" width="14.00" height="31"/>
</g>
<g stroke-width="0.70" style="font:16.00px serif">
<text x="434.70" y="230.80">Multi column text on the right after a blank line.</text>
</g>
<g stroke-width="0.70" style="font:16.00px serif">
<text x="67.20" y="294.40">         And now at the left side.</text>
</g>
<g stroke-width="0.70" style="font:16.00px serif">
<text x="67.20" y="312.00">Here, there are spaces to align</text>
</g>
<g stroke-width="0.70" style="font:16.00px serif">
<text x="67.20" y="329.60">                the text on the right.</text>
</g>
<g stroke-width="0.70" style="font:16.00px serif">
<path class="stroke" stroke-width="1"
	d="M600.70 323.80v-24.00"/>
<abc type="B" row="29" col="5" x="590.70" y="295.80" width="20.00" height="32"/>
<path class="stroke" stroke-width="1"
	d="M748.80 323.80v-24.00"/>
<abc type="B" row="29" col="11" x="738.80" y="295.80" width="17.00" height="32"/>
<path d="m434.70 323.80
	h314.10
	M434.70 317.80
	h314.10
	M434.70 311.80
	h314.10
	M434.70 305.80
	h314.10
	M434.70 299.80
	h314.10
	" class="stroke"/>
<use x="446.70" y="317.80" xlink:href="#tclef"/>
<abc type="c" row="29" col="0" x="432.70" y="287.80" width="28.00" height="46"/>
<abc type="b" row="29" col="0" x="456.70" y="329.80" width="6.00" height="6"/>
<path class="fill"
	d="M474.40 308.60l34.00 -2.60v3.20l-34.00 2.60"/>
<use x="471.20" y="329.80" xlink:href="#hl"/>
<use x="471.20" y="329.80" xlink:href="#hd"/>
<path d="M474.70 329.80v-20.20" class="stroke"/>
<abc type="N" row="29" col="0" x="456.70" y="304.80" width="21.00" height="31"/>
<use x="504.50" y="326.80" xlink:href="#hd"/>
<path d="M508.00 326.80v-19.80" class="stroke"/>
<abc type="N" row="29" col="1" x="498.00" y="301.80" width="13.00" height="31"/>
<abc type="e" row="29" col="1" x="498.00" y="326.80" width="6.00" height="6"/>
<abc type="b" row="29" col="3" x="535.00" y="323.80" width="6.00" height="6"/>
<path class="fill"
	d="M544.70 302.60l34.00 -2.60v3.20l-34.00 2.60"/>
<use x="541.50" y="323.80" xlink:href="#hd"/>
<path d="M545.00 323.80v-20.20" class="stroke"/>
<abc type="N" row="29" col="3" x="535.00" y="298.80" width="13.00" height="31"/>
<use x="574.80" y="320.80" xlink:href="#hd"/>
<path d="M578.30 320.80v-19.80" class="stroke"/>
<abc type="N" row="29" col="4" x="568.30" y="295.80" width="13.00" height="31"/>
<abc type="e" row="29" col="4" x="568.30" y="320.80" width="6.00" height="6"/>
<abc type="b" row="29" col="6" x="612.80" y="317.80" width="6.00" height="6"/>
<path class="fill"
	d="M622.40 296.60l34.00 -2.60v3.20l-34.00 2.60"/>
<use x="619.30" y="317.80" xlink:href="#hd"/>
<path d="M622.80 317.80v-20.20" class="stroke"/>
<abc type="N" row="29" col="6" x="612.80" y="292.80" width="13.00" height="31"/>
<use x="652.60" y="314.80" xlink:href="#hd"/>
<path d="M656.10 314.80v-19.80" class="stroke"/>
<abc type="N" row="29" col="7" x="646.10" y="289.80" width="13.00" height="31"/>
<abc type="e" row="29" col="7" x="646.10" y="314.80" width="6.00" height="6"/>
<abc type="b" row="29" col="9" x="680.60" y="330.80" width="6.00" height="6"/>
<path class="fill"
	d="M685.70 332.60l34.00 -2.60v-3.20l-34.00 2.60"/>
<use x="689.60" y="311.80" xlink:href="#hd"/>
<path d="M686.10 311.80v19.80" class="stroke"/>
<abc type="N" row="29" col="9" x="680.60" y="305.80" width="15.50" height="31"/>
<use x="722.90" y="308.80" xlink:href="#hd"/>
<path d="M719.40 308.80v20.20" class="stroke"/>
<abc type="N" row="29" col="10" x="716.40" y="302.80" width="13.00" height="31"/>
<abc type="e" row="29" col="10" x="716.40" y="327.80" width="6.00" height="6"/>
</g>
<g stroke-width="0.70" style="font:16.00px serif">
<text x="408.00" y="364.40" text-anchor="middle">Scale change inside the tune</text>
</g>
<g stroke-width="0.70" transform="scale(0.800)" style="font:16.00px serif">
<path class="stroke" stroke-width="1"
	d="M500.25 510.50v-24.00"/>
<abc type="B" row="36" col="5" x="490.25" y="482.50" width="17.00" height="32"/>
<path d="m330.75 510.50
	h169.50
	M330.75 504.50
	h169.50
	M330.75 498.50
	h169.50
	M330.75 492.50
	h169.50
	M330.75 486.50
	h169.50
	" class="stroke"/>
<use x="342.75" y="504.50" xlink:href="#tclef"/>
<abc type="c" row="36" col="0" x="328.75" y="474.50" width="28.00" height="46"/>
<abc type="b" row="36" col="0" x="352.75" y="516.50" width="6.00" height="6"/>
<path class="fill"
	d="M370.45 495.30l34.90 -2.60v3.20l-34.90 2.60"/>
<use x="367.25" y="516.50" xlink:href="#hl"/>
<use x="367.25" y="516.50" xlink:href="#hd"/>
<path d="M370.75 516.50v-20.20" class="stroke"/>
<abc type="N" row="36" col="0" x="352.75" y="491.50" width="21.00" height="31"/>
<use x="401.45" y="513.50" xlink:href="#hd"/>
<path d="M404.95 513.50v-19.80" class="stroke"/>
<abc type="N" row="36" col="1" x="394.95" y="488.50" width="13.00" height="31"/>
<abc type="e" row="36" col="1" x="394.95" y="513.50" width="6.00" height="6"/>
<abc type="b" row="36" col="3" x="432.95" y="510.50" width="6.00" height="6"/>
<path class="fill"
	d="M442.65 489.30l34.90 -2.60v3.20l-34.90 2.60"/>
<use x="439.45" y="510.50" xlink:href="#hd"/>
<path d="M442.95 510.50v-20.20" class="stroke"/>
<abc type="N" row="36" col="3" x="432.95" y="485.50" width="13.00" height="31"/>
<use x="473.65" y="507.50" xlink:href="#hd"/>
<path d="M477.15 507.50v-19.80" class="stroke"/>
<abc type="N" row="36" col="4" x="467.15" y="482.50" width="13.00" height="31"/>
<abc type="e" row="36" col="4" x="467.15" y="507.50" width="6.00" height="6"/>
</g>
<g stroke-width="0.70" transform="scale(1.600)" style="font:16.00px serif">
<path class="stroke" stroke-width="1"
	d="M323.23 313.75v-24.00"/>
<abc type="B" row="40" col="5" x="313.23" y="285.75" width="17.00" height="32"/>
<path d="m187.62 313.75
	h135.60
	M187.62 307.75
	h135.60
	M187.62 301.75
	h135.60
	M187.62 295.75
	h135.60
	M187.62 289.75
	h135.60
	" class="stroke"/>
<use x="199.62" y="307.75" xlink:href="#tclef"/>
<abc type="c" row="40" col="0" x="185.62" y="277.75" width="28.00" height="46"/>
<abc type="b" row="40" col="0" x="209.62" y="319.75" width="6.00" height="6"/>
<path class="fill"
	d="M227.32 298.45l26.10 -2.50v3.20l-26.10 2.50"/>
<use x="224.12" y="319.75" xlink:href="#hl"/>
<use x="224.12" y="319.75" xlink:href="#hd"/>
<path d="M227.62 319.75v-20.30" class="stroke"/>
<abc type="N" row="40" col="0" x="209.62" y="294.75" width="21.00" height="31"/>
<use x="249.62" y="316.75" xlink:href="#hd"/>
<path d="M253.12 316.75v-19.70" class="stroke"/>
<abc type="N" row="40" col="1" x="243.12" y="291.75" width="13.00" height="31"/>
<abc type="e" row="40" col="1" x="243.12" y="316.75" width="6.00" height="6"/>
<abc type="b" row="40" col="3" x="271.42" y="313.75" width="6.00" height="6"/>
<path class="fill"
	d="M281.02 292.45l26.10 -2.50v3.20l-26.10 2.50"/>
<use x="277.92" y="313.75" xlink:href="#hd"/>
<path d="M281.42 313.75v-20.30" class="stroke"/>
<abc type="N" row="40" col="3" x="271.42" y="288.75" width="13.00" height="31"/>
<use x="303.33" y="310.75" xlink:href="#hd"/>
<path d="M306.83 310.75v-19.70" class="stroke"/>
<abc type="N" row="40" col="4" x="296.83" y="285.75" width="13.00" height="31"/>
<abc type="e" row="40" col="4" x="296.83" y="310.75" width="6.00" height="6"/>
</g>
<g stroke-width="0.70" style="font:16.00px serif">
<text x="407.98" y="556.40" text-anchor="middle">Is this centered?</text>
</g>
<g stroke-width="0.70" style="font:16.00px serif">
<!-- title: Staff break -->
</g>
<g stroke-width="0.70" style="font:20.00px serif">
<text x="408.00" y="606.80" text-anchor="middle">Staff break</text>
</g>
<g stroke-width="0.70" style="font:20.00px serif">
<path d="m67.20 678.80
	h36.50
	M67.20 672.80
	h36.50
	M67.20 666.80
	h36.50
	M67.20 660.80
	h36.50
	M67.20 654.80
	h36.50
	" class="stroke"/>
<path class="stroke" stroke-width="1"
	d="M287.40 678.80v-24.00"/>
<abc type="B" row="56" col="28" x="277.40" y="650.80" width="20.00" height="32"/>
<path class="stroke" stroke-width="1"
	d="M418.80 678.80v-24.00"/>
<abc type="B" row="56" col="43" x="408.80" y="624.80" width="20.00" height="58"/>
<path class="stroke" stroke-width="1"
	d="M553.50 678.80v-24.00"/>
<path class="stroke" stroke-width="1"
	d="M550.50 678.80v-24.00"/>
<abc type="B" row="56" col="50" x="543.50" y="628.80" width="20.00" height="54"/>
<path d="m109.40 678.80
	h444.10
	M109.40 672.80
	h444.10
	M109.40 666.80
	h444.10
	M109.40 660.80
	h444.10
	M109.40 654.80
	h444.10
	" class="stroke"/>
<path class="stroke" stroke-width="1"
	d="M748.80 678.80v-24.00"/>
<path class="stroke" stroke-width="1"
	d="M745.80 678.80v-24.00"/>
<abc type="B" row="58" col="22" x="738.80" y="650.80" width="17.00" height="32"/>
<path d="m618.20 678.80
	h130.60
	M618.20 672.80
	h130.60
	M618.20 666.80
	h130.60
	M618.20 660.80
	h130.60
	M618.20 654.80
	h130.60
	" class="stroke"/>
<defs>
<path id="ucclef" class="fill" d="
	m-51 -264
	v262
	h-13
	v-529
	h13
	v256
	c25 -20 41 -36 63 -109
	14 31 13 51 56 70
	90 34 96 -266 -41 -185
	52 19 27 80 -11 77
	-90 -38 33 -176 139 -69
	72 79 1 241 -134 186
	l-16 39 16 38
	c135 -55 206 107 134 186
	-106 108 -229 -31 -139 -69
	38 -3 63 58 11 77
	137 81 131 -219 41 -185
	-43 19 -45 30 -56 64
	-22 -73 -38 -89 -63 -109
	m-99 -267
	h57
	v529
	h-57
	v-529"/>
<use id="cclef" transform="translate(0,12) scale(0.045)"
	xlink:href="#ucclef"/>
</defs>
<use x="79.20" y="666.80" xlink:href="#cclef"/>
<abc type="c" row="55" col="0" x="65.20" y="650.80" width="28.00" height="31"/>
<defs>
<path id="usharp" class="fill" d="
	m136 -702
	v890
	h32
	v-890
	m128 840
	h32
	v-888
	h-32
	m-232 286
	v116
	l338 -96
	v-116
	m-338 442
	v116
	l338 -98
	v-114"/>
<use id="sh0" transform="translate(-4,5) scale(0.018)"
	xlink:href="#usharp"/>
</defs>
<use x="94.20" y="657.80" xlink:href="#sh0"/>
<use x="94.20" y="678.80" xlink:href="#sh0"/>
<abc type="K" row="55" col="0" x="89.20" y="646.80" width="16.50" height="36"/>
<use x="123.40" y="672.80" xlink:href="#tclef"/>
<abc type="c" row="56" col="0" x="109.40" y="644.80" width="28.00" height="42"/>
<use x="138.40" y="654.80" xlink:href="#sh0"/>
<abc type="K" row="56" col="0" x="133.40" y="646.80" width="16.50" height="36"/>
<defs>
<path id="csig" class="fill" d="
	m6 -5.3
	c0.9 0 2.3 0.7 2.4 2.2
	-1.2 -2 -3.6 0.1 -1.6 1.7
	2 1 3.8 -3.5 -0.8 -4.7
	-2 -0.4 -6.4 1.3 -5.8 7
	0.4 6.4 7.9 6.8 9.1 0.7
	-2.3 5.6 -6.7 5.1 -6.8 0
	-0.5 -4.4 0.7 -7.5 3.5 -6.9"/>
</defs>
<use x="149.40" y="666.80" xlink:href="#csig"/>
<abc type="M" row="56" col="17" x="145.90" y="650.80" width="24.00" height="32"/>
<abc type="b" row="56" col="23" x="165.90" y="681.80" width="6.00" height="6"/>
<path class="fill"
	d="M175.50 660.60l30.30 -2.60v3.20l-30.30 2.60"/>
<use x="172.40" y="681.80" xlink:href="#hd"/>
<path d="M175.90 681.80v-20.30" class="stroke"/>
<abc type="N" row="56" col="23" x="165.90" y="628.80" width="13.00" height="59"/>
<use x="201.90" y="678.80" xlink:href="#hd"/>
<path d="M205.40 678.80v-19.70" class="stroke"/>
<abc type="N" row="56" col="24" x="195.40" y="653.80" width="13.00" height="31"/>
<abc type="e" row="56" col="24" x="195.40" y="678.80" width="6.00" height="6"/>
<abc type="b" row="56" col="26" x="228.30" y="675.80" width="6.00" height="6"/>
<path class="fill"
	d="M238.00 654.60l30.30 -2.60v3.20l-30.30 2.60"/>
<use x="234.80" y="675.80" xlink:href="#hd"/>
<path d="M238.30 675.80v-20.30" class="stroke"/>
<abc type="N" row="56" col="26" x="228.30" y="650.80" width="13.00" height="31"/>
<use x="264.40" y="672.80" xlink:href="#hd"/>
<path d="M267.90 672.80v-19.70" class="stroke"/>
<abc type="N" row="56" col="27" x="257.90" y="647.80" width="13.00" height="31"/>
<abc type="e" row="56" col="27" x="257.90" y="672.80" width="6.00" height="6"/>
<abc type="b" row="56" col="29" x="297.30" y="669.80" width="6.00" height="6"/>
<path class="fill"
	d="M307.00 649.00l30.30 2.60v3.20l-30.30 -2.60"/>
<use x="303.80" y="669.80" xlink:href="#hd"/>
<path d="M307.30 669.80v-19.70" class="stroke"/>
<abc type="N" row="56" col="29" x="297.30" y="644.80" width="13.00" height="31"/>
<use x="333.40" y="672.80" xlink:href="#hd"/>
<path d="M336.90 672.80v-20.30" class="stroke"/>
<abc type="N" row="56" col="30" x="326.90" y="647.80" width="13.00" height="31"/>
<abc type="e" row="56" col="30" x="326.90" y="672.80" width="6.00" height="6"/>
<abc type="b" row="56" col="40" x="359.70" y="675.80" width="6.00" height="6"/>
<path class="fill"
	d="M369.40 655.00l30.30 2.60v3.20l-30.30 -2.60"/>
<use x="366.20" y="675.80" xlink:href="#hd"/>
<path d="M369.70 675.80v-19.70" class="stroke"/>
<abc type="N" row="56" col="40" x="359.70" y="628.80" width="13.00" height="53"/>
<use x="395.80" y="678.80" xlink:href="#hd"/>
<path d="M399.30 678.80v-20.30" class="stroke"/>
<abc type="N" row="56" col="41" x="389.30" y="653.80" width="13.00" height="31"/>
<abc type="e" row="56" col="41" x="389.30" y="678.80" width="6.00" height="6"/>
<abc type="b" row="56" col="44" x="428.70" y="681.80" width="6.00" height="6"/>
<path class="fill"
	d="M438.40 660.60l30.30 -2.60v3.20l-30.30 2.60"/>
<use x="435.20" y="681.80" xlink:href="#hd"/>
<path d="M438.70 681.80v-20.30" class="stroke"/>
<abc type="N" row="56" col="44" x="428.70" y="656.80" width="13.00" height="31"/>
<use x="464.80" y="678.80" xlink:href="#hd"/>
<path d="M468.30 678.80v-19.70" class="stroke"/>
<abc type="N" row="56" col="45" x="458.30" y="653.80" width="13.00" height="31"/>
<abc type="e" row="56" col="45" x="458.30" y="678.80" width="6.00" height="6"/>
<abc type="b" row="56" col="47" x="491.20" y="675.80" width="6.00" height="6"/>
<path class="fill"
	d="M500.80 655.00l30.30 2.60v3.20l-30.30 -2.60"/>
<use x="497.70" y="675.80" xlink:href="#hd"/>
<path d="M501.20 675.80v-19.70" class="stroke"/>
<abc type="N" row="56" col="47" x="491.20" y="650.80" width="13.00" height="31"/>
<use x="527.20" y="678.80" xlink:href="#hd"/>
<path d="M530.70 678.80v-20.30" class="stroke"/>
<abc type="N" row="56" col="48" x="520.70" y="653.80" width="13.00" height="31"/>
<abc type="e" row="56" col="48" x="520.70" y="678.80" width="6.00" height="6"/>
<use x="632.20" y="672.80" xlink:href="#tclef"/>
<abc type="c" row="58" col="0" x="618.20" y="644.80" width="28.00" height="42"/>
<use x="647.20" y="654.80" xlink:href="#sh0"/>
<abc type="K" row="58" col="0" x="642.20" y="646.80" width="16.50" height="36"/>
<use x="665.20" y="684.80" xlink:href="#hl"/>
<use x="665.20" y="684.80" xlink:href="#hd"/>
<path d="M668.70 684.80v-21.00" class="stroke"/>
<abc type="N" row="58" col="18" x="654.70" y="620.80" width="17.00" height="70"/>
<use x="711.60" y="681.80" xlink:href="#hd"/>
<path d="M715.10 681.80v-21.00" class="stroke"/>
<abc type="N" row="58" col="20" x="705.10" y="656.80" width="13.00" height="31"/>
<defs>
<g id="sgno">
    <path class="fill" d="m0 -3
	c1.5 1.7 6.4 -0.3 3 -3.7
	-10.4 -7.8 -8 -10.6 -6.5 -11.9
	4 -1.9 5.9 1.7 4.2 2.6
	-1.3 0.7 -2.9 -1.3 -0.7 -2
	-1.5 -1.7 -6.4 0.3 -3 3.7
	10.4 7.8 8 10.6 6.5 11.9
	-4 1.9 -5.9 -1.7 -4.2 -2.6
	1.3 -0.7 2.9 1.3 0.7 2"/>
    <line x1="-6" y1="-4.2" x2="6.6" y2="-16.8" class="stroke"/>
    <circle cx="-6" cy="-10" r="1.2"/>
    <circle cx="6" cy="-11" r="1.2"/>
</g>
</defs>
<use x="172.40" y="650.80" xlink:href="#sgno"/>
<text style="font:16px serif"
	x="366.20" y="643.80" text-anchor="middle">Al Coda</text>
<defs>
<g id="coda" class="stroke">
	<path d="m0 -2v-20m-10 10h20"/>
	<circle cx="0" cy="-12" r="6" stroke-width="1.7"/>
</g>
</defs>
<use x="418.80" y="650.80" xlink:href="#coda"/>
<use x="553.50" y="650.80" xlink:href="#sgno"/>
<use x="665.20" y="646.80" xlink:href="#coda"/>
</g>
<g stroke-width="0.70" style="font:20.00px serif">
<!-- title: Staff break multi-staves -->
<text x="408.00" y="745.80" text-anchor="middle">Staff break multi-staves</text>
</g>
<g stroke-width="0.70" style="font:20.00px serif">
<path class="stroke" stroke-width="1"
	d="M67.20 875.80v-82.00"/>
<defs>
<path id="brace" class="fill" d="m-2.5 101
	c-4.5 -4.6 -7.5 -12.2 -4.4 -26.8
	3.5 -14.3 3.2 -21.7 -2.1 -24.2
	7.4 2.4 7.3 14.2 3.5 29.5
	-2.7 9.5 -1.5 16.2 3 21.5
	M-2.5 1c-4.5 4.6 -7.5 12.2 -4.4 26.8
	c3.5 14.3 3.2 21.7 -2.1 24.2
	7.4 -2.4 7.3 -14.2 3.5 -29.5
	-2.7 -9.5 -1.5 -16.2 3 -21.5"/>
</defs>
<g transform="translate(67.20,793.80) scale(1,0.82)">
	<use xlink:href="#brace"/>
</g>
<path d="m67.20 817.80
	h36.50
	M67.20 811.80
	h36.50
	M67.20 805.80
	h36.50
	M67.20 799.80
	h36.50
	M67.20 793.80
	h36.50
	" class="stroke"/>
<path d="m67.20 875.80
	h36.50
	M67.20 869.80
	h36.50
	M67.20 863.80
	h36.50
	M67.20 857.80
	h36.50
	M67.20 851.80
	h36.50
	" class="stroke"/>
<path class="stroke" stroke-width="1"
	d="M287.70 817.80v-24.00"/>
<abc type="B" row="72" col="28" x="277.70" y="789.80" width="20.00" height="32"/>
<path class="stroke" stroke-width="1"
	d="M287.70 875.80v-58.00"/>
<abc type="B" row="74" col="23" x="277.70" y="847.80" width="20.00" height="32"/>
<path class="stroke" stroke-width="1"
	d="M419.00 817.80v-24.00"/>
<abc type="B" row="72" col="43" x="409.00" y="763.80" width="20.00" height="58"/>
<path class="stroke" stroke-width="1"
	d="M419.00 875.80v-58.00"/>
<abc type="B" row="74" col="27" x="409.00" y="847.80" width="20.00" height="32"/>
<path class="stroke" stroke-width="1"
	d="M553.60 817.80v-24.00"/>
<path class="stroke" stroke-width="1"
	d="M550.60 817.80v-24.00"/>
<abc type="B" row="72" col="50" x="543.60" y="767.80" width="20.00" height="54"/>
<path class="stroke" stroke-width="1"
	d="M553.60 875.80v-58.00"/>
<path class="stroke" stroke-width="1"
	d="M550.60 875.80v-58.00"/>
<abc type="B" row="74" col="31" x="543.60" y="847.80" width="20.00" height="32"/>
<path class="stroke" stroke-width="1"
	d="M618.30 875.80v-82.00"/>
<g transform="translate(618.30,793.80) scale(1,0.82)">
	<use xlink:href="#brace"/>
</g>
<path d="m109.40 817.80
	h444.20
	M109.40 811.80
	h444.20
	M109.40 805.80
	h444.20
	M109.40 799.80
	h444.20
	M109.40 793.80
	h444.20
	" class="stroke"/>
<path d="m109.40 875.80
	h444.20
	M109.40 869.80
	h444.20
	M109.40 863.80
	h444.20
	M109.40 857.80
	h444.20
	M109.40 851.80
	h444.20
	" class="stroke"/>
<path class="stroke" stroke-width="1"
	d="M748.80 817.80v-24.00"/>
<path class="stroke" stroke-width="1"
	d="M745.80 817.80v-24.00"/>
<abc type="B" row="77" col="22" x="738.80" y="789.80" width="17.00" height="32"/>
<path class="stroke" stroke-width="1"
	d="M748.80 875.80v-58.00"/>
<path class="stroke" stroke-width="1"
	d="M745.80 875.80v-58.00"/>
<abc type="B" row="80" col="23" x="738.80" y="847.80" width="17.00" height="32"/>
<path d="m618.30 817.80
	h130.50
	M618.30 811.80
	h130.50
	M618.30 805.80
	h130.50
	M618.30 799.80
	h130.50
	M618.30 793.80
	h130.50
	" class="stroke"/>
<path d="m618.30 875.80
	h130.50
	M618.30 869.80
	h130.50
	M618.30 863.80
	h130.50
	M618.30 857.80
	h130.50
	M618.30 851.80
	h130.50
	" class="stroke"/>
<use x="79.20" y="805.80" xlink:href="#cclef"/>
<abc type="c" row="68" col="0" x="65.20" y="789.80" width="28.00" height="31"/>
<use x="94.20" y="796.80" xlink:href="#sh0"/>
<use x="94.20" y="817.80" xlink:href="#sh0"/>
<abc type="K" row="68" col="0" x="89.20" y="785.80" width="16.50" height="36"/>
<use x="123.40" y="811.80" xlink:href="#tclef"/>
<abc type="c" row="72" col="0" x="109.40" y="783.80" width="28.00" height="42"/>
<use x="138.40" y="793.80" xlink:href="#sh0"/>
<abc type="K" row="72" col="0" x="133.40" y="785.80" width="16.50" height="36"/>
<use x="149.40" y="805.80" xlink:href="#csig"/>
<abc type="M" row="72" col="17" x="145.90" y="789.80" width="24.00" height="32"/>
<abc type="b" row="72" col="23" x="166.40" y="820.80" width="6.00" height="6"/>
<path class="fill"
	d="M176.00 799.60l30.20 -2.60v3.20l-30.20 2.60"/>
<use x="172.90" y="820.80" xlink:href="#hd"/>
<path d="M176.40 820.80v-20.30" class="stroke"/>
<abc type="N" row="72" col="23" x="166.40" y="769.80" width="13.00" height="57"/>
<use x="202.40" y="817.80" xlink:href="#hd"/>
<path d="M205.90 817.80v-19.70" class="stroke"/>
<abc type="N" row="72" col="24" x="195.90" y="792.80" width="13.00" height="31"/>
<abc type="e" row="72" col="24" x="195.90" y="817.80" width="6.00" height="6"/>
<abc type="b" row="72" col="26" x="228.70" y="814.80" width="6.00" height="6"/>
<path class="fill"
	d="M238.40 793.60l30.20 -2.60v3.20l-30.20 2.60"/>
<use x="235.20" y="814.80" xlink:href="#hd"/>
<path d="M238.70 814.80v-20.30" class="stroke"/>
<abc type="N" row="72" col="26" x="228.70" y="789.80" width="13.00" height="31"/>
<use x="264.80" y="811.80" xlink:href="#hd"/>
<path d="M268.30 811.80v-19.70" class="stroke"/>
<abc type="N" row="72" col="27" x="258.30" y="786.80" width="13.00" height="31"/>
<abc type="e" row="72" col="27" x="258.30" y="811.80" width="6.00" height="6"/>
<abc type="b" row="72" col="29" x="297.70" y="808.80" width="6.00" height="6"/>
<path class="fill"
	d="M307.30 788.00l30.20 2.60v3.20l-30.20 -2.60"/>
<use x="304.20" y="808.80" xlink:href="#hd"/>
<path d="M307.70 808.80v-19.70" class="stroke"/>
<abc type="N" row="72" col="29" x="297.70" y="783.80" width="13.00" height="31"/>
<use x="333.70" y="811.80" xlink:href="#hd"/>
<path d="M337.20 811.80v-20.30" class="stroke"/>
<abc type="N" row="72" col="30" x="327.20" y="786.80" width="13.00" height="31"/>
<abc type="e" row="72" col="30" x="327.20" y="811.80" width="6.00" height="6"/>
<abc type="b" row="72" col="40" x="360.00" y="814.80" width="6.00" height="6"/>
<path class="fill"
	d="M369.70 794.00l30.20 2.60v3.20l-30.20 -2.60"/>
<use x="366.50" y="814.80" xlink:href="#hd"/>
<path d="M370.00 814.80v-19.70" class="stroke"/>
<abc type="N" row="72" col="40" x="360.00" y="767.80" width="13.00" height="53"/>
<use x="396.10" y="817.80" xlink:href="#hd"/>
<path d="M399.60 817.80v-20.30" class="stroke"/>
<abc type="N" row="72" col="41" x="389.60" y="792.80" width="13.00" height="31"/>
<abc type="e" row="72" col="41" x="389.60" y="817.80" width="6.00" height="6"/>
<abc type="b" row="72" col="44" x="428.90" y="820.80" width="6.00" height="6"/>
<path class="fill"
	d="M438.60 799.60l30.20 -2.60v3.20l-30.20 2.60"/>
<use x="435.40" y="820.80" xlink:href="#hd"/>
<path d="M438.90 820.80v-20.30" class="stroke"/>
<abc type="N" row="72" col="44" x="428.90" y="795.80" width="13.00" height="31"/>
<use x="465.00" y="817.80" xlink:href="#hd"/>
<path d="M468.50 817.80v-19.70" class="stroke"/>
<abc type="N" row="72" col="45" x="458.50" y="792.80" width="13.00" height="31"/>
<abc type="e" row="72" col="45" x="458.50" y="817.80" width="6.00" height="6"/>
<abc type="b" row="72" col="47" x="491.30" y="814.80" width="6.00" height="6"/>
<path class="fill"
	d="M501.00 794.00l30.20 2.60v3.20l-30.20 -2.60"/>
<use x="497.80" y="814.80" xlink:href="#hd"/>
<path d="M501.30 814.80v-19.70" class="stroke"/>
<abc type="N" row="72" col="47" x="491.30" y="789.80" width="13.00" height="31"/>
<use x="527.30" y="817.80" xlink:href="#hd"/>
<path d="M530.80 817.80v-20.30" class="stroke"/>
<abc type="N" row="72" col="48" x="520.80" y="792.80" width="13.00" height="31"/>
<abc type="e" row="72" col="48" x="520.80" y="817.80" width="6.00" height="6"/>
<use x="632.30" y="811.80" xlink:href="#tclef"/>
<abc type="c" row="77" col="0" x="618.30" y="783.80" width="28.00" height="42"/>
<use x="647.30" y="793.80" xlink:href="#sh0"/>
<abc type="K" row="77" col="0" x="642.30" y="785.80" width="16.50" height="36"/>
<use x="665.30" y="823.80" xlink:href="#hl"/>
<use x="665.30" y="823.80" xlink:href="#hd"/>
<path d="M668.80 823.80v-21.00" class="stroke"/>
<abc type="N" row="77" col="18" x="654.80" y="759.80" width="17.00" height="70"/>
<use x="711.70" y="820.80" xlink:href="#hd"/>
<path d="M715.20 820.80v-21.00" class="stroke"/>
<abc type="N" row="77" col="20" x="705.20" y="795.80" width="13.00" height="31"/>
<defs>
<path id="ubclef" class="fill" d="m-200 -87
	c124 -35 222 -78 254 -236
	43 -228 -167 -246 -192 -103
	59 -80 157 22 92 78
	-62 47 -115 -22 -106 -88
	21 -141 270 -136 274 52
	-1 175 -106 264 -322 297
	m357 -250
	c0 -36 51 -34 51 0
	0 37 -51 36 -51 0
	m-2 -129
	c0 -36 51 -34 51 0
	0 38 -51 37 -51 0"/>
<use id="bclef" transform="translate(0,18) scale(0.045)"
	xlink:href="#ubclef"/>
</defs>
<use x="79.20" y="857.80" xlink:href="#bclef"/>
<abc type="c" row="70" col="0" x="65.20" y="847.80" width="28.00" height="31"/>
<use x="94.20" y="857.80" xlink:href="#sh0"/>
<abc type="K" row="68" col="0" x="89.20" y="843.80" width="16.50" height="36"/>
<use x="123.40" y="857.80" xlink:href="#bclef"/>
<abc type="c" row="74" col="0" x="109.40" y="847.80" width="28.00" height="31"/>
<use x="138.40" y="857.80" xlink:href="#sh0"/>
<abc type="K" row="74" col="0" x="133.40" y="843.80" width="16.50" height="36"/>
<use x="149.40" y="863.80" xlink:href="#csig"/>
<abc type="M" row="74" col="15" x="145.90" y="847.80" width="24.00" height="32"/>
<use x="172.90" y="863.80" xlink:href="#Hd"/>
<path d="M169.40 863.80v21.00" class="stroke"/>
<abc type="N" row="74" col="20" x="165.90" y="857.80" width="14.00" height="31"/>
<use x="304.20" y="851.80" xlink:href="#Hd"/>
<path d="M300.70 851.80v21.00" class="stroke"/>
<abc type="N" row="74" col="24" x="297.20" y="845.80" width="14.00" height="32"/>
<use x="435.40" y="863.80" xlink:href="#Hd"/>
<path d="M431.90 863.80v21.00" class="stroke"/>
<abc type="N" row="74" col="28" x="428.40" y="857.80" width="14.00" height="31"/>
<use x="632.30" y="857.80" xlink:href="#bclef"/>
<abc type="c" row="80" col="0" x="618.30" y="847.80" width="28.00" height="31"/>
<use x="647.30" y="857.80" xlink:href="#sh0"/>
<abc type="K" row="80" col="0" x="642.30" y="843.80" width="16.50" height="36"/>
<use x="665.30" y="872.80" xlink:href="#hd"/>
<path d="M668.80 872.80v-21.00" class="stroke"/>
<abc type="N" row="80" col="15" x="654.80" y="847.80" width="17.00" height="31"/>
<use x="711.70" y="881.80" xlink:href="#hl"/>
<use x="711.70" y="884.80" xlink:href="#hd"/>
<path d="M715.20 884.80v-21.00" class="stroke"/>
<abc type="N" row="80" col="19" x="705.20" y="859.80" width="13.00" height="31"/>
<use x="172.90" y="791.80" xlink:href="#sgno"/>
<text style="font:16px serif"
	x="366.50" y="782.80" text-anchor="middle">Al Coda</text>
<use x="419.00" y="789.80" xlink:href="#coda"/>
<use x="553.60" y="789.80" xlink:href="#sgno"/>
<use x="665.30" y="785.80" xlink:href="#coda"/>
</g>
</svg>
