<?xml version="1.0" standalone="no"?>
<!DOCTYPE svg PUBLIC "-//W3C//DTD SVG 1.1//EN"
	"http://www.w3.org/Graphics/SVG/1.1/DTD/svg11.dtd">
<svg xmlns="http://www.w3.org/2000/svg" version="1.1"
	xmlns:xlink="http://www.w3.org/1999/xlink"
	color="black"
	width="816.00px" height="1056.00px">
<style type="text/css">
.fill {fill: currentColor}
.stroke {stroke: currentColor; fill: none}
text{white-space: pre}
</style>
<title>try.abc page 2</title>
<!-- Creator: abcm2ps-8.14.11 -->
<!-- CreationDate: Oct  8, 2022 16:54 -->
<!-- CommandLine: -k 128 -v -A -O try_page_.svg try.abc -->
<g stroke-width="0.70" style="font:16.00px serif">
<text x="748.80" y="53.80" text-anchor="end">Voice overlay and chords</text>
<text x="748.80" y="69.80" text-anchor="end">Page 2</text>
</g>
<g stroke-width="0.70" style="font:16.00px serif">
<text x="408.00" y="1034.20" text-anchor="middle">try.abc</text>
</g>
<g stroke-width="0.70" style="font:16.00px serif">
<!-- title: Voice overlay and chords -->
</g>
<g stroke-width="0.70" style="font:20.00px serif">
<text x="408.00" y="113.80" text-anchor="middle">Voice overlay and chords</text>
</g>
<g stroke-width="0.70" style="font:20.00px serif">
<path class="stroke" stroke-width="1"
	d="M274.20 179.80v-24.00"/>
<abc type="B" row="87" col="15" x="264.20" y="151.80" width="20.00" height="32"/>
<path class="stroke" stroke-width="1"
	d="M432.40 179.80v-24.00"/>
<abc type="B" row="87" col="25" x="422.40" y="151.80" width="20.00" height="32"/>
<path class="stroke" stroke-width="1"
	d="M590.60 179.80v-24.00"/>
<abc type="B" row="87" col="42" x="580.60" y="151.80" width="20.00" height="32"/>
<path class="stroke" stroke-width="1"
	d="M748.80 179.80v-24.00"/>
<abc type="B" row="87" col="52" x="738.80" y="151.80" width="20.00" height="32"/>
<path d="m67.20 179.80
	h681.60
	M67.20 173.80
	h681.60
	M67.20 167.80
	h681.60
	M67.20 161.80
	h681.60
	M67.20 155.80
	h681.60
	" class="stroke"/>
<defs>
<path id="utclef" class="fill" d="m-50 -90
	c-72 -41 -72 -158 52 -188
	150 -10 220 188 90 256
	-114 52 -275 0 -293 -136
	-15 -181 93 -229 220 -334
	88 -87 79 -133 62 -210
	-51 33 -94 105 -89 186
	17 267 36 374 49 574
	6 96 -19 134 -77 135
	-80 1 -126 -93 -61 -133
	85 -41 133 101 31 105
	23 17 92 37 90 -92
	-10 -223 -39 -342 -50 -617
	0 -90 0 -162 96 -232
	56 72 63 230 22 289
	-74 106 -257 168 -255 316
	9 153 148 185 252 133
	86 -65 29 -192 -80 -176
	-71 12 -105 67 -59 124"/>
<use id="tclef" transform="translate(0,6) scale(0.045)"
	xlink:href="#utclef"/>
</defs>
<use x="79.20" y="173.80" xlink:href="#tclef"/>
<abc type="c" row="87" col="0" x="65.20" y="143.80" width="28.00" height="46"/>
<defs>
<path id="csig" class="fill" d="
	m6 -5.3
	c0.9 0 2.3 0.7 2.4 2.2
	-1.2 -2 -3.6 0.1 -1.6 1.7
	2 1 3.8 -3.5 -0.8 -4.7
	-2 -0.4 -6.4 1.3 -5.8 7
	0.4 6.4 7.9 6.8 9.1 0.7
	-2.3 5.6 -6.7 5.1 -6.8 0
	-0.5 -4.4 0.7 -7.5 3.5 -6.9"/>
</defs>
<use x="92.70" y="167.80" xlink:href="#csig"/>
<abc type="M" row="87" col="0" x="89.20" y="151.80" width="24.00" height="32"/>
<defs>
<path id="hl" class="stroke" d="m-6 0h12"/>
</defs>
<use x="116.20" y="185.80" xlink:href="#hl"/>
<defs>
<path id="Hd" class="fill" d="m3 -1.6
	c-1 -1.8 -7 1.4 -6 3.2
	1 1.8 7 -1.4 6 -3.2
	m0.5 -0.3
	c2 3.8 -5 7.6 -7 3.8
	-2 -3.8 5 -7.6 7 -3.8"/>
</defs>
<use x="116.20" y="185.80" xlink:href="#Hd"/>
<path d="M119.70 185.80v-31.00" class="stroke"/>
<defs>
<ellipse id="hd" rx="4.1" ry="2.9"
	transform="rotate(-20)" class="fill"/>
</defs>
<use x="116.20" y="173.80" xlink:href="#hd"/>
<abc type="N" row="87" col="0" x="109.20" y="150.80" width="14.00" height="41"/>
<use x="171.40" y="170.80" xlink:href="#hd"/>
<path d="M174.90 170.80v-21.00" class="stroke"/>
<abc type="N" row="87" col="5" x="164.90" y="145.80" width="13.00" height="31"/>
<use x="210.40" y="173.80" xlink:href="#Hd"/>
<path d="M213.90 173.80v-25.00" class="stroke"/>
<use x="210.40" y="167.80" xlink:href="#hd"/>
<circle class="fill" cx="219.10" cy="164.80" r="1.2"/>
<abc type="N" row="87" col="6" x="203.40" y="144.80" width="22.00" height="35"/>
<use x="254.80" y="164.80" xlink:href="#hd"/>
<path d="M251.30 164.80v21.00" class="stroke"/>
<path class="fill"
	d="M251.30 185.80c0.6 -5.6 9.6 -9 5.6 -18.4
	1.6 6 -1.3 11.6 -5.6 12.8
"/>
<abc type="N" row="87" col="13" x="245.80" y="158.80" width="15.50" height="31"/>
<use x="288.00" y="164.80" xlink:href="#hd"/>
<path d="M291.50 164.80v-21.00" class="stroke"/>
<abc type="N" row="87" col="16" x="281.50" y="139.80" width="13.00" height="31"/>
<use x="327.00" y="161.80" xlink:href="#hd"/>
<path d="M330.50 161.80v-21.00" class="stroke"/>
<abc type="N" row="87" col="17" x="320.50" y="136.80" width="13.00" height="31"/>
<use x="366.00" y="158.80" xlink:href="#hd"/>
<path d="M369.50 158.80v-21.00" class="stroke"/>
<abc type="N" row="87" col="18" x="359.50" y="133.80" width="13.00" height="31"/>
<use x="405.10" y="155.80" xlink:href="#hd"/>
<path d="M408.60 155.80v-21.00" class="stroke"/>
<abc type="N" row="87" col="19" x="398.60" y="130.80" width="13.00" height="31"/>
<use x="446.20" y="173.80" xlink:href="#hd"/>
<path d="M449.70 173.80v-21.00" class="stroke"/>
<abc type="N" row="87" col="26" x="439.70" y="148.80" width="13.00" height="31"/>
<use x="485.20" y="170.80" xlink:href="#hd"/>
<path d="M488.70 170.80v-21.00" class="stroke"/>
<abc type="N" row="87" col="27" x="478.70" y="145.80" width="13.00" height="31"/>
<defs>
<path id="ghd" class="fill" d="m2.2 -1.5
	c-1.32 -2.31 -5.94 0.33 -4.62 2.64
	1.32 2.31 5.94 -0.33 4.62 -2.64"/>
</defs>
<use x="512.30" y="176.80" xlink:href="#ghd"/>
<path d="M514.60 176.80v-21.00" class="stroke"/>
<path class="fill"
	d="M514.60 155.80c0.6 3.4 5.6 3.8 3 10
	1.2 -4.4 -1.4 -7 -3 -7
"/>
<use x="512.30" y="170.80" xlink:href="#ghd"/>
<abc type="g" row="87" col="29" x="503.80" y="165.80" width="22.50" height="15"/>
<path class="stroke"
	d="M512.30 181.80c2.20 2.40 8.80 0.60 11.00 -3.00"/>
<use x="524.30" y="173.80" xlink:href="#hd"/>
<path d="M527.80 173.80v-25.00" class="stroke"/>
<use x="524.30" y="167.80" xlink:href="#hd"/>
<abc type="N" row="87" col="34" x="522.30" y="144.80" width="8.50" height="35"/>
<use x="563.30" y="170.80" xlink:href="#hd"/>
<path d="M566.80 170.80v-25.00" class="stroke"/>
<use x="563.30" y="164.80" xlink:href="#hd"/>
<abc type="N" row="87" col="38" x="556.80" y="141.80" width="13.00" height="35"/>
<use x="604.40" y="161.80" xlink:href="#hd"/>
<path d="M607.90 161.80v-21.00" class="stroke"/>
<abc type="N" row="87" col="43" x="597.90" y="136.80" width="13.00" height="31"/>
<use x="643.40" y="158.80" xlink:href="#hd"/>
<path d="M646.90 158.80v-21.00" class="stroke"/>
<abc type="N" row="87" col="44" x="636.90" y="133.80" width="13.00" height="31"/>
<use x="682.50" y="155.80" xlink:href="#hd"/>
<path d="M686.00 155.80v-21.00" class="stroke"/>
<abc type="N" row="87" col="45" x="676.00" y="130.80" width="13.00" height="31"/>
<use x="721.50" y="152.80" xlink:href="#hd"/>
<path d="M725.00 152.80v-19.00" class="stroke"/>
<abc type="N" row="87" col="46" x="715.00" y="129.80" width="13.00" height="29"/>
<use x="288.00" y="170.80" xlink:href="#hd"/>
<path d="M284.50 170.80v21.00" class="stroke"/>
<abc type="N" row="87" col="21" x="281.50" y="164.80" width="13.00" height="31"/>
<use x="327.00" y="167.80" xlink:href="#hd"/>
<path d="M323.50 167.80v21.00" class="stroke"/>
<abc type="N" row="87" col="22" x="320.50" y="161.80" width="13.00" height="31"/>
<use x="366.00" y="164.80" xlink:href="#hd"/>
<path d="M362.50 164.80v21.00" class="stroke"/>
<abc type="N" row="87" col="23" x="359.50" y="158.80" width="13.00" height="31"/>
<use x="405.10" y="161.80" xlink:href="#hd"/>
<path d="M401.60 161.80v21.00" class="stroke"/>
<abc type="N" row="87" col="24" x="398.60" y="155.80" width="13.00" height="31"/>
<use x="604.40" y="167.80" xlink:href="#hd"/>
<path d="M600.90 167.80v21.00" class="stroke"/>
<abc type="N" row="87" col="48" x="597.90" y="161.80" width="13.00" height="31"/>
<use x="643.40" y="164.80" xlink:href="#hd"/>
<path d="M639.90 164.80v21.00" class="stroke"/>
<abc type="N" row="87" col="49" x="636.90" y="158.80" width="13.00" height="31"/>
<use x="682.50" y="161.80" xlink:href="#hd"/>
<path d="M679.00 161.80v21.00" class="stroke"/>
<abc type="N" row="87" col="50" x="676.00" y="155.80" width="13.00" height="31"/>
<use x="721.50" y="158.80" xlink:href="#hd"/>
<path d="M718.00 158.80v21.00" class="stroke"/>
<abc type="N" row="87" col="51" x="715.00" y="152.80" width="13.00" height="31"/>
</g>
<g stroke-width="0.70" style="font:20.00px serif">
<path class="stroke" stroke-width="1"
	d="M254.20 255.80v-24.00"/>
<abc type="B" row="88" col="4" x="244.20" y="227.80" width="20.00" height="32"/>
<path class="stroke" stroke-width="1"
	d="M419.10 255.80v-24.00"/>
<abc type="B" row="88" col="19" x="409.10" y="227.80" width="20.00" height="32"/>
<path class="stroke" stroke-width="1"
	d="M583.90 255.80v-24.00"/>
<abc type="B" row="88" col="26" x="573.90" y="227.80" width="20.00" height="32"/>
<path class="stroke" stroke-width="1"
	d="M748.80 255.80v-24.00"/>
<abc type="B" row="88" col="39" x="738.80" y="227.80" width="17.00" height="32"/>
<path d="m67.20 255.80
	h681.60
	M67.20 249.80
	h681.60
	M67.20 243.80
	h681.60
	M67.20 237.80
	h681.60
	M67.20 231.80
	h681.60
	" class="stroke"/>
<use x="79.20" y="249.80" xlink:href="#tclef"/>
<abc type="c" row="88" col="0" x="65.20" y="219.80" width="28.00" height="46"/>
<use x="103.70" y="249.80" xlink:href="#hd"/>
<path d="M107.20 249.80v-21.00" class="stroke"/>
<abc type="N" row="88" col="0" x="89.20" y="224.80" width="21.00" height="31"/>
<use x="144.40" y="246.80" xlink:href="#hd"/>
<path d="M147.90 246.80v-21.00" class="stroke"/>
<abc type="N" row="88" col="1" x="137.90" y="221.80" width="13.00" height="31"/>
<use x="185.00" y="243.80" xlink:href="#hd"/>
<path d="M188.50 243.80v-21.00" class="stroke"/>
<abc type="N" row="88" col="2" x="178.50" y="218.80" width="13.00" height="31"/>
<use x="225.70" y="240.80" xlink:href="#hd"/>
<path d="M222.20 240.80v21.00" class="stroke"/>
<abc type="N" row="88" col="3" x="216.70" y="234.80" width="15.50" height="31"/>
<use x="268.60" y="234.80" xlink:href="#hd"/>
<path d="M272.10 234.80v-21.00" class="stroke"/>
<abc type="N" row="88" col="5" x="262.10" y="209.80" width="13.00" height="31"/>
<use x="309.20" y="231.80" xlink:href="#hd"/>
<path d="M312.70 231.80v-21.00" class="stroke"/>
<abc type="N" row="88" col="6" x="302.70" y="206.80" width="13.00" height="31"/>
<use x="349.90" y="228.80" xlink:href="#hd"/>
<path d="M353.40 228.80v-19.00" class="stroke"/>
<abc type="N" row="88" col="7" x="343.40" y="205.80" width="13.00" height="29"/>
<use x="390.60" y="225.80" xlink:href="#hl"/>
<use x="390.60" y="225.80" xlink:href="#hd"/>
<path d="M394.10 225.80v-19.00" class="stroke"/>
<abc type="N" row="88" col="8" x="384.10" y="202.80" width="13.00" height="29"/>
<use x="433.40" y="249.80" xlink:href="#hd"/>
<path d="M436.90 249.80v-21.00" class="stroke"/>
<abc type="N" row="88" col="20" x="426.90" y="224.80" width="13.00" height="31"/>
<use x="474.10" y="246.80" xlink:href="#hd"/>
<path d="M477.60 246.80v-21.00" class="stroke"/>
<abc type="N" row="88" col="21" x="467.60" y="221.80" width="13.00" height="31"/>
<use x="514.80" y="243.80" xlink:href="#hd"/>
<path d="M518.30 243.80v-21.00" class="stroke"/>
<abc type="N" row="88" col="24" x="508.30" y="218.80" width="13.00" height="31"/>
<use x="555.50" y="240.80" xlink:href="#hd"/>
<path d="M559.00 240.80v-21.00" class="stroke"/>
<abc type="N" row="88" col="25" x="549.00" y="215.80" width="13.00" height="31"/>
<use x="598.30" y="237.80" xlink:href="#hd"/>
<path d="M601.80 237.80v-21.00" class="stroke"/>
<abc type="N" row="88" col="27" x="591.80" y="212.80" width="13.00" height="31"/>
<use x="639.00" y="234.80" xlink:href="#hd"/>
<path d="M642.50 234.80v-21.00" class="stroke"/>
<abc type="N" row="88" col="28" x="632.50" y="209.80" width="13.00" height="31"/>
<use x="679.70" y="240.80" xlink:href="#hd"/>
<path d="M683.20 240.80v-21.00" class="stroke"/>
<abc type="N" row="88" col="37" x="673.20" y="215.80" width="13.00" height="31"/>
<use x="720.30" y="237.80" xlink:href="#hd"/>
<path d="M723.80 237.80v-21.00" class="stroke"/>
<abc type="N" row="88" col="38" x="713.80" y="212.80" width="13.00" height="31"/>
<use x="271.60" y="252.80" xlink:href="#hd"/>
<path d="M275.10 252.80v-21.00" class="stroke"/>
<abc type="N" row="88" col="10" x="262.10" y="227.80" width="20.00" height="31"/>
<use x="312.20" y="249.80" xlink:href="#hd"/>
<path d="M315.70 249.80v-21.00" class="stroke"/>
<abc type="N" row="88" col="11" x="302.70" y="224.80" width="20.00" height="31"/>
<use x="352.90" y="246.80" xlink:href="#hd"/>
<path d="M356.40 246.80v-21.00" class="stroke"/>
<abc type="N" row="88" col="12" x="343.40" y="221.80" width="20.00" height="31"/>
<use x="393.60" y="243.80" xlink:href="#hd"/>
<path d="M397.10 243.80v-21.00" class="stroke"/>
<abc type="N" row="88" col="13" x="384.10" y="218.80" width="20.00" height="31"/>
<use x="514.80" y="252.80" xlink:href="#hd"/>
<path d="M511.30 252.80v21.00" class="stroke"/>
<abc type="N" row="88" col="30" x="505.80" y="246.80" width="15.50" height="31"/>
<use x="555.50" y="249.80" xlink:href="#hd"/>
<path d="M552.00 249.80v21.00" class="stroke"/>
<abc type="N" row="88" col="31" x="549.00" y="243.80" width="13.00" height="31"/>
<use x="598.30" y="246.80" xlink:href="#hd"/>
<path d="M594.80 246.80v21.00" class="stroke"/>
<abc type="N" row="88" col="33" x="591.80" y="240.80" width="13.00" height="31"/>
<use x="639.00" y="243.80" xlink:href="#hd"/>
<path d="M635.50 243.80v21.00" class="stroke"/>
<abc type="N" row="88" col="34" x="632.50" y="237.80" width="13.00" height="31"/>
<use x="268.60" y="261.80" xlink:href="#hl"/>
<use x="268.60" y="261.80" xlink:href="#hd"/>
<path d="M265.10 261.80v19.00" class="stroke"/>
<abc type="N" row="88" col="15" x="262.10" y="255.80" width="13.00" height="29"/>
<use x="309.20" y="258.80" xlink:href="#hd"/>
<path d="M305.70 258.80v19.00" class="stroke"/>
<abc type="N" row="88" col="16" x="302.70" y="252.80" width="13.00" height="29"/>
<use x="349.90" y="255.80" xlink:href="#hd"/>
<path d="M346.40 255.80v21.00" class="stroke"/>
<abc type="N" row="88" col="17" x="343.40" y="249.80" width="13.00" height="31"/>
<use x="390.60" y="252.80" xlink:href="#hd"/>
<path d="M387.10 252.80v21.00" class="stroke"/>
<abc type="N" row="88" col="18" x="384.10" y="246.80" width="13.00" height="31"/>
</g>
<g stroke-width="0.70" style="font:20.00px serif">
<!-- title: Annotations and guitar chords -->
<text x="408.00" y="328.80" text-anchor="middle">Annotations and guitar chords</text>
</g>
<g stroke-width="0.70" style="font:20.00px serif">
<path class="stroke" stroke-width="1"
	d="M325.10 400.40v-24.00"/>
<abc type="B" row="96" col="60" x="315.10" y="372.40" width="20.00" height="32"/>
<path class="stroke" stroke-width="1"
	d="M505.20 400.40v-24.00"/>
<path class="stroke" stroke-width="1"
	d="M502.20 400.40v-24.00"/>
<abc type="B" row="97" col="35" x="495.20" y="372.40" width="17.00" height="32"/>
<path d="m67.20 400.40
	h438.00
	M67.20 394.40
	h438.00
	M67.20 388.40
	h438.00
	M67.20 382.40
	h438.00
	M67.20 376.40
	h438.00
	" class="stroke"/>
<path class="fill"
	d="M444.00 379.40c7.15 -4.35 39.04 -4.93 46.19 -0.84
	v-0.25c-8.53 -5.85 -37.66 -5.27 -46.19 1.09"/>
</g>
<g stroke-width="0.70" style="font:12.00px sans">
<text x="107.70" y="354.00">annotation</text>
<text x="107.70" y="367.00">gchord in box</text>
<rect class="stroke"
	x="105.70" y="355.40" width="76.50" height="15.00"/>
<text x="158.60" y="416.00">below</text>
<text x="196.80" y="389.00">left</text>
<text x="277.40" y="383.00">right</text>
<text x="359.20" y="421.00">anywhere</text>
<text x="379.80" y="383.00">(</text>
<text x="396.20" y="383.00">)</text>
<use x="79.20" y="394.40" xlink:href="#tclef"/>
<abc type="c" row="96" col="28" x="65.20" y="364.40" width="28.00" height="46"/>
<use x="92.70" y="388.40" xlink:href="#csig"/>
<abc type="M" row="96" col="28" x="89.20" y="372.40" width="24.00" height="32"/>
<abc type="b" row="96" col="28" x="109.20" y="406.40" width="6.00" height="6"/>
<path class="fill"
	d="M118.90 381.20l77.10 -6.00v3.20l-77.10 6.00"/>
<use x="115.70" y="406.40" xlink:href="#hl"/>
<use x="115.70" y="406.40" xlink:href="#hd"/>
<path d="M119.20 406.40v-24.30" class="stroke"/>
<abc type="N" row="96" col="28" x="109.20" y="377.40" width="13.00" height="35"/>
<use x="141.20" y="403.40" xlink:href="#hd"/>
<path d="M144.70 403.40v-23.20" class="stroke"/>
<abc type="N" row="96" col="29" x="134.70" y="375.40" width="13.00" height="34"/>
<use x="166.60" y="400.40" xlink:href="#hd"/>
<path d="M170.10 400.40v-22.20" class="stroke"/>
<abc type="N" row="96" col="38" x="160.10" y="373.40" width="13.00" height="33"/>
<use x="192.10" y="394.40" xlink:href="#hd"/>
<path d="M195.60 394.40v-18.20" class="stroke"/>
<abc type="N" row="96" col="39" x="185.60" y="371.40" width="13.00" height="29"/>
<abc type="e" row="96" col="39" x="185.60" y="394.40" width="6.00" height="6"/>
<abc type="b" row="96" col="48" x="196.30" y="401.40" width="6.00" height="6"/>
<path class="fill"
	d="M216.60 403.30l85.60 0.00v-3.20l-85.60 -0.00"/>
<use x="220.40" y="385.40" xlink:href="#hd"/>
<path d="M216.90 385.40v17.00" class="stroke"/>
<abc type="N" row="96" col="48" x="196.30" y="379.40" width="30.60" height="28"/>
<use x="245.90" y="382.40" xlink:href="#hd"/>
<path d="M242.40 382.40v20.00" class="stroke"/>
<abc type="N" row="96" col="49" x="239.40" y="376.40" width="13.00" height="31"/>
<use x="271.40" y="379.40" xlink:href="#hd"/>
<path d="M267.90 379.40v23.00" class="stroke"/>
<abc type="N" row="96" col="58" x="264.90" y="373.40" width="37.90" height="34"/>
<use x="305.30" y="385.40" xlink:href="#hd"/>
<path d="M301.80 385.40v17.00" class="stroke"/>
<abc type="N" row="96" col="59" x="298.80" y="379.40" width="13.00" height="28"/>
<abc type="e" row="96" col="59" x="298.80" y="401.40" width="6.00" height="6"/>
<abc type="b" row="97" col="17" x="332.70" y="394.40" width="6.00" height="6"/>
<path class="fill"
	d="M335.40 395.20l77.10 7.30v-3.20l-77.10 -7.30"/>
<use x="339.20" y="373.40" xlink:href="#hd"/>
<path d="M335.70 373.40v20.90" class="stroke"/>
<abc type="N" row="97" col="17" x="332.70" y="367.40" width="13.00" height="33"/>
<use x="364.70" y="376.40" xlink:href="#hd"/>
<path d="M361.20 376.40v20.30" class="stroke"/>
<abc type="N" row="97" col="18" x="358.20" y="370.40" width="13.00" height="32"/>
<use x="390.20" y="379.40" xlink:href="#hd"/>
<path d="M386.70 379.40v19.70" class="stroke"/>
<abc type="N" row="97" col="27" x="379.30" y="373.40" width="21.80" height="31"/>
<use x="415.70" y="382.40" xlink:href="#hd"/>
<path d="M412.20 382.40v19.10" class="stroke"/>
<abc type="N" row="97" col="28" x="409.20" y="376.40" width="13.00" height="30"/>
<abc type="e" row="97" col="28" x="409.20" y="400.40" width="6.00" height="6"/>
<use x="444.00" y="385.40" xlink:href="#Hd"/>
<path d="M440.50 385.40v21.00" class="stroke"/>
<abc type="N" row="97" col="31" x="437.00" y="374.40" width="14.00" height="36"/>
</g>
<g stroke-width="0.70" style="font:12.00px sans">
<!-- title: Grace notes -->
</g>
<g stroke-width="0.70" style="font:20.00px serif">
<text x="408.00" y="467.40" text-anchor="middle">Grace notes</text>
</g>
<g stroke-width="0.70" style="font:bold 13.00px serif">
<text x="105.29" y="504.30" text-anchor="middle">voice name</text>
<text x="105.29" y="522.30" text-anchor="middle">on</text>
<text x="105.29" y="540.30" text-anchor="middle">three lines</text>
<path class="stroke" stroke-width="1"
	d="M458.09 530.40v-24.00"/>
<abc type="B" row="106" col="20" x="448.09" y="502.40" width="20.00" height="32"/>
<path class="stroke" stroke-width="1"
	d="M748.79 530.40v-24.00"/>
<abc type="B" row="106" col="47" x="738.79" y="502.40" width="20.00" height="32"/>
<path d="m143.39 530.40
	h605.40
	M143.39 524.40
	h605.40
	M143.39 518.40
	h605.40
	M143.39 512.40
	h605.40
	M143.39 506.40
	h605.40
	" class="stroke"/>
<use x="155.39" y="524.40" xlink:href="#tclef"/>
<abc type="c" row="106" col="1" x="141.39" y="494.40" width="28.00" height="46"/>
<use x="168.89" y="518.40" xlink:href="#csig"/>
<abc type="M" row="106" col="1" x="165.39" y="502.40" width="24.00" height="32"/>
<use x="193.89" y="518.40" xlink:href="#ghd"/>
<path d="M196.19 518.40v-15.00" class="stroke"/>
<abc type="g" row="106" col="1" x="185.39" y="516.40" width="21.50" height="6"/>
<use x="204.89" y="521.40" xlink:href="#hd"/>
<path d="M208.39 521.40v-21.00" class="stroke"/>
<abc type="N" row="106" col="4" x="202.89" y="496.40" width="8.50" height="31"/>
<use x="262.29" y="518.40" xlink:href="#ghd"/>
<path d="M264.59 518.40v-15.00" class="stroke"/>
<path class="fill"
	d="M264.59 503.40c0.6 3.4 5.6 3.8 3 10
	1.2 -4.4 -1.4 -7 -3 -7
"/>
<abc type="g" row="106" col="6" x="253.79" y="516.40" width="21.50" height="6"/>
<use x="273.29" y="521.40" xlink:href="#hd"/>
<path d="M276.79 521.40v-21.00" class="stroke"/>
<abc type="N" row="106" col="8" x="271.29" y="496.40" width="8.50" height="31"/>
<use x="330.79" y="518.40" xlink:href="#ghd"/>
<path d="M333.09 518.40v-16.20" class="stroke"/>
<path class="fill"
	d="M333.09 502.20c1 3.2 5.6 2.8 3.2 8
	1.4 -4.8 -2.4 -5.4 -3.2 -5.2
M333.09 505.70c1 3.2 5.6 2.8 3.2 8
	1.4 -4.8 -2.4 -5.4 -3.2 -5.2
"/>
<abc type="g" row="106" col="10" x="322.29" y="516.40" width="21.50" height="6"/>
<use x="341.79" y="521.40" xlink:href="#hd"/>
<path d="M345.29 521.40v-21.00" class="stroke"/>
<abc type="N" row="106" col="13" x="339.79" y="496.40" width="8.50" height="31"/>
<use x="399.19" y="518.40" xlink:href="#ghd"/>
<path d="M401.49 518.40v-17.40" class="stroke"/>
<path class="fill"
	d="M401.49 501.00c1 3.2 5.6 2.8 3.2 8
	1.4 -4.8 -2.4 -5.4 -3.2 -5.2
M401.49 504.50c1 3.2 5.6 2.8 3.2 8
	1.4 -4.8 -2.4 -5.4 -3.2 -5.2
M401.49 508.00c1 3.2 5.6 2.8 3.2 8
	1.4 -4.8 -2.4 -5.4 -3.2 -5.2
"/>
<abc type="g" row="106" col="15" x="390.69" y="516.40" width="21.50" height="6"/>
<use x="410.19" y="521.40" xlink:href="#hd"/>
<path d="M413.69 521.40v-21.00" class="stroke"/>
<abc type="N" row="106" col="19" x="408.19" y="496.40" width="8.50" height="31"/>
<use x="472.59" y="515.40" xlink:href="#ghd"/>
<path d="M474.89 515.40v-15.00" class="stroke"/>
<abc type="g" row="106" col="24" x="464.09" y="496.40" width="33.50" height="26"/>
<use x="484.59" y="518.40" xlink:href="#ghd"/>
<path d="M486.89 518.40v-15.00" class="stroke"/>
<abc type="g" row="106" col="24" x="464.09" y="496.40" width="33.50" height="26"/>
<use x="495.59" y="521.40" xlink:href="#hd"/>
<path d="M499.09 521.40v-21.00" class="stroke"/>
<abc type="N" row="106" col="27" x="493.59" y="496.40" width="8.50" height="31"/>
<abc type="b" row="106" col="29" x="542.99" y="513.40" width="6.00" height="6"/>
<path class="fill"
	d="M546.99 500.30l8.60 3.20v1.80l-8.60 -3.20"/>
<use x="544.99" y="515.40" xlink:href="#ghd"/>
<path d="M547.29 515.40v-14.00" class="stroke"/>
<abc type="g" row="106" col="31" x="536.49" y="496.40" width="29.50" height="26"/>
<use x="552.99" y="518.40" xlink:href="#ghd"/>
<path d="M555.29 518.40v-14.00" class="stroke"/>
<abc type="g" row="106" col="31" x="536.49" y="496.40" width="29.50" height="26"/>
<abc type="e" row="106" col="31" x="550.99" y="516.40" width="6.00" height="6"/>
<use x="563.99" y="521.40" xlink:href="#hd"/>
<path d="M567.49 521.40v-21.00" class="stroke"/>
<abc type="N" row="106" col="34" x="561.99" y="496.40" width="8.50" height="31"/>
<abc type="b" row="106" col="36" x="611.49" y="513.40" width="6.00" height="6"/>
<path class="fill"
	d="M615.49 499.10l8.60 3.20v1.80l-8.60 -3.20"/>
<path class="fill"
	d="M615.79 502.70l8.00 3.00v1.80l-8.00 -3.00"/>
<use x="613.49" y="515.40" xlink:href="#ghd"/>
<path d="M615.79 515.40v-15.20" class="stroke"/>
<abc type="g" row="106" col="37" x="604.99" y="495.40" width="29.50" height="27"/>
<use x="621.49" y="518.40" xlink:href="#ghd"/>
<path d="M623.79 518.40v-15.20" class="stroke"/>
<abc type="g" row="106" col="37" x="604.99" y="495.40" width="29.50" height="27"/>
<abc type="e" row="106" col="37" x="619.49" y="516.40" width="6.00" height="6"/>
<use x="632.49" y="521.40" xlink:href="#hd"/>
<path d="M635.99 521.40v-21.00" class="stroke"/>
<abc type="N" row="106" col="39" x="630.49" y="496.40" width="8.50" height="31"/>
<abc type="b" row="106" col="41" x="679.89" y="513.40" width="6.00" height="6"/>
<path class="fill"
	d="M683.89 496.30l8.60 3.20v1.80l-8.60 -3.20"/>
<path class="fill"
	d="M684.19 499.90l8.00 3.00v1.80l-8.00 -3.00"/>
<path class="fill"
	d="M684.19 503.40l8.00 3.00v1.80l-8.00 -3.00"/>
<use x="681.89" y="515.40" xlink:href="#ghd"/>
<path d="M684.19 515.40v-18.00" class="stroke"/>
<abc type="g" row="106" col="43" x="673.39" y="494.40" width="29.50" height="28"/>
<use x="689.89" y="518.40" xlink:href="#ghd"/>
<path d="M692.19 518.40v-18.00" class="stroke"/>
<abc type="g" row="106" col="43" x="673.39" y="494.40" width="29.50" height="28"/>
<abc type="e" row="106" col="43" x="687.89" y="516.40" width="6.00" height="6"/>
<use x="700.89" y="521.40" xlink:href="#hd"/>
<path d="M704.39 521.40v-21.00" class="stroke"/>
<abc type="N" row="106" col="46" x="698.89" y="496.40" width="8.50" height="31"/>
</g>
<g stroke-width="0.70" style="font:bold 13.00px serif">
<path class="stroke" stroke-width="1"
	d="M248.10 601.40v-24.00"/>
<abc type="B" row="107" col="19" x="238.10" y="573.40" width="20.00" height="32"/>
<path class="stroke" stroke-width="1"
	d="M509.70 601.40v-24.00"/>
<abc type="B" row="108" col="31" x="499.70" y="573.40" width="20.00" height="32"/>
<path class="stroke" stroke-width="1"
	d="M748.80 601.40v-24.00"/>
<path class="stroke" stroke-width="1"
	d="M745.80 601.40v-24.00"/>
<abc type="B" row="109" col="31" x="738.80" y="573.40" width="17.00" height="32"/>
<path d="m67.20 601.40
	h681.60
	M67.20 595.40
	h681.60
	M67.20 589.40
	h681.60
	M67.20 583.40
	h681.60
	M67.20 577.40
	h681.60
	" class="stroke"/>
<path class="fill"
	d="M261.50 595.50c1.98 3.44 10.62 2.00 12.60 -2.10
	v0.21c-2.36 5.89 -10.24 7.33 -12.60 1.89"/>
<path class="fill"
	d="M322.90 596.40c2.15 4.34 11.50 6.73 13.65 3.50
	v0.21c-2.56 5.02 -11.09 2.62 -13.65 -3.71"/>
<path class="fill"
	d="M376.20 598.50c1.98 3.44 10.62 2.00 12.60 -2.10
	v0.21c-2.36 5.89 -10.24 7.33 -12.60 1.89"/>
<path class="fill"
	d="M445.60 596.40c2.15 4.34 11.50 6.73 13.65 3.50
	v0.21c-2.56 5.02 -11.09 2.62 -13.65 -3.71"/>
<path class="fill"
	d="M531.50 578.50c10.11 -5.35 60.19 -9.34 70.31 -5.60
	v-0.27c-12.22 -5.47 -58.08 -1.48 -70.31 5.87"/>
<path class="fill"
	d="M623.70 598.80c3.24 3.22 17.36 0.34 20.60 -4.20
	v0.22c-3.86 6.32 -16.74 9.20 -20.60 3.98"/>
<path class="fill"
	d="M649.70 598.80c3.24 3.22 17.36 0.34 20.60 -4.20
	v0.22c-3.86 6.32 -16.74 9.20 -20.60 3.98"/>
<use x="79.20" y="595.40" xlink:href="#tclef"/>
<abc type="c" row="107" col="14" x="65.20" y="565.40" width="28.00" height="46"/>
<abc type="b" row="107" col="1" x="95.70" y="569.40" width="6.00" height="6"/>
<path class="fill"
	d="M99.70 556.30l16.60 6.20v1.80l-16.60 -6.20"/>
<defs>
<path id="ghl" class="stroke" d="m-3.5 0h7"/>
</defs>
<use x="97.70" y="571.40" xlink:href="#ghl"/>
<use x="97.70" y="571.40" xlink:href="#ghd"/>
<path d="M100.00 571.40v-14.00" class="stroke"/>
<abc type="g" row="107" col="14" x="89.20" y="552.40" width="73.50" height="41"/>
<use x="105.70" y="574.40" xlink:href="#ghd"/>
<path d="M108.00 574.40v-14.00" class="stroke"/>
<abc type="g" row="107" col="14" x="89.20" y="552.40" width="73.50" height="41"/>
<use x="113.70" y="577.40" xlink:href="#ghd"/>
<path d="M116.00 577.40v-14.00" class="stroke"/>
<abc type="g" row="107" col="14" x="89.20" y="552.40" width="73.50" height="41"/>
<abc type="e" row="107" col="5" x="111.70" y="575.40" width="6.00" height="6"/>
<abc type="b" row="107" col="8" x="121.70" y="578.40" width="6.00" height="6"/>
<path class="fill"
	d="M125.70 565.30l16.60 6.20v1.80l-16.60 -6.20"/>
<use x="123.70" y="580.40" xlink:href="#ghd"/>
<path d="M126.00 580.40v-14.00" class="stroke"/>
<abc type="g" row="107" col="14" x="89.20" y="552.40" width="73.50" height="41"/>
<use x="131.70" y="583.40" xlink:href="#ghd"/>
<path d="M134.00 583.40v-14.00" class="stroke"/>
<abc type="g" row="107" col="14" x="89.20" y="552.40" width="73.50" height="41"/>
<use x="139.70" y="586.40" xlink:href="#ghd"/>
<path d="M142.00 586.40v-14.00" class="stroke"/>
<abc type="g" row="107" col="14" x="89.20" y="552.40" width="73.50" height="41"/>
<abc type="e" row="107" col="12" x="137.70" y="584.40" width="6.00" height="6"/>
<use x="149.70" y="589.40" xlink:href="#ghd"/>
<path d="M152.00 589.40v-15.00" class="stroke"/>
<abc type="g" row="107" col="14" x="89.20" y="552.40" width="73.50" height="41"/>
<defs>
<path id="HD" class="fill" d="m-2.7 -1.4
	c1.5 -2.8 6.9 0 5.3 2.7
	-1.5 2.8 -6.9 0 -5.3 -2.7
	m8.3 1.4
	c0 -1.5 -2.2 -3 -5.6 -3
	-3.4 0 -5.6 1.5 -5.6 3
	0 1.5 2.2 3 5.6 3
	3.4 0 5.6 -1.5 5.6 -3"/>
</defs>
<use x="163.20" y="592.40" xlink:href="#HD"/>
<abc type="N" row="107" col="17" x="158.70" y="586.40" width="11.50" height="12"/>
<abc type="b" row="108" col="3" x="260.60" y="595.40" width="6.00" height="6"/>
<path class="fill"
	d="M264.60 576.30l8.60 -3.20v1.80l-8.60 3.20"/>
<path class="fill"
	d="M264.90 579.70l8.00 -3.00v1.80l-8.00 3.00"/>
<use x="262.60" y="592.40" xlink:href="#ghd"/>
<path d="M264.90 592.40v-15.20" class="stroke"/>
<abc type="g" row="108" col="4" x="254.10" y="569.40" width="30.50" height="27"/>
<use x="270.60" y="589.40" xlink:href="#ghd"/>
<path d="M272.90 589.40v-15.20" class="stroke"/>
<abc type="g" row="108" col="4" x="254.10" y="569.40" width="30.50" height="27"/>
<abc type="e" row="108" col="4" x="268.60" y="587.40" width="6.00" height="6"/>
<use x="282.60" y="586.40" xlink:href="#hd"/>
<path d="M279.10 586.40v21.00" class="stroke"/>
<abc type="N" row="108" col="7" x="280.60" y="580.40" width="8.50" height="31"/>
<abc type="b" row="108" col="10" x="322.00" y="596.40" width="6.00" height="6"/>
<path class="fill"
	d="M326.00 576.30l8.60 -3.20v1.80l-8.60 3.20"/>
<path class="fill"
	d="M326.30 579.70l8.00 -3.00v1.80l-8.00 3.00"/>
<use x="324.00" y="592.40" xlink:href="#ghd"/>
<path d="M326.30 592.40v-15.20" class="stroke"/>
<abc type="g" row="108" col="11" x="315.50" y="569.40" width="30.50" height="27"/>
<use x="332.00" y="589.40" xlink:href="#ghd"/>
<path d="M334.30 589.40v-15.20" class="stroke"/>
<abc type="g" row="108" col="11" x="315.50" y="569.40" width="30.50" height="27"/>
<abc type="e" row="108" col="11" x="330.00" y="597.40" width="6.00" height="6"/>
<use x="344.00" y="586.40" xlink:href="#hd"/>
<path d="M340.50 586.40v21.00" class="stroke"/>
<abc type="N" row="108" col="13" x="342.00" y="580.40" width="8.50" height="31"/>
<abc type="b" row="108" col="17" x="375.40" y="597.40" width="6.00" height="6"/>
<path class="fill"
	d="M379.40 579.30l16.60 -6.20v1.80l-16.60 6.20"/>
<path class="fill"
	d="M379.70 582.70l16.00 -6.00v1.80l-16.00 6.00"/>
<use x="377.40" y="595.40" xlink:href="#ghd"/>
<path d="M379.70 595.40v-15.20" class="stroke"/>
<abc type="g" row="108" col="20" x="368.90" y="569.40" width="38.50" height="30"/>
<use x="385.40" y="592.40" xlink:href="#ghd"/>
<path d="M387.70 592.40v-15.20" class="stroke"/>
<abc type="g" row="108" col="20" x="368.90" y="569.40" width="38.50" height="30"/>
<use x="393.40" y="589.40" xlink:href="#ghd"/>
<path d="M395.70 589.40v-15.20" class="stroke"/>
<abc type="g" row="108" col="20" x="368.90" y="569.40" width="38.50" height="30"/>
<abc type="e" row="108" col="20" x="391.40" y="587.40" width="6.00" height="6"/>
<use x="405.40" y="586.40" xlink:href="#hd"/>
<path d="M401.90 586.40v21.00" class="stroke"/>
<abc type="N" row="108" col="22" x="403.40" y="580.40" width="8.50" height="31"/>
<abc type="b" row="108" col="24" x="436.80" y="593.40" width="6.00" height="6"/>
<path class="fill"
	d="M440.80 579.30l16.60 -6.20v1.80l-16.60 6.20"/>
<path class="fill"
	d="M441.10 582.70l16.00 -6.00v1.80l-16.00 6.00"/>
<use x="438.80" y="595.40" xlink:href="#ghd"/>
<path d="M441.10 595.40v-15.20" class="stroke"/>
<abc type="g" row="108" col="27" x="430.30" y="569.40" width="38.50" height="30"/>
<use x="446.80" y="592.40" xlink:href="#ghd"/>
<path d="M449.10 592.40v-15.20" class="stroke"/>
<abc type="g" row="108" col="27" x="430.30" y="569.40" width="38.50" height="30"/>
<use x="454.80" y="589.40" xlink:href="#ghd"/>
<path d="M457.10 589.40v-15.20" class="stroke"/>
<abc type="g" row="108" col="27" x="430.30" y="569.40" width="38.50" height="30"/>
<abc type="e" row="108" col="27" x="452.80" y="597.40" width="6.00" height="6"/>
<use x="466.80" y="586.40" xlink:href="#hd"/>
<path d="M463.30 586.40v21.00" class="stroke"/>
<abc type="N" row="108" col="29" x="464.80" y="580.40" width="8.50" height="31"/>
<use x="531.50" y="586.40" xlink:href="#Hd"/>
<path d="M528.00 586.40v21.00" class="stroke"/>
<abc type="N" row="109" col="2" x="524.50" y="573.40" width="14.00" height="38"/>
<abc type="b" row="109" col="5" x="588.30" y="587.40" width="6.00" height="6"/>
<path class="fill"
	d="M592.30 573.10l16.60 6.20v1.80l-16.60 -6.20"/>
<path class="fill"
	d="M592.60 576.70l16.00 6.00v1.80l-16.00 -6.00"/>
<use x="590.30" y="589.40" xlink:href="#ghd"/>
<path d="M592.60 589.40v-15.20" class="stroke"/>
<abc type="g" row="109" col="8" x="581.80" y="587.40" width="38.50" height="12"/>
<use x="598.30" y="592.40" xlink:href="#ghd"/>
<path d="M600.60 592.40v-15.20" class="stroke"/>
<abc type="g" row="109" col="8" x="581.80" y="587.40" width="38.50" height="12"/>
<use x="606.30" y="595.40" xlink:href="#ghd"/>
<path d="M608.60 595.40v-15.20" class="stroke"/>
<abc type="g" row="109" col="8" x="581.80" y="587.40" width="38.50" height="12"/>
<abc type="e" row="109" col="8" x="604.30" y="593.40" width="6.00" height="6"/>
<abc type="b" row="109" col="12" x="622.80" y="597.40" width="6.00" height="6"/>
<path class="fill"
	d="M626.80 576.50l16.60 -6.20v1.80l-16.60 6.20"/>
<path class="fill"
	d="M627.10 579.90l16.00 -6.00v1.80l-16.00 6.00"/>
<path class="fill"
	d="M627.10 583.40l16.00 -6.00v1.80l-16.00 6.00"/>
<use x="624.80" y="595.40" xlink:href="#ghd"/>
<path d="M627.10 595.40v-18.00" class="stroke"/>
<abc type="g" row="109" col="25" x="616.30" y="568.40" width="64.50" height="31"/>
<use x="632.80" y="592.40" xlink:href="#ghd"/>
<path d="M635.10 592.40v-18.00" class="stroke"/>
<abc type="g" row="109" col="25" x="616.30" y="568.40" width="64.50" height="31"/>
<use x="640.80" y="589.40" xlink:href="#ghd"/>
<path d="M643.10 589.40v-18.00" class="stroke"/>
<abc type="g" row="109" col="25" x="616.30" y="568.40" width="64.50" height="31"/>
<abc type="e" row="109" col="16" x="638.80" y="587.40" width="6.00" height="6"/>
<abc type="b" row="109" col="21" x="648.80" y="597.40" width="6.00" height="6"/>
<path class="fill"
	d="M652.80 576.50l16.60 -6.20v1.80l-16.60 6.20"/>
<path class="fill"
	d="M653.10 579.90l16.00 -6.00v1.80l-16.00 6.00"/>
<path class="fill"
	d="M653.10 583.40l16.00 -6.00v1.80l-16.00 6.00"/>
<use x="650.80" y="595.40" xlink:href="#ghd"/>
<path d="M653.10 595.40v-18.00" class="stroke"/>
<abc type="g" row="109" col="25" x="616.30" y="568.40" width="64.50" height="31"/>
<use x="658.80" y="592.40" xlink:href="#ghd"/>
<path d="M661.10 592.40v-18.00" class="stroke"/>
<abc type="g" row="109" col="25" x="616.30" y="568.40" width="64.50" height="31"/>
<use x="666.80" y="589.40" xlink:href="#ghd"/>
<path d="M669.10 589.40v-18.00" class="stroke"/>
<abc type="g" row="109" col="25" x="616.30" y="568.40" width="64.50" height="31"/>
<abc type="e" row="109" col="25" x="664.80" y="587.40" width="6.00" height="6"/>
<use x="679.30" y="586.40" xlink:href="#Hd"/>
<path d="M675.80 586.40v21.00" class="stroke"/>
<abc type="N" row="109" col="29" x="676.80" y="580.40" width="9.50" height="31"/>
</g>
<g stroke-width="0.70" style="font:bold 13.00px serif">
<!-- title: Drum -->
</g>
<g stroke-width="0.70" style="font:20.00px serif">
<text x="408.00" y="668.40" text-anchor="middle">Drum</text>
</g>
<g stroke-width="0.70" style="font:20.00px serif">
<path class="stroke" stroke-width="1"
	d="M427.30 735.40v-24.00"/>
<abc type="B" row="118" col="23" x="417.30" y="707.40" width="20.00" height="32"/>
<path class="stroke" stroke-width="1"
	d="M748.80 735.40v-24.00"/>
<path class="stroke" stroke-width="1"
	d="M745.80 735.40v-24.00"/>
<abc type="B" row="118" col="50" x="738.80" y="707.40" width="17.00" height="32"/>
<path d="m67.20 735.40
	h681.60
	M67.20 729.40
	h681.60
	M67.20 723.40
	h681.60
	M67.20 717.40
	h681.60
	M67.20 711.40
	h681.60
	" class="stroke"/>
<defs>
<path id="pclef" d="m-2.7 9h5.4v-18h-5.4v18" class="stroke" stroke-width="1.4"/>
</defs>
<use x="79.20" y="723.40" xlink:href="#pclef"/>
<abc type="c" row="118" col="0" x="65.20" y="693.40" width="28.00" height="46"/>
<use x="92.70" y="723.40" xlink:href="#csig"/>
<abc type="M" row="118" col="0" x="89.20" y="707.40" width="24.00" height="32"/>
<abc type="b" row="118" col="0" x="109.20" y="708.40" width="6.00" height="6"/>
<path class="fill"
	d="M124.90 688.20l107.50 0.00v3.20l-107.50 -0.00"/>
<use x="121.70" y="705.40" xlink:href="#hl"/>
<defs>
<use id="dsh0" transform="translate(-4,5) scale(0.018)"
	xlink:href="#udblesharp"/>
<path id="udblesharp" class="fill" d="
	m240 -282
	c40 -38 74 -68 158 -68
	v-96
	h-96
	c0 84 -30 118 -68 156
	-40 -38 -70 -72 -70 -156
	h-96
	v96
	c86 0 120 30 158 68
	-38 38 -72 68 -158 68
	v96
	h96
	c0 -84 30 -118 70 -156
	38 38 68 72 68 156
	h96
	v-96
	c-84 0 -118 -30 -158 -68"/>
<g id="pshhd">
	<use xlink:href="#dsh0"/>
</g>
</defs>
<use x="121.70" y="705.40" xlink:href="#pshhd"/>
<path d="M125.20 705.40v-16.20" class="stroke"/>
<abc type="N" row="118" col="0" x="109.20" y="684.40" width="19.00" height="30"/>
<use x="153.70" y="711.40" xlink:href="#pshhd"/>
<path d="M157.20 711.40v-22.20" class="stroke"/>
<abc type="N" row="118" col="2" x="138.20" y="684.40" width="22.00" height="36"/>
<use x="196.60" y="720.40" xlink:href="#hd"/>
<path d="M200.10 720.40v-31.20" class="stroke"/>
<use x="196.60" y="711.40" xlink:href="#pshhd"/>
<abc type="N" row="118" col="4" x="181.10" y="684.40" width="22.00" height="42"/>
<use x="228.50" y="711.40" xlink:href="#pshhd"/>
<path d="M232.00 711.40v-22.20" class="stroke"/>
<abc type="N" row="118" col="9" x="213.00" y="684.40" width="22.00" height="36"/>
<abc type="e" row="118" col="9" x="213.00" y="714.40" width="6.00" height="6"/>
<abc type="b" row="118" col="12" x="260.70" y="714.40" width="6.00" height="6"/>
<path class="fill"
	d="M279.30 690.90l127.00 0.00v3.20l-127.00 -0.00"/>
<use x="276.20" y="711.40" xlink:href="#pshhd"/>
<path d="M279.70 711.40v-19.50" class="stroke"/>
<abc type="N" row="118" col="12" x="260.70" y="686.40" width="22.00" height="34"/>
<use x="308.10" y="711.40" xlink:href="#pshhd"/>
<path d="M311.60 711.40v-19.50" class="stroke"/>
<abc type="N" row="118" col="14" x="292.60" y="686.40" width="22.00" height="34"/>
<use x="351.00" y="720.40" xlink:href="#hd"/>
<path d="M354.50 720.40v-28.50" class="stroke"/>
<use x="351.00" y="711.40" xlink:href="#pshhd"/>
<abc type="N" row="118" col="16" x="335.50" y="686.40" width="22.00" height="40"/>
<use x="402.50" y="711.40" xlink:href="#pshhd"/>
<path d="M406.00 711.40v-19.50" class="stroke"/>
<abc type="N" row="118" col="21" x="387.00" y="686.40" width="22.00" height="34"/>
<abc type="e" row="118" col="21" x="387.00" y="714.40" width="6.00" height="6"/>
<abc type="b" row="118" col="24" x="434.10" y="708.40" width="6.00" height="6"/>
<path class="fill"
	d="M449.80 688.20l107.50 0.00v3.20l-107.50 -0.00"/>
<use x="446.60" y="705.40" xlink:href="#hl"/>
<use x="446.60" y="705.40" xlink:href="#pshhd"/>
<path d="M450.10 705.40v-16.20" class="stroke"/>
<abc type="N" row="118" col="24" x="434.10" y="684.40" width="19.00" height="30"/>
<use x="478.50" y="711.40" xlink:href="#pshhd"/>
<path d="M482.00 711.40v-22.20" class="stroke"/>
<abc type="N" row="118" col="26" x="463.00" y="684.40" width="22.00" height="36"/>
<use x="521.40" y="720.40" xlink:href="#hd"/>
<path d="M524.90 720.40v-31.20" class="stroke"/>
<use x="521.40" y="711.40" xlink:href="#pshhd"/>
<abc type="N" row="118" col="28" x="505.90" y="684.40" width="22.00" height="42"/>
<use x="553.40" y="711.40" xlink:href="#pshhd"/>
<path d="M556.90 711.40v-22.20" class="stroke"/>
<abc type="N" row="118" col="33" x="537.90" y="684.40" width="22.00" height="36"/>
<abc type="e" row="118" col="33" x="537.90" y="714.40" width="6.00" height="6"/>
<abc type="b" row="118" col="36" x="585.60" y="714.40" width="6.00" height="6"/>
<path class="fill"
	d="M604.20 689.20l45.80 0.00v3.20l-45.80 -0.00"/>
<path class="fill"
	d="M604.60 694.20l22.60 0.00v3.20l-22.60 -0.00"/>
<use x="601.10" y="711.40" xlink:href="#pshhd"/>
<path d="M604.60 711.40v-21.20" class="stroke"/>
<abc type="N" row="118" col="36" x="585.60" y="685.40" width="22.00" height="35"/>
<use x="623.70" y="720.40" xlink:href="#hd"/>
<path d="M627.20 720.40v-30.20" class="stroke"/>
<abc type="N" row="118" col="39" x="617.20" y="685.40" width="13.00" height="41"/>
<use x="646.20" y="711.40" xlink:href="#pshhd"/>
<path d="M649.70 711.40v-21.20" class="stroke"/>
<abc type="N" row="118" col="41" x="630.70" y="685.40" width="22.00" height="35"/>
<abc type="e" row="118" col="41" x="630.70" y="714.40" width="6.00" height="6"/>
<abc type="b" row="118" col="44" x="687.40" y="720.40" width="6.00" height="6"/>
<path class="fill"
	d="M697.10 694.30l23.30 -6.20v3.20l-23.30 6.20"/>
<path class="fill"
	d="M704.40 697.40l-7.00 1.90v3.20l7.00 -1.90"/>
<use x="693.90" y="720.40" xlink:href="#hd"/>
<path d="M697.40 720.40v-25.20" class="stroke"/>
<abc type="N" row="118" col="44" x="687.40" y="690.40" width="13.00" height="36"/>
<use x="716.50" y="705.40" xlink:href="#hl"/>
<use x="716.50" y="705.40" xlink:href="#pshhd"/>
<circle class="fill" cx="724.20" cy="702.40" r="1.2"/>
<path d="M720.00 705.40v-16.20" class="stroke"/>
<abc type="N" row="118" col="46" x="701.00" y="684.40" width="29.50" height="30"/>
<abc type="e" row="118" col="46" x="701.00" y="708.40" width="6.00" height="6"/>
<abc type="b" row="120" col="0" x="115.20" y="753.40" width="6.00" height="6"/>
<path class="fill"
	d="M117.90 755.40l55.20 0.00v-3.20l-55.20 -0.00"/>
<path class="fill"
	d="M150.20 750.40l22.60 0.00v-3.20l-22.60 -0.00"/>
<use x="121.70" y="732.40" xlink:href="#hd"/>
<path d="M118.20 732.40v22.00" class="stroke"/>
<abc type="N" row="120" col="0" x="115.20" y="726.40" width="13.00" height="33"/>
<use x="153.70" y="732.40" xlink:href="#hd"/>
<path d="M150.20 732.40v22.00" class="stroke"/>
<abc type="N" row="120" col="1" x="147.20" y="726.40" width="13.00" height="33"/>
<use x="176.20" y="732.40" xlink:href="#hd"/>
<path d="M172.70 732.40v22.00" class="stroke"/>
<abc type="N" row="120" col="3" x="169.70" y="726.40" width="13.00" height="33"/>
<abc type="e" row="120" col="3" x="169.70" y="753.40" width="6.00" height="6"/>
<defs>
<path id="r8e" class="fill" d="m 0 0
	c-1.5 1.5 -2.4 2 -3.6 2
	2.4 -2.8 -2.8 -4 -2.8 -1.2
	c0 2.7 4.3 2.4 5.9 0.6"/>
<g id="r8">
	<path d="m3.3 -4l-3.4 9.6" class="stroke"/>
	<use x="3.4" y="-4" xlink:href="#r8e"/>
</g>
</defs>
<use x="196.60" y="735.40" xlink:href="#r8"/>
<circle class="fill" cx="204.60" cy="732.40" r="1.2"/>
<abc type="R" row="120" col="6" x="190.10" y="727.40" width="20.50" height="18"/>
<use x="253.60" y="732.40" xlink:href="#hd"/>
<path d="M250.10 732.40v23.00" class="stroke"/>
<path class="fill"
	d="M250.10 755.40c0.9 -3.7 9.1 -6.4 6 -12.4
	1 5.4 -4.2 8.4 -6 8.4
M250.10 750.00c0.9 -3.7 9.1 -6.4 6 -12.4
	1 5.4 -4.2 8.4 -6 8.4
"/>
<abc type="N" row="120" col="9" x="247.10" y="726.40" width="13.00" height="33"/>
<use x="276.20" y="735.40" xlink:href="#r8"/>
<abc type="R" row="120" col="12" x="269.70" y="727.40" width="13.00" height="18"/>
<abc type="b" row="120" col="13" x="301.60" y="753.40" width="6.00" height="6"/>
<path class="fill"
	d="M304.30 755.40l23.30 0.00v-3.20l-23.30 -0.00"/>
<path class="fill"
	d="M304.60 750.40l22.60 0.00v-3.20l-22.60 -0.00"/>
<use x="308.10" y="732.40" xlink:href="#hd"/>
<path d="M304.60 732.40v22.00" class="stroke"/>
<abc type="N" row="120" col="13" x="301.60" y="726.40" width="13.00" height="33"/>
<use x="330.70" y="732.40" xlink:href="#hd"/>
<path d="M327.20 732.40v22.00" class="stroke"/>
<abc type="N" row="120" col="15" x="324.20" y="726.40" width="13.00" height="33"/>
<abc type="e" row="120" col="15" x="324.20" y="753.40" width="6.00" height="6"/>
<defs>
<g id="r16">
	<path d="m3.3 -4l-4 15.6" class="stroke"/>
	<use x="3.4" y="-4" xlink:href="#r8e"/>
	<use x="1.9" y="2" xlink:href="#r8e"/>
</g>
</defs>
<use x="351.00" y="735.40" xlink:href="#r16"/>
<abc type="R" row="120" col="18" x="344.50" y="725.40" width="13.00" height="24"/>
<use x="376.10" y="732.40" xlink:href="#hd"/>
<circle class="fill" cx="383.80" cy="732.40" r="1.2"/>
<path d="M372.60 732.40v21.00" class="stroke"/>
<path class="fill"
	d="M372.60 753.40c0.6 -5.6 9.6 -9 5.6 -18.4
	1.6 6 -1.3 11.6 -5.6 12.8
"/>
<abc type="N" row="120" col="20" x="369.60" y="726.40" width="20.50" height="31"/>
<abc type="b" row="120" col="24" x="440.10" y="753.40" width="6.00" height="6"/>
<path class="fill"
	d="M442.80 755.40l55.20 0.00v-3.20l-55.20 -0.00"/>
<path class="fill"
	d="M475.00 750.40l22.60 0.00v-3.20l-22.60 -0.00"/>
<use x="446.60" y="732.40" xlink:href="#hd"/>
<path d="M443.10 732.40v22.00" class="stroke"/>
<abc type="N" row="120" col="24" x="440.10" y="726.40" width="13.00" height="33"/>
<use x="478.50" y="732.40" xlink:href="#hd"/>
<path d="M475.00 732.40v22.00" class="stroke"/>
<abc type="N" row="120" col="25" x="472.00" y="726.40" width="13.00" height="33"/>
<use x="501.10" y="732.40" xlink:href="#hd"/>
<path d="M497.60 732.40v22.00" class="stroke"/>
<abc type="N" row="120" col="27" x="494.60" y="726.40" width="13.00" height="33"/>
<abc type="e" row="120" col="27" x="494.60" y="753.40" width="6.00" height="6"/>
<use x="521.40" y="735.40" xlink:href="#r8"/>
<circle class="fill" cx="529.40" cy="732.40" r="1.2"/>
<abc type="R" row="120" col="30" x="514.90" y="727.40" width="20.50" height="18"/>
<use x="578.50" y="732.40" xlink:href="#hd"/>
<path d="M575.00 732.40v23.00" class="stroke"/>
<path class="fill"
	d="M575.00 755.40c0.9 -3.7 9.1 -6.4 6 -12.4
	1 5.4 -4.2 8.4 -6 8.4
M575.00 750.00c0.9 -3.7 9.1 -6.4 6 -12.4
	1 5.4 -4.2 8.4 -6 8.4
"/>
<abc type="N" row="120" col="33" x="572.00" y="726.40" width="13.00" height="33"/>
<use x="601.10" y="735.40" xlink:href="#r8"/>
<circle class="fill" cx="609.10" cy="732.40" r="1.2"/>
<abc type="R" row="120" col="36" x="594.60" y="727.40" width="20.50" height="18"/>
<use x="671.30" y="732.40" xlink:href="#hd"/>
<path d="M667.80 732.40v23.00" class="stroke"/>
<path class="fill"
	d="M667.80 755.40c0.9 -3.7 9.1 -6.4 6 -12.4
	1 5.4 -4.2 8.4 -6 8.4
M667.80 750.00c0.9 -3.7 9.1 -6.4 6 -12.4
	1 5.4 -4.2 8.4 -6 8.4
"/>
<abc type="N" row="120" col="39" x="664.80" y="726.40" width="13.00" height="33"/>
<use x="693.90" y="735.40" xlink:href="#r16"/>
<abc type="R" row="120" col="42" x="687.40" y="725.40" width="13.00" height="24"/>
<use x="716.50" y="732.40" xlink:href="#hd"/>
<circle class="fill" cx="724.20" cy="732.40" r="1.2"/>
<path d="M713.00 732.40v21.00" class="stroke"/>
<path class="fill"
	d="M713.00 753.40c0.6 -5.6 9.6 -9 5.6 -18.4
	1.6 6 -1.3 11.6 -5.6 12.8
"/>
<abc type="N" row="120" col="44" x="710.00" y="726.40" width="20.50" height="31"/>
</g>
</svg>
