<?xml version="1.0" encoding="UTF-8"?>
<svg id="Layer_1" xmlns="http://www.w3.org/2000/svg" version="1.1" viewBox="0 0 160 160">
  <!-- Generator: Adobe Illustrator 29.8.2, SVG Export Plug-In . SVG Version: 2.1.1 Build 3)  -->
  <defs>
    <style>
      .st0 {
        fill: #f9c784;
      }

      .st0, .st1 {
        stroke: #000;
        stroke-miterlimit: 10;
      }

      .st1 {
        fill: #f24c00;
        font-family: MyriadPro-Regular, 'Myriad Pro';
        font-size: 128px;
      }
    </style>
  </defs>
  <g>
    <path class="st0" d="M21.21,131.97c0-12.8,1.2-19.38,1.2-30.84,0-6.4-3.5-13-16.46-13.32v-15.65c12.96-.31,16.46-6.92,16.46-13.32,0-11.26-1.2-18.24-1.2-30.84,0-19.53,6.96-25.73,22.41-25.73h9.27v14.11h-4.94c-10,0-12.22,2.61-12.22,12.66,0,9.51.55,18.76.55,29.46,0,13.7-3.42,18.96-12.07,21.13v.73c8.63,2.17,12.07,7.43,12.07,21.13,0,10.98-.55,19.73-.55,29.46s2.2,12.66,12.22,12.66h4.94v14.11h-9.27c-15.45,0-22.41-6.2-22.41-25.73v-.04Z"/>
    <path class="st0" d="M104.25,143.6h5.23c10.53,0,12.91-2.61,12.91-12.66s-.48-18.46-.48-29.46c0-13.7,3.59-18.96,12.77-21.13v-.73c-9.16-2.17-12.77-7.43-12.77-21.13,0-10.68.48-19.93.48-29.46,0-10.05-2.38-12.66-12.91-12.66h-5.23V2.26h9.81c16.44,0,23.75,6.2,23.75,25.73,0,12.6-1.33,19.58-1.33,30.84,0,6.4,3.71,13,17.57,13.32v15.65c-13.86.31-17.57,6.92-17.57,13.32,0,11.46,1.33,18.03,1.33,30.84,0,19.53-7.3,25.73-23.75,25.73h-9.81v-14.11.04Z"/>
  </g>
  <text class="st1" transform="translate(41.86 117.48)"><tspan x="0" y="0">+</tspan></text>
</svg>