<?xml version="1.0" standalone="no"?>
<!DOCTYPE svg PUBLIC "-//W3C//DTD SVG 1.1//EN"
	"http://www.w3.org/Graphics/SVG/1.1/DTD/svg11.dtd">
<svg xmlns="http://www.w3.org/2000/svg" version="1.1"
	xmlns:xlink="http://www.w3.org/1999/xlink"
	color="black"
	width="816.00px" height="1056.00px">
<style type="text/css">
.fill {fill: currentColor}
.stroke {stroke: currentColor; fill: none}
text{white-space: pre}
</style>
<title>bare.abc page 1</title>
<!-- Creator: abcm2ps-8.14.4 -->
<!-- CreationDate: Oct 20, 2024 14:59 -->
<!-- CommandLine: -k 128 -v -A -O bare_page_.svg bare.abc -->
<g stroke-width="0.70">
<path class="stroke" stroke-width="1"
	d="M143.70 118.80v-24.00"/>
<abc type="B" row="16" col="1" x="133.70" y="90.80" width="20.00" height="32"/>
<path class="stroke" stroke-width="1"
	d="M185.90 118.80v-24.00"/>
<abc type="B" row="16" col="3" x="175.90" y="90.80" width="17.00" height="32"/>
<path d="m67.20 118.80
	h118.70
	M67.20 112.80
	h118.70
	M67.20 106.80
	h118.70
	" class="stroke"/>
</g>
<g stroke-width="1.20">
<path d="m67.20 100.80
	h118.70
	" class="stroke"/>
</g>
<g stroke-width="0.60">
<path d="m67.20 94.80
	h118.70
	" class="stroke"/>
<defs>
<path id="ubclef" class="fill" d="m-200 -87
	c124 -35 222 -78 254 -236
	43 -228 -167 -246 -192 -103
	59 -80 157 22 92 78
	-62 47 -115 -22 -106 -88
	21 -141 270 -136 274 52
	-1 175 -106 264 -322 297
	m357 -250
	c0 -36 51 -34 51 0
	0 37 -51 36 -51 0
	m-2 -129
	c0 -36 51 -34 51 0
	0 38 -51 37 -51 0"/>
<use id="bclef" transform="translate(0,18) scale(0.045)"
	xlink:href="#ubclef"/>
</defs>
<use x="79.20" y="100.80" xlink:href="#bclef"/>
<defs>
<path id="csig" class="fill" d="
	m6 -5.3
	c0.9 0 2.3 0.7 2.4 2.2
	-1.2 -2 -3.6 0.1 -1.6 1.7
	2 1 3.8 -3.5 -0.8 -4.7
	-2 -0.4 -6.4 1.3 -5.8 7
	0.4 6.4 7.9 6.8 9.1 0.7
	-2.3 5.6 -6.7 5.1 -6.8 0
	-0.5 -4.4 0.7 -7.5 3.5 -6.9"/>
</defs>
<use x="92.70" y="106.80" xlink:href="#csig"/>
<defs>
<rect id="r1" class="fill"
	x="-3.5" y="-6" width="7" height="3"/>
</defs>
<use x="127.40" y="106.80" xlink:href="#r1"/>
<abc type="R" row="16" col="0" x="121.00" y="92.80" width="13.00" height="28"/>
<abc type="R" row="16" col="2" x="158.30" y="92.80" width="13.00" height="28"/>
</g>
</svg>
