<?xml version="1.0" standalone="no"?>
<!DOCTYPE svg PUBLIC "-//W3C//DTD SVG 1.1//EN"
	"http://www.w3.org/Graphics/SVG/1.1/DTD/svg11.dtd">
<svg xmlns="http://www.w3.org/2000/svg" version="1.1"
	xmlns:xlink="http://www.w3.org/1999/xlink"
	color="black"
	width="816.00px" height="1056.00px">
<style type="text/css">
.fill {fill: currentColor}
.stroke {stroke: currentColor; fill: none}
text{white-space: pre}
</style>
<title>try.abc page 1</title>
<!-- Creator: abcm2ps-8.14.11 -->
<!-- CreationDate: Oct  8, 2022 16:55 -->
<!-- CommandLine: -k 128 -v -A -O try_page_.svg try.abc -->
<g stroke-width="0.70" style="font:16.00px serif">
<text x="748.80" y="53.80" text-anchor="end">Drum</text>
<text x="748.80" y="69.80" text-anchor="end">Page 1</text>
</g>
<g stroke-width="0.70" style="font:16.00px serif">
<text x="408.00" y="1034.20" text-anchor="middle">try.abc</text>
</g>
<g stroke-width="0.70" style="font:16.00px serif">
<!-- title: Drum -->
</g>
<g stroke-width="0.70" style="font:20.00px serif">
<text x="408.00" y="113.80" text-anchor="middle">Drum</text>
</g>
<g stroke-width="0.70" style="font:20.00px serif">
<path d="m67.20 176.80
	h108.30
	M67.20 170.80
	h108.30
	M67.20 164.80
	h108.30
	M67.20 158.80
	h108.30
	M67.20 152.80
	h108.30
	" class="stroke"/>
<defs>
<path id="pclef" d="m-2.7 9h5.4v-18h-5.4v18" class="stroke" stroke-width="1.4"/>
</defs>
<use x="79.20" y="164.80" xlink:href="#pclef"/>
<abc type="c" row="13" col="0" x="65.20" y="134.80" width="28.00" height="46"/>
<defs>
<path id="csig" class="fill" d="
	m6 -5.3
	c0.9 0 2.3 0.7 2.4 2.2
	-1.2 -2 -3.6 0.1 -1.6 1.7
	2 1 3.8 -3.5 -0.8 -4.7
	-2 -0.4 -6.4 1.3 -5.8 7
	0.4 6.4 7.9 6.8 9.1 0.7
	-2.3 5.6 -6.7 5.1 -6.8 0
	-0.5 -4.4 0.7 -7.5 3.5 -6.9"/>
</defs>
<use x="92.70" y="164.80" xlink:href="#csig"/>
<abc type="M" row="13" col="0" x="89.20" y="148.80" width="24.00" height="32"/>
<abc type="b" row="13" col="0" x="109.20" y="167.80" width="6.00" height="6"/>
<path class="fill"
	d="M117.90 168.70l26.10 4.20v-3.20l-26.10 -4.20"/>
<defs>
<path id="hl" class="stroke" d="m-6 0h12"/>
</defs>
<use x="121.70" y="146.80" xlink:href="#hl"/>
<defs>
<use id="dsh0" transform="translate(-4,5) scale(0.018)"
	xlink:href="#udblesharp"/>
<path id="udblesharp" class="fill" d="
	m240 -282
	c40 -38 74 -68 158 -68
	v-96
	h-96
	c0 84 -30 118 -68 156
	-40 -38 -70 -72 -70 -156
	h-96
	v96
	c86 0 120 30 158 68
	-38 38 -72 68 -158 68
	v96
	h96
	c0 -84 30 -118 70 -156
	38 38 68 72 68 156
	h96
	v-96
	c-84 0 -118 -30 -158 -68"/>
<g id="pshhd">
	<use xlink:href="#dsh0"/>
</g>
</defs>
<use x="121.70" y="146.80" xlink:href="#pshhd"/>
<path d="M118.20 146.80v21.00" class="stroke"/>
<abc type="N" row="13" col="0" x="109.20" y="136.80" width="19.00" height="37"/>
<use x="147.20" y="152.80" xlink:href="#pshhd"/>
<path d="M143.70 152.80v19.00" class="stroke"/>
<abc type="N" row="13" col="2" x="131.70" y="142.80" width="22.00" height="35"/>
<abc type="e" row="13" col="2" x="131.70" y="171.80" width="6.00" height="6"/>
</g>
</svg>
