<?xml version="1.0" encoding="UTF-8" standalone="no"?>
<svg
   viewBox="0 0 144.16582 70.405594"
   version="1.1"
   id="svg21"
   sodipodi:docname="tuxlava_icon.svg"
   width="144.16582"
   height="70.405594"
   inkscape:version="1.2.2 (b0a8486541, 2022-12-01)"
   inkscape:export-xdpi="95.889999"
   inkscape:export-ydpi="95.889999"
   xmlns:inkscape="http://www.inkscape.org/namespaces/inkscape"
   xmlns:sodipodi="http://sodipodi.sourceforge.net/DTD/sodipodi-0.dtd"
   xmlns="http://www.w3.org/2000/svg"
   xmlns:svg="http://www.w3.org/2000/svg"
   xmlns:rdf="http://www.w3.org/1999/02/22-rdf-syntax-ns#"
   xmlns:cc="http://creativecommons.org/ns#"
   xmlns:dc="http://purl.org/dc/elements/1.1/">
  <metadata
     id="metadata25">
    <rdf:RDF>
      <cc:Work
         rdf:about="">
        <dc:format>image/svg+xml</dc:format>
        <dc:type
           rdf:resource="http://purl.org/dc/dcmitype/StillImage" />
      </cc:Work>
    </rdf:RDF>
  </metadata>
  <sodipodi:namedview
     pagecolor="#ffffff"
     bordercolor="#666666"
     borderopacity="1"
     objecttolerance="10"
     gridtolerance="10"
     guidetolerance="10"
     inkscape:pageopacity="0"
     inkscape:pageshadow="2"
     inkscape:window-width="3840"
     inkscape:window-height="2091"
     id="namedview23"
     showgrid="false"
     fit-margin-top="0"
     fit-margin-left="0"
     fit-margin-right="0"
     fit-margin-bottom="0"
     inkscape:zoom="7.2462276"
     inkscape:cx="69.898439"
     inkscape:cy="58.996215"
     inkscape:window-x="0"
     inkscape:window-y="0"
     inkscape:window-maximized="1"
     inkscape:current-layer="Layer_2"
     inkscape:document-rotation="0"
     inkscape:showpageshadow="2"
     inkscape:pagecheckerboard="0"
     inkscape:deskcolor="#d1d1d1" />
  <defs
     id="defs4">
    <style
       id="style2">.cls-1{fill:#00007a;}</style>
  </defs>
  <g
     id="Layer_2"
     data-name="Layer 2">
    <path
       class="cls-1"
       d="m 14.121061,48.269511 a 36.29,36.29 0 0 1 -4,3.5 l -0.8800007,0.54 c -0.94,0.6 -1.84,1.23 -2.68,1.85 -4.59,3.39 -7.33000004,6.94 -6.37000004,8.39 a 0.72,0.72 0 0 0 0.21,0.25 c 0.81000004,-0.3 1.65000004,-0.67 2.56000004,-1.09 a 46.93,46.93 0 0 0 4.54,-2.52 39.67,39.67 0 0 0 4.0900007,-3 c -2.0000007,2.06 -3.1500007,3.88 -2.8100007,5 a 0.93,0.93 0 0 0 0.12,0.36 0.9,0.9 0 0 0 0.21,0.23 2.16,2.16 0 0 0 1.6100007,0.44 9.58,9.58 0 0 0 2.53,-0.38 l 0.6,-0.17 a 2.68,2.68 0 0 1 0.82,0 1.55,1.55 0 0 1 1,0.62 0.21,0.21 0 0 1 0,0.11 1.76,1.76 0 0 1 0,1.38 7.37,7.37 0 0 1 -0.38,0.82 12.91,12.91 0 0 0 -1.83,2.42 2.58,2.58 0 0 0 -0.37,2.2 0.16,0.16 0 0 0 0.05,0.1 0.56,0.56 0 0 0 0.24,0.24 2.62,2.62 0 0 0 1.81,0.46 11.69,11.69 0 0 0 2.48,-0.46 67.62,67.62 0 0 1 10.5,-5.67 9.1,9.1 0 0 1 1,-0.42 v 0 c 1,-0.42 1.95,-0.8 2.89,-1.16 v 0 l 0.68,-0.26 0.73,-0.28 1.43,-0.37 c 0.27,-0.09 0.57,-0.19 0.86,-0.27 a 43.37,43.37 0 0 1 5.66,-1.45 h 0.54 a 126.3,126.3 0 0 0 30.43,-1.51 c 6.1,-1.14 12.93,-4 18.84,-7 v 0 c 0,0 7.17,1 10.629999,4.2 a 31.31,31.31 0 0 1 7.15,10.44 c 1,2.67 1.5,5.17 3.1,4.48 1.6,-0.69 3.1,-5 2.82,-8.73 -0.28,-3.73 -2.59,-11.15 -5.33,-14.85 a 10.59,10.59 0 0 0 -4.76,-3.51 12.3,12.3 0 0 0 1.2,-0.92 c 1.29,-1.32 4.95,-5.59 8.85,-9.85 3.9,-4.26 6.35,-10.1 8.31,-12.42 1.96,-2.32 9,-7.68 11.16,-9.44 a 18.74,18.74 0 0 1 4,-2.6299994 26.78,26.78 0 0 0 4.93,-2.54 c 1,-0.8 1,-3.08 0.7,-4.21 -0.25,-0.88000006 -1.07,-1.00000006 -2.11,-1.17000006 -1.04,-0.17 -3.59,0.81 -5.28,1.42000006 a 14.08,14.08 0 0 1 -6.09,0.31 21.23,21.23 0 0 0 -5.16,-0.83000006 c -1.89,0 -7.24,2.23000006 -10.55,3.92000006 -3.31,1.69 -7.08,5.2099994 -9.8,6.9999994 -2.72,1.79 -8.999999,4.21 -12.919999,4.31 a 12.84,12.84 0 0 1 -5.2,-1.09 l -2.17,-0.9 a 2,2 0 0 0 -0.32,-0.11 95.93,95.93 0 0 0 -12.86,-4.1099994 c -18,-4.43 -34.58,-3.36 -42.15,1.9999994 a 1.21,1.21 0 0 0 -0.28,0.18 v 0 a 1.42,1.42 0 0 0 -0.4,0.9 1.34,1.34 0 0 0 1.2,1.53 0.76,0.76 0 0 0 0.26,0 99.49,99.49 0 0 1 14.61,-0.17 c 2.4,0.15 4.76,0.39 7,0.69 v 0 a 40.08,40.08 0 0 1 4.93,0.78 v 0 c 0.74,0.16 1.48,0.29 2.2,0.44 a 0.42,0.42 0 0 1 0.13,0 0.15,0.15 0 0 1 0.08,0 13.61,13.61 0 0 1 4.24,1.73 c 0.14,0.13 0.27,0.21 0.4,0.33 a 2.08,2.08 0 0 1 0.78,1.51 c 0,1.11 -1.41,2.07 -3.64,2.8 l 0.24,-0.1 c -1.48,0.42 -3,0.87 -4.47,1.37 -1.47,0.5 -3,1 -4.41,1.58 -4.35,1.63 -9.55,3.69 -14.84,6.04 -0.1,0 -9.43,4.61 -10.84,5.52 a 28.19,28.19 0 0 0 -6.67,5.83"
       id="path6"
       style="fill:#808000;fill-opacity:1" />
  </g>
</svg>
