<?xml version="1.0" encoding="utf-8"?>
<!-- Uploaded to: SVG Repo, www.svgrepo.com, Generator: SVG Repo Mixer Tools -->
<svg width="800px" height="800px" viewBox="0 0 1024 1024" class="icon"  version="1.1" xmlns="http://www.w3.org/2000/svg"><path d="M301.738667 425.403733a320.4096 319.146667 0 1 0 640.8192 0 320.4096 319.146667 0 1 0-640.8192 0Z" fill="#EADAC5" /><path d="M782.108444 903.566222l-96.415288 39.549156a87.552 87.552 0 0 1-77.482667-5.461334L584.817778 923.943822c-175.024356-102.570667-356.465778-283.261156-459.423289-457.614222l-13.767111-23.313067a86.539378 86.539378 0 0 1-5.461334-77.141333l39.708445-96.0512 61.019022-28.797156 122.072178 182.3744-42.473245 59.517156-28.660622 40.129422c27.773156 48.753778 70.815289 102.172444 119.136711 150.311822 48.310044 48.150756 101.967644 91.022222 150.926223 118.692978l40.288711-28.558222 59.756089-42.2912L811.019378 842.752l-28.910934 60.814222z" fill="#47A7DD" /><path d="M819.5072 830.077156L636.427378 708.5056a15.36 15.36 0 0 0-17.351111 0.261689l-92.012089 65.160533c-44.145778-26.259911-93.252267-65.479111-139.275378-111.354311-46.068622-45.886578-85.435733-94.788267-111.763911-138.706489l65.422222-91.648a15.200711 15.200711 0 0 0 0.261689-17.282844l-122.083556-182.363022a15.337244 15.337244 0 0 0-19.273955-5.313423l-61.019022 28.797156c-3.436089 1.627022-6.144 4.471467-7.588978 7.964444l-39.708445 96.0512a102.365867 102.365867 0 0 0 6.417067 90.669511l13.767111 23.313067c4.278044 7.247644 13.653333 9.671111 20.935111 5.415822 7.281778-4.266667 9.716622-13.607822 5.4272-20.855466l-13.767111-23.313067a71.793778 71.793778 0 0 1-4.5056-63.624533l28.660622-69.3248 118.670223 180.667733-22.266311 31.197867a15.200711 15.200711 0 0 0-0.841956 16.361244c27.522844 48.310044 70.712889 102.843733 121.617067 153.543111 50.847289 50.676622 105.608533 93.707378 154.180266 121.173334a15.36 15.36 0 0 0 16.418134-0.830578l31.311644-22.175289 76.765867 50.016711a15.268978 15.268978 0 0 0 21.162666-4.4032 15.212089 15.212089 0 0 0-4.425955-21.0944l-66.730667-43.485867 33.371022-23.631644 163.328 108.4416-15.746844 33.109333-77.266489-50.358044c-7.076978-4.596622-16.554667-2.616889-21.174044 4.414578s-2.639644 16.475022 4.425955 21.0944l67.663645 44.100266-69.575111 28.535467a72.544711 72.544711 0 0 1-63.886223-4.5056l-23.404089-13.710222c-156.899556-91.932444-319.988622-247.853511-425.597155-406.9376a15.337244 15.337244 0 0 0-21.1968-4.3008 15.189333 15.189333 0 0 0-4.312178 21.105777c108.020622 162.7136 274.932622 322.264178 435.598222 416.403912l23.404089 13.710222a103.1168 103.1168 0 0 0 52.110222 14.051555 102.718578 102.718578 0 0 0 38.946134-7.634489l96.415289-39.549155c3.515733-1.444978 6.371556-4.141511 7.998577-7.566222l28.910934-60.814223a15.212089 15.212089 0 0 0-5.336178-19.205688zM168.288711 276.104533l33.211733-15.678577 108.896712 162.690844-23.722667 33.234489-118.385778-180.246756zM317.405867 325.393067a15.303111 15.303111 0 0 0 19.751822-8.772267c22.550756-58.5728 62.179556-108.145778 114.596978-143.371378a15.189333 15.189333 0 0 0 4.130133-21.139911 15.325867 15.325867 0 0 0-21.230933-4.107378c-57.6512 38.729956-101.239467 93.263644-126.0544 157.707378a15.223467 15.223467 0 0 0 8.8064 19.683556zM622.159644 91.022222c-47.661511 0-93.730133 9.750756-136.920177 28.990578a15.223467 15.223467 0 0 0-7.714134 20.127289 15.325867 15.325867 0 0 0 20.206934 7.691378 303.775289 303.775289 0 0 1 124.427377-26.328178c168.231822 0 305.106489 136.339911 305.106489 303.911822a301.249422 301.249422 0 0 1-54.317511 173.135645 304.605867 304.605867 0 0 1-139.389155 109.897955 15.212089 15.212089 0 0 0 5.575111 29.411556c1.865956 0 3.754667-0.341333 5.586489-1.058134a335.109689 335.109689 0 0 0 153.349689-120.866133 331.525689 331.525689 0 0 0 59.778844-190.520889C957.8496 241.026844 807.253333 91.022222 622.159644 91.022222z" fill="" /><path d="M607.220622 368.890311c0-39.571911-32.312889-71.759644-72.032711-71.759644s-72.032711 32.187733-72.032711 71.759644c0 8.419556 6.849422 15.234844 15.291733 15.234845 8.453689 0 15.291733-6.826667 15.291734-15.234845a41.403733 41.403733 0 0 1 41.437866-41.278578c22.869333 0 41.460622 18.511644 41.460623 41.278578 0 32.381156-12.652089 62.816711-35.646578 85.7088L467.626667 527.6672a15.212089 15.212089 0 0 0 10.820266 26.0096h113.493334c8.442311 0 15.291733-6.815289 15.291733-15.234844 0-8.408178-6.849422-15.234844-15.291733-15.234845h-76.561067l47.251911-47.069867a150.380089 150.380089 0 0 0 44.589511-107.246933zM728.996978 297.688178a15.303111 15.303111 0 0 0-17.2032 6.872178L620.726044 456.476444a15.223467 15.223467 0 0 0 13.118578 23.051378h75.776v58.925511c0 8.419556 6.849422 15.234844 15.303111 15.234845s15.303111-6.826667 15.303111-15.234845v-58.925511h25.622756c8.442311 0 15.291733-6.826667 15.291733-15.234844s-6.849422-15.234844-15.291733-15.234845h-25.622756V312.376889a15.246222 15.246222 0 0 0-11.229866-14.688711z m-19.364978 69.916444v81.453511h-48.833422l48.833422-81.453511z" fill="" /></svg>