<?xml version="1.0" encoding="UTF-8"?>
<!DOCTYPE svg PUBLIC "-//W3C//DTD SVG 1.1//EN" "http://www.w3.org/Graphics/SVG/1.1/DTD/svg11.dtd">
<!-- Creator: CorelDRAW 2020 (64 Bit) -->
<svg xmlns="http://www.w3.org/2000/svg" xml:space="preserve" width="225.35mm" height="26.5903mm" version="1.1" shape-rendering="geometricPrecision" text-rendering="geometricPrecision" image-rendering="optimizeQuality" fill-rule="evenodd" clip-rule="evenodd"
viewBox="0 0 22533.9 2658.9"
 xmlns:xlink="http://www.w3.org/1999/xlink"
 xmlns:xodm="http://www.corel.com/coreldraw/odm/2003">
 <g id="Camada_x0020_1">
  <metadata id="CorelCorpID_0Corel-Layer"/>
  <path fill="black" d="M-0 2609.41l0 -2609.41 931.42 0c100.43,0 189.5,3.06 267.11,9.2 78.43,6.2 145.11,15.71 199.97,28.48 76.54,17.79 147.91,42.9 213.99,75.2 66.19,32.35 126.9,72.05 182,118.9 70.91,59.77 132.82,127.97 185.83,204.57 52.78,76.2 96.55,160.54 131.27,253.02 34.71,91.55 60.72,189.78 78.03,294.49 17.32,104.8 25.96,215.51 25.96,331.89 0,198.95 -23.37,375.88 -70.06,530.72 -23.18,76.88 -50,147.78 -80.28,212.48 -30.44,65.1 -64.42,123.56 -101.68,175.27 -37.1,51.21 -76.15,97.2 -117.08,137.93 -41.19,40.97 -84.18,76.4 -128.89,106 -44.14,29.79 -93.44,56.17 -147.67,79.04 -53.45,22.56 -111.35,41.47 -173.44,56.68 -62.07,15.12 -128.53,26.37 -199.27,33.83 -71.07,7.47 -145.78,11.2 -224.09,11.2l-973.11 0 0 -49.5zm438.65 -349.81l496.34 0c82.66,0 155.97,-3.76 219.88,-11.31 62.83,-7.43 116.72,-18.49 161.53,-33.25 44.92,-14.78 84.9,-32.32 119.94,-52.58 34.2,-19.84 64.25,-42.65 89.92,-68.32 37.07,-37.15 70.12,-81.04 99.08,-131.25 29.32,-50.93 54.74,-108.91 76.07,-173.79 21.52,-65.46 37.76,-137.87 48.57,-217.13 10.77,-79.24 16.24,-166.44 16.24,-261.58 0,-130.72 -10.63,-245.87 -31.79,-345.21 -20.85,-97.99 -51.79,-180.61 -92.56,-247.78 -41.31,-67.99 -86.87,-124.54 -136.58,-169.58 -48.71,-44.08 -101.8,-77.33 -159.06,-99.55 -41.13,-15.96 -96.35,-28.09 -165.42,-36.31 -70.79,-8.44 -155.72,-12.65 -254.76,-12.65l-487.39 0 0 1860.28z"/>
  <path fill="black" d="M2304.6 2591.82l994.23 -2591.82 439.63 0 1082.51 2658.9 -493.08 0 -296.18 -775.84 -1009.08 0 -277.71 775.84 -466.09 0 25.76 -67.09zm853.84 -1083.04l729.89 0 -372.15 -1009.72 -357.73 1009.72z"/>
  <polygon fill="black" points="5352.24,2609.41 5352.24,399.31 4508.47,399.31 4508.47,0 6634.65,0 6634.65,399.31 5790.89,399.31 5790.89,2658.9 5352.24,2658.9 "/>
  <path fill="black" d="M6342.91 2591.82l994.24 -2591.82 439.63 0 1082.51 2658.9 -493.09 0 -296.17 -775.84 -1009.08 0 -277.71 775.84 -466.09 0 25.75 -67.09zm853.84 -1083.04l729.89 0 -241.8 -642.82c-41.19,-110.68 -76.21,-208.04 -105.16,-292.39l-25.2 -74.52c-6.76,25.7 -13.78,51.26 -21.07,76.71 -23.63,82.46 -50.56,165.09 -80.73,247.92l-255.94 685.1z"/>
  <polygon fill="black" points="15347.56,2609.41 15347.56,399.31 14503.79,399.31 14503.79,0 16629.97,0 16629.97,399.31 15786.21,399.31 15786.21,2658.9 15347.56,2658.9 "/>
  <path fill="black" d="M20017.53 2591.82l994.23 -2591.82 439.63 0 1082.51 2658.9 -493.08 0 -296.18 -775.84 -1009.08 0 -277.71 775.84 -466.09 0 25.76 -67.09zm853.84 -1083.04l729.88 0 -241.8 -642.82c-41.19,-110.68 -76.2,-208.04 -105.16,-292.39l-25.2 -74.52c-6.76,25.7 -13.77,51.26 -21.07,76.71 -23.62,82.46 -50.56,165.09 -80.72,247.92l-255.94 685.1z"/>
  <polygon fill="black" points="19233.47,2609.41 19233.47,0 19672.12,0 19672.12,2658.9 19233.47,2658.9 "/>
  <polygon fill="black" fill-rule="nonzero" points="12584.84,2609.41 12584.84,0 12602.66,0 12652.15,0 13023.49,0 14309.55,0 14309.55,438.65 13023.49,438.65 13023.49,1110.14 14269.54,1110.14 14269.54,1548.79 13023.49,1548.79 13023.49,2220.25 14309.55,2220.25 14309.55,2658.9 13023.49,2658.9 12602.66,2658.9 12584.84,2658.9 "/>
  <path fill="black" fill-rule="nonzero" d="M11584.24 2609.41l0 -1858.96c-202.35,262.06 -404.67,522.15 -613.17,779.51l3.37 4.07 -297.78 351.89 -19.83 -25.58 -19.81 -25.57 -19.84 -25.59 -19.81 -25.59 -19.84 -25.56 -165.22 -213.12 0.05 -0.08 -617.34 -796.72 0 1910.79 -438.65 0 0 -49.5 0 -2609.41 372.46 0 40.74 0 25.45 0 894.61 1187.1 894.61 -1187.1 25.45 0 40.74 0 372.46 0 0 2658.9 -438.65 0 0 -49.5z"/>
  <polygon fill="black" fill-rule="nonzero" points="9405.87,2609.41 9405.87,49.49 9745.53,49.49 9745.53,2609.41 "/>
  <path fill="black" fill-rule="nonzero" d="M18253.48 2639.57l-938.16 -1212.83 0 1232.16 -438.65 0 0 -2658.9 1118.79 0c225.22,0 430.01,92.14 578.37,240.48 148.36,148.36 240.51,353.15 240.51,578.37 0,215.62 -84.57,412.58 -222.16,559.29 -119.71,127.63 -279.82,217.19 -459.35,247.83l730.78 1032.93 -595.21 0 -14.92 -19.33zm-900.05 -1406.96l555.39 0c113.85,0 217.3,-46.49 292.16,-121.37 75.08,-75.06 121.57,-178.5 121.57,-292.36 0,-113.88 -46.5,-217.33 -121.37,-292.2 -75.06,-75.08 -178.5,-121.56 -292.36,-121.56l-593.5 0 0 827.49 38.11 0z"/>
 </g>
</svg>
