<?xml version="1.0" encoding="UTF-8"?>
<!DOCTYPE svg PUBLIC "-//W3C//DTD SVG 1.1//EN" "http://www.w3.org/Graphics/SVG/1.1/DTD/svg11.dtd">
<!-- Creator: CorelDRAW 2020 (64 Bit) -->
<svg xmlns="http://www.w3.org/2000/svg" xml:space="preserve" width="126.627mm" height="170.385mm" version="1.1" shape-rendering="geometricPrecision" text-rendering="geometricPrecision" image-rendering="optimizeQuality" fill-rule="evenodd" clip-rule="evenodd"
viewBox="0 0 12661.6 17037.09"
 xmlns:xlink="http://www.w3.org/1999/xlink"
 xmlns:xodm="http://www.corel.com/coreldraw/odm/2003">
 <defs>
   <linearGradient id="id0" gradientUnits="userSpaceOnUse" x1="259.72" y1="16613.06" x2="12160.69" y2="9378.23">
    <stop offset="0" stop-opacity="1" stop-color="#4B0078"/>
    <stop offset="1" stop-opacity="1" stop-color="#6C1E9F"/>
   </linearGradient>
   <linearGradient id="id1" gradientUnits="userSpaceOnUse" x1="924.94" y1="60.47" x2="9532.23" y2="5897.16">
    <stop offset="0" stop-opacity="1" stop-color="#0072CE"/>
    <stop offset="1" stop-opacity="1" stop-color="#00AEEF"/>
   </linearGradient>
 </defs>
 <g id="Camada_x0020_1">
  <metadata id="CorelCorpID_0Corel-Layer"/>
  <path fill="url(#id0)" d="M9532.23 5897.16c-3072.56,1976.8 -6132.69,3965.06 -9190.89,5964 -169.81,96.98 -335.67,267.48 -341.34,533.38 0,1527.35 0,2573.68 0,4101.04 0,328.66 619.81,686.56 924.95,481.07 3877.26,-2609.04 7358.49,-4989.36 11235.74,-7598.4 657.67,-453.89 653.64,-1258.54 70.6,-1661.21 -1151,-776.78 -1690.89,-1171.37 -2699.06,-1819.87z"/>
  <path fill="url(#id1)" d="M5474.4 8518.55c1350.79,-875.98 2703.11,-1749.79 4057.82,-2621.4 -988.19,-702.04 -7626.81,-5176.92 -8607.28,-5836.68 -305.14,-205.51 -924.94,152.41 -924.94,481.05 0,1527.35 0,2573.69 0,4101.06 5.67,265.88 171.53,436.39 341.33,533.38 1709.82,1117.6 3420.23,2231.83 5133.07,3342.6z"/>
 </g>
</svg>
