# Blender v2.77 (sub 0) OBJ File: 'yield-sign-ts.blend'
# www.blender.org
o yield-sign-low
mtllib yield_sign.mtl
v 0.000000 1.484239 -0.156806
v 0.000000 1.484239 -0.086494
v 0.005138 1.479220 -0.156806
v 0.005138 1.479220 -0.086494
v -0.000000 1.474200 -0.156806
v -0.000000 1.474200 -0.086494
v -0.005138 1.479220 -0.156806
v -0.005138 1.479220 -0.086494
v 0.000000 2.012299 -0.156806
v 0.000000 2.012299 -0.086494
v 0.005138 2.007280 -0.156806
v 0.005138 2.007280 -0.086494
v -0.000000 2.002260 -0.156806
v -0.000000 2.002260 -0.086494
v -0.005138 2.007280 -0.156806
v -0.005138 2.007280 -0.086494
v -0.021000 0.000000 -0.100089
v -0.021000 0.000000 -0.150089
v 0.021000 0.000000 -0.150089
v 0.021000 0.000000 -0.100089
v 0.037800 0.000000 -0.100089
v -0.037800 0.000000 -0.100089
v -0.021000 2.049956 -0.100089
v -0.021000 2.049956 -0.150089
v 0.021000 2.049956 -0.150089
v 0.021000 2.049956 -0.100089
v 0.037800 2.049956 -0.100089
v -0.037800 2.049956 -0.100089
v -0.022814 0.000000 -0.102279
v -0.022814 0.000000 -0.151903
v 0.022814 0.000000 -0.151903
v 0.022814 0.000000 -0.102279
v 0.037800 0.000000 -0.102279
v -0.037800 0.000000 -0.102279
v -0.022814 2.049956 -0.102279
v -0.022814 2.049956 -0.151903
v 0.022814 2.049956 -0.151903
v 0.022814 2.049956 -0.102279
v 0.037800 2.049956 -0.102279
v -0.037800 2.049956 -0.102279
v -0.000000 1.808960 -0.099883
v -0.000000 1.808960 -0.091536
v 0.043222 1.483823 -0.099883
v -0.043222 1.483823 -0.099883
v -0.000000 1.495405 -0.099883
v 0.027750 1.464353 -0.099883
v 0.009562 1.454117 -0.099883
v -0.009562 1.454117 -0.099883
v -0.027751 1.464353 -0.099883
v 0.234884 2.026848 -0.099883
v 0.273936 1.951984 -0.099883
v 0.245348 1.983625 -0.099883
v 0.257108 2.023184 -0.099883
v 0.273334 2.012550 -0.099883
v 0.281974 1.995988 -0.099883
v 0.282181 1.975118 -0.099883
v -0.273936 1.951984 -0.099883
v -0.234884 2.026848 -0.099883
v -0.245348 1.983625 -0.099883
v -0.282181 1.975118 -0.099883
v -0.281974 1.995988 -0.099883
v -0.273334 2.012550 -0.099883
v -0.257108 2.023184 -0.099883
v 0.273936 1.951984 -0.091536
v 0.234884 2.026848 -0.091536
v 0.245348 1.983625 -0.091536
v 0.282181 1.975118 -0.091536
v 0.281974 1.995988 -0.091536
v 0.273334 2.012550 -0.091536
v 0.257108 2.023184 -0.091536
v -0.043222 1.483823 -0.091536
v 0.043222 1.483823 -0.091536
v -0.000000 1.495405 -0.091536
v -0.027751 1.464353 -0.091536
v -0.009562 1.454117 -0.091536
v 0.009562 1.454117 -0.091536
v 0.027750 1.464353 -0.091536
v -0.234884 2.026848 -0.091536
v -0.273936 1.951984 -0.091536
v -0.245348 1.983625 -0.091536
v -0.257108 2.023184 -0.091536
v -0.273334 2.012550 -0.091536
v -0.281974 1.995988 -0.091536
v -0.282181 1.975118 -0.091536
vt 0.1128 0.1176
vt 0.3405 0.0054
vt 0.2710 0.1387
vt 0.6492 0.2487
vt 0.6453 0.0280
vt 0.6492 0.0274
vt 0.3947 0.1524
vt 0.6107 0.2656
vt 0.6090 0.2694
vt 0.3770 0.0244
vt 0.3770 0.2529
vt 0.3405 0.2719
vt 0.1128 0.1597
vt 0.1033 0.1522
vt 0.1184 0.1387
vt 0.0983 0.1433
vt 0.0983 0.1340
vt 0.1033 0.1252
vt 0.3752 0.2637
vt 0.3559 0.2580
vt 0.3700 0.2716
vt 0.3620 0.2758
vt 0.3518 0.2759
vt 0.3518 0.0014
vt 0.3559 0.0193
vt 0.3620 0.0015
vt 0.3700 0.0057
vt 0.3752 0.0136
vt 0.3969 0.1104
vt 0.3851 0.1149
vt 0.3947 0.1071
vt 0.3837 0.1252
vt 0.3798 0.1240
vt 0.3838 0.1331
vt 0.3797 0.1340
vt 0.3849 0.1437
vt 0.3884 0.1411
vt 0.6426 0.2583
vt 0.6450 0.2481
vt 0.6464 0.2602
vt 0.6377 0.2654
vt 0.6405 0.2687
vt 0.6308 0.2693
vt 0.6210 0.2736
vt 0.6216 0.2695
vt 0.6059 0.0056
vt 0.6209 0.0061
vt 0.6074 0.0101
vt 0.6204 0.0014
vt 0.6306 0.0067
vt 0.6321 0.0025
vt 0.6378 0.0110
vt 0.6408 0.0079
vt 0.6428 0.0182
vt 0.6466 0.0165
vt 0.3973 0.1488
vt 0.3881 0.1175
vt 0.6317 0.2733
vt 0.3939 0.3870
vt 0.3974 0.3528
vt 0.3974 0.3870
vt 0.4008 0.3870
vt 0.4074 0.3899
vt 0.4039 0.3933
vt 0.4039 0.3898
vt 0.4043 0.3528
vt 0.4078 0.3870
vt 0.4043 0.3870
vt 0.3973 0.4080
vt 0.3939 0.4046
vt 0.3973 0.4046
vt 0.3939 0.3501
vt 0.3974 0.3159
vt 0.3974 0.3501
vt 0.4008 0.3501
vt 0.3977 0.3933
vt 0.4012 0.3899
vt 0.4012 0.3934
vt 0.4043 0.3159
vt 0.4078 0.3501
vt 0.4043 0.3501
vt 0.4036 0.4080
vt 0.4001 0.4046
vt 0.4036 0.4046
vt 0.0956 0.9057
vt 0.0798 0.0015
vt 0.0956 0.0014
vt 0.0577 0.9058
vt 0.0392 0.0015
vt 0.0577 0.0015
vt 0.0172 0.9058
vt 0.0014 0.0016
vt 0.0172 0.0015
vt 0.0798 0.9058
vt 0.0392 0.9058
vt 0.6660 0.6468
vt 0.6773 0.0015
vt 0.6773 0.6469
vt 0.9986 0.9550
vt 0.0014 0.9328
vt 0.9986 0.9328
vt 0.6520 0.6468
vt 0.6632 0.0015
vt 0.6632 0.6469
vt 0.0014 0.9087
vt 0.9986 0.9087
vt 0.9986 0.9791
vt 0.0014 0.9550
vt 0.4115 0.3718
vt 0.4106 0.3931
vt 0.4106 0.3727
vt 0.4191 0.3131
vt 0.4180 0.3058
vt 0.4191 0.3049
vt 0.3840 0.2764
vt 0.3797 0.5231
vt 0.3797 0.2763
vt 0.3947 0.2845
vt 0.4180 0.2836
vt 0.4191 0.2845
vt 0.4115 0.3402
vt 0.4106 0.3169
vt 0.4115 0.3159
vt 0.4191 0.2763
vt 0.3939 0.3058
vt 0.3947 0.3049
vt 0.3949 0.3907
vt 0.3939 0.3980
vt 0.3939 0.3898
vt 0.3868 0.5231
vt 0.3911 0.2764
vt 0.3911 0.5232
vt 0.4115 0.3449
vt 0.4106 0.3682
vt 0.4106 0.3438
vt 0.4020 0.4007
vt 0.3947 0.4018
vt 0.3939 0.4007
vt 0.3939 0.3528
vt 0.4008 0.3528
vt 0.4074 0.3934
vt 0.4078 0.3528
vt 0.3939 0.4081
vt 0.3939 0.3159
vt 0.4008 0.3159
vt 0.3977 0.3898
vt 0.4078 0.3159
vt 0.4001 0.4081
vt 0.0014 0.9059
vt 0.6660 0.0014
vt 0.6520 0.0014
vt 0.0014 0.9791
vt 0.4115 0.3940
vt 0.4180 0.3131
vt 0.3840 0.5232
vt 0.3939 0.2836
vt 0.4106 0.3411
vt 0.4180 0.2763
vt 0.3949 0.3980
vt 0.3868 0.2763
vt 0.4115 0.3690
vt 0.4020 0.4018
vt 0.3770 0.3017
vt 0.3770 0.5302
vt 0.2710 0.4160
vt 0.3405 0.5492
vt 0.1128 0.4370
vt 0.1128 0.3949
vt 0.3405 0.2827
vt 0.3518 0.2787
vt 0.3559 0.2966
vt 0.3620 0.2788
vt 0.3700 0.2830
vt 0.3752 0.2909
vt 0.1033 0.4295
vt 0.1184 0.4160
vt 0.0983 0.4206
vt 0.0983 0.4113
vt 0.1033 0.4025
vt 0.3752 0.5410
vt 0.3559 0.5353
vt 0.3700 0.5489
vt 0.3620 0.5531
vt 0.3518 0.5532
vn -0.6163 -0.3904 -0.6839
vn -0.6628 -0.2803 -0.6943
vn 0.0000 0.0000 -1.0000
vn -0.0591 0.7222 -0.6892
vn 0.0591 0.7222 0.6892
vn 0.0591 0.7222 -0.6892
vn -0.6628 -0.2803 0.6943
vn 0.6628 -0.2803 -0.6943
vn 0.6163 -0.3904 -0.6839
vn 0.4837 -0.5674 -0.6663
vn 0.1917 -0.7316 -0.6542
vn -0.1917 -0.7316 -0.6542
vn -0.4837 -0.5674 -0.6663
vn 0.2718 0.6972 -0.6634
vn 0.5605 0.5074 -0.6545
vn 0.7303 0.1829 -0.6582
vn 0.7324 -0.1229 -0.6697
vn -0.7324 -0.1229 -0.6697
vn -0.7303 0.1829 -0.6582
vn -0.5605 0.5074 -0.6545
vn -0.2718 0.6972 -0.6634
vn 0.6163 -0.3904 0.6839
vn 0.1917 -0.7316 0.6542
vn -0.1917 -0.7316 0.6542
vn -0.4837 -0.5674 0.6663
vn -0.2718 0.6972 0.6634
vn -0.0591 0.7222 0.6892
vn -0.5605 0.5074 0.6545
vn -0.7303 0.1829 0.6582
vn -0.7324 -0.1229 0.6697
vn 0.7324 -0.1229 0.6697
vn 0.6628 -0.2803 0.6943
vn 0.7303 0.1829 0.6582
vn 0.5605 0.5074 0.6545
vn 0.2718 0.6972 0.6634
vn -0.6163 -0.3904 0.6839
vn 0.4837 -0.5674 0.6663
vn 0.0000 0.8156 -0.5786
vn 0.8173 0.0000 0.5761
vn 0.8173 0.0000 -0.5761
vn 0.0000 -0.8156 -0.5786
vn 0.0000 0.8156 0.5786
vn 0.0000 -0.8156 0.5786
vn -0.8173 0.0000 0.5761
vn -0.8173 0.0000 -0.5761
vn 0.5773 0.5773 0.5773
vn -0.5773 -0.5773 0.5773
vn 0.5773 -0.5773 0.5773
vn -0.3015 0.9045 0.3015
vn 0.3015 -0.9045 0.3015
vn -0.3015 -0.9045 0.3015
vn -0.5773 0.5773 0.5773
vn 0.3015 0.9045 0.3015
vn 0.3015 -0.9045 -0.3015
vn 0.5773 0.5773 -0.5773
vn 0.5773 -0.5773 -0.5773
vn -0.5773 -0.5773 -0.5773
vn -0.3015 0.9045 -0.3015
vn -0.3015 -0.9045 -0.3015
vn 0.3015 0.9045 -0.3015
vn -0.5773 0.5773 -0.5773
vn 0.0000 0.0000 1.0000
usemtl yield_sign
s 1
f 44/1/1 57/2/2 41/3/3
f 58/4/4 65/5/5 50/6/6
f 44/7/1 79/8/7 57/9/2
f 58/10/4 50/11/6 41/3/3
f 51/12/8 43/13/9 41/3/3
f 43/13/9 46/14/10 45/15/3
f 46/14/10 47/16/11 45/15/3
f 47/16/11 48/17/12 45/15/3
f 48/17/12 49/18/13 45/15/3
f 49/18/13 44/1/1 45/15/3
f 50/11/6 53/19/14 52/20/3
f 53/19/14 54/21/15 52/20/3
f 54/21/15 55/22/16 52/20/3
f 55/22/16 56/23/17 52/20/3
f 56/23/17 51/12/8 52/20/3
f 57/2/2 60/24/18 59/25/3
f 60/24/18 61/26/19 59/25/3
f 61/26/19 62/27/20 59/25/3
f 62/27/20 63/28/21 59/25/3
f 63/28/21 58/10/4 59/25/3
f 72/29/22 46/30/10 43/31/9
f 46/30/10 76/32/23 47/33/11
f 47/33/11 75/34/24 48/35/12
f 75/34/24 49/36/13 48/35/12
f 74/37/25 44/7/1 49/36/13
f 58/4/4 81/38/26 78/39/27
f 63/40/21 82/41/28 81/38/26
f 62/42/20 83/43/29 82/41/28
f 83/43/29 60/44/18 84/45/30
f 60/44/18 79/8/7 84/45/30
f 51/46/8 67/47/31 64/48/32
f 56/49/17 68/50/33 67/47/31
f 55/51/16 69/52/34 68/50/33
f 54/53/15 70/54/35 69/52/34
f 53/55/14 65/5/5 70/54/35
f 51/46/8 72/29/22 43/31/9
f 59/25/3 41/3/3 57/2/2
f 45/15/3 44/1/1 41/3/3
f 58/4/4 78/39/27 65/5/5
f 44/7/1 71/56/36 79/8/7
f 52/20/3 41/3/3 50/11/6
f 59/25/3 58/10/4 41/3/3
f 45/15/3 41/3/3 43/13/9
f 52/20/3 51/12/8 41/3/3
f 72/29/22 77/57/37 46/30/10
f 46/30/10 77/57/37 76/32/23
f 47/33/11 76/32/23 75/34/24
f 75/34/24 74/37/25 49/36/13
f 74/37/25 71/56/36 44/7/1
f 58/4/4 63/40/21 81/38/26
f 63/40/21 62/42/20 82/41/28
f 62/42/20 61/58/19 83/43/29
f 83/43/29 61/58/19 60/44/18
f 60/44/18 57/9/2 79/8/7
f 51/46/8 56/49/17 67/47/31
f 56/49/17 55/51/16 68/50/33
f 55/51/16 54/53/15 69/52/34
f 54/53/15 53/55/14 70/54/35
f 53/55/14 50/6/6 65/5/5
f 51/46/8 64/48/32 72/29/22
f 1/59/38 4/60/39 3/61/40
f 4/60/39 5/62/41 3/61/40
f 2/63/42 6/64/43 4/65/39
f 8/66/44 1/67/38 7/68/45
f 5/62/41 8/66/44 7/68/45
f 1/69/38 5/70/41 7/71/45
f 9/72/38 12/73/39 11/74/40
f 12/73/39 13/75/41 11/74/40
f 10/76/42 14/77/43 12/78/39
f 16/79/44 9/80/38 15/81/45
f 13/75/41 16/79/44 15/81/45
f 9/82/38 13/83/41 15/84/45
f 27/85/46 20/86/47 21/87/48
f 25/88/49 18/89/50 19/90/51
f 23/91/46 22/92/47 17/93/48
f 26/94/52 19/90/51 20/86/47
f 24/95/53 17/93/48 18/89/50
f 32/96/54 39/97/55 33/98/56
f 30/99/57 37/100/55 31/101/56
f 34/102/57 35/103/58 29/104/59
f 31/101/56 38/105/60 32/106/54
f 29/107/59 36/108/61 30/99/57
f 30/109/57 19/110/51 18/111/50
f 27/112/46 38/113/60 26/114/52
f 40/115/61 22/116/47 28/117/52
f 24/118/53 35/119/58 23/120/46
f 19/121/51 32/122/54 20/123/47
f 35/119/58 28/124/52 23/120/46
f 37/125/55 24/118/53 25/126/49
f 32/127/54 21/128/48 20/129/47
f 33/130/56 27/131/46 21/132/48
f 29/133/59 18/134/50 17/135/48
f 38/113/60 25/126/49 26/114/52
f 22/136/47 29/137/59 17/138/48
f 1/59/38 2/139/42 4/60/39
f 4/60/39 6/140/43 5/62/41
f 2/63/42 8/141/44 6/64/43
f 8/66/44 2/142/42 1/67/38
f 5/62/41 6/140/43 8/66/44
f 1/69/38 3/143/40 5/70/41
f 9/72/38 10/144/42 12/73/39
f 12/73/39 14/145/43 13/75/41
f 10/76/42 16/146/44 14/77/43
f 16/79/44 10/147/42 9/80/38
f 13/75/41 14/145/43 16/79/44
f 9/82/38 11/148/40 13/83/41
f 27/85/46 26/94/52 20/86/47
f 25/88/49 24/95/53 18/89/50
f 23/91/46 28/149/52 22/92/47
f 26/94/52 25/88/49 19/90/51
f 24/95/53 23/91/46 17/93/48
f 32/96/54 38/150/60 39/97/55
f 30/99/57 36/108/61 37/100/55
f 34/102/57 40/151/61 35/103/58
f 31/101/56 37/100/55 38/105/60
f 29/107/59 35/152/58 36/108/61
f 30/109/57 31/153/56 19/110/51
f 27/112/46 39/154/55 38/113/60
f 40/115/61 34/155/57 22/116/47
f 24/118/53 36/156/61 35/119/58
f 19/121/51 31/157/56 32/122/54
f 35/119/58 40/158/61 28/124/52
f 37/125/55 36/156/61 24/118/53
f 32/127/54 33/159/56 21/128/48
f 33/130/56 39/160/55 27/131/46
f 29/133/59 30/161/57 18/134/50
f 38/113/60 37/125/55 25/126/49
f 22/136/47 34/162/57 29/137/59
f 65/163/5 78/164/27 42/165/62
f 79/166/7 71/167/36 42/165/62
f 72/168/22 64/169/32 42/165/62
f 64/169/32 67/170/31 66/171/62
f 67/170/31 68/172/33 66/171/62
f 68/172/33 69/173/34 66/171/62
f 69/173/34 70/174/35 66/171/62
f 70/174/35 65/163/5 66/171/62
f 71/167/36 74/175/25 73/176/62
f 74/175/25 75/177/24 73/176/62
f 75/177/24 76/178/23 73/176/62
f 76/178/23 77/179/37 73/176/62
f 77/179/37 72/168/22 73/176/62
f 78/164/27 81/180/26 80/181/62
f 81/180/26 82/182/28 80/181/62
f 82/182/28 83/183/29 80/181/62
f 83/183/29 84/184/30 80/181/62
f 84/184/30 79/166/7 80/181/62
f 80/181/62 42/165/62 78/164/27
f 66/171/62 65/163/5 42/165/62
f 73/176/62 42/165/62 71/167/36
f 80/181/62 79/166/7 42/165/62
f 66/171/62 42/165/62 64/169/32
f 73/176/62 72/168/22 42/165/62
