<?xml version="1.0" standalone="no"?>
<!DOCTYPE svg PUBLIC "-//W3C//DTD SVG 1.1//EN"
	"http://www.w3.org/Graphics/SVG/1.1/DTD/svg11.dtd">
<svg xmlns="http://www.w3.org/2000/svg" version="1.1"
	xmlns:xlink="http://www.w3.org/1999/xlink"
	color="black"
	width="816.00px" height="1056.00px">
<style type="text/css">
.fill {fill: currentColor}
.stroke {stroke: currentColor; fill: none}
text{white-space: pre}
</style>
<title>transposed.abc page 1</title>
<!-- Creator: abcm2ps-8.14.11 -->
<!-- CreationDate: Feb  3, 2022 15:17 -->
<!-- CommandLine: -k 128 -v -A -O transposed_page_.svg transposed.abc -->
<g stroke-width="0.70" transform="scale(1.013)">
<!-- subtitle: some notes; hardly what you'd call a tune! -->
</g>
<g stroke-width="0.70" transform="scale(1.013)" style="font:16.00px serif">
<text x="407.14" y="86.68" text-anchor="middle">some notes; hardly what you&apos;d call a tune!</text>
</g>
<g stroke-width="0.70" transform="scale(0.709)" style="font:16.00px serif">
<defs>
<ellipse id="hd" rx="4.1" ry="2.9"
	transform="rotate(-20)" class="fill"/>
</defs>
<use x="202.77" y="149.68" xlink:href="#hd"/>
<path d="M206.27 149.68v-21.00" class="stroke"/>
</g>
<g stroke-width="0.70" transform="scale(1.013)" style="font:bold 15.00px serif">
<text x="149.64" y="106.88">= 88</text>
<defs>
<g id="rdots" class="fill">
	<circle cx="0" cy="-9" r="1.2"/>
	<circle cx="0" cy="-15" r="1.2"/>
</g>
</defs>
<use x="140.34" y="144.88" xlink:href="#rdots"/>
<path class="stroke" stroke-width="1"
	d="M136.34 144.88v-24.00"/>
<path class="stroke" stroke-width="3"
	d="M131.84 144.88v-24.00"/>
<abc type="B" row="14" col="0" x="126.34" y="116.88" width="25.00" height="32"/>
<path class="stroke" stroke-width="1"
	d="M276.64 144.88v-24.00"/>
<abc type="B" row="14" col="7" x="266.64" y="116.88" width="20.00" height="32"/>
<path class="stroke" stroke-width="1"
	d="M475.34 144.88v-24.00"/>
<abc type="B" row="14" col="16" x="465.34" y="116.88" width="20.00" height="32"/>
<path class="stroke" stroke-width="1"
	d="M738.94 144.88v-24.00"/>
<abc type="B" row="14" col="27" x="728.94" y="116.88" width="20.00" height="32"/>
<path d="m66.34 144.88
	h672.60
	M66.34 138.88
	h672.60
	M66.34 132.88
	h672.60
	M66.34 126.88
	h672.60
	M66.34 120.88
	h672.60
	" class="stroke"/>
<defs>
<path id="utclef" class="fill" d="m-50 -90
	c-72 -41 -72 -158 52 -188
	150 -10 220 188 90 256
	-114 52 -275 0 -293 -136
	-15 -181 93 -229 220 -334
	88 -87 79 -133 62 -210
	-51 33 -94 105 -89 186
	17 267 36 374 49 574
	6 96 -19 134 -77 135
	-80 1 -126 -93 -61 -133
	85 -41 133 101 31 105
	23 17 92 37 90 -92
	-10 -223 -39 -342 -50 -617
	0 -90 0 -162 96 -232
	56 72 63 230 22 289
	-74 106 -257 168 -255 316
	9 153 148 185 252 133
	86 -65 29 -192 -80 -176
	-71 12 -105 67 -59 124"/>
<use id="tclef" transform="translate(0,6) scale(0.045)"
	xlink:href="#utclef"/>
</defs>
<use x="78.34" y="138.88" xlink:href="#tclef"/>
<abc type="c" row="14" col="0" x="64.34" y="108.88" width="28.00" height="46"/>
<defs>
<path id="usharp" class="fill" d="
	m136 -702
	v890
	h32
	v-890
	m128 840
	h32
	v-888
	h-32
	m-232 286
	v116
	l338 -96
	v-116
	m-338 442
	v116
	l338 -98
	v-114"/>
<use id="sh0" transform="translate(-4,5) scale(0.018)"
	xlink:href="#usharp"/>
</defs>
<use x="93.34" y="120.88" xlink:href="#sh0"/>
<use x="98.84" y="129.88" xlink:href="#sh0"/>
<abc type="K" row="14" col="0" x="88.34" y="112.88" width="22.00" height="36"/>
<defs>
<path id="csig" class="fill" d="
	m6 -5.3
	c0.9 0 2.3 0.7 2.4 2.2
	-1.2 -2 -3.6 0.1 -1.6 1.7
	2 1 3.8 -3.5 -0.8 -4.7
	-2 -0.4 -6.4 1.3 -5.8 7
	0.4 6.4 7.9 6.8 9.1 0.7
	-2.3 5.6 -6.7 5.1 -6.8 0
	-0.5 -4.4 0.7 -7.5 3.5 -6.9"/>
</defs>
<use x="109.84" y="132.88" xlink:href="#csig"/>
<abc type="M" row="14" col="0" x="106.34" y="116.88" width="24.00" height="32"/>
<defs>
<path id="Hd" class="fill" d="m3 -1.6
	c-1 -1.8 -7 1.4 -6 3.2
	1 1.8 7 -1.4 6 -3.2
	m0.5 -0.3
	c2 3.8 -5 7.6 -7 3.8
	-2 -3.8 5 -7.6 7 -3.8"/>
</defs>
<use x="158.64" y="147.88" xlink:href="#Hd"/>
<path d="M162.14 147.88v-21.00" class="stroke"/>
<abc type="N" row="14" col="3" x="151.64" y="122.88" width="14.00" height="31"/>
<use x="228.04" y="144.88" xlink:href="#Hd"/>
<path d="M231.54 144.88v-21.00" class="stroke"/>
<abc type="N" row="14" col="5" x="221.04" y="119.88" width="14.00" height="31"/>
<use x="293.94" y="141.88" xlink:href="#hd"/>
<path d="M297.44 141.88v-21.00" class="stroke"/>
<abc type="N" row="14" col="8" x="287.44" y="116.88" width="13.00" height="31"/>
<use x="342.94" y="138.88" xlink:href="#hd"/>
<path d="M346.44 138.88v-21.00" class="stroke"/>
<abc type="N" row="14" col="10" x="336.44" y="113.88" width="13.00" height="31"/>
<use x="392.04" y="135.88" xlink:href="#hd"/>
<path d="M395.54 135.88v-21.00" class="stroke"/>
<abc type="N" row="14" col="12" x="385.54" y="110.88" width="13.00" height="31"/>
<use x="441.04" y="132.88" xlink:href="#hd"/>
<path d="M444.54 132.88v-21.00" class="stroke"/>
<abc type="N" row="14" col="14" x="434.54" y="107.88" width="13.00" height="31"/>
<abc type="b" row="14" col="17" x="486.24" y="147.88" width="6.00" height="6"/>
<path class="fill"
	d="M488.84 150.18l94.30 -7.60v-3.20l-94.30 7.60"/>
<use x="492.74" y="129.88" xlink:href="#hd"/>
<path d="M489.24 129.88v19.30" class="stroke"/>
<abc type="N" row="14" col="17" x="486.24" y="123.88" width="13.00" height="30"/>
<use x="523.94" y="126.88" xlink:href="#hd"/>
<path d="M520.44 126.88v19.80" class="stroke"/>
<abc type="N" row="14" col="18" x="517.44" y="120.88" width="13.00" height="31"/>
<use x="555.14" y="123.88" xlink:href="#hd"/>
<path d="M551.64 123.88v20.20" class="stroke"/>
<abc type="N" row="14" col="19" x="548.64" y="117.88" width="13.00" height="31"/>
<use x="586.34" y="120.88" xlink:href="#hd"/>
<path d="M582.84 120.88v20.70" class="stroke"/>
<abc type="N" row="14" col="20" x="579.84" y="114.88" width="13.00" height="32"/>
<abc type="e" row="14" col="20" x="579.84" y="140.88" width="6.00" height="6"/>
<abc type="b" row="14" col="22" x="614.54" y="134.88" width="6.00" height="6"/>
<path class="fill"
	d="M617.24 135.88l94.30 0.00v-3.20l-94.30 -0.00"/>
<use x="621.04" y="117.88" xlink:href="#hd"/>
<path d="M617.54 117.88v17.00" class="stroke"/>
<abc type="N" row="14" col="22" x="614.54" y="111.88" width="13.00" height="29"/>
<defs>
<path id="hl" class="stroke" d="m-6 0h12"/>
</defs>
<use x="652.24" y="114.88" xlink:href="#hl"/>
<use x="652.24" y="114.88" xlink:href="#hd"/>
<path d="M648.74 114.88v20.00" class="stroke"/>
<abc type="N" row="14" col="23" x="645.74" y="108.88" width="13.00" height="32"/>
<use x="683.44" y="114.88" xlink:href="#hl"/>
<use x="683.44" y="111.88" xlink:href="#hd"/>
<path d="M679.94 111.88v23.00" class="stroke"/>
<abc type="N" row="14" col="24" x="675.44" y="105.88" width="14.50" height="35"/>
<use x="714.74" y="114.88" xlink:href="#hl"/>
<use x="714.74" y="108.88" xlink:href="#hl"/>
<use x="714.74" y="108.88" xlink:href="#hd"/>
<path d="M711.24 108.88v26.00" class="stroke"/>
<abc type="N" row="14" col="25" x="706.74" y="102.88" width="14.50" height="38"/>
<abc type="e" row="14" col="25" x="706.74" y="134.88" width="6.00" height="6"/>
</g>
<g stroke-width="0.70" transform="scale(1.013)" style="font:bold 15.00px serif">
<path class="stroke" stroke-width="3"
	d="M289.04 221.88v-24.00"/>
<path class="stroke" stroke-width="1"
	d="M284.54 221.88v-24.00"/>
<use x="280.54" y="221.88" xlink:href="#rdots"/>
<abc type="B" row="15" col="21" x="272.54" y="193.88" width="25.00" height="32"/>
<path d="m66.34 221.88
	h224.20
	M66.34 215.88
	h224.20
	M66.34 209.88
	h224.20
	M66.34 203.88
	h224.20
	M66.34 197.88
	h224.20
	" class="stroke"/>
<use x="78.34" y="215.88" xlink:href="#tclef"/>
<abc type="c" row="15" col="0" x="64.34" y="185.88" width="28.00" height="46"/>
<use x="93.34" y="197.88" xlink:href="#sh0"/>
<use x="98.84" y="206.88" xlink:href="#sh0"/>
<abc type="K" row="15" col="0" x="88.34" y="189.88" width="22.00" height="36"/>
<abc type="b" row="15" col="0" x="106.34" y="208.88" width="6.00" height="6"/>
<path class="fill"
	d="M113.04 210.08l72.10 0.00v-3.20l-72.10 -0.00"/>
<path class="fill"
	d="M113.34 205.08l71.50 0.00v-3.20l-71.50 -0.00"/>
<use x="116.84" y="191.88" xlink:href="#hl"/>
<use x="116.84" y="185.88" xlink:href="#hl"/>
<use x="116.84" y="182.88" xlink:href="#hd"/>
<path d="M113.34 182.88v26.20" class="stroke"/>
<abc type="N" row="15" col="0" x="106.34" y="176.88" width="17.00" height="38"/>
<use x="140.64" y="191.88" xlink:href="#hl"/>
<use x="140.64" y="185.88" xlink:href="#hl"/>
<use x="140.64" y="179.88" xlink:href="#hl"/>
<use x="140.64" y="179.88" xlink:href="#hd"/>
<path d="M137.14 179.88v29.20" class="stroke"/>
<abc type="N" row="15" col="4" x="132.64" y="173.88" width="14.50" height="41"/>
<use x="164.44" y="191.88" xlink:href="#hl"/>
<use x="164.44" y="185.88" xlink:href="#hl"/>
<use x="164.44" y="179.88" xlink:href="#hl"/>
<use x="164.44" y="176.88" xlink:href="#hd"/>
<path d="M160.94 176.88v32.20" class="stroke"/>
<abc type="N" row="15" col="8" x="156.44" y="170.88" width="14.50" height="44"/>
<use x="188.34" y="191.88" xlink:href="#hl"/>
<use x="188.34" y="185.88" xlink:href="#hl"/>
<use x="188.34" y="179.88" xlink:href="#hl"/>
<use x="188.34" y="173.88" xlink:href="#hl"/>
<use x="188.34" y="173.88" xlink:href="#hd"/>
<path d="M184.84 173.88v35.20" class="stroke"/>
<abc type="N" row="15" col="12" x="180.34" y="167.88" width="14.50" height="47"/>
<abc type="e" row="15" col="12" x="180.34" y="208.88" width="6.00" height="6"/>
<defs>
<path id="ubclef" class="fill" d="m-200 -87
	c124 -35 222 -78 254 -236
	43 -228 -167 -246 -192 -103
	59 -80 157 22 92 78
	-62 47 -115 -22 -106 -88
	21 -141 270 -136 274 52
	-1 175 -106 264 -322 297
	m357 -250
	c0 -36 51 -34 51 0
	0 37 -51 36 -51 0
	m-2 -129
	c0 -36 51 -34 51 0
	0 38 -51 37 -51 0"/>
<use id="sbclef" transform="translate(0,14.5) scale(0.037)"
	xlink:href="#ubclef"/>
</defs>
<use x="207.34" y="203.88" xlink:href="#sbclef"/>
<abc type="c" row="15" col="12" x="193.34" y="193.88" width="26.00" height="31"/>
<use x="222.34" y="209.88" xlink:href="#Hd"/>
<circle class="fill" cx="231.04" cy="206.88" r="1.2"/>
<path d="M218.84 209.88v21.00" class="stroke"/>
<abc type="N" row="15" col="17" x="215.34" y="203.88" width="22.00" height="31"/>
</g>
</svg>
