<?xml version="1.0" encoding="UTF-8" standalone="no"?>
<svg
   width="500"
   height="500"
   version="1.0"
   viewBox="0 0 500 500"
   id="svg840"
   sodipodi:docname="jq.svg"
   inkscape:version="1.1.2 (b8e25be8, 2022-02-05)"
   xmlns:inkscape="http://www.inkscape.org/namespaces/inkscape"
   xmlns:sodipodi="http://sodipodi.sourceforge.net/DTD/sodipodi-0.dtd"
   xmlns="http://www.w3.org/2000/svg"
   xmlns:svg="http://www.w3.org/2000/svg">
  <defs
     id="defs844" />
  <sodipodi:namedview
     id="namedview842"
     pagecolor="#ffffff"
     bordercolor="#666666"
     borderopacity="1.0"
     inkscape:pageshadow="2"
     inkscape:pageopacity="0.0"
     inkscape:pagecheckerboard="0"
     showgrid="false"
     inkscape:zoom="0.72700253"
     inkscape:cx="234.52463"
     inkscape:cy="286.79405"
     inkscape:window-width="1920"
     inkscape:window-height="1027"
     inkscape:window-x="1728"
     inkscape:window-y="25"
     inkscape:window-maximized="0"
     inkscape:current-layer="svg840" />
  <g
     id="g920"
     transform="translate(48.142886,130.67355)">
    <circle
       cx="22"
       cy="157"
       r="19"
       id="circle826"
       style="fill-opacity:1;stroke-width:0.1" />
    <path
       d="m 133,31.2 c -3,4.1 -69.8,149.2 -71,152.8 -1.2,3.6 2.5,6.6 10,10.1 7.7,3.6 10.2,3.4 12.4,0.3 2.2,-3.1 70.1,-147.7 71.6,-152.5 1.5,-4.7 -2,-7.3 -8.4,-10.4 C 141.2,28.4 136,27.1 133,31.2 Z"
       id="path828"
       style="fill-opacity:1;stroke-width:0.1" />
    <g
       id="g836"
       transform="scale(0.1)">
      <circle
         cx="2410"
         cy="200"
         r="190"
         id="circle832" />
      <path
         d="m 1830,655 c 0,129 0,130 70,130 h 360 v 423 c 0,246 -5,474 -10,506 -19,112 -88,176 -190,176 -59,0 -120,-27 -147,-66 -51,-73 -65,-84 -99,-84 -31,0 -40,8 -104,93 -84,111 -86,129 -32,189 227,252 692,187 836,-118 53,-112 56,-153 56,-795 V 595 c 0,-64 -30,-100 -100,-100 h -490 c -149,0 -150,0 -150,160 z m 1037,578 c 30,302 250,499 438,527 144,19 244,0 375,-90 v 410 c 0,81 0,100 150,100 136,0 150,-20 150,-150 V 610 c 0,-99 -19,-100 -150,-100 -131,0 -139,15 -139,82 -103,-89 -351,-149 -523,-49 -172,100 -342,278 -301,690 z m 803,-107 c 0,292 -105,356 -237,356 -178,0 -249,-147 -273,-296 -27,-168 25,-420 262,-420 171,0 248,89 248,360 z"
         id="path834" />
    </g>
  </g>
</svg>
